<svg width="232" height="464" viewBox="0 0 232 464" fill="none" xmlns="http://www.w3.org/2000/svg">
<path d="M200.607 464H31.3272C27.2561 464 23.3009 463.174 19.5774 461.54C15.9863 459.957 12.7592 457.704 9.979 454.814C7.21532 451.941 5.03086 448.569 3.50836 444.836C1.9362 440.965 1.14185 436.854 1.14185 432.622V31.3783C1.14185 27.1464 1.9362 23.0349 3.50836 19.1642C5.03086 15.4311 7.19877 12.0765 9.979 9.18642C12.7427 6.31351 15.9863 4.04271 19.5774 2.46003C23.3009 0.825745 27.2561 0 31.3272 0H200.59C204.661 0 208.616 0.825745 212.34 2.46003C215.931 4.04271 219.158 6.29631 221.938 9.18642C224.702 12.0593 226.886 15.4311 228.409 19.1642C229.981 23.0349 230.775 27.1464 230.775 31.3783V432.622C230.775 436.854 229.981 440.965 228.409 444.836C226.886 448.569 224.718 451.923 221.938 454.814C219.174 457.687 215.947 459.957 212.34 461.54C208.633 463.174 204.678 464 200.607 464ZM31.3272 3.35459C24.1284 3.35459 17.3598 6.2619 12.2627 11.5604C7.16566 16.859 4.36889 23.895 4.36889 31.3783V432.622C4.36889 440.105 7.16566 447.141 12.2627 452.44C17.3598 457.738 24.1284 460.645 31.3272 460.645H200.59C207.789 460.645 214.557 457.738 219.654 452.44C224.751 447.141 227.548 440.105 227.548 432.622V31.3783C227.548 23.895 224.751 16.859 219.654 11.5604C214.557 6.2619 207.789 3.35459 200.59 3.35459H31.3272Z" fill="#1D1D1B"/>
<path d="M151.112 21.4662H83.272C74.1433 21.4662 66.7397 12.5925 66.7397 1.65123H167.644C167.644 12.5925 160.24 21.4662 151.112 21.4662Z" fill="#1D1D1B"/>
<path d="M3.24359 100.982H2.5982C1.15844 100.982 0 99.7776 0 98.2809V84.0024C0 82.5057 1.15844 81.3015 2.5982 81.3015H3.24359V100.982Z" fill="#1D1D1B"/>
<path d="M228.756 93.5329H229.402C230.842 93.5329 232 94.7371 232 96.2337V114.589C232 116.086 230.842 117.29 229.402 117.29H228.756V93.5329Z" fill="#1D1D1B"/>
<path d="M3.24359 132.893H2.5982C1.15844 132.893 0 131.689 0 130.193V115.914C0 114.417 1.15844 113.213 2.5982 113.213H3.24359V132.893Z" fill="#1D1D1B"/>
<path d="M125.888 13.2463H90.7876C89.8939 13.2463 89.1658 12.4894 89.1658 11.5604C89.1658 10.6315 89.8939 9.87454 90.7876 9.87454H125.888C126.782 9.87454 127.51 10.6315 127.51 11.5604C127.51 12.4894 126.782 13.2463 125.888 13.2463Z" fill="black"/>
<path d="M136.396 13.1775C137.246 13.1775 137.936 12.4612 137.936 11.5776C137.936 10.6941 137.246 9.97777 136.396 9.97777C135.546 9.97777 134.857 10.6941 134.857 11.5776C134.857 12.4612 135.546 13.1775 136.396 13.1775Z" fill="black"/>
<path d="M141.212 13.1775C142.062 13.1775 142.751 12.4612 142.751 11.5776C142.751 10.6941 142.062 9.97777 141.212 9.97777C140.362 9.97777 139.673 10.6941 139.673 11.5776C139.673 12.4612 140.362 13.1775 141.212 13.1775Z" fill="black"/>
<path fill-rule="evenodd" clip-rule="evenodd" d="M180.4 11.021H181.1C181.487 11.021 181.8 11.3786 181.8 11.8196V16.6114C181.8 17.0524 181.487 17.41 181.1 17.41H180.4C180.013 17.41 179.7 17.0524 179.7 16.6114V11.8196C179.7 11.3786 180.013 11.021 180.4 11.021Z" fill="#D1D1D6"/>
<path fill-rule="evenodd" clip-rule="evenodd" d="M177.25 12.6182H177.95C178.337 12.6182 178.65 12.9758 178.65 13.4169V16.6114C178.65 17.0524 178.337 17.41 177.95 17.41H177.25C176.863 17.41 176.55 17.0524 176.55 16.6114V13.4169C176.55 12.9758 176.863 12.6182 177.25 12.6182Z" fill="#D1D1D6"/>
<path fill-rule="evenodd" clip-rule="evenodd" d="M174.1 13.8162H174.8C175.187 13.8162 175.5 14.1737 175.5 14.6148V16.6114C175.5 17.0524 175.187 17.41 174.8 17.41H174.1C173.713 17.41 173.4 17.0524 173.4 16.6114V14.6148C173.4 14.1737 173.713 13.8162 174.1 13.8162Z" fill="#D1D1D6"/>
<path d="M27.4372 12.6278C27.7616 12.6302 28.0812 12.6894 28.396 12.8054C28.7109 12.9214 28.995 13.1108 29.2483 13.3736C29.504 13.6364 29.7076 13.9915 29.8591 14.4389C30.013 14.884 30.0911 15.438 30.0935 16.1009C30.0935 16.7377 30.0296 17.3047 29.9017 17.8018C29.7739 18.2966 29.5904 18.7145 29.3513 19.0554C29.1146 19.3963 28.8269 19.6555 28.4884 19.8331C28.1498 20.0107 27.7687 20.0994 27.3449 20.0994C26.9117 20.0994 26.527 20.0142 26.1908 19.8438C25.8546 19.6733 25.5812 19.4377 25.3705 19.1371C25.1598 18.834 25.0284 18.486 24.9763 18.093H26.0594C26.1304 18.4055 26.2748 18.6589 26.4926 18.853C26.7128 19.0447 26.9969 19.1406 27.3449 19.1406C27.8776 19.1406 28.2931 18.9086 28.5914 18.4446C28.8896 17.9782 29.04 17.3272 29.0423 16.4915H28.9855C28.8624 16.6951 28.7085 16.8703 28.5239 17.017C28.3416 17.1638 28.1368 17.2775 27.9095 17.358C27.6823 17.4384 27.4396 17.4787 27.1816 17.4787C26.7625 17.4787 26.3814 17.3757 26.0381 17.1697C25.6948 16.9638 25.4214 16.6809 25.2178 16.321C25.0142 15.9612 24.9124 15.5504 24.9124 15.0888C24.9124 14.6295 25.0165 14.2128 25.2249 13.8388C25.4356 13.4647 25.7291 13.1688 26.1056 12.951C26.4843 12.7308 26.9282 12.6231 27.4372 12.6278ZM27.4408 13.5511C27.1638 13.5511 26.914 13.6198 26.6915 13.7571C26.4713 13.892 26.2973 14.0755 26.1695 14.3075C26.0416 14.5372 25.9777 14.7929 25.9777 15.0746C25.9777 15.3563 26.0393 15.612 26.1624 15.8416C26.2878 16.0689 26.4583 16.25 26.6737 16.3849C26.8915 16.5175 27.1401 16.5838 27.4195 16.5838C27.6278 16.5838 27.8219 16.5436 28.0019 16.4631C28.1818 16.3826 28.3392 16.2713 28.4742 16.1293C28.6091 15.9848 28.7145 15.8215 28.7902 15.6392C28.866 15.4569 28.9039 15.2652 28.9039 15.0639C28.9039 14.7964 28.8399 14.5478 28.7121 14.3182C28.5866 14.0885 28.4138 13.9039 28.1936 13.7642C27.9735 13.6222 27.7225 13.5511 27.4408 13.5511ZM32.0901 19.098C31.896 19.098 31.7291 19.0294 31.5894 18.892C31.4497 18.7524 31.3799 18.5843 31.3799 18.3878C31.3799 18.1937 31.4497 18.0279 31.5894 17.8906C31.7291 17.7509 31.896 17.6811 32.0901 17.6811C32.2842 17.6811 32.4511 17.7509 32.5908 17.8906C32.7305 18.0279 32.8003 18.1937 32.8003 18.3878C32.8003 18.518 32.7672 18.6375 32.7009 18.7464C32.637 18.853 32.5518 18.9382 32.4452 19.0021C32.3387 19.0661 32.2203 19.098 32.0901 19.098ZM32.0901 15.4545C31.896 15.4545 31.7291 15.3859 31.5894 15.2486C31.4497 15.1089 31.3799 14.9408 31.3799 14.7443C31.3799 14.5502 31.4497 14.3845 31.5894 14.2472C31.7291 14.1075 31.896 14.0376 32.0901 14.0376C32.2842 14.0376 32.4511 14.1075 32.5908 14.2472C32.7305 14.3845 32.8003 14.5502 32.8003 14.7443C32.8003 14.8745 32.7672 14.9941 32.7009 15.103C32.637 15.2095 32.5518 15.2947 32.4452 15.3587C32.3387 15.4226 32.2203 15.4545 32.0901 15.4545ZM34.0557 18.5795V17.6918L37.1984 12.7273H37.898V14.0341H37.4541L35.2062 17.5923V17.6491H39.5138V18.5795H34.0557ZM37.5038 20V18.3097L37.5109 17.9048V12.7273H38.5514V20H37.5038ZM43.4129 12.7273V20H42.3121V13.8281H42.2694L40.5294 14.9645V13.9134L42.344 12.7273H43.4129Z" fill="black"/>
<path fill-rule="evenodd" clip-rule="evenodd" d="M173.7 16.3573H174.4C174.787 16.3573 175.1 16.6771 175.1 17.0716V18.8573C175.1 19.2518 174.787 19.5716 174.4 19.5716H173.7C173.313 19.5716 173 19.2518 173 18.8573V17.0716C173 16.6771 173.313 16.3573 173.7 16.3573Z" fill="black"/>
<path fill-rule="evenodd" clip-rule="evenodd" d="M176.8 15.2859H177.5C177.887 15.2859 178.2 15.6057 178.2 16.0001V18.8573C178.2 19.2518 177.887 19.5716 177.5 19.5716H176.8C176.413 19.5716 176.1 19.2518 176.1 18.8573V16.0001C176.1 15.6057 176.413 15.2859 176.8 15.2859Z" fill="black"/>
<path fill-rule="evenodd" clip-rule="evenodd" d="M179.9 13.8573H180.6C180.987 13.8573 181.3 14.1771 181.3 14.5716V18.8573C181.3 19.2518 180.987 19.5716 180.6 19.5716H179.9C179.513 19.5716 179.2 19.2518 179.2 18.8573V14.5716C179.2 14.1771 179.513 13.8573 179.9 13.8573Z" fill="black"/>
<path fill-rule="evenodd" clip-rule="evenodd" d="M183 12.4287H183.7C184.087 12.4287 184.4 12.7485 184.4 13.143V18.8573C184.4 19.2518 184.087 19.5716 183.7 19.5716H183C182.613 19.5716 182.3 19.2518 182.3 18.8573V13.143C182.3 12.7485 182.613 12.4287 183 12.4287Z" fill="#EBEBF5" fill-opacity="0.3"/>
<path d="M189.991 17.3854C190.431 17.3854 190.858 17.5054 191.234 17.7343L191.387 17.827C191.503 17.8973 191.523 18.0619 191.428 18.1601L190.126 19.5093C190.046 19.5921 189.916 19.5921 189.836 19.5093L188.542 18.1688C188.448 18.071 188.468 17.9073 188.582 17.8365L188.733 17.7433C189.113 17.5086 189.546 17.3854 189.991 17.3854Z" fill="black"/>
<path d="M189.991 14.907C191.085 14.907 192.135 15.284 192.99 15.9821L193.111 16.0807C193.208 16.1594 193.216 16.3076 193.129 16.3975L192.352 17.2029C192.28 17.2774 192.166 17.286 192.085 17.223L191.99 17.1499C191.412 16.7037 190.716 16.4644 189.991 16.4644C189.262 16.4644 188.561 16.7067 187.982 17.158L187.887 17.2318C187.805 17.2953 187.691 17.2869 187.619 17.2122L186.842 16.407C186.755 16.3173 186.764 16.1695 186.86 16.0907L186.98 15.992C187.837 15.2877 188.892 14.907 189.991 14.907Z" fill="black"/>
<path d="M189.991 12.4286C191.727 12.4286 193.387 13.0647 194.701 14.2307L194.813 14.3302C194.903 14.4106 194.909 14.554 194.824 14.6414L194.049 15.4443C193.974 15.522 193.854 15.5275 193.773 15.4568L193.677 15.3735C192.643 14.4748 191.346 13.986 189.991 13.986C188.632 13.986 187.331 14.4782 186.295 15.3824L186.199 15.4662C186.118 15.5372 185.997 15.5319 185.922 15.454L185.147 14.6513C185.063 14.564 185.068 14.4208 185.159 14.3403L185.27 14.2408C186.586 13.0685 188.25 12.4286 189.991 12.4286Z" fill="black"/>
<rect x="198.4" y="13" width="14" height="6" rx="1" fill="black"/>
</svg>
