<svg width="278" height="172" viewBox="0 0 278 172" fill="none" xmlns="http://www.w3.org/2000/svg">
<rect y="33.8115" width="262" height="139" rx="20" transform="rotate(-7.4148 0 33.8115)" fill="white"/>
<path d="M28.6795 59.7715L23.4853 60.4475L22.9227 63.0983L20.7986 63.3747L23.6263 50.373L25.9825 50.0664L32.0437 61.9112L29.9018 62.19L28.6795 59.7715ZM27.8923 58.1858L25.125 52.683L23.8404 58.7132L27.8923 58.1858ZM32.6568 56.8216C32.5252 55.8101 32.6121 54.8972 32.9176 54.083C33.2334 53.2553 33.7272 52.586 34.3988 52.0751C35.0705 51.5641 35.8764 51.2475 36.8165 51.1251C38.0064 50.9703 39.0253 51.1281 39.8731 51.5986C40.7313 52.0557 41.3654 52.79 41.7753 53.8016L39.5798 54.0873C39.3379 53.6226 39.0027 53.279 38.5744 53.0564C38.1461 52.8338 37.6345 52.7612 37.0395 52.8387C36.2065 52.9471 35.5788 53.3313 35.1565 53.9913C34.7445 54.6379 34.6074 55.4907 34.7452 56.5498C34.883 57.6089 35.2346 58.4041 35.7999 58.9356C36.3771 59.4656 37.0822 59.6763 37.9152 59.5679C39.0933 59.4146 39.8053 58.7955 40.0514 57.7107L42.2469 57.425C42.0914 58.4617 41.6597 59.3287 40.9517 60.0259C40.2422 60.7112 39.3044 61.1297 38.1382 61.2815C37.1981 61.4038 36.3381 61.304 35.558 60.982C34.7764 60.648 34.1277 60.1274 33.6121 59.42C33.1069 58.6992 32.7885 57.833 32.6568 56.8216ZM45.989 51.7829L46.6975 57.227C46.7455 57.5959 46.8637 57.8528 47.0519 57.9977C47.2506 58.1292 47.5581 58.1678 47.9746 58.1136L49.2241 57.951L49.4448 59.6467L47.8383 59.8557C46.922 59.975 46.1921 59.8522 45.6484 59.4873C45.1048 59.1224 44.7703 58.458 44.6448 57.4941L43.9363 52.05L42.7761 52.201L42.5601 50.541L43.7203 50.39L43.4021 47.9446L45.4548 47.6775L45.773 50.1229L48.1648 49.8116L48.3809 51.4716L45.989 51.7829ZM50.906 48.1298C50.5371 48.1778 50.2114 48.0931 49.929 47.8758C49.6466 47.6584 49.4814 47.3653 49.4334 46.9964C49.3854 46.6275 49.4701 46.3018 49.6874 46.0194C49.9048 45.737 50.1979 45.5718 50.5668 45.5238C50.9238 45.4773 51.2435 45.5628 51.5259 45.7801C51.8083 45.9975 51.9736 46.2906 52.0216 46.6595C52.0696 47.0284 51.9849 47.3541 51.7675 47.6365C51.5501 47.9189 51.263 48.0833 50.906 48.1298ZM52.0751 49.3027L53.3551 59.1378L51.3202 59.4026L50.0403 49.5675L52.0751 49.3027ZM60.3135 58.3956C59.3854 58.5164 58.5193 58.4173 57.7155 58.0984C56.91 57.7676 56.2436 57.2492 55.7161 56.5434C55.187 55.8257 54.8567 54.9611 54.7251 53.9496C54.595 52.95 54.6997 52.0349 55.0394 51.2041C55.379 50.3733 55.9025 49.7001 56.6099 49.1845C57.3173 48.6689 58.141 48.35 59.081 48.2276C60.0211 48.1053 60.899 48.2028 61.7148 48.5202C62.5306 48.8375 63.209 49.3543 63.7499 50.0705C64.2909 50.7867 64.6264 51.6445 64.7565 52.6441C64.8865 53.6437 64.7758 54.5596 64.4243 55.392C64.0728 56.2243 63.5322 56.9057 62.8026 57.4363C62.0833 57.9535 61.2536 58.2732 60.3135 58.3956ZM60.0836 56.6285C60.6072 56.5603 61.0788 56.3719 61.4985 56.0632C61.93 55.7529 62.2561 55.3293 62.4766 54.7923C62.6972 54.2553 62.761 53.6299 62.6681 52.9159C62.5752 52.2019 62.3601 51.6188 62.0229 51.1665C61.6842 50.7024 61.2725 50.3748 60.7878 50.1837C60.3031 49.9927 59.7989 49.9312 59.2753 49.9994C58.7517 50.0675 58.2801 50.2559 57.8604 50.5647C57.4527 50.8719 57.1504 51.2924 56.9537 51.8262C56.7554 52.3482 56.7027 52.9662 56.7956 53.6801C56.9334 54.7392 57.308 55.5254 57.9194 56.0388C58.5411 56.5388 59.2625 56.7353 60.0836 56.6285ZM66.0897 52.4706C65.9581 51.4591 66.045 50.5463 66.3505 49.7321C66.6663 48.9044 67.1601 48.2351 67.8318 47.7241C68.5034 47.2132 69.3093 46.8965 70.2494 46.7742C71.4394 46.6193 72.4582 46.7771 73.3061 47.2477C74.1642 47.7047 74.7983 48.439 75.2083 49.4506L73.0128 49.7363C72.7708 49.2717 72.4356 48.928 72.0073 48.7054C71.579 48.4829 71.0674 48.4103 70.4724 48.4877C69.6394 48.5961 69.0117 48.9803 68.5894 49.6404C68.1774 50.2869 68.0403 51.1398 68.1781 52.1988C68.316 53.2579 68.6675 54.0532 69.2328 54.5847C69.8101 55.1146 70.5152 55.3254 71.3481 55.217C72.5262 55.0637 73.2383 54.4446 73.4843 53.3598L75.6798 53.074C75.5243 54.1108 75.0926 54.9777 74.3846 55.6749C73.6751 56.3602 72.7373 56.7788 71.5711 56.9305C70.6311 57.0529 69.771 56.953 68.9909 56.631C68.2093 56.2971 67.5607 55.7764 67.0451 55.069C66.5398 54.3482 66.2214 53.4821 66.0897 52.4706ZM83.1689 42.6423L84.7834 55.0477L82.7485 55.3125L81.1341 42.9071L83.1689 42.6423ZM88.765 46.216L89.4735 51.6601C89.5215 52.029 89.6397 52.2859 89.8279 52.4308C90.0266 52.5623 90.3341 52.6009 90.7506 52.5467L92.0001 52.3841L92.2208 54.0798L90.6143 54.2889C89.698 54.4081 88.9681 54.2853 88.4244 53.9204C87.8808 53.5555 87.5463 52.8911 87.4208 51.9272L86.7123 46.4832L85.5521 46.6341L85.3361 44.9741L86.4963 44.8232L86.1781 42.3778L88.2308 42.1106L88.549 44.556L90.9408 44.2447L91.1569 45.9047L88.765 46.216ZM102.439 47.5042C102.487 47.873 102.506 48.2093 102.498 48.513L94.9829 49.491C95.1446 50.2686 95.5183 50.8614 96.1038 51.2692C96.6893 51.677 97.3629 51.8314 98.1244 51.7323C99.2192 51.5898 99.9331 51.031 100.266 50.0559L102.461 49.7702C102.282 50.7133 101.837 51.5275 101.128 52.2128C100.428 52.8846 99.5017 53.2956 98.3474 53.4459C97.4074 53.5682 96.5354 53.4699 95.7315 53.151C94.938 52.8186 94.2775 52.2995 93.75 51.5937C93.2328 50.8744 92.9084 50.009 92.7768 48.9976C92.6452 47.9861 92.7321 47.0732 93.0376 46.259C93.3534 45.4313 93.8531 44.7612 94.5367 44.2487C95.2322 43.7347 96.0618 43.4149 97.0257 43.2895C97.9539 43.1687 98.8072 43.2634 99.5858 43.5735C100.364 43.8836 101.004 44.3812 101.504 45.0664C102.004 45.7396 102.315 46.5522 102.439 47.5042ZM100.231 47.138C100.122 46.3899 99.7758 45.8238 99.1933 45.4397C98.6109 45.0557 97.9329 44.914 97.1595 45.0147C96.4574 45.106 95.8859 45.4103 95.4449 45.9276C95.0024 46.4329 94.7832 47.0725 94.7871 47.8465L100.231 47.138ZM115.717 40.857C116.491 40.7563 117.202 40.8271 117.851 41.0694C118.511 41.3102 119.055 41.7235 119.482 42.3092C119.921 42.8935 120.199 43.6318 120.315 44.5243L121.07 50.3254L119.053 50.5878L118.338 45.0902C118.223 44.2096 117.915 43.566 117.415 43.1592C116.913 42.7405 116.281 42.5807 115.519 42.6798C114.757 42.7789 114.182 43.0959 113.791 43.6307C113.411 44.1521 113.279 44.8531 113.393 45.7337L114.109 51.2313L112.092 51.4938L111.376 45.9961C111.262 45.1156 110.954 44.4719 110.453 44.0651C109.951 43.6464 109.319 43.4866 108.558 43.5857C107.796 43.6849 107.22 44.0018 106.83 44.5367C106.45 45.058 106.317 45.759 106.432 46.6396L107.148 52.1372L105.113 52.4021L103.833 42.567L105.868 42.3022L106.014 43.4267C106.294 42.9787 106.676 42.6084 107.158 42.3157C107.64 42.0231 108.173 41.8388 108.756 41.7629C109.542 41.6607 110.265 41.7359 110.927 41.9886C111.59 42.2412 112.128 42.6612 112.544 43.2485C112.764 42.6148 113.167 42.0844 113.752 41.6572C114.337 41.2182 114.992 40.9514 115.717 40.857ZM127.25 49.6844C126.477 49.7851 125.763 49.7389 125.108 49.5457C124.464 49.3391 123.933 49.021 123.514 48.5915C123.093 48.1501 122.833 47.6334 122.731 47.0415L124.838 46.7674C124.927 47.1792 125.17 47.5047 125.564 47.7439C125.968 47.9696 126.444 48.0468 126.992 47.9755C127.563 47.9012 127.989 47.7368 128.271 47.4824C128.562 47.2144 128.686 46.9079 128.641 46.5629C128.593 46.194 128.379 45.9435 127.999 45.8115C127.63 45.6779 127.051 45.5536 126.262 45.4385C125.498 45.3322 124.871 45.2141 124.383 45.0841C123.894 44.9541 123.451 44.7152 123.055 44.3674C122.671 44.0181 122.437 43.5221 122.353 42.8795C122.285 42.3559 122.378 41.8598 122.631 41.3912C122.883 40.9106 123.279 40.5082 123.817 40.184C124.368 39.8582 125.018 39.6466 125.768 39.549C126.886 39.4034 127.822 39.5721 128.575 40.055C129.338 40.5245 129.806 41.244 129.981 42.2136L127.946 42.4784C127.853 42.0427 127.629 41.7149 127.274 41.495C126.918 41.275 126.467 41.2006 125.919 41.2718C125.384 41.3415 124.987 41.4961 124.727 41.7356C124.468 41.975 124.36 42.2613 124.403 42.5945C124.438 42.8563 124.561 43.0641 124.775 43.2178C124.989 43.3715 125.239 43.4841 125.527 43.5556C125.813 43.6152 126.234 43.6875 126.789 43.7725C127.528 43.87 128.137 43.9904 128.615 44.1339C129.104 44.2639 129.54 44.4976 129.923 44.835C130.305 45.1724 130.544 45.6557 130.638 46.2848C130.711 46.8441 130.621 47.364 130.369 47.8446C130.117 48.3251 129.721 48.7275 129.183 49.0518C128.656 49.3744 128.012 49.5853 127.25 49.6844Z" fill="#1A2969"/>
<mask id="path-3-inside-1_45_4654" fill="white">
<path d="M195.152 30.0957C194.653 26.2621 197.357 22.7498 201.19 22.2509L237.881 17.476C241.715 16.9771 245.227 19.6804 245.726 23.5141L246.758 31.4472C247.257 35.2809 244.554 38.7931 240.72 39.292L204.03 44.0669C200.196 44.5658 196.684 41.8625 196.185 38.0288L195.152 30.0957Z"/>
</mask>
<path d="M195.152 30.0957C194.653 26.2621 197.357 22.7498 201.19 22.2509L237.881 17.476C241.715 16.9771 245.227 19.6804 245.726 23.5141L246.758 31.4472C247.257 35.2809 244.554 38.7931 240.72 39.292L204.03 44.0669C200.196 44.5658 196.684 41.8625 196.185 38.0288L195.152 30.0957Z" fill="#8383E8" fill-opacity="0.13"/>
<g clip-path="url(#paint0_diamond_45_4654_clip_path)" data-figma-skip-parse="true" mask="url(#path-3-inside-1_45_4654)"><g transform="matrix(0.0460601 0.0182062 -0.0527548 0.0257125 189.811 19.7878)"><rect x="0" y="0" width="1185.71" height="567.408" fill="url(#paint0_diamond_45_4654)" opacity="0.16" shape-rendering="crispEdges"/><rect x="0" y="0" width="1185.71" height="567.408" transform="scale(1 -1)" fill="url(#paint0_diamond_45_4654)" opacity="0.16" shape-rendering="crispEdges"/><rect x="0" y="0" width="1185.71" height="567.408" transform="scale(-1 1)" fill="url(#paint0_diamond_45_4654)" opacity="0.16" shape-rendering="crispEdges"/><rect x="0" y="0" width="1185.71" height="567.408" transform="scale(-1)" fill="url(#paint0_diamond_45_4654)" opacity="0.16" shape-rendering="crispEdges"/></g></g><path d="M201.19 22.2509L201.32 23.2425L238.01 18.4676L237.881 17.476L237.752 16.4843L201.061 21.2593L201.19 22.2509ZM245.726 23.5141L244.734 23.6431L245.767 31.5762L246.758 31.4472L247.75 31.3181L246.718 23.385L245.726 23.5141ZM240.72 39.292L240.591 38.3004L203.901 43.0753L204.03 44.0669L204.159 45.0586L240.849 40.2837L240.72 39.292ZM196.185 38.0288L197.176 37.8998L196.144 29.9667L195.152 30.0957L194.161 30.2248L195.193 38.1579L196.185 38.0288ZM204.03 44.0669L203.901 43.0753C200.615 43.5029 197.604 41.1858 197.176 37.8998L196.185 38.0288L195.193 38.1579C195.763 42.5392 199.777 45.6288 204.159 45.0586L204.03 44.0669ZM246.758 31.4472L245.767 31.5762C246.194 34.8622 243.877 37.8727 240.591 38.3004L240.72 39.292L240.849 40.2837C245.231 39.7135 248.32 35.6995 247.75 31.3181L246.758 31.4472ZM237.881 17.476L238.01 18.4676C241.296 18.04 244.307 20.3571 244.734 23.6431L245.726 23.5141L246.718 23.385C246.147 19.0037 242.133 15.9142 237.752 16.4843L237.881 17.476ZM201.19 22.2509L201.061 21.2593C196.68 21.8294 193.591 25.8434 194.161 30.2248L195.152 30.0957L196.144 29.9667C195.716 26.6807 198.034 23.6702 201.32 23.2425L201.19 22.2509Z" data-figma-gradient-fill="{&#34;type&#34;:&#34;GRADIENT_DIAMOND&#34;,&#34;stops&#34;:[{&#34;color&#34;:{&#34;r&#34;:0.0,&#34;g&#34;:0.18740472197532654,&#34;b&#34;:0.71730768680572510,&#34;a&#34;:1.0},&#34;position&#34;:0.027263522148132324},{&#34;color&#34;:{&#34;r&#34;:0.82692307233810425,&#34;g&#34;:0.81102073192596436,&#34;b&#34;:0.81102073192596436,&#34;a&#34;:1.0},&#34;position&#34;:0.29674249887466431},{&#34;color&#34;:{&#34;r&#34;:0.34901961684226990,&#34;g&#34;:0.38039216399192810,&#34;b&#34;:0.88627451658248901,&#34;a&#34;:1.0},&#34;position&#34;:0.7692759633064270}],&#34;stopsVar&#34;:[{&#34;color&#34;:{&#34;r&#34;:0.0,&#34;g&#34;:0.18740472197532654,&#34;b&#34;:0.71730768680572510,&#34;a&#34;:1.0},&#34;position&#34;:0.027263522148132324},{&#34;color&#34;:{&#34;r&#34;:0.82692307233810425,&#34;g&#34;:0.81102073192596436,&#34;b&#34;:0.81102073192596436,&#34;a&#34;:1.0},&#34;position&#34;:0.29674249887466431},{&#34;color&#34;:{&#34;r&#34;:0.34901961684226990,&#34;g&#34;:0.38039216399192810,&#34;b&#34;:0.88627451658248901,&#34;a&#34;:1.0},&#34;position&#34;:0.7692759633064270}],&#34;transform&#34;:{&#34;m00&#34;:92.120132446289062,&#34;m01&#34;:-105.50958251953125,&#34;m02&#34;:196.50552368164062,&#34;m10&#34;:36.412364959716797,&#34;m11&#34;:51.424961090087891,&#34;m12&#34;:-24.130905151367188},&#34;opacity&#34;:0.15999999642372131,&#34;blendMode&#34;:&#34;NORMAL&#34;,&#34;visible&#34;:true}" mask="url(#path-3-inside-1_45_4654)"/>
<path d="M206.361 31.267C206.329 30.771 206.467 30.3631 206.775 30.0434C207.088 29.723 207.515 29.5276 208.054 29.4574C208.424 29.4092 208.753 29.4337 209.04 29.5308C209.327 29.6279 209.554 29.7813 209.721 29.9908C209.888 30.2003 209.99 30.4479 210.027 30.7335C210.07 31.0614 210.019 31.353 209.875 31.6084C209.731 31.8639 209.542 32.0471 209.309 32.158L209.313 32.1898C209.638 32.2444 209.904 32.3872 210.111 32.6184C210.318 32.8442 210.447 33.1529 210.498 33.5442C210.539 33.8563 210.503 34.1432 210.392 34.4051C210.281 34.6669 210.095 34.8875 209.833 35.0668C209.57 35.2408 209.244 35.3532 208.852 35.4042C208.281 35.4785 207.791 35.3943 207.383 35.1516C206.98 34.9029 206.729 34.5053 206.631 33.9587L207.504 33.8451C207.561 34.1227 207.7 34.3386 207.919 34.493C208.137 34.6421 208.413 34.6949 208.746 34.6515C209.069 34.6096 209.306 34.4899 209.458 34.2927C209.609 34.0902 209.666 33.8488 209.63 33.5685C209.582 33.1982 209.429 32.9519 209.171 32.8295C208.917 32.7012 208.547 32.6686 208.061 32.732L207.854 32.7588L207.757 32.0131L207.972 31.9852C208.399 31.9242 208.715 31.8104 208.919 31.644C209.129 31.4769 209.214 31.2453 209.176 30.9491C209.143 30.6953 209.035 30.505 208.852 30.3782C208.668 30.2462 208.425 30.1998 208.124 30.239C207.827 30.2775 207.607 30.3842 207.463 30.5589C207.319 30.7283 207.245 30.9261 207.242 31.1524L206.361 31.267ZM216.679 28.7465L216.775 29.4843L215.307 29.6753L215.928 34.451L215.024 34.5687L214.403 29.7929L212.927 29.985L212.831 29.2472L216.679 28.7465ZM217.724 31.9746C217.666 31.5357 217.706 31.1352 217.841 30.7733C217.983 30.4108 218.197 30.1166 218.485 29.8909C218.778 29.6592 219.114 29.5186 219.495 29.4691C219.839 29.4243 220.147 29.4542 220.418 29.5587C220.695 29.6571 220.923 29.7969 221.102 29.9779L221.019 29.3433L221.932 29.2245L222.501 33.5957L221.588 33.7144L221.504 33.0639C221.377 33.2901 221.191 33.4892 220.944 33.6611C220.698 33.833 220.405 33.941 220.067 33.9851C219.691 34.0339 219.335 33.9835 218.998 33.8337C218.661 33.6786 218.377 33.4412 218.147 33.1215C217.922 32.7959 217.781 32.4136 217.724 31.9746ZM221.303 31.5249C221.264 31.2234 221.167 30.9699 221.011 30.7643C220.86 30.558 220.677 30.4097 220.461 30.3195C220.245 30.2293 220.02 30.1994 219.788 30.2297C219.555 30.2599 219.346 30.3463 219.16 30.4888C218.973 30.6261 218.831 30.814 218.733 31.0526C218.64 31.2853 218.612 31.5524 218.652 31.8538C218.691 32.1553 218.786 32.4118 218.937 32.6234C219.094 32.8343 219.281 32.9875 219.497 33.083C219.719 33.1725 219.943 33.2024 220.171 33.1728C220.403 33.1426 220.613 33.0562 220.798 32.9136C220.984 32.7711 221.124 32.5809 221.216 32.343C221.314 32.099 221.343 31.8263 221.303 31.5249ZM225.284 33.306C224.941 33.3507 224.623 33.3302 224.333 33.2443C224.046 33.1525 223.81 33.0111 223.624 32.8202C223.437 32.624 223.321 32.3944 223.276 32.1314L224.212 32.0095C224.252 32.1926 224.36 32.3372 224.535 32.4435C224.715 32.5438 224.926 32.5781 225.169 32.5465C225.423 32.5135 225.613 32.4404 225.738 32.3273C225.868 32.2082 225.923 32.072 225.903 31.9186C225.881 31.7547 225.786 31.6434 225.617 31.5847C225.453 31.5253 225.196 31.47 224.845 31.4189C224.506 31.3717 224.227 31.3192 224.01 31.2614C223.793 31.2036 223.596 31.0974 223.42 30.9429C223.249 30.7876 223.145 30.5672 223.108 30.2816C223.078 30.0489 223.119 29.8284 223.232 29.6201C223.344 29.4065 223.519 29.2277 223.759 29.0836C224.003 28.9388 224.292 28.8447 224.626 28.8014C225.123 28.7367 225.539 28.8116 225.873 29.0263C226.212 29.2349 226.42 29.5547 226.498 29.9856L225.594 30.1033C225.552 29.9097 225.453 29.764 225.295 29.6662C225.137 29.5685 224.936 29.5354 224.693 29.5671C224.455 29.598 224.278 29.6667 224.163 29.7732C224.048 29.8796 224 30.0068 224.019 30.1549C224.034 30.2713 224.089 30.3636 224.184 30.4319C224.279 30.5003 224.391 30.5503 224.518 30.5821C224.646 30.6085 224.833 30.6407 225.08 30.6785C225.408 30.7218 225.678 30.7753 225.891 30.8391C226.108 30.8969 226.302 31.0007 226.472 31.1507C226.642 31.3007 226.748 31.5155 226.79 31.7951C226.822 32.0436 226.783 32.2747 226.67 32.4883C226.558 32.7019 226.383 32.8807 226.143 33.0248C225.909 33.1682 225.623 33.262 225.284 33.306ZM229.372 30.4829L231.671 32.4023L230.449 32.5613L228.586 30.8918L228.831 32.7719L227.926 32.8896L227.162 27.0191L228.067 26.9014L228.511 30.3126L229.848 28.1943L231.102 28.0312L229.372 30.4829ZM233.915 32.1828C233.571 32.2276 233.254 32.207 232.963 32.1212C232.677 32.0294 232.44 31.888 232.254 31.6971C232.067 31.5009 231.951 31.2713 231.906 31.0082L232.843 30.8864C232.882 31.0694 232.99 31.2141 233.165 31.3204C233.345 31.4207 233.557 31.455 233.8 31.4233C234.054 31.3903 234.243 31.3172 234.368 31.2041C234.498 31.0851 234.553 30.9488 234.533 30.7955C234.512 30.6315 234.416 30.5202 234.247 30.4615C234.084 30.4022 233.826 30.3469 233.476 30.2957C233.136 30.2485 232.858 30.196 232.64 30.1382C232.423 30.0805 232.226 29.9743 232.05 29.8197C231.879 29.6645 231.775 29.444 231.738 29.1584C231.708 28.9257 231.749 28.7052 231.862 28.4969C231.974 28.2834 232.15 28.1045 232.389 27.9604C232.634 27.8156 232.923 27.7216 233.256 27.6782C233.753 27.6135 234.169 27.6885 234.503 27.9031C234.842 28.1117 235.051 28.4315 235.128 28.8625L234.224 28.9802C234.183 28.7865 234.083 28.6408 233.925 28.5431C233.767 28.4453 233.567 28.4123 233.323 28.4439C233.085 28.4749 232.909 28.5436 232.793 28.65C232.678 28.7564 232.63 28.8837 232.65 29.0318C232.665 29.1481 232.72 29.2405 232.815 29.3088C232.91 29.3771 233.021 29.4271 233.149 29.4589C233.276 29.4854 233.463 29.5175 233.71 29.5553C234.038 29.5986 234.309 29.6522 234.521 29.7159C234.739 29.7737 234.932 29.8776 235.103 30.0275C235.273 30.1775 235.379 30.3923 235.42 30.6719C235.453 30.9205 235.413 31.1516 235.301 31.3651C235.189 31.5787 235.013 31.7576 234.774 31.9017C234.54 32.0451 234.253 32.1388 233.915 32.1828Z" fill="#1A2969"/>
<rect x="21.4155" y="74.3871" width="19" height="19" rx="9.5" transform="rotate(-7.4148 21.4155 74.3871)" fill="#71B078"/>
<g clip-path="url(#clip0_45_4654)">
<path d="M28.8598 78.8387C28.4831 78.8877 28.1413 79.0844 27.9096 79.3854C27.6779 79.6864 27.5753 80.0672 27.6243 80.4439L28.3193 85.7842C28.3683 86.1609 28.565 86.5027 28.866 86.7344C29.167 86.9661 29.5478 87.0687 29.9244 87.0197L33.033 86.6152C33.2195 86.5909 33.3995 86.5302 33.5625 86.4364C33.7256 86.3426 33.8686 86.2176 33.9833 86.0686L35.9244 83.5461C36.0392 83.397 36.1235 83.2268 36.1724 83.0452C36.2214 82.8636 36.2341 82.6741 36.2098 82.4875L35.8053 79.3792C35.7563 79.0025 35.5596 78.6607 35.2586 78.429C34.9576 78.1973 34.5768 78.0947 34.2002 78.1437L28.8598 78.8387ZM28.1924 80.3699C28.163 80.1439 28.2246 79.9155 28.3636 79.7348C28.5026 79.5542 28.7077 79.4362 28.9337 79.4068L34.2741 78.7118C34.5001 78.6824 34.7285 78.744 34.9092 78.883C35.0898 79.022 35.2078 79.2271 35.2372 79.4531L35.6438 82.5778L33.9963 82.7922C33.6196 82.8412 33.2778 83.0379 33.0461 83.3389C32.8144 83.6399 32.7118 84.0207 32.7608 84.3974L32.9752 86.0449L29.8505 86.4516C29.6245 86.481 29.3961 86.4194 29.2154 86.2804C29.0348 86.1414 28.9168 85.9363 28.8874 85.7103L28.1924 80.3699ZM33.5132 85.7392L33.3289 84.3234C33.2995 84.0974 33.3611 83.869 33.5001 83.6884C33.6391 83.5077 33.8442 83.3898 34.0702 83.3603L35.486 83.1761L35.4706 83.1966L33.5293 85.7191L33.5132 85.7392Z" fill="white"/>
</g>
<path d="M52.5674 75.0324L52.7114 76.139L49.201 76.5959L49.5184 79.0353L52.2554 78.6791L52.3994 79.7858L49.6625 80.142L50.1332 83.7595L48.7767 83.936L47.7004 75.6657L52.5674 75.0324ZM54.6247 75.6238C54.3787 75.6558 54.1616 75.5993 53.9734 75.4544C53.7851 75.3095 53.6749 75.1141 53.6429 74.8682C53.6109 74.6222 53.6674 74.4051 53.8123 74.2169C53.9572 74.0286 54.1526 73.9185 54.3986 73.8864C54.6366 73.8555 54.8497 73.9124 55.038 74.0574C55.2262 74.2023 55.3364 74.3977 55.3684 74.6436C55.4004 74.8895 55.3439 75.1066 55.199 75.2949C55.0541 75.4832 54.8627 75.5928 54.6247 75.6238ZM55.4041 76.4057L56.2574 82.9625L54.9008 83.139L54.0475 76.5823L55.4041 76.4057ZM60.4793 75.6364C60.995 75.5692 61.469 75.6165 61.9015 75.778C62.3419 75.9385 62.7045 76.214 62.9892 76.6045C63.274 76.995 63.4551 77.4878 63.5326 78.0828L64.0359 81.9502L62.6912 82.1252L62.2142 78.4601C62.1378 77.873 61.9327 77.4439 61.5989 77.1727C61.2641 76.8936 60.8428 76.7871 60.3351 76.8531C59.8274 76.9192 59.4435 77.1305 59.1833 77.4871C58.9301 77.8347 58.8416 78.302 58.918 78.889L59.395 82.5541L58.0384 82.7307L57.1851 76.174L58.5417 75.9974L58.6393 76.7471C58.8263 76.4485 59.0806 76.2016 59.4021 76.0065C59.7315 75.8103 60.0906 75.6869 60.4793 75.6364ZM64.8835 78.4757C64.7978 77.8173 64.8568 77.2166 65.0605 76.6738C65.2721 76.13 65.5938 75.6888 66.0257 75.3502C66.4645 75.0026 66.9695 74.7917 67.5407 74.7174C68.0564 74.6503 68.518 74.6951 68.9257 74.8518C69.3402 74.9995 69.6821 75.2091 69.9514 75.4807L69.8275 74.5287L71.196 74.3506L72.0493 80.9073L70.6808 81.0854L70.5538 80.1096C70.364 80.449 70.0842 80.7476 69.7144 81.0054C69.3446 81.2633 68.9058 81.4253 68.3981 81.4914C67.8348 81.5647 67.3006 81.489 66.7954 81.2643C66.2891 81.0317 65.8636 80.6756 65.5189 80.1961C65.181 79.7076 64.9692 79.1342 64.8835 78.4757ZM70.2534 77.8011C70.1945 77.3489 70.0482 76.9686 69.8145 76.6602C69.5886 76.3507 69.3136 76.1284 68.9895 75.9931C68.6653 75.8578 68.3287 75.8129 67.9796 75.8583C67.6306 75.9037 67.3167 76.0333 67.0379 76.2471C66.7582 76.4529 66.5448 76.7348 66.3977 77.0927C66.2576 77.4418 66.2169 77.8423 66.2758 78.2945C66.3346 78.7467 66.4775 79.1315 66.7043 79.4489C66.9391 79.7652 67.2191 79.995 67.5443 80.1382C67.8764 80.2725 68.2131 80.3174 68.5542 80.273C68.9032 80.2276 69.2171 80.098 69.4959 79.8843C69.7746 79.6705 69.9835 79.3852 70.1226 79.0282C70.2686 78.6623 70.3122 78.2533 70.2534 77.8011ZM74.0416 71.6931L75.1876 80.4989L73.831 80.6754L72.6851 71.8697L74.0416 71.6931ZM76.6925 72.7519C76.4466 72.7839 76.2295 72.7274 76.0412 72.5825C75.8529 72.4376 75.7428 72.2422 75.7108 71.9963C75.6788 71.7503 75.7352 71.5332 75.8801 71.345C76.025 71.1567 76.2205 71.0465 76.4664 71.0145C76.7044 70.9836 76.9175 71.0405 77.1058 71.1855C77.2941 71.3304 77.4042 71.5258 77.4362 71.7717C77.4682 72.0176 77.4118 72.2347 77.2668 72.423C77.1219 72.6113 76.9305 72.7209 76.6925 72.7519ZM77.4719 73.5338L78.3252 80.0906L76.9686 80.2671L76.1154 73.7104L77.4719 73.5338ZM81.1641 78.5957L84.139 78.2085L84.283 79.3152L79.7374 79.9068L79.5933 78.8001L82.0149 74.068L79.0281 74.4567L78.8841 73.3501L83.4297 72.7585L83.5738 73.8652L81.1641 78.5957ZM91.2692 74.9088C91.3012 75.1547 91.3143 75.3789 91.3084 75.5814L86.2986 76.2333C86.4064 76.7517 86.6555 77.1469 87.0458 77.4188C87.4362 77.6907 87.8852 77.7936 88.3929 77.7275C89.1228 77.6326 89.5987 77.26 89.8207 76.6099L91.2843 76.4195C91.1644 77.0482 90.868 77.591 90.395 78.0478C89.9289 78.4957 89.3111 78.7698 88.5416 78.8699C87.9149 78.9515 87.3336 78.8859 86.7977 78.6733C86.2686 78.4517 85.8283 78.1057 85.4766 77.6351C85.1319 77.1556 84.9156 76.5787 84.8278 75.9044C84.7401 75.2301 84.798 74.6215 85.0017 74.0787C85.2122 73.5269 85.5454 73.0802 86.0011 72.7385C86.4647 72.3958 87.0179 72.1826 87.6604 72.099C88.2792 72.0185 88.8481 72.0816 89.3671 72.2883C89.8862 72.4951 90.3125 72.8268 90.6463 73.2836C90.979 73.7324 91.1866 74.2741 91.2692 74.9088ZM89.7974 74.6647C89.7244 74.1659 89.4938 73.7885 89.1055 73.5325C88.7172 73.2765 88.2653 73.182 87.7496 73.2491C87.2816 73.31 86.9006 73.5129 86.6066 73.8577C86.3116 74.1946 86.1654 74.621 86.168 75.137L89.7974 74.6647ZM102.74 78.438L101.084 77.0561C100.74 77.2057 100.354 77.3084 99.9259 77.3641C99.1564 77.4643 98.4232 77.3782 97.7262 77.1059C97.0361 76.8246 96.4589 76.3874 95.9945 75.7944C95.537 75.1924 95.2555 74.4868 95.1502 73.6776C95.0449 72.8685 95.1369 72.1183 95.4261 71.4272C95.7233 70.7351 96.1699 70.1687 96.7661 69.7281C97.3691 69.2785 98.0553 69.0036 98.8249 68.9035C99.6023 68.8023 100.336 68.8924 101.026 69.1737C101.723 69.446 102.3 69.8792 102.756 70.4733C103.213 71.0673 103.494 71.7689 103.599 72.5781C103.698 73.3397 103.621 74.0515 103.369 74.7137C103.123 75.3669 102.735 75.9176 102.204 76.3658L104.465 78.2134L102.74 78.438ZM96.5425 73.4964C96.622 74.1073 96.8112 74.6313 97.1101 75.0683C97.4159 75.4965 97.7995 75.8096 98.2609 76.0077C98.7213 76.1978 99.2252 76.2573 99.7726 76.1861C100.32 76.1148 100.792 75.9284 101.188 75.6267C101.584 75.3171 101.87 74.9168 102.048 74.4257C102.233 73.9256 102.286 73.3701 102.207 72.7593C102.127 72.1484 101.935 71.629 101.629 71.2009C101.331 70.7717 100.952 70.462 100.491 70.2719C100.031 70.0817 99.5271 70.0222 98.9797 70.0935C98.4323 70.1647 97.9604 70.3512 97.5641 70.6528C97.1677 70.9545 96.8765 71.3514 96.6904 71.8435C96.5123 72.3346 96.463 72.8856 96.5425 73.4964ZM105.84 74.634C106.516 73.8765 107.045 73.2591 107.427 72.7819C107.815 72.2956 108.126 71.8034 108.36 71.3051C108.593 70.8068 108.68 70.3275 108.62 69.8674C108.559 69.3914 108.395 69.0335 108.13 68.7938C107.873 68.5529 107.502 68.464 107.018 68.527C106.55 68.5879 106.205 68.7861 105.982 69.1217C105.767 69.4482 105.683 69.8624 105.732 70.3643L104.423 70.5346C104.33 69.6271 104.509 68.9019 104.963 68.3588C105.424 67.8067 106.055 67.4785 106.856 67.3743C107.721 67.2617 108.426 67.412 108.972 67.825C109.526 68.237 109.854 68.8396 109.957 69.6329C110.032 70.2041 109.957 70.7746 109.732 71.3443C109.515 71.905 109.231 72.422 108.881 72.8951C108.538 73.3592 108.093 73.9052 107.546 74.5331L107.072 75.0788L110.844 74.5879L110.991 75.7184L105.208 76.471L105.08 75.4833L105.84 74.634ZM116.097 69.4874C116.288 69.156 116.568 68.8613 116.938 68.6035C117.308 68.3456 117.742 68.1841 118.242 68.1191C118.813 68.0447 119.352 68.1199 119.857 68.3446C120.369 68.5603 120.793 68.9045 121.129 69.3771C121.465 69.8497 121.675 70.4152 121.761 71.0737C121.847 71.7321 121.789 72.3407 121.587 72.8994C121.385 73.4501 121.064 73.9033 120.627 74.2587C120.196 74.6052 119.695 74.8157 119.123 74.89C118.624 74.955 118.166 74.9137 117.752 74.7659C117.336 74.6103 116.986 74.3977 116.701 74.1283L117.231 78.1979L115.874 78.3745L114.615 68.7001L115.971 68.5235L116.097 69.4874ZM120.381 71.2533C120.322 70.8011 120.176 70.4248 119.943 70.1243C119.717 69.8149 119.439 69.597 119.108 69.4707C118.784 69.3354 118.447 69.2904 118.098 69.3359C117.757 69.3803 117.443 69.5098 117.156 69.7246C116.878 69.9384 116.665 70.2243 116.518 70.5822C116.379 70.9392 116.339 71.3437 116.397 71.7959C116.456 72.2481 116.599 72.6329 116.826 72.9503C117.06 73.2587 117.339 73.4805 117.663 73.6158C117.995 73.7501 118.332 73.795 118.673 73.7506C119.022 73.7052 119.336 73.5756 119.614 73.3619C119.9 73.1391 120.112 72.8453 120.25 72.4805C120.396 72.1146 120.439 71.7055 120.381 71.2533ZM123.744 65.2249L124.89 74.0307L123.533 74.2072L122.387 65.4015L123.744 65.2249ZM125.788 70.5496C125.702 69.8912 125.761 69.2905 125.965 68.7477C126.176 68.2039 126.498 67.7627 126.93 67.4241C127.369 67.0766 127.874 66.8656 128.445 66.7913C128.961 66.7242 129.422 66.769 129.83 66.9257C130.245 67.0734 130.586 67.283 130.856 67.5546L130.732 66.6026L132.1 66.4245L132.954 72.9812L131.585 73.1593L131.458 72.1835C131.268 72.5229 130.989 72.8215 130.619 73.0794C130.249 73.3372 129.81 73.4992 129.302 73.5653C128.739 73.6386 128.205 73.5629 127.7 73.3382C127.194 73.1056 126.768 72.7495 126.423 72.27C126.085 71.7815 125.874 71.2081 125.788 70.5496ZM131.158 69.875C131.099 69.4228 130.953 69.0425 130.719 68.7341C130.493 68.4247 130.218 68.2023 129.894 68.067C129.57 67.9317 129.233 67.8868 128.884 67.9322C128.535 67.9776 128.221 68.1072 127.942 68.321C127.663 68.5268 127.449 68.8087 127.302 69.1667C127.162 69.5157 127.121 69.9163 127.18 70.3684C127.239 70.8206 127.382 71.2054 127.609 71.5228C127.844 71.8391 128.124 72.0689 128.449 72.2121C128.781 72.3464 129.117 72.3913 129.459 72.347C129.808 72.3015 130.122 72.1719 130.4 71.9582C130.679 71.7444 130.888 71.4591 131.027 71.1021C131.173 70.7362 131.217 70.3272 131.158 69.875ZM137.176 65.655C137.692 65.5879 138.166 65.6351 138.598 65.7967C139.039 65.9572 139.401 66.2327 139.686 66.6232C139.971 67.0137 140.152 67.5065 140.23 68.1014L140.733 71.9688L139.388 72.1438L138.911 68.4787C138.835 67.8917 138.63 67.4626 138.296 67.1914C137.961 66.9122 137.54 66.8057 137.032 66.8718C136.524 66.9379 136.14 67.1492 135.88 67.5057C135.627 67.8533 135.539 68.3206 135.615 68.9077L136.092 72.5728L134.735 72.7493L133.882 66.1926L135.239 66.0161L135.336 66.7658C135.523 66.4671 135.778 66.2202 136.099 66.0251C136.428 65.829 136.788 65.7056 137.176 65.655ZM146.185 65.5839C146.373 65.2366 146.653 64.938 147.024 64.6881C147.402 64.4291 147.837 64.2677 148.328 64.2037C148.908 64.1283 149.449 64.199 149.953 64.4157C150.458 64.6325 150.878 64.9811 151.215 65.4617C151.551 65.9343 151.761 66.4998 151.847 67.1583C151.933 67.8167 151.875 68.4253 151.673 68.984C151.471 69.5347 151.15 69.9878 150.713 70.3433C150.282 70.6898 149.781 70.9002 149.21 70.9746C148.702 71.0407 148.237 71.0003 147.814 70.8536C147.4 70.7059 147.057 70.4923 146.787 70.2128L146.911 71.1648L145.554 71.3414L144.408 62.5356L145.765 62.3591L146.185 65.5839ZM150.467 67.3379C150.408 66.8857 150.262 66.5094 150.029 66.2089C149.804 65.8995 149.525 65.6816 149.194 65.5553C148.87 65.42 148.533 65.375 148.184 65.4205C147.843 65.4648 147.529 65.5944 147.243 65.8092C146.964 66.023 146.751 66.3089 146.604 66.6668C146.465 67.0238 146.425 67.4283 146.483 67.8805C146.542 68.3327 146.685 68.7175 146.912 69.0349C147.146 69.3433 147.425 69.5651 147.749 69.7004C148.081 69.8347 148.418 69.8796 148.759 69.8352C149.108 69.7898 149.422 69.6602 149.7 69.4464C149.986 69.2237 150.198 68.9299 150.336 68.5651C150.482 68.1992 150.526 67.7901 150.467 67.3379ZM158.668 62.967L155.9 73.1291L154.496 73.3119L155.414 69.9493L151.992 63.8358L153.504 63.6391L155.999 68.3969L157.264 63.1497L158.668 62.967ZM167.427 60.0845L167.571 61.1912L164.061 61.648L164.378 64.0875L167.115 63.7313L167.259 64.838L164.522 65.1941L164.993 68.8116L163.636 68.9882L162.56 60.7179L167.427 60.0845ZM170.388 62.4099C170.543 62.0509 170.771 61.759 171.072 61.5342C171.381 61.3005 171.761 61.1542 172.213 61.0953L172.396 62.4995L172.051 62.5444C171.519 62.6136 171.132 62.8011 170.89 63.1069C170.655 63.4118 170.581 63.8974 170.668 64.5637L171.117 68.0146L169.76 68.1912L168.907 61.6345L170.264 61.4579L170.388 62.4099ZM174.051 60.0816C173.805 60.1136 173.588 60.0572 173.4 59.9123C173.212 59.7674 173.101 59.5719 173.069 59.326C173.037 59.0801 173.094 58.863 173.239 58.6747C173.384 58.4864 173.579 58.3763 173.825 58.3443C174.063 58.3133 174.276 58.3703 174.464 58.5152C174.653 58.6601 174.763 58.8555 174.795 59.1015C174.827 59.3474 174.77 59.5645 174.626 59.7528C174.481 59.941 174.289 60.0507 174.051 60.0816ZM174.831 60.8636L175.684 67.4203L174.327 67.5968L173.474 61.0401L174.831 60.8636ZM176.582 63.9393C176.497 63.2808 176.556 62.6802 176.759 62.1374C176.971 61.5935 177.293 61.1523 177.724 60.8137C178.163 60.4662 178.672 60.2547 179.251 60.1794C179.68 60.1236 180.113 60.1641 180.55 60.3008C180.994 60.4285 181.359 60.6311 181.645 60.9085L181.234 57.7432L182.602 57.5651L183.748 66.3708L182.38 66.5489L182.251 65.5613C182.07 65.9075 181.795 66.2096 181.425 66.4674C181.063 66.7243 180.628 66.8857 180.121 66.9518C179.549 67.0262 179.007 66.9515 178.494 66.7278C177.988 66.4952 177.562 66.1392 177.218 65.6597C176.88 65.1712 176.668 64.5977 176.582 63.9393ZM181.952 63.2646C181.893 62.8124 181.747 62.4321 181.513 62.1237C181.287 61.8143 181.012 61.5919 180.688 61.4566C180.364 61.3213 180.027 61.2764 179.678 61.3218C179.329 61.3672 179.015 61.4968 178.737 61.7106C178.457 61.9164 178.243 62.1983 178.096 62.5563C177.956 62.9053 177.916 63.3059 177.975 63.7581C178.033 64.2103 178.176 64.595 178.403 64.9124C178.638 65.2288 178.918 65.4585 179.243 65.6018C179.575 65.736 179.912 65.781 180.253 65.7366C180.602 65.6912 180.916 65.5616 181.195 65.3478C181.473 65.134 181.682 64.8487 181.821 64.4918C181.967 64.1259 182.011 63.7168 181.952 63.2646ZM184.647 62.8897C184.561 62.2313 184.62 61.6306 184.824 61.0878C185.036 60.5439 185.357 60.1027 185.789 59.7642C186.228 59.4166 186.733 59.2057 187.304 59.1314C187.82 59.0643 188.282 59.1091 188.689 59.2658C189.104 59.4135 189.446 59.6231 189.715 59.8946L189.591 58.9427L190.959 58.7646L191.813 65.3213L190.444 65.4994L190.317 64.5236C190.128 64.8629 189.848 65.1615 189.478 65.4194C189.108 65.6773 188.669 65.8393 188.162 65.9054C187.598 65.9787 187.064 65.903 186.559 65.6783C186.053 65.4457 185.627 65.0896 185.282 64.6101C184.945 64.1216 184.733 63.5482 184.647 62.8897ZM190.017 62.2151C189.958 61.7629 189.812 61.3826 189.578 61.0742C189.352 60.7647 189.077 60.5424 188.753 60.4071C188.429 60.2718 188.092 60.2268 187.743 60.2723C187.394 60.3177 187.08 60.4473 186.801 60.661C186.522 60.8669 186.308 61.1488 186.161 61.5067C186.021 61.8557 185.98 62.2563 186.039 62.7085C186.098 63.1607 186.241 63.5455 186.468 63.8629C186.703 64.1792 186.983 64.409 187.308 64.5522C187.64 64.6865 187.977 64.7314 188.318 64.687C188.667 64.6416 188.981 64.512 189.259 64.2983C189.538 64.0845 189.747 63.7991 189.886 63.4422C190.032 63.0763 190.076 62.6673 190.017 62.2151ZM198.643 57.7646L195.876 67.9267L194.472 68.1095L195.389 64.7469L191.968 58.6334L193.479 58.4367L195.974 63.1945L197.239 57.9473L198.643 57.7646Z" fill="#1A2969"/>
<rect x="24.3838" y="97.1948" width="19" height="19" rx="9.5" transform="rotate(-7.4148 24.3838 97.1948)" fill="#81A2FF"/>
<path d="M35.8905 108.65L40.6289 102.494C40.6807 102.427 40.7011 102.351 40.6901 102.266C40.6791 102.182 40.6401 102.113 40.5733 102.062L40.09 101.69C40.0232 101.638 39.9475 101.618 39.8629 101.629C39.7778 101.64 39.7097 101.679 39.6583 101.746L34.9192 107.903L35.8905 108.65ZM32.0317 110.124C31.1603 110.181 30.4779 110.061 29.9845 109.762C29.4916 109.463 29.2043 109 29.1227 108.373C29.0417 107.75 29.2431 107.21 29.7269 106.754C30.2111 106.297 30.9241 105.963 31.866 105.751C32.391 105.632 32.776 105.475 33.0209 105.28C33.2659 105.086 33.3702 104.849 33.3336 104.568C33.2864 104.205 33.0873 103.946 32.7362 103.79C32.3851 103.634 31.8382 103.562 31.0954 103.575L31.0757 102.918C31.9872 102.906 32.6839 103.028 33.1659 103.284C33.6475 103.541 33.9236 103.941 33.994 104.482C34.0546 104.948 33.9125 105.347 33.5678 105.681C33.2231 106.014 32.7006 106.256 32.0003 106.406C31.2031 106.583 30.6195 106.827 30.2495 107.138C29.8795 107.45 29.7242 107.832 29.7838 108.287C29.8406 108.723 30.0446 109.036 30.3959 109.224C30.7467 109.413 31.2684 109.491 31.9609 109.461L32.0317 110.124ZM36.0099 109.594L33.9757 108.03L39.2259 101.223C39.3735 101.032 39.5567 100.924 39.7754 100.9C39.994 100.875 40.1987 100.932 40.3894 101.072L41.0933 101.614C41.285 101.761 41.3953 101.946 41.4243 102.169C41.4532 102.391 41.3939 102.598 41.2463 102.79L36.0099 109.594ZM34.2682 110.195C34.1607 110.236 34.0594 110.221 33.9642 110.147C33.8696 110.075 33.8287 109.981 33.8416 109.866L33.9757 108.03L36.0086 109.594L34.2682 110.195Z" fill="white"/>
<path d="M50.7523 102.65C50.647 101.84 50.739 101.09 51.0282 100.399C51.3253 99.707 51.772 99.1406 52.3681 98.7C52.9711 98.2504 53.6574 97.9755 54.4269 97.8754C55.3075 97.7608 56.1173 97.8773 56.8563 98.2248C57.6022 98.5634 58.1815 99.1092 58.5942 99.8622L56.9639 100.074C56.6929 99.6659 56.3531 99.3794 55.9444 99.2148C55.5358 99.0501 55.0816 99.0003 54.5818 99.0654C54.0344 99.1366 53.5625 99.3231 53.1661 99.6247C52.7697 99.9264 52.4785 100.323 52.2925 100.815C52.1144 101.307 52.0651 101.858 52.1446 102.468C52.2241 103.079 52.4127 103.599 52.7106 104.028C53.0164 104.456 53.4 104.77 53.8615 104.968C54.3218 105.158 54.8257 105.217 55.3731 105.146C55.8729 105.081 56.2993 104.917 56.6522 104.653C57.0051 104.389 57.2602 104.025 57.4177 103.561L59.0479 103.349C58.8418 104.182 58.4215 104.858 57.787 105.377C57.1605 105.894 56.407 106.21 55.5264 106.324C54.749 106.425 54.0157 106.339 53.3267 106.066C52.6366 105.785 52.0594 105.347 51.595 104.754C51.1385 104.16 50.8576 103.459 50.7523 102.65ZM63.8065 105.283C63.1878 105.363 62.6104 105.297 62.0745 105.085C61.5375 104.864 61.0932 104.519 60.7416 104.048C60.3889 103.57 60.1686 102.993 60.0809 102.319C59.9942 101.653 60.064 101.042 60.2904 100.489C60.5168 99.9347 60.8658 99.4859 61.3374 99.1422C61.809 98.7985 62.3582 98.5858 62.9849 98.5042C63.6116 98.4227 64.1969 98.4877 64.7407 98.6993C65.2846 98.9109 65.7368 99.2554 66.0975 99.7328C66.4581 100.21 66.6818 100.782 66.7685 101.449C66.8552 102.115 66.7814 102.726 66.547 103.28C66.3127 103.835 65.9523 104.29 65.4659 104.643C64.9864 104.988 64.4333 105.201 63.8065 105.283ZM63.6532 104.105C64.0023 104.059 64.3167 103.934 64.5965 103.728C64.8842 103.521 65.1016 103.239 65.2486 102.881C65.3956 102.523 65.4382 102.106 65.3762 101.63C65.3143 101.154 65.1709 100.765 64.9461 100.464C64.7203 100.154 64.4458 99.9357 64.1227 99.8083C63.7995 99.6809 63.4634 99.64 63.1144 99.6854C62.7653 99.7308 62.4509 99.8565 62.1711 100.062C61.8993 100.267 61.6978 100.547 61.5666 100.903C61.4344 101.251 61.3993 101.663 61.4612 102.139C61.5531 102.845 61.8029 103.369 62.2104 103.712C62.6249 104.045 63.1058 104.176 63.6532 104.105ZM70.9778 97.464C71.4935 97.3969 71.9675 97.4442 72.4 97.6057C72.8404 97.7662 73.203 98.0417 73.4878 98.4322C73.7725 98.8227 73.9536 99.3155 74.0311 99.9105L74.5344 103.778L73.1897 103.953L72.7127 100.288C72.6363 99.7007 72.4312 99.2716 72.0975 99.0004C71.7626 98.7213 71.3414 98.6147 70.8336 98.6808C70.3259 98.7469 69.942 98.9582 69.6818 99.3148C69.4286 99.6624 69.3401 100.13 69.4165 100.717L69.8935 104.382L68.5369 104.558L67.6837 98.0017L69.0402 97.8251L69.1378 98.5748C69.3248 98.2762 69.5791 98.0293 69.9006 97.8342C70.23 97.638 70.5891 97.5146 70.9778 97.464ZM75.382 100.303C75.2964 99.645 75.3553 99.0443 75.559 98.5015C75.7706 97.9577 76.0923 97.5164 76.5242 97.1779C76.9631 96.8303 77.472 96.6189 78.0511 96.5435C78.4795 96.4878 78.9124 96.5282 79.3497 96.665C79.7939 96.7927 80.1591 96.9953 80.4453 97.2727L80.0333 94.1073L81.4018 93.9293L82.5478 102.735L81.1793 102.913L81.0508 101.925C80.8699 102.272 80.5946 102.574 80.2248 102.832C79.8629 103.088 79.4281 103.25 78.9204 103.316C78.3492 103.39 77.8071 103.316 77.2939 103.092C76.7877 102.859 76.3621 102.503 76.0174 102.024C75.6795 101.535 75.4677 100.962 75.382 100.303ZM80.7519 99.6288C80.693 99.1766 80.5467 98.7963 80.313 98.4879C80.0872 98.1784 79.8122 97.9561 79.488 97.8208C79.1638 97.6855 78.8272 97.6405 78.4781 97.686C78.1291 97.7314 77.8152 97.861 77.5364 98.0747C77.2567 98.2806 77.0433 98.5625 76.8962 98.9204C76.7561 99.2694 76.7155 99.67 76.7743 100.122C76.8332 100.574 76.976 100.959 77.2029 101.277C77.4376 101.593 77.7176 101.823 78.0428 101.966C78.3749 102.1 78.7116 102.145 79.0527 102.101C79.4017 102.055 79.7156 101.926 79.9944 101.712C80.2731 101.498 80.4821 101.213 80.6212 100.856C80.7672 100.49 80.8107 100.081 80.7519 99.6288ZM89.4142 95.1736L90.2675 101.73L88.9109 101.907L88.8103 101.133C88.6312 101.431 88.3774 101.682 88.049 101.886C87.7275 102.081 87.3724 102.204 86.9837 102.255C86.468 102.322 85.99 102.275 85.5496 102.114C85.1171 101.953 84.7545 101.677 84.4618 101.288C84.1771 100.897 83.9959 100.405 83.9185 99.8096L83.4168 95.9541L84.7614 95.7792L85.2369 99.4323C85.3133 100.019 85.5189 100.452 85.8537 100.732C86.1875 101.003 86.6082 101.105 87.1159 101.039C87.6237 100.973 88.0042 100.766 88.2574 100.419C88.5176 100.062 88.6095 99.5904 88.5331 99.0034L88.0576 95.3502L89.4142 95.1736ZM91.1777 98.272C91.09 97.5976 91.1479 96.9891 91.3516 96.4463C91.5621 95.8945 91.8913 95.4483 92.3391 95.1076C92.7869 94.767 93.3241 94.5559 93.9508 94.4743C94.7442 94.3711 95.4234 94.4763 95.9886 94.79C96.5607 95.0947 96.9834 95.5843 97.2568 96.2586L95.7931 96.4491C95.6318 96.1393 95.4083 95.9102 95.1228 95.7619C94.8373 95.6135 94.4962 95.5651 94.0995 95.6167C93.5442 95.689 93.1258 95.9451 92.8442 96.3851C92.5695 96.8162 92.4781 97.3847 92.57 98.0908C92.6619 98.7968 92.8963 99.327 93.2732 99.6813C93.658 100.035 94.128 100.175 94.6833 100.103C95.4687 100.001 95.9434 99.5879 96.1075 98.8647L97.5711 98.6743C97.4675 99.3654 97.1796 99.9434 96.7077 100.408C96.2347 100.865 95.6095 101.144 94.832 101.245C94.2053 101.327 93.6319 101.26 93.1119 101.046C92.5908 100.823 92.1584 100.476 91.8146 100.004C91.4778 99.5237 91.2655 98.9463 91.1777 98.272ZM100.066 94.9128L100.538 98.5422C100.57 98.7882 100.649 98.9594 100.774 99.056C100.907 99.1437 101.112 99.1694 101.39 99.1333L102.223 99.0249L102.37 100.155L101.299 100.295C100.688 100.374 100.201 100.292 99.8388 100.049C99.4764 99.8058 99.2534 99.3629 99.1698 98.7203L98.6974 95.0909L97.9239 95.1916L97.7799 94.0849L98.5534 93.9843L98.3412 92.354L99.7097 92.1759L99.9219 93.8062L101.516 93.5987L101.66 94.7053L100.066 94.9128ZM113.781 91.8936C114.297 91.8265 114.771 91.8738 115.203 92.0353C115.644 92.1958 116.006 92.4713 116.291 92.8618C116.584 93.2513 116.769 93.7435 116.846 94.3385L117.349 98.2059L116.005 98.3809L115.528 94.7158C115.451 94.1288 115.246 93.6996 114.913 93.4285C114.578 93.1493 114.156 93.0428 113.649 93.1089C113.141 93.1749 112.757 93.3863 112.497 93.7428C112.244 94.0904 112.155 94.5577 112.232 95.1448L112.709 98.8099L111.364 98.9849L110.887 95.3198C110.811 94.7327 110.605 94.3036 110.272 94.0324C109.937 93.7533 109.516 93.6468 109.008 93.7128C108.5 93.7789 108.116 93.9902 107.856 94.3468C107.603 94.6944 107.514 95.1617 107.591 95.7487L108.068 99.4138L106.711 99.5904L105.858 93.0337L107.214 92.8571L107.312 93.6068C107.499 93.3082 107.753 93.0613 108.075 92.8662C108.396 92.671 108.751 92.5482 109.14 92.4976C109.664 92.4295 110.146 92.4796 110.588 92.6481C111.029 92.8165 111.388 93.0965 111.665 93.488C111.812 93.0656 112.08 92.712 112.471 92.4272C112.86 92.1345 113.297 91.9566 113.781 91.8936ZM118.193 94.732C118.107 94.0736 118.166 93.4729 118.37 92.9301C118.581 92.3863 118.903 91.945 119.335 91.6065C119.774 91.2589 120.279 91.048 120.85 90.9737C121.366 90.9066 121.827 90.9514 122.235 91.1081C122.65 91.2558 122.991 91.4654 123.261 91.7369L123.137 90.785L124.505 90.6069L125.359 97.1636L123.99 97.3417L123.863 96.3659C123.673 96.7052 123.394 97.0039 123.024 97.2617C122.654 97.5196 122.215 97.6816 121.707 97.7477C121.144 97.821 120.61 97.7453 120.105 97.5206C119.599 97.288 119.173 96.9319 118.828 96.4524C118.49 95.9639 118.279 95.3905 118.193 94.732ZM123.563 94.0574C123.504 93.6052 123.358 93.2249 123.124 92.9165C122.898 92.607 122.623 92.3847 122.299 92.2494C121.975 92.1141 121.638 92.0691 121.289 92.1146C120.94 92.16 120.626 92.2896 120.347 92.5033C120.068 92.7092 119.854 92.9911 119.707 93.349C119.567 93.698 119.526 94.0986 119.585 94.5508C119.644 95.003 119.787 95.3878 120.014 95.7052C120.249 96.0215 120.529 96.2513 120.854 96.3945C121.186 96.5288 121.522 96.5737 121.864 96.5293C122.213 96.4839 122.527 96.3543 122.805 96.1406C123.084 95.9268 123.293 95.6414 123.432 95.2845C123.578 94.9186 123.622 94.5096 123.563 94.0574ZM127.768 91.1504C127.923 90.7914 128.151 90.4995 128.452 90.2747C128.761 90.041 129.141 89.8947 129.593 89.8358L129.776 91.24L129.431 91.2849C128.899 91.3541 128.512 91.5416 128.27 91.8475C128.035 92.1523 127.961 92.6379 128.048 93.3043L128.497 96.7552L127.14 96.9317L126.287 90.375L127.644 90.1985L127.768 91.1504ZM133.876 92.7274L137.324 95.6064L135.491 95.8449L132.697 93.3406L133.064 96.1608L131.707 96.3374L130.561 87.5316L131.918 87.3551L132.584 92.4719L134.591 89.2944L136.471 89.0497L133.876 92.7274ZM143.858 91.2588C143.89 91.5048 143.903 91.7289 143.897 91.9314L138.887 92.5834C138.995 93.1018 139.244 93.497 139.635 93.7689C140.025 94.0408 140.474 94.1437 140.982 94.0776C141.712 93.9826 142.188 93.6101 142.41 92.96L143.873 92.7695C143.753 93.3982 143.457 93.941 142.984 94.3979C142.518 94.8458 141.9 95.1198 141.131 95.22C140.504 95.3015 139.922 95.236 139.387 95.0234C138.858 94.8018 138.417 94.4557 138.066 93.9852C137.721 93.5057 137.504 92.9287 137.417 92.2544C137.329 91.5801 137.387 90.9715 137.591 90.4287C137.801 89.8769 138.134 89.4302 138.59 89.0885C139.054 88.7458 139.607 88.5327 140.249 88.4491C140.868 88.3685 141.437 88.4316 141.956 88.6384C142.475 88.8451 142.901 89.1769 143.235 89.6336C143.568 90.0824 143.776 90.6242 143.858 91.2588ZM142.386 91.0147C142.313 90.516 142.083 90.1386 141.694 89.8825C141.306 89.6265 140.854 89.5321 140.339 89.5992C139.87 89.6601 139.489 89.8629 139.195 90.2078C138.9 90.5446 138.754 90.9711 138.757 91.4871L142.386 91.0147ZM146.514 88.8681L146.986 92.4975C147.018 92.7434 147.097 92.9147 147.223 93.0113C147.355 93.0989 147.56 93.1247 147.838 93.0885L148.671 92.9801L148.818 94.1106L147.747 94.25C147.136 94.3295 146.649 94.2476 146.287 94.0043C145.925 93.7611 145.702 93.3182 145.618 92.6756L145.146 89.0462L144.372 89.1468L144.228 88.0402L145.002 87.9395L144.789 86.3093L146.158 86.1312L146.37 87.7614L147.965 87.5539L148.109 88.6606L146.514 88.8681ZM153.786 87.7643C153.941 87.4053 154.17 87.1134 154.471 86.8887C154.78 86.6549 155.16 86.5086 155.612 86.4497L155.795 87.8539L155.45 87.8988C154.918 87.968 154.531 88.1555 154.289 88.4614C154.054 88.7662 153.98 89.2518 154.067 89.9182L154.516 93.3691L153.159 93.5456L152.306 86.9889L153.663 86.8124L153.786 87.7643ZM163.288 88.7302C163.32 88.9761 163.333 89.2003 163.327 89.4028L158.317 90.0548C158.425 90.5732 158.674 90.9683 159.065 91.2402C159.455 91.5121 159.904 91.6151 160.412 91.549C161.142 91.454 161.617 91.0815 161.839 90.4314L163.303 90.2409C163.183 90.8696 162.887 91.4124 162.414 91.8693C161.948 92.3172 161.33 92.5912 160.56 92.6913C159.934 92.7729 159.352 92.7074 158.816 92.4948C158.287 92.2732 157.847 91.9271 157.495 91.4566C157.151 90.977 156.934 90.4001 156.847 89.7258C156.759 89.0515 156.817 88.4429 157.02 87.9001C157.231 87.3483 157.564 86.9016 158.02 86.5599C158.484 86.2172 159.037 86.0041 159.679 85.9204C160.298 85.8399 160.867 85.903 161.386 86.1098C161.905 86.3165 162.331 86.6483 162.665 87.105C162.998 87.5538 163.205 88.0956 163.288 88.7302ZM161.816 88.4861C161.743 87.9874 161.513 87.61 161.124 87.3539C160.736 87.0979 160.284 87.0034 159.768 87.0706C159.3 87.1315 158.919 87.3343 158.625 87.6792C158.33 88.016 158.184 88.4425 158.187 88.9584L161.816 88.4861ZM167.464 91.7929C166.949 91.86 166.473 91.8291 166.037 91.7004C165.607 91.5626 165.253 91.3506 164.974 91.0642C164.693 90.7699 164.519 90.4255 164.452 90.0309L165.856 89.8482C165.916 90.1227 166.077 90.3397 166.34 90.4991C166.61 90.6496 166.927 90.7011 167.292 90.6536C167.673 90.604 167.957 90.4944 168.145 90.3248C168.339 90.1462 168.422 89.9419 168.392 89.7118C168.36 89.4659 168.217 89.2989 167.963 89.2109C167.718 89.1218 167.332 89.0389 166.806 88.9622C166.296 88.8914 165.879 88.8126 165.553 88.7259C165.227 88.6393 164.932 88.48 164.668 88.2482C164.411 88.0153 164.255 87.6846 164.2 87.2562C164.154 86.9072 164.216 86.5764 164.385 86.264C164.553 85.9436 164.817 85.6754 165.176 85.4592C165.543 85.242 165.976 85.1009 166.476 85.0359C167.222 84.9388 167.846 85.0513 168.347 85.3732C168.856 85.6862 169.169 86.1659 169.285 86.8123L167.928 86.9888C167.866 86.6984 167.717 86.4798 167.48 86.3332C167.243 86.1865 166.942 86.137 166.577 86.1845C166.22 86.2309 165.955 86.334 165.782 86.4936C165.61 86.6532 165.538 86.8441 165.567 87.0663C165.589 87.2408 165.672 87.3793 165.814 87.4818C165.957 87.5842 166.124 87.6593 166.316 87.707C166.506 87.7467 166.787 87.7949 167.157 87.8515C167.65 87.9165 168.055 87.9968 168.375 88.0925C168.7 88.1791 168.991 88.3349 169.246 88.5599C169.501 88.7848 169.66 89.107 169.723 89.5265C169.771 89.8993 169.712 90.2459 169.544 90.5663C169.375 90.8867 169.112 91.1549 168.753 91.3711C168.402 91.5862 167.972 91.7268 167.464 91.7929ZM176.989 86.9472C177.021 87.1931 177.034 87.4173 177.028 87.6198L172.018 88.2717C172.126 88.7902 172.375 89.1853 172.766 89.4572C173.156 89.7291 173.605 89.832 174.113 89.766C174.842 89.671 175.318 89.2984 175.54 88.6484L177.004 88.4579C176.884 89.0866 176.588 89.6294 176.115 90.0863C175.649 90.5342 175.031 90.8082 174.261 90.9083C173.635 90.9899 173.053 90.9244 172.517 90.7117C171.988 90.4902 171.548 90.1441 171.196 89.6735C170.852 89.194 170.635 88.6171 170.548 87.9428C170.46 87.2685 170.518 86.6599 170.721 86.1171C170.932 85.5653 171.265 85.1186 171.721 84.7769C172.184 84.4342 172.738 84.221 173.38 84.1374C173.999 84.0569 174.568 84.12 175.087 84.3267C175.606 84.5335 176.032 84.8652 176.366 85.322C176.699 85.7708 176.906 86.3125 176.989 86.9472ZM175.517 86.7031C175.444 86.2043 175.213 85.8269 174.825 85.5709C174.437 85.3149 173.985 85.2204 173.469 85.2875C173.001 85.3484 172.62 85.5513 172.326 85.8961C172.031 86.233 171.885 86.6594 171.888 87.1754L175.517 86.7031ZM177.889 86.9632C177.803 86.3048 177.862 85.7041 178.066 85.1613C178.277 84.6174 178.599 84.1762 179.031 83.8377C179.47 83.4901 179.975 83.2792 180.546 83.2049C181.062 83.1377 181.523 83.1825 181.931 83.3393C182.345 83.487 182.687 83.6966 182.957 83.9681L182.833 83.0162L184.201 82.8381L185.054 89.3948L183.686 89.5729L183.559 88.5971C183.369 88.9364 183.089 89.235 182.72 89.4929C182.35 89.7508 181.911 89.9128 181.403 89.9789C180.84 90.0522 180.306 89.9765 179.801 89.7518C179.294 89.5192 178.869 89.1631 178.524 88.6836C178.186 88.1951 177.974 87.6216 177.889 86.9632ZM183.259 86.2886C183.2 85.8364 183.053 85.4561 182.82 85.1477C182.594 84.8382 182.319 84.6159 181.995 84.4806C181.671 84.3453 181.334 84.3003 180.985 84.3458C180.636 84.3912 180.322 84.5208 180.043 84.7345C179.763 84.9404 179.55 85.2223 179.403 85.5802C179.263 85.9292 179.222 86.3298 179.281 86.782C179.34 87.2342 179.483 87.619 179.71 87.9364C179.944 88.2527 180.224 88.4825 180.55 88.6257C180.882 88.76 181.218 88.8049 181.559 88.7605C181.908 88.7151 182.222 88.5855 182.501 88.3717C182.78 88.158 182.989 87.8726 183.128 87.5157C183.274 87.1498 183.317 86.7408 183.259 86.2886ZM187.463 83.3816C187.618 83.0226 187.847 82.7307 188.148 82.5059C188.457 82.2722 188.837 82.1259 189.289 82.067L189.472 83.4712L189.127 83.5161C188.595 83.5853 188.208 83.7728 187.966 84.0786C187.731 84.3835 187.657 84.8691 187.744 85.5355L188.193 88.9864L186.836 89.1629L185.983 82.6062L187.34 82.4296L187.463 83.3816ZM190.524 85.3431C190.436 84.6688 190.494 84.0602 190.697 83.5174C190.908 82.9656 191.237 82.5194 191.685 82.1788C192.133 81.8381 192.67 81.627 193.297 81.5455C194.09 81.4422 194.769 81.5474 195.334 81.8611C195.907 82.1658 196.329 82.6554 196.603 83.3298L195.139 83.5202C194.978 83.2105 194.754 82.9814 194.469 82.833C194.183 82.6846 193.842 82.6362 193.445 82.6878C192.89 82.7601 192.472 83.0162 192.19 83.4563C191.915 83.8873 191.824 84.4559 191.916 85.1619C192.008 85.868 192.242 86.3981 192.619 86.7525C193.004 87.1058 193.474 87.2463 194.029 87.174C194.815 87.0718 195.289 86.6591 195.453 85.9359L196.917 85.7454C196.813 86.4365 196.525 87.0145 196.054 87.4793C195.581 87.9362 194.955 88.2152 194.178 88.3164C193.551 88.3979 192.978 88.3314 192.458 88.1167C191.937 87.8941 191.504 87.547 191.16 87.0754C190.824 86.5948 190.611 86.0174 190.524 85.3431ZM201.063 80.5348C201.562 80.4698 202.02 80.5191 202.437 80.6827C202.862 80.8452 203.212 81.1223 203.489 81.5139C203.774 81.9044 203.955 82.3971 204.032 82.9921L204.536 86.8595L203.191 87.0345L202.714 83.3694C202.638 82.7823 202.433 82.3532 202.099 82.082C201.764 81.8029 201.343 81.6964 200.835 81.7624C200.327 81.8285 199.943 82.0398 199.683 82.3964C199.43 82.744 199.342 83.2113 199.418 83.7984L199.895 87.4634L198.538 87.64L197.392 78.8342L198.749 78.6577L199.141 81.6683C199.335 81.3607 199.596 81.1088 199.926 80.9127C200.263 80.7155 200.642 80.5895 201.063 80.5348Z" fill="#1A2969"/>
<rect x="27.3521" y="120.002" width="19" height="19" rx="9.5" transform="rotate(-7.4148 27.3521 120.002)" fill="#D0B4E0"/>
<g clip-path="url(#clip1_45_4654)">
<path d="M39.2826 132.19L39.1519 131.185L41.2618 128.458C41.3015 128.413 41.344 128.378 41.3892 128.353C41.4344 128.329 41.4809 128.313 41.5287 128.307C41.5808 128.3 41.6333 128.303 41.6861 128.316C41.7387 128.329 41.7881 128.352 41.8344 128.386L42.3106 128.76C42.3537 128.8 42.3883 128.843 42.4143 128.889C42.44 128.935 42.456 128.982 42.4623 129.03C42.4686 129.079 42.4657 129.129 42.4536 129.18C42.4415 129.232 42.4188 129.283 42.3856 129.333L40.2866 132.059L39.2826 132.19ZM39.6325 131.736L40.0643 131.679L41.4346 129.895L41.2008 129.698L40.9572 129.512L39.5759 131.304L39.6325 131.736ZM36.0834 132.606C35.874 132.633 35.6902 132.586 35.532 132.464C35.3738 132.343 35.2811 132.177 35.2538 131.968L34.3802 125.255C34.353 125.046 34.4004 124.862 34.5225 124.704C34.6446 124.545 34.8101 124.453 35.0191 124.425L38.6024 123.959L40.9138 125.738L41.0674 126.918L40.6129 126.977L40.4889 126.024L38.6709 126.261L38.4343 124.443L35.0783 124.88C35.0083 124.889 34.9478 124.926 34.8969 124.992C34.846 125.058 34.8253 125.126 34.8347 125.195L35.7083 131.908C35.7174 131.978 35.7548 132.038 35.8206 132.089C35.8864 132.14 35.9543 132.161 36.0242 132.152L38.1395 131.876L38.1986 132.331L36.0834 132.606ZM41.2008 129.698L40.9572 129.512L41.4346 129.895L41.2008 129.698Z" fill="white"/>
</g>
<path d="M59.7407 122.992C59.7954 123.412 59.7479 123.822 59.5981 124.22C59.4483 124.619 59.1707 124.966 58.7654 125.261C58.359 125.547 57.8147 125.735 57.1324 125.824L55.6331 126.019L56.0698 129.375L54.7132 129.551L53.6369 121.281L56.4928 120.909C57.1275 120.827 57.6774 120.868 58.1427 121.034C58.6148 121.19 58.9822 121.441 59.2449 121.786C59.5156 122.13 59.6808 122.532 59.7407 122.992ZM56.9884 124.717C57.504 124.65 57.8738 124.485 58.0978 124.222C58.3206 123.951 58.4042 123.601 58.3485 123.173C58.2308 122.268 57.6602 121.883 56.6369 122.016L55.1375 122.211L55.489 124.912L56.9884 124.717ZM62.4174 122.849C62.5724 122.49 62.8006 122.198 63.1021 121.973C63.4105 121.74 63.7908 121.593 64.243 121.534L64.4258 122.939L64.0807 122.984C63.5492 123.053 63.1621 123.24 62.9196 123.546C62.6849 123.851 62.611 124.337 62.6977 125.003L63.1468 128.454L61.7903 128.63L60.937 122.074L62.2935 121.897L62.4174 122.849ZM71.919 123.815C71.951 124.061 71.964 124.285 71.9581 124.488L66.9484 125.139C67.0562 125.658 67.3052 126.053 67.6956 126.325C68.0859 126.597 68.535 126.7 69.0427 126.634C69.7725 126.539 70.2484 126.166 70.4704 125.516L71.9341 125.326C71.8142 125.954 71.5178 126.497 71.0448 126.954C70.5787 127.402 69.9609 127.676 69.1914 127.776C68.5647 127.858 67.9833 127.792 67.4474 127.579C66.9184 127.358 66.4781 127.012 66.1264 126.541C65.7816 126.062 65.5654 125.485 65.4776 124.811C65.3898 124.136 65.4478 123.528 65.6514 122.985C65.862 122.433 66.1951 121.986 66.6509 121.645C67.1145 121.302 67.6676 121.089 68.3102 121.005C68.929 120.925 69.4979 120.988 70.0169 121.194C70.5359 121.401 70.9623 121.733 71.296 122.19C71.6287 122.639 71.8364 123.18 71.919 123.815ZM70.4472 123.571C70.3742 123.072 70.1436 122.695 69.7553 122.439C69.367 122.183 68.915 122.088 68.3994 122.155C67.9313 122.216 67.5503 122.419 67.2564 122.764C66.9614 123.101 66.8152 123.527 66.8178 124.043L70.4472 123.571ZM74.3302 121.311C74.5211 120.979 74.8014 120.685 75.1712 120.427C75.541 120.169 75.9758 120.008 76.4756 119.943C77.0468 119.868 77.585 119.943 78.0902 120.168C78.6023 120.384 79.0263 120.728 79.3621 121.201C79.6979 121.673 79.9086 122.239 79.9943 122.897C80.08 123.556 80.0221 124.164 79.8205 124.723C79.6179 125.274 79.2977 125.727 78.8599 126.082C78.429 126.429 77.9279 126.639 77.3568 126.713C76.857 126.778 76.3998 126.737 75.9853 126.589C75.5697 126.434 75.2194 126.221 74.9342 125.952L75.4638 130.021L74.1073 130.198L72.8482 120.523L74.2048 120.347L74.3302 121.311ZM78.614 123.077C78.5551 122.625 78.4093 122.248 78.1766 121.948C77.9508 121.638 77.6723 121.42 77.3413 121.294C77.0171 121.159 76.6805 121.114 76.3314 121.159C75.9903 121.204 75.6764 121.333 75.3897 121.548C75.111 121.762 74.8981 122.048 74.751 122.406C74.6119 122.763 74.5718 123.167 74.6307 123.619C74.6895 124.072 74.8324 124.456 75.0592 124.774C75.293 125.082 75.5719 125.304 75.8961 125.439C76.2282 125.574 76.5648 125.618 76.906 125.574C77.255 125.529 77.5689 125.399 77.8477 125.185C78.1333 124.963 78.3452 124.669 78.4832 124.304C78.6292 123.938 78.6728 123.529 78.614 123.077ZM80.8836 122.781C80.7979 122.123 80.8569 121.522 81.0606 120.979C81.2722 120.436 81.5939 119.994 82.0258 119.656C82.4646 119.308 82.9696 119.097 83.5408 119.023C84.0565 118.956 84.5181 119.001 84.9258 119.157C85.3403 119.305 85.6822 119.515 85.9515 119.786L85.8276 118.834L87.1961 118.656L88.0494 125.213L86.6809 125.391L86.5539 124.415C86.3641 124.755 86.0843 125.053 85.7145 125.311C85.3447 125.569 84.9059 125.731 84.3982 125.797C83.8349 125.87 83.3007 125.795 82.7955 125.57C82.2892 125.337 81.8637 124.981 81.519 124.502C81.1811 124.013 80.9693 123.44 80.8836 122.781ZM86.2535 122.107C86.1946 121.655 86.0483 121.274 85.8146 120.966C85.5887 120.656 85.3137 120.434 84.9896 120.299C84.6654 120.163 84.3288 120.119 83.9797 120.164C83.6307 120.209 83.3168 120.339 83.038 120.553C82.7583 120.759 82.5449 121.04 82.3978 121.398C82.2577 121.747 82.217 122.148 82.2759 122.6C82.3347 123.052 82.4776 123.437 82.7044 123.755C82.9392 124.071 83.2192 124.301 83.5444 124.444C83.8765 124.578 84.2131 124.623 84.5543 124.579C84.9033 124.533 85.2172 124.404 85.496 124.19C85.7747 123.976 85.9836 123.691 86.1227 123.334C86.2687 122.968 86.3123 122.559 86.2535 122.107ZM90.4583 119.2C90.6133 118.841 90.8415 118.549 91.143 118.324C91.4514 118.09 91.8317 117.944 92.2839 117.885L92.4667 119.289L92.1216 119.334C91.59 119.403 91.203 119.591 90.9605 119.897C90.7258 120.202 90.6519 120.687 90.7386 121.354L91.1877 124.805L89.8311 124.981L88.9778 118.424L90.3344 118.248L90.4583 119.2ZM99.9599 120.166C99.9919 120.412 100.005 120.636 99.999 120.838L94.9892 121.49C95.097 122.009 95.3461 122.404 95.7365 122.676C96.1268 122.948 96.5759 123.051 97.0836 122.984C97.8134 122.889 98.2893 122.517 98.5113 121.867L99.975 121.676C99.8551 122.305 99.5587 122.848 99.0857 123.305C98.6196 123.753 98.0018 124.027 97.2323 124.127C96.6055 124.208 96.0242 124.143 95.4883 123.93C94.9593 123.709 94.5189 123.363 94.1673 122.892C93.8225 122.413 93.6062 121.836 93.5185 121.161C93.4307 120.487 93.4887 119.878 93.6923 119.336C93.9029 118.784 94.236 118.337 94.6917 117.995C95.1554 117.653 95.7085 117.44 96.3511 117.356C96.9699 117.275 97.5388 117.339 98.0578 117.545C98.5768 117.752 99.0032 118.084 99.3369 118.54C99.6696 118.989 99.8773 119.531 99.9599 120.166ZM98.4881 119.922C98.4151 119.423 98.1845 119.045 97.7962 118.789C97.4079 118.533 96.9559 118.439 96.4403 118.506C95.9722 118.567 95.5912 118.77 95.2972 119.115C95.0022 119.452 94.8561 119.878 94.8587 120.394L98.4881 119.922ZM105.462 117.259C105.653 116.928 105.933 116.633 106.303 116.375C106.673 116.118 107.108 115.956 107.608 115.891C108.179 115.817 108.717 115.892 109.222 116.117C109.734 116.332 110.158 116.676 110.494 117.149C110.83 117.622 111.041 118.187 111.126 118.846C111.212 119.504 111.154 120.113 110.952 120.671C110.75 121.222 110.43 121.675 109.992 122.031C109.561 122.377 109.06 122.588 108.489 122.662C107.989 122.727 107.532 122.686 107.117 122.538C106.702 122.382 106.351 122.17 106.066 121.9L106.596 125.97L105.239 126.146L103.98 116.472L105.337 116.295L105.462 117.259ZM109.746 119.025C109.687 118.573 109.541 118.197 109.309 117.896C109.083 117.587 108.804 117.369 108.473 117.243C108.149 117.107 107.812 117.062 107.463 117.108C107.122 117.152 106.808 117.282 106.522 117.497C106.243 117.71 106.03 117.996 105.883 118.354C105.744 118.711 105.704 119.116 105.763 119.568C105.822 120.02 105.964 120.405 106.191 120.722C106.425 121.031 106.704 121.252 107.028 121.388C107.36 121.522 107.697 121.567 108.038 121.523C108.387 121.477 108.701 121.348 108.98 121.134C109.265 120.911 109.477 120.617 109.615 120.252C109.761 119.886 109.805 119.477 109.746 119.025ZM113.526 116.198C113.68 115.839 113.909 115.547 114.21 115.322C114.519 115.088 114.899 114.942 115.351 114.883L115.534 116.287L115.189 116.332C114.657 116.401 114.27 116.589 114.028 116.895C113.793 117.2 113.719 117.685 113.806 118.352L114.255 121.803L112.898 121.979L112.045 115.422L113.402 115.246L113.526 116.198ZM123.027 117.164C123.059 117.41 123.072 117.634 123.066 117.836L118.056 118.488C118.164 119.007 118.413 119.402 118.804 119.674C119.194 119.946 119.643 120.049 120.151 119.982C120.881 119.888 121.357 119.515 121.578 118.865L123.042 118.674C122.922 119.303 122.626 119.846 122.153 120.303C121.687 120.751 121.069 121.025 120.299 121.125C119.673 121.206 119.091 121.141 118.556 120.928C118.026 120.707 117.586 120.361 117.234 119.89C116.89 119.411 116.673 118.834 116.586 118.159C116.498 117.485 116.556 116.876 116.76 116.334C116.97 115.782 117.303 115.335 117.759 114.993C118.223 114.651 118.776 114.438 119.418 114.354C120.037 114.273 120.606 114.337 121.125 114.543C121.644 114.75 122.07 115.082 122.404 115.539C122.737 115.987 122.944 116.529 123.027 117.164ZM121.555 116.92C121.482 116.421 121.252 116.043 120.863 115.787C120.475 115.531 120.023 115.437 119.507 115.504C119.039 115.565 118.658 115.768 118.364 116.113C118.069 116.45 117.923 116.876 117.926 117.392L121.555 116.92ZM127.203 120.226C126.688 120.293 126.212 120.263 125.776 120.134C125.346 119.996 124.992 119.784 124.713 119.498C124.432 119.203 124.258 118.859 124.191 118.464L125.595 118.282C125.655 118.556 125.816 118.773 126.079 118.933C126.349 119.083 126.666 119.135 127.031 119.087C127.412 119.038 127.696 118.928 127.884 118.758C128.078 118.58 128.161 118.375 128.131 118.145C128.099 117.899 127.956 117.732 127.702 117.644C127.457 117.555 127.071 117.472 126.545 117.396C126.035 117.325 125.618 117.246 125.292 117.159C124.966 117.073 124.671 116.914 124.407 116.682C124.15 116.449 123.994 116.118 123.939 115.69C123.893 115.341 123.955 115.01 124.124 114.698C124.292 114.377 124.556 114.109 124.915 113.893C125.282 113.676 125.715 113.534 126.215 113.469C126.961 113.372 127.585 113.485 128.086 113.807C128.595 114.12 128.908 114.599 129.024 115.246L127.667 115.422C127.605 115.132 127.456 114.913 127.219 114.767C126.982 114.62 126.681 114.57 126.316 114.618C125.959 114.664 125.694 114.767 125.522 114.927C125.349 115.087 125.277 115.278 125.306 115.5C125.328 115.674 125.411 115.813 125.553 115.915C125.696 116.018 125.863 116.093 126.055 116.14C126.245 116.18 126.526 116.228 126.896 116.285C127.389 116.35 127.795 116.43 128.114 116.526C128.439 116.613 128.73 116.768 128.985 116.993C129.24 117.218 129.399 117.541 129.462 117.96C129.51 118.333 129.451 118.679 129.283 119C129.115 119.32 128.851 119.588 128.492 119.805C128.141 120.02 127.711 120.16 127.203 120.226ZM136.728 115.381C136.76 115.627 136.773 115.851 136.767 116.053L131.757 116.705C131.865 117.224 132.114 117.619 132.505 117.891C132.895 118.163 133.344 118.266 133.852 118.199C134.582 118.104 135.057 117.732 135.279 117.082L136.743 116.891C136.623 117.52 136.327 118.063 135.854 118.52C135.388 118.968 134.77 119.242 134 119.342C133.374 119.423 132.792 119.358 132.256 119.145C131.727 118.924 131.287 118.578 130.935 118.107C130.591 117.628 130.374 117.051 130.287 116.376C130.199 115.702 130.257 115.093 130.46 114.551C130.671 113.999 131.004 113.552 131.46 113.21C131.923 112.868 132.477 112.655 133.119 112.571C133.738 112.49 134.307 112.554 134.826 112.76C135.345 112.967 135.771 113.299 136.105 113.756C136.438 114.204 136.645 114.746 136.728 115.381ZM135.256 115.137C135.183 114.638 134.953 114.26 134.564 114.004C134.176 113.748 133.724 113.654 133.208 113.721C132.74 113.782 132.359 113.985 132.065 114.33C131.77 114.667 131.624 115.093 131.627 115.609L135.256 115.137ZM140.951 111.552C141.467 111.485 141.941 111.532 142.374 111.693C142.814 111.854 143.177 112.129 143.461 112.52C143.746 112.91 143.927 113.403 144.005 113.998L144.508 117.865L143.163 118.04L142.686 114.375C142.61 113.788 142.405 113.359 142.071 113.088C141.736 112.809 141.315 112.702 140.807 112.768C140.299 112.834 139.916 113.046 139.655 113.402C139.402 113.75 139.314 114.217 139.39 114.804L139.867 118.469L138.51 118.646L137.657 112.089L139.014 111.913L139.111 112.662C139.298 112.364 139.553 112.117 139.874 111.922C140.204 111.726 140.563 111.602 140.951 111.552ZM147.112 111.984L147.584 115.614C147.616 115.86 147.695 116.031 147.82 116.127C147.953 116.215 148.158 116.241 148.435 116.205L149.268 116.096L149.415 117.227L148.345 117.366C147.734 117.446 147.247 117.364 146.885 117.121C146.522 116.877 146.299 116.434 146.216 115.792L145.743 112.162L144.97 112.263L144.826 111.156L145.599 111.056L145.387 109.425L146.755 109.247L146.968 110.878L148.562 110.67L148.706 111.777L147.112 111.984ZM149.783 113.815C149.697 113.156 149.756 112.556 149.96 112.013C150.172 111.469 150.493 111.028 150.925 110.689C151.364 110.342 151.869 110.131 152.44 110.056C152.956 109.989 153.418 110.034 153.825 110.191C154.24 110.339 154.582 110.548 154.851 110.82L154.727 109.868L156.096 109.69L156.949 116.246L155.58 116.424L155.453 115.449C155.264 115.788 154.984 116.087 154.614 116.345C154.244 116.602 153.805 116.764 153.298 116.83C152.734 116.904 152.2 116.828 151.695 116.603C151.189 116.371 150.763 116.015 150.418 115.535C150.081 115.047 149.869 114.473 149.783 113.815ZM155.153 113.14C155.094 112.688 154.948 112.308 154.714 111.999C154.488 111.69 154.213 111.467 153.889 111.332C153.565 111.197 153.228 111.152 152.879 111.197C152.53 111.243 152.216 111.372 151.937 111.586C151.658 111.792 151.444 112.074 151.297 112.432C151.157 112.781 151.117 113.181 151.175 113.634C151.234 114.086 151.377 114.471 151.604 114.788C151.839 115.104 152.119 115.334 152.444 115.477C152.776 115.612 153.113 115.657 153.454 115.612C153.803 115.567 154.117 115.437 154.395 115.223C154.674 115.01 154.883 114.724 155.022 114.367C155.168 114.001 155.212 113.592 155.153 113.14ZM159.604 110.359L160.076 113.988C160.108 114.234 160.187 114.405 160.313 114.502C160.445 114.589 160.65 114.615 160.928 114.579L161.761 114.471L161.908 115.601L160.837 115.74C160.226 115.82 159.739 115.738 159.377 115.495C159.015 115.252 158.791 114.809 158.708 114.166L158.236 110.537L157.462 110.637L157.318 109.531L158.092 109.43L157.879 107.8L159.248 107.622L159.46 109.252L161.055 109.044L161.199 110.151L159.604 110.359ZM162.882 107.923C162.636 107.955 162.419 107.899 162.231 107.754C162.042 107.609 161.932 107.413 161.9 107.167C161.868 106.922 161.925 106.704 162.07 106.516C162.215 106.328 162.41 106.218 162.656 106.186C162.894 106.155 163.107 106.212 163.295 106.357C163.484 106.502 163.594 106.697 163.626 106.943C163.658 107.189 163.601 107.406 163.456 107.594C163.311 107.783 163.12 107.892 162.882 107.923ZM163.661 108.705L164.515 115.262L163.158 115.438L162.305 108.882L163.661 108.705ZM169.154 114.767C168.535 114.848 167.958 114.781 167.422 114.569C166.885 114.348 166.44 114.003 166.089 113.532C165.736 113.054 165.516 112.477 165.428 111.803C165.341 111.137 165.411 110.526 165.638 109.973C165.864 109.419 166.213 108.97 166.685 108.626C167.156 108.283 167.705 108.07 168.332 107.988C168.959 107.907 169.544 107.972 170.088 108.183C170.632 108.395 171.084 108.739 171.445 109.217C171.805 109.694 172.029 110.266 172.116 110.933C172.202 111.599 172.129 112.21 171.894 112.765C171.66 113.319 171.299 113.774 170.813 114.127C170.334 114.472 169.78 114.685 169.154 114.767ZM169 113.589C169.349 113.543 169.664 113.418 169.944 113.212C170.231 113.005 170.449 112.723 170.596 112.365C170.743 112.007 170.785 111.59 170.723 111.114C170.661 110.638 170.518 110.249 170.293 109.948C170.067 109.638 169.793 109.42 169.47 109.292C169.147 109.165 168.811 109.124 168.462 109.169C168.112 109.215 167.798 109.341 167.518 109.546C167.246 109.751 167.045 110.032 166.914 110.387C166.782 110.735 166.746 111.147 166.808 111.623C166.9 112.329 167.15 112.854 167.558 113.196C167.972 113.529 168.453 113.66 169 113.589ZM176.325 106.948C176.841 106.881 177.315 106.928 177.747 107.09C178.188 107.25 178.55 107.526 178.835 107.916C179.12 108.307 179.301 108.8 179.378 109.395L179.881 113.262L178.537 113.437L178.06 109.772C177.983 109.185 177.778 108.756 177.445 108.484C177.11 108.205 176.688 108.099 176.181 108.165C175.673 108.231 175.289 108.442 175.029 108.799C174.776 109.146 174.687 109.614 174.764 110.201L175.241 113.866L173.884 114.042L173.031 107.486L174.387 107.309L174.485 108.059C174.672 107.76 174.926 107.513 175.248 107.318C175.577 107.122 175.936 106.999 176.325 106.948ZM187.097 112.432C186.581 112.499 186.105 112.468 185.669 112.339C185.24 112.202 184.885 111.99 184.606 111.703C184.326 111.409 184.152 111.064 184.084 110.67L185.488 110.487C185.548 110.762 185.71 110.979 185.973 111.138C186.242 111.289 186.559 111.34 186.924 111.293C187.305 111.243 187.589 111.133 187.777 110.964C187.972 110.785 188.054 110.581 188.024 110.351C187.992 110.105 187.849 109.938 187.596 109.85C187.35 109.761 186.964 109.678 186.438 109.601C185.929 109.53 185.511 109.452 185.185 109.365C184.859 109.278 184.564 109.119 184.3 108.887C184.044 108.654 183.888 108.324 183.832 107.895C183.787 107.546 183.849 107.215 184.018 106.903C184.186 106.583 184.449 106.314 184.808 106.098C185.175 105.881 185.609 105.74 186.109 105.675C186.854 105.578 187.478 105.69 187.98 106.012C188.488 106.325 188.801 106.805 188.917 107.451L187.561 107.628C187.499 107.337 187.349 107.119 187.112 106.972C186.876 106.826 186.575 106.776 186.21 106.823C185.853 106.87 185.588 106.973 185.415 107.133C185.242 107.292 185.17 107.483 185.199 107.705C185.222 107.88 185.304 108.018 185.447 108.121C185.589 108.223 185.756 108.298 185.948 108.346C186.139 108.386 186.419 108.434 186.79 108.491C187.282 108.556 187.688 108.636 188.007 108.731C188.333 108.818 188.623 108.974 188.879 109.199C189.134 109.424 189.293 109.746 189.355 110.165C189.404 110.538 189.344 110.885 189.176 111.205C189.008 111.526 188.744 111.794 188.385 112.01C188.034 112.225 187.605 112.366 187.097 112.432ZM191.27 102.825L192.416 111.631L191.06 111.807L189.914 103.001L191.27 102.825ZM193.921 103.884C193.675 103.916 193.458 103.859 193.27 103.714C193.081 103.569 192.971 103.374 192.939 103.128C192.907 102.882 192.964 102.665 193.109 102.477C193.254 102.288 193.449 102.178 193.695 102.146C193.933 102.115 194.146 102.172 194.334 102.317C194.523 102.462 194.633 102.658 194.665 102.904C194.697 103.149 194.64 103.367 194.495 103.555C194.35 103.743 194.159 103.853 193.921 103.884ZM194.7 104.666L195.554 111.222L194.197 111.399L193.344 104.842L194.7 104.666ZM196.452 107.741C196.366 107.083 196.425 106.482 196.629 105.939C196.841 105.396 197.162 104.954 197.594 104.616C198.033 104.268 198.542 104.057 199.121 103.981C199.55 103.926 199.982 103.966 200.42 104.103C200.864 104.231 201.229 104.433 201.515 104.711L201.103 101.545L202.472 101.367L203.618 110.173L202.249 110.351L202.121 109.363C201.94 109.71 201.665 110.012 201.295 110.269C200.933 110.526 200.498 110.688 199.99 110.754C199.419 110.828 198.877 110.754 198.364 110.53C197.858 110.297 197.432 109.941 197.087 109.462C196.75 108.973 196.538 108.4 196.452 107.741ZM201.822 107.067C201.763 106.615 201.617 106.234 201.383 105.926C201.157 105.616 200.882 105.394 200.558 105.259C200.234 105.123 199.897 105.078 199.548 105.124C199.199 105.169 198.885 105.299 198.606 105.513C198.327 105.718 198.113 106 197.966 106.358C197.826 106.707 197.785 107.108 197.844 107.56C197.903 108.012 198.046 108.397 198.273 108.714C198.508 109.031 198.788 109.261 199.113 109.404C199.445 109.538 199.782 109.583 200.123 109.539C200.472 109.493 200.786 109.364 201.064 109.15C201.343 108.936 201.552 108.651 201.691 108.294C201.837 107.928 201.881 107.519 201.822 107.067ZM210.961 105.72C210.993 105.966 211.006 106.19 211 106.393L205.991 107.045C206.099 107.563 206.348 107.958 206.738 108.23C207.128 108.502 207.577 108.605 208.085 108.539C208.815 108.444 209.291 108.071 209.513 107.421L210.976 107.231C210.857 107.859 210.56 108.402 210.087 108.859C209.621 109.307 209.003 109.581 208.234 109.681C207.607 109.763 207.026 109.697 206.49 109.485C205.961 109.263 205.52 108.917 205.169 108.446C204.824 107.967 204.608 107.39 204.52 106.716C204.432 106.041 204.49 105.433 204.694 104.89C204.904 104.338 205.237 103.891 205.693 103.55C206.157 103.207 206.71 102.994 207.353 102.91C207.971 102.83 208.54 102.893 209.059 103.1C209.578 103.306 210.005 103.638 210.338 104.095C210.671 104.544 210.879 105.085 210.961 105.72ZM209.49 105.476C209.417 104.977 209.186 104.6 208.798 104.344C208.409 104.088 207.957 103.993 207.442 104.06C206.974 104.121 206.593 104.324 206.299 104.669C206.004 105.006 205.858 105.432 205.86 105.948L209.49 105.476ZM215.138 108.783C214.622 108.85 214.146 108.819 213.71 108.69C213.281 108.552 212.926 108.34 212.647 108.054C212.367 107.76 212.193 107.415 212.125 107.021L213.529 106.838C213.589 107.112 213.751 107.329 214.013 107.489C214.283 107.639 214.6 107.691 214.965 107.643C215.346 107.594 215.63 107.484 215.818 107.315C216.013 107.136 216.095 106.932 216.065 106.702C216.033 106.456 215.89 106.289 215.637 106.201C215.391 106.112 215.005 106.029 214.479 105.952C213.97 105.881 213.552 105.802 213.226 105.716C212.9 105.629 212.605 105.47 212.341 105.238C212.085 105.005 211.929 104.674 211.873 104.246C211.828 103.897 211.889 103.566 212.058 103.254C212.227 102.933 212.49 102.665 212.849 102.449C213.216 102.232 213.65 102.091 214.149 102.026C214.895 101.929 215.519 102.041 216.021 102.363C216.529 102.676 216.842 103.156 216.958 103.802L215.602 103.979C215.54 103.688 215.39 103.47 215.153 103.323C214.916 103.176 214.615 103.127 214.251 103.174C213.894 103.221 213.629 103.324 213.456 103.483C213.283 103.643 213.211 103.834 213.24 104.056C213.263 104.231 213.345 104.369 213.488 104.472C213.63 104.574 213.797 104.649 213.989 104.697C214.18 104.736 214.46 104.785 214.831 104.841C215.323 104.906 215.729 104.987 216.048 105.082C216.374 105.169 216.664 105.325 216.919 105.55C217.175 105.775 217.333 106.097 217.396 106.516C217.445 106.889 217.385 107.236 217.217 107.556C217.049 107.876 216.785 108.145 216.426 108.361C216.075 108.576 215.645 108.717 215.138 108.783Z" fill="#1A2969"/>
<path d="M35.4949 155.372C35.2094 155.41 34.9588 155.345 34.743 155.179C34.5273 155.013 34.4006 154.787 34.3631 154.502L33.3331 146.587C33.296 146.302 33.3607 146.052 33.5271 145.836C33.6936 145.62 33.9193 145.494 34.2044 145.456L35.3007 145.313L35.1209 143.931L35.7884 143.844L35.9682 145.227L40.4021 144.649L40.2222 143.267L40.842 143.187L41.0219 144.569L42.1183 144.426C42.4034 144.389 42.654 144.454 42.8702 144.62C43.0864 144.787 43.2128 145.012 43.2495 145.297L44.2794 153.211C44.3166 153.496 44.2521 153.747 44.0861 153.963C43.9201 154.179 43.6941 154.306 43.4082 154.343L35.4949 155.372ZM35.4142 154.753L43.3281 153.723C43.4232 153.71 43.5054 153.659 43.5748 153.57C43.6442 153.48 43.6725 153.387 43.6596 153.291L42.9524 147.857L34.2756 148.986L34.9828 154.421C34.9952 154.516 35.0462 154.598 35.136 154.668C35.2257 154.737 35.3182 154.766 35.4136 154.753M34.1948 148.366L42.8717 147.237L42.6297 145.377C42.6173 145.282 42.5663 145.2 42.4766 145.131C42.3869 145.061 42.2941 145.033 42.1983 145.046L34.285 146.076C34.1896 146.088 34.1071 146.139 34.0377 146.229C33.9683 146.319 33.94 146.411 33.9529 146.507L34.1948 148.366ZM38.8993 150.615C38.7713 150.631 38.6535 150.598 38.5461 150.516C38.4387 150.433 38.3767 150.328 38.36 150.199C38.3433 150.071 38.3764 149.954 38.4591 149.847C38.5418 149.74 38.6472 149.678 38.7752 149.661C38.9032 149.644 39.021 149.677 39.1284 149.76C39.2359 149.843 39.2979 149.948 39.3145 150.076C39.3312 150.204 39.2981 150.321 39.2155 150.428C39.1328 150.536 39.0274 150.598 38.8993 150.615ZM36.4202 150.937C36.2922 150.954 36.1744 150.921 36.067 150.838C35.9596 150.756 35.8976 150.65 35.8809 150.522C35.8642 150.394 35.8973 150.276 35.98 150.169C36.0627 150.062 36.1681 150 36.2961 149.983C36.4241 149.966 36.5419 149.999 36.6493 150.082C36.7568 150.165 36.8188 150.271 36.8354 150.398C36.8521 150.526 36.819 150.644 36.7364 150.751C36.6537 150.858 36.5483 150.921 36.4202 150.937ZM41.3784 150.292C41.2503 150.309 41.1326 150.276 41.0252 150.193C40.9178 150.11 40.8558 150.005 40.8391 149.877C40.8224 149.749 40.8555 149.631 40.9382 149.524C41.0209 149.417 41.1263 149.355 41.2543 149.338C41.3823 149.321 41.5001 149.354 41.6075 149.437C41.715 149.52 41.777 149.626 41.7936 149.753C41.8103 149.881 41.7772 149.998 41.6946 150.106C41.6119 150.213 41.5065 150.275 41.3784 150.292ZM39.2095 152.998C39.0815 153.015 38.9637 152.982 38.8563 152.899C38.7489 152.817 38.6869 152.711 38.6702 152.583C38.6535 152.455 38.6866 152.337 38.7693 152.23C38.852 152.123 38.9574 152.061 39.0854 152.044C39.2135 152.027 39.3312 152.06 39.4386 152.143C39.5461 152.226 39.6081 152.332 39.6248 152.459C39.6414 152.587 39.6084 152.705 39.5258 152.813C39.4431 152.921 39.3377 152.982 39.2095 152.998ZM36.7305 153.321C36.6024 153.337 36.4846 153.305 36.3772 153.222C36.2698 153.139 36.2078 153.034 36.1911 152.906C36.1745 152.778 36.2075 152.66 36.2902 152.553C36.3729 152.446 36.4783 152.384 36.6063 152.367C36.7344 152.35 36.8521 152.383 36.9596 152.466C37.067 152.549 37.129 152.654 37.1457 152.782C37.1623 152.91 37.1293 153.028 37.0467 153.135C36.9641 153.243 36.8586 153.305 36.7305 153.321ZM41.6886 152.676C41.5606 152.692 41.4428 152.659 41.3354 152.577C41.228 152.494 41.166 152.389 41.1493 152.26C41.1326 152.132 41.1657 152.015 41.2484 151.908C41.3311 151.801 41.4365 151.739 41.5645 151.722C41.6925 151.705 41.8103 151.738 41.9177 151.821C42.0252 151.904 42.0872 152.009 42.1038 152.137C42.1205 152.265 42.0875 152.382 42.0049 152.49C41.9222 152.598 41.8168 152.66 41.6886 152.676Z" fill="#4D4D4D"/>
<path d="M57.8551 143.311L57.9751 144.233L56.1406 144.472L56.9175 150.442L55.787 150.589L55.0101 144.619L53.1656 144.859L53.0456 143.937L57.8551 143.311ZM64.1341 143.946L64.8451 149.41L63.7147 149.557L63.6308 148.912C63.4815 149.16 63.2701 149.369 62.9964 149.54C62.7285 149.702 62.4326 149.804 62.1086 149.847C61.6789 149.903 61.2806 149.864 60.9136 149.73C60.5532 149.595 60.251 149.366 60.0071 149.041C59.7698 148.716 59.6189 148.305 59.5543 147.809L59.1362 144.596L60.2568 144.451L60.6529 147.495C60.7166 147.984 60.8879 148.345 61.167 148.578C61.4451 148.804 61.7958 148.889 62.2189 148.834C62.6419 148.779 62.959 148.607 63.1701 148.317C63.3869 148.02 63.4634 147.627 63.3998 147.137L63.0036 144.093L64.1341 143.946ZM70.9715 145.698C70.9982 145.903 71.009 146.09 71.0041 146.259L66.8293 146.802C66.9192 147.234 67.1267 147.563 67.452 147.79C67.7773 148.016 68.1515 148.102 68.5746 148.047C69.1828 147.968 69.5794 147.658 69.7644 147.116L70.9841 146.957C70.8842 147.481 70.6372 147.933 70.243 148.314C69.8546 148.687 69.3398 148.916 68.6985 148.999C68.1762 149.067 67.6918 149.012 67.2452 148.835C66.8043 148.651 66.4374 148.362 66.1443 147.97C65.857 147.571 65.6768 147.09 65.6037 146.528C65.5306 145.966 65.5789 145.459 65.7486 145.006C65.924 144.547 66.2016 144.174 66.5814 143.89C66.9678 143.604 67.4287 143.426 67.9642 143.357C68.4798 143.29 68.9539 143.342 69.3864 143.514C69.819 143.687 70.1743 143.963 70.4524 144.344C70.7296 144.718 70.9027 145.169 70.9715 145.698ZM69.745 145.495C69.6842 145.079 69.492 144.765 69.1684 144.551C68.8448 144.338 68.4682 144.259 68.0385 144.315C67.6485 144.366 67.3309 144.535 67.086 144.822C66.8402 145.103 66.7183 145.458 66.7205 145.888L69.745 145.495ZM73.5197 146.899L72.676 149.792L71.9422 149.888L72.2901 147.059L73.5197 146.899ZM81.2319 145.845L78.3462 146.221L78.0337 147.693L76.8536 147.847L78.4246 140.624L79.7336 140.454L83.101 147.034L81.911 147.189L81.2319 145.845ZM80.7946 144.964L79.2572 141.907L78.5436 145.257L80.7946 144.964ZM84.6985 142.086C84.8575 141.81 85.0911 141.565 85.3993 141.35C85.7075 141.135 86.0698 141 86.4863 140.946C86.9623 140.884 87.4108 140.947 87.8318 141.134C88.2585 141.314 88.6118 141.601 88.8917 141.995C89.1715 142.388 89.3471 142.86 89.4185 143.408C89.49 143.957 89.4417 144.464 89.2737 144.93C89.1048 145.389 88.838 145.766 88.4732 146.063C88.1141 146.351 87.6966 146.527 87.2206 146.589C86.8041 146.643 86.4231 146.608 86.0777 146.485C85.7314 146.356 85.4394 146.178 85.2018 145.954L85.6431 149.345L84.5127 149.492L83.4635 141.43L84.5939 141.283L84.6985 142.086ZM88.2682 143.558C88.2192 143.181 88.0977 142.868 87.9038 142.617C87.7156 142.359 87.4836 142.178 87.2077 142.073C86.9375 141.96 86.657 141.922 86.3661 141.96C86.0819 141.997 85.8203 142.105 85.5814 142.284C85.3491 142.462 85.1717 142.701 85.0492 142.999C84.9332 143.296 84.8998 143.633 84.9488 144.01C84.9979 144.387 85.1169 144.708 85.306 144.972C85.5008 145.229 85.7332 145.414 86.0034 145.527C86.2801 145.639 86.5606 145.676 86.8449 145.639C87.1358 145.601 87.3974 145.493 87.6297 145.315C87.8677 145.13 88.0442 144.885 88.1593 144.581C88.281 144.276 88.3173 143.935 88.2682 143.558ZM91.4179 141.202C91.547 140.903 91.7372 140.66 91.9885 140.472C92.2455 140.277 92.5624 140.155 92.9392 140.106L93.0915 141.277L92.8039 141.314C92.361 141.372 92.0385 141.528 91.8363 141.783C91.6408 142.037 91.5792 142.441 91.6514 142.997L92.0257 145.873L90.8952 146.02L90.1842 140.556L91.3146 140.409L91.4179 141.202ZM96.3999 139.767C96.3595 139.147 96.5319 138.637 96.9168 138.238C97.3084 137.837 97.8414 137.593 98.5157 137.505C98.9784 137.445 99.3891 137.475 99.7478 137.597C100.106 137.718 100.39 137.91 100.599 138.172C100.808 138.434 100.936 138.743 100.982 139.1C101.035 139.51 100.972 139.875 100.792 140.194C100.611 140.513 100.376 140.742 100.084 140.881L100.09 140.92C100.495 140.989 100.828 141.167 101.087 141.456C101.346 141.739 101.507 142.124 101.57 142.614C101.621 143.004 101.577 143.362 101.438 143.69C101.299 144.017 101.066 144.293 100.739 144.517C100.411 144.734 100.003 144.875 99.5133 144.938C98.7993 145.031 98.1873 144.926 97.6772 144.623C97.1729 144.312 96.8594 143.815 96.7369 143.132L97.8277 142.99C97.8998 143.337 98.0727 143.607 98.3466 143.8C98.6196 143.986 98.9643 144.052 99.3808 143.998C99.7841 143.945 100.081 143.796 100.27 143.549C100.459 143.296 100.531 142.994 100.485 142.644C100.425 142.181 100.234 141.873 99.9113 141.72C99.5946 141.56 99.1322 141.519 98.524 141.598L98.2661 141.632L98.1448 140.7L98.4126 140.665C98.9472 140.588 99.3422 140.446 99.5974 140.238C99.8593 140.029 99.9662 139.74 99.918 139.37C99.8767 139.052 99.7416 138.814 99.5125 138.656C99.2827 138.491 98.9793 138.433 98.6025 138.482C98.2323 138.53 97.9572 138.663 97.7772 138.882C97.5963 139.094 97.5041 139.341 97.5006 139.624L96.3999 139.767ZM102.533 140.734C102.385 139.59 102.46 138.672 102.76 137.981C103.066 137.283 103.691 136.872 104.637 136.749C105.582 136.626 106.289 136.863 106.756 137.461C107.23 138.052 107.541 138.919 107.69 140.062C107.84 141.219 107.763 142.15 107.458 142.856C107.159 143.553 106.537 143.964 105.592 144.087C104.646 144.21 103.937 143.973 103.462 143.376C102.994 142.771 102.684 141.89 102.533 140.734ZM106.579 140.207C106.51 139.672 106.414 139.223 106.293 138.863C106.179 138.501 106.001 138.218 105.759 138.014C105.517 137.804 105.187 137.726 104.771 137.78C104.354 137.834 104.056 137.994 103.875 138.26C103.694 138.519 103.591 138.838 103.566 139.218C103.548 139.596 103.574 140.054 103.644 140.589C103.716 141.144 103.81 141.606 103.925 141.974C104.04 142.343 104.219 142.629 104.46 142.832C104.709 143.035 105.041 143.11 105.458 143.056C105.874 143.001 106.173 142.845 106.354 142.586C106.542 142.326 106.645 142.004 106.662 141.618C106.679 141.233 106.652 140.762 106.579 140.207Z" fill="#555555" fill-opacity="0.7"/>
<defs>
<clipPath id="paint0_diamond_45_4654_clip_path"><path d="M201.19 22.2509L201.32 23.2425L238.01 18.4676L237.881 17.476L237.752 16.4843L201.061 21.2593L201.19 22.2509ZM245.726 23.5141L244.734 23.6431L245.767 31.5762L246.758 31.4472L247.75 31.3181L246.718 23.385L245.726 23.5141ZM240.72 39.292L240.591 38.3004L203.901 43.0753L204.03 44.0669L204.159 45.0586L240.849 40.2837L240.72 39.292ZM196.185 38.0288L197.176 37.8998L196.144 29.9667L195.152 30.0957L194.161 30.2248L195.193 38.1579L196.185 38.0288ZM204.03 44.0669L203.901 43.0753C200.615 43.5029 197.604 41.1858 197.176 37.8998L196.185 38.0288L195.193 38.1579C195.763 42.5392 199.777 45.6288 204.159 45.0586L204.03 44.0669ZM246.758 31.4472L245.767 31.5762C246.194 34.8622 243.877 37.8727 240.591 38.3004L240.72 39.292L240.849 40.2837C245.231 39.7135 248.32 35.6995 247.75 31.3181L246.758 31.4472ZM237.881 17.476L238.01 18.4676C241.296 18.04 244.307 20.3571 244.734 23.6431L245.726 23.5141L246.718 23.385C246.147 19.0037 242.133 15.9142 237.752 16.4843L237.881 17.476ZM201.19 22.2509L201.061 21.2593C196.68 21.8294 193.591 25.8434 194.161 30.2248L195.152 30.0957L196.144 29.9667C195.716 26.6807 198.034 23.6702 201.32 23.2425L201.19 22.2509Z" mask="url(#path-3-inside-1_45_4654)"/></clipPath><linearGradient id="paint0_diamond_45_4654" x1="0" y1="0" x2="500" y2="500" gradientUnits="userSpaceOnUse">
<stop offset="0.0272635" stop-color="#0030B7"/>
<stop offset="0.296742" stop-color="#D3CFCF"/>
<stop offset="0.769276" stop-color="#5961E2"/>
</linearGradient>
<clipPath id="clip0_45_4654">
<rect width="11" height="11" fill="white" transform="translate(25.8984 77.8375) rotate(-7.4148)"/>
</clipPath>
<clipPath id="clip1_45_4654">
<rect width="11" height="11" fill="white" transform="translate(31.835 123.453) rotate(-7.4148)"/>
</clipPath>
</defs>
</svg>
