<svg width="216" height="156" viewBox="0 0 216 156" fill="none" xmlns="http://www.w3.org/2000/svg">
<rect x="16.8677" width="204.081" height="130" rx="20" transform="rotate(7.45515 16.8677 0)" fill="white"/>
<path d="M35.2402 32.0992L30.0465 31.4196L28.8225 33.8372L26.6986 33.5593L32.7682 21.7187L35.1241 22.027L37.9427 35.0306L35.801 34.7504L35.2402 32.0992ZM34.8863 30.3646L33.6239 24.3358L30.8349 29.8345L34.8863 30.3646ZM43.0097 27.1434C43.3726 26.6826 43.8158 26.3473 44.3395 26.1374C44.8766 25.9173 45.4843 25.8515 46.1625 25.9403L45.8869 28.0463L45.3693 27.9786C44.5721 27.8743 43.9388 27.9972 43.4694 28.3472C43.0119 28.6988 42.7178 29.3744 42.587 30.3739L41.9097 35.5497L39.875 35.2835L41.1619 25.4493L43.1966 25.7156L43.0097 27.1434ZM50.1683 28.3161L49.4559 33.7597C49.4077 34.1286 49.4559 34.4072 49.6007 34.5956C49.759 34.7736 50.0463 34.8899 50.4628 34.9444L51.7121 35.1079L51.4902 36.8034L49.8839 36.5932C48.9677 36.4733 48.2937 36.1673 47.862 35.6751C47.4302 35.1829 47.2773 34.4549 47.4034 33.4911L48.1158 28.0475L46.9557 27.8957L47.1729 26.2359L48.333 26.3877L48.6529 23.9425L50.7054 24.2111L50.3855 26.6563L52.7771 26.9692L52.5599 28.6291L50.1683 28.3161ZM55.858 26.0472C55.4892 25.9989 55.1962 25.8335 54.979 25.5509C54.7618 25.2684 54.6774 24.9427 54.7256 24.5738C54.7739 24.205 54.9393 23.9119 55.2219 23.6948C55.5044 23.4776 55.8302 23.3931 56.199 23.4414C56.556 23.4881 56.843 23.6528 57.0602 23.9353C57.2774 24.2179 57.3618 24.5436 57.3136 24.9125C57.2653 25.2813 57.0999 25.5743 56.8173 25.7915C56.5348 26.0087 56.215 26.0939 55.858 26.0472ZM56.687 27.4809L55.4002 37.315L53.3655 37.0488L54.6524 27.2146L56.687 27.4809ZM58.0379 32.6498C58.1702 31.6385 58.4885 30.7785 58.9927 30.0699C59.5103 29.351 60.1593 28.8308 60.9396 28.5093C61.7199 28.1879 62.5801 28.0886 63.5201 28.2116C64.7099 28.3673 65.6542 28.7814 66.3528 29.4537C67.065 30.1157 67.4894 30.9881 67.626 32.071L65.4307 31.7837C65.3161 31.2726 65.0803 30.8544 64.7235 30.5294C64.3667 30.2043 63.8908 30.0029 63.2959 29.925C62.463 29.816 61.7577 30.0263 61.1801 30.5559C60.616 31.075 60.2646 31.8641 60.1261 32.9231C59.9875 33.9821 60.1232 34.8409 60.5332 35.4997C60.9551 36.16 61.5825 36.5447 62.4154 36.6537C63.5933 36.8078 64.4404 36.3922 64.9566 35.4069L67.1519 35.6941C66.7356 36.6562 66.0958 37.3834 65.2326 37.8755C64.371 38.3558 63.3572 38.5197 62.1912 38.3671C61.2512 38.2441 60.4455 37.9268 59.7742 37.4154C59.1044 36.8921 58.6112 36.2224 58.2944 35.4064C57.991 34.5801 57.9055 33.6612 58.0379 32.6498ZM72.5361 26.1238L70.8079 39.3312L68.7732 39.065L70.5015 25.8576L72.5361 26.1238ZM83.1673 35.7022C83.119 36.071 83.0516 36.4011 82.9651 36.6923L75.4512 35.7091C75.4079 36.5022 75.6169 37.1709 76.0782 37.7154C76.5394 38.2598 77.1508 38.5819 77.9123 38.6815C79.007 38.8248 79.8403 38.4679 80.4124 37.6109L82.6077 37.8981C82.1919 38.7635 81.5532 39.4363 80.6916 39.9166C79.8434 40.3865 78.8423 40.546 77.6881 40.3949C76.7481 40.2719 75.9306 39.9532 75.2355 39.4386C74.5538 38.9137 74.0486 38.2425 73.7199 37.425C73.4047 36.5971 73.3132 35.6774 73.4456 34.666C73.5779 33.6547 73.8962 32.7947 74.4004 32.0861C74.918 31.3672 75.573 30.8478 76.3652 30.5279C77.1693 30.2095 78.0532 30.1134 79.017 30.2395C79.9451 30.361 80.7456 30.6714 81.4184 31.171C82.0913 31.6705 82.5818 32.3156 82.8898 33.1062C83.1994 33.885 83.2919 34.7503 83.1673 35.7022ZM81.1275 34.7817C81.2137 34.0306 81.0246 33.3947 80.5602 32.874C80.0959 32.3534 79.477 32.0424 78.7036 31.9412C78.0015 31.8494 77.3711 31.9968 76.8122 32.3836C76.2548 32.7584 75.8787 33.3204 75.6839 34.0694L81.1275 34.7817ZM94.7723 42.5942C93.6182 42.4432 92.5883 42.0361 91.6827 41.373C90.7905 40.6995 90.1219 39.8436 89.6769 38.805C89.2453 37.7562 89.109 36.6249 89.2678 35.4113C89.4266 34.1976 89.8487 33.1455 90.534 32.2549C91.2313 31.3658 92.0968 30.7167 93.1307 30.3073C94.178 29.8877 95.2787 29.7534 96.4329 29.9044C97.5989 30.057 98.628 30.47 99.5202 31.1434C100.426 31.8066 101.095 32.6566 101.528 33.6936C101.961 34.7305 102.099 35.8558 101.94 37.0695C101.781 38.2831 101.358 39.3412 100.671 40.2437C99.9858 41.1343 99.1195 41.7894 98.0722 42.2091C97.0383 42.6184 95.9384 42.7468 94.7723 42.5942ZM95.0035 40.8273C95.8245 40.9347 96.5804 40.846 97.2712 40.5613C97.9636 40.2646 98.5334 39.7945 98.9806 39.1511C99.4414 38.4974 99.7317 37.7124 99.8515 36.7962C99.9714 35.88 99.8921 35.0527 99.6136 34.3144C99.3469 33.5775 98.9165 32.9827 98.3222 32.5297C97.7279 32.0768 97.0203 31.7966 96.1993 31.6892C95.3783 31.5817 94.6224 31.6704 93.9316 31.9552C93.2408 32.24 92.6659 32.7033 92.2067 33.3451C91.7594 33.9885 91.4759 34.7683 91.356 35.6845C91.2361 36.6007 91.3087 37.4332 91.5738 38.1819C91.8523 38.9203 92.288 39.5219 92.8807 39.9867C93.4749 40.4397 94.1825 40.7198 95.0035 40.8273ZM113.32 34.8916L112.033 44.7258L109.998 44.4595L110.15 43.2994C109.776 43.6619 109.311 43.9279 108.757 44.0974C108.216 44.2565 107.653 44.2979 107.07 44.2216C106.297 44.1204 105.622 43.8687 105.045 43.4665C104.48 43.0658 104.061 42.5268 103.786 41.8495C103.524 41.1737 103.451 40.3896 103.568 39.4972L104.324 33.7145L106.341 33.9784L105.624 39.4577C105.509 40.3382 105.64 41.0452 106.018 41.5788C106.398 42.1004 106.968 42.4111 107.73 42.5107C108.491 42.6104 109.123 42.457 109.624 42.0506C110.138 41.6338 110.453 40.9852 110.568 40.1047L111.285 34.6254L113.32 34.8916ZM118.161 37.2134L117.449 42.657C117.4 43.0258 117.449 43.3044 117.593 43.4928C117.752 43.6709 118.039 43.7871 118.455 43.8416L119.705 44.0051L119.483 45.7007L117.877 45.4905C116.96 45.3706 116.286 45.0645 115.855 44.5723C115.423 44.0802 115.27 43.3522 115.396 42.3884L116.108 36.9448L114.948 36.793L115.165 35.1331L116.326 35.285L116.646 32.8398L118.698 33.1084L118.378 35.5535L120.77 35.8665L120.552 37.5263L118.161 37.2134ZM125.121 33.0049L123.393 46.2123L121.358 45.946L123.086 32.7386L125.121 33.0049ZM128.557 35.5603C128.188 35.512 127.895 35.3466 127.678 35.064C127.46 34.7814 127.376 34.4557 127.424 34.0869C127.472 33.718 127.638 33.425 127.92 33.2078C128.203 32.9907 128.529 32.9062 128.898 32.9545C129.255 33.0012 129.542 33.1658 129.759 33.4484C129.976 33.731 130.06 34.0567 130.012 34.4255C129.964 34.7944 129.798 35.0874 129.516 35.3046C129.233 35.5217 128.914 35.607 128.557 35.5603ZM129.386 36.9939L128.099 46.8281L126.064 46.5619L127.351 36.7277L129.386 36.9939ZM137.04 37.8321C137.813 37.9333 138.482 38.1843 139.047 38.5849C139.624 38.9872 140.043 39.5262 140.306 40.2019C140.568 40.8777 140.641 41.6618 140.524 42.5542L139.765 48.3547L137.749 48.0908L138.468 42.5937C138.583 41.7132 138.451 41.0121 138.071 40.4905C137.693 39.9569 137.124 39.6403 136.362 39.5407C135.601 39.441 134.963 39.5996 134.448 40.0164C133.947 40.4228 133.639 41.0663 133.524 41.9468L132.805 47.4439L130.77 47.1777L132.057 37.3435L134.092 37.6097L133.944 38.7342C134.331 38.3732 134.794 38.1132 135.335 37.954C135.889 37.7965 136.457 37.7558 137.04 37.8321ZM152.049 44.7158C152.001 45.0846 151.933 45.4147 151.847 45.7059L144.333 44.7227C144.289 45.5157 144.498 46.1845 144.96 46.729C145.421 47.2734 146.032 47.5955 146.794 47.6951C147.888 47.8384 148.722 47.4815 149.294 46.6244L151.489 46.9117C151.073 47.7771 150.435 48.4499 149.573 48.9302C148.725 49.4001 147.724 49.5595 146.57 49.4085C145.63 49.2855 144.812 48.9667 144.117 48.4522C143.435 47.9273 142.93 47.2561 142.601 46.4385C142.286 45.6106 142.195 44.691 142.327 43.6796C142.459 42.6682 142.778 41.8083 143.282 41.0997C143.8 40.3808 144.454 39.8614 145.247 39.5414C146.051 39.2231 146.935 39.127 147.899 39.2531C148.827 39.3745 149.627 39.685 150.3 40.1845C150.973 40.6841 151.463 41.3292 151.771 42.1198C152.081 42.8986 152.173 43.7639 152.049 44.7158ZM150.009 43.7953C150.095 43.0442 149.906 42.4082 149.442 41.8876C148.977 41.3669 148.358 41.056 147.585 40.9548C146.883 40.8629 146.253 41.0104 145.694 41.3971C145.136 41.772 144.76 42.3339 144.565 43.083L150.009 43.7953Z" fill="#1A2969"/>
<g clip-path="url(#clip0_45_4679)">
<path d="M207.122 44.715C207.046 44.1883 206.829 43.6887 206.493 43.2661C206.157 42.8434 205.713 42.5125 205.206 42.3062C203.348 41.5471 195.606 40.534 195.606 40.534C195.606 40.534 187.862 39.5363 185.872 39.7919C185.328 39.8607 184.814 40.0663 184.381 40.3882C183.947 40.7101 183.609 41.1371 183.4 41.6267C182.386 44.856 181.501 49.8634 181.91 53.1444C181.985 53.6712 182.202 54.1708 182.538 54.5934C182.874 55.016 183.318 55.3469 183.826 55.5532C185.683 56.3123 193.425 57.3254 193.425 57.3254C193.425 57.3254 201.167 58.3385 203.157 58.0829C203.701 58.0141 204.215 57.8086 204.648 57.4867C205.082 57.1648 205.42 56.7378 205.629 56.2482C206.676 53.0183 207.523 48.0093 207.122 44.715Z" fill="#FF0000" fill-opacity="0.7"/>
<path d="M191.573 52.204L198.466 49.4467L192.514 45.0086L191.573 52.204Z" fill="white"/>
</g>
<rect x="24.2617" y="51.3938" width="17" height="17" rx="8.5" transform="rotate(7.45515 24.2617 51.3938)" fill="#CC93DF"/>
<rect x="24.2617" y="51.3938" width="17" height="17" rx="8.5" transform="rotate(7.45515 24.2617 51.3938)" stroke="#F6DAFF" stroke-width="2"/>
<g clip-path="url(#clip1_45_4679)">
<path d="M29.4524 56.4853C29.0758 56.4361 28.6949 56.5384 28.3938 56.7699C28.0926 57.0014 27.8957 57.343 27.8464 57.7197L27.1476 63.0596C27.0983 63.4362 27.2007 63.817 27.4322 64.1182C27.6637 64.4194 28.0053 64.6163 28.382 64.6656L31.4902 65.0723C31.6768 65.0968 31.8663 65.0842 32.0479 65.0354C32.2296 64.9866 32.3999 64.9025 32.549 64.7879L35.0725 62.8481C35.2216 62.7335 35.3468 62.5906 35.4407 62.4276C35.5346 62.2646 35.5955 62.0847 35.6199 61.8982L36.0266 58.7901C36.0759 58.4135 35.9736 58.0327 35.7421 57.7315C35.5106 57.4303 35.169 57.2334 34.7923 57.1841L29.4524 56.4853ZM28.4145 57.794C28.444 57.568 28.5622 57.363 28.7429 57.2241C28.9236 57.0853 29.1521 57.0238 29.3781 57.0534L34.718 57.7522C34.944 57.7817 35.149 57.8999 35.2878 58.0806C35.4267 58.2613 35.4881 58.4898 35.4586 58.7158L35.0497 61.8402L33.4023 61.6246C33.0257 61.5753 32.6448 61.6777 32.3437 61.9092C32.0425 62.1407 31.8456 62.4823 31.7963 62.859L31.5807 64.5064L28.4563 64.0975C28.2303 64.068 28.0253 63.9498 27.8864 63.7691C27.7475 63.5884 27.6861 63.3599 27.7157 63.1339L28.4145 57.794ZM32.1791 64.3489L32.3644 62.9333C32.3939 62.7073 32.5121 62.5023 32.6928 62.3634C32.8735 62.2245 33.102 62.1631 33.328 62.1927L34.7436 62.3779L34.7235 62.3938L32.1998 64.3336L32.1791 64.3489Z" fill="white"/>
</g>
<path d="M51.6895 67.0852L50.2186 63.5283L49.1834 63.3929L48.7506 66.7007L47.3941 66.5232L48.4762 58.2537L51.3319 58.6273C51.9665 58.7104 52.4874 58.8915 52.8946 59.1707C53.3097 59.4509 53.6 59.7915 53.7654 60.1923C53.9387 60.5942 53.9953 61.0252 53.9351 61.4853C53.8645 62.0247 53.6415 62.4957 53.2661 62.8984C52.8996 63.2942 52.3808 63.5289 51.7096 63.6024L53.3077 67.297L51.6895 67.0852ZM49.3251 62.3101L50.8243 62.5063C51.332 62.5727 51.7293 62.4956 52.0164 62.275C52.3114 62.0554 52.4869 61.7314 52.5429 61.3031C52.599 60.8747 52.5157 60.525 52.293 60.2538C52.0713 59.9747 51.7027 59.8014 51.1871 59.7339L49.6879 59.5377L49.3251 62.3101ZM61.3708 64.8545C61.3386 65.1004 61.2937 65.3205 61.236 65.5146L56.2267 64.8591C56.1979 65.3879 56.3372 65.8337 56.6447 66.1967C56.9522 66.5596 57.3598 66.7743 57.8675 66.8408C58.5973 66.9363 59.1528 66.6983 59.5342 66.127L60.9977 66.3185C60.7205 66.8954 60.2947 67.344 59.7203 67.6641C59.1549 67.9774 58.4874 68.0837 57.718 67.983C57.0913 67.901 56.5463 67.6885 56.0829 67.3455C55.6285 66.9956 55.2917 66.5481 55.0725 66.003C54.8624 65.4511 54.8014 64.838 54.8896 64.1638C54.9779 63.4895 55.1901 62.9162 55.5262 62.4438C55.8713 61.9645 56.3079 61.6183 56.836 61.405C57.3721 61.1927 57.9614 61.1287 58.6039 61.2127C59.2227 61.2937 59.7563 61.5007 60.2049 61.8337C60.6535 62.1667 60.9804 62.5968 61.1858 63.1239C61.3922 63.6431 61.4538 64.2199 61.3708 64.8545ZM60.0109 64.2409C60.0684 63.7401 59.9423 63.3162 59.6327 62.9691C59.3232 62.622 58.9106 62.4147 58.395 62.3472C57.927 62.286 57.5067 62.3843 57.1341 62.6421C56.7625 62.892 56.5118 63.2666 56.3819 63.766L60.0109 64.2409ZM64.6214 68.8864C64.1058 68.8189 63.6537 68.667 63.2651 68.4305C62.8854 68.1872 62.5974 67.8914 62.4009 67.5429C62.2055 67.1866 62.1258 66.809 62.1619 66.4103L63.5659 66.5941C63.5534 66.8748 63.6536 67.1259 63.8667 67.3474C64.0887 67.5621 64.3822 67.6933 64.7471 67.741C65.1278 67.7908 65.4307 67.7578 65.6556 67.642C65.8895 67.5194 66.0215 67.343 66.0516 67.113C66.0838 66.8671 65.9887 66.669 65.7663 66.5189C65.5518 66.3698 65.2001 66.1907 64.7111 65.9815C64.2369 65.7823 63.8535 65.599 63.5607 65.4316C63.2679 65.2641 63.0237 65.0345 62.8279 64.7426C62.64 64.4518 62.5741 64.0922 62.6302 63.6639C62.6759 63.3148 62.8205 63.011 63.0641 62.7525C63.3088 62.486 63.6324 62.2943 64.0349 62.1776C64.4454 62.0619 64.9005 62.0367 65.4002 62.1021C66.1459 62.1997 66.7199 62.4684 67.1222 62.9083C67.5335 63.3413 67.7124 63.8852 67.6591 64.5398L66.3026 64.3623C66.3172 64.0657 66.2289 63.8161 66.0375 63.6135C65.8462 63.411 65.5681 63.2859 65.2032 63.2381C64.8462 63.1914 64.5637 63.223 64.3557 63.333C64.1477 63.4429 64.0291 63.6089 64.0001 63.831C63.9772 64.0055 64.0215 64.1606 64.1328 64.2962C64.2442 64.4318 64.3864 64.5472 64.5595 64.6425C64.7337 64.7298 64.9925 64.8484 65.3359 64.9982C65.7953 65.1874 66.1668 65.3692 66.4506 65.5435C66.7434 65.7109 66.9842 65.936 67.1731 66.2189C67.362 66.5018 67.4329 66.854 67.3858 67.2754C67.337 67.6483 67.1903 67.9679 66.9456 68.2344C66.701 68.5009 66.3774 68.6926 65.9748 68.8093C65.5802 68.9271 65.1291 68.9528 64.6214 68.8864ZM75.0704 66.6472C75.0382 66.8931 74.9933 67.1131 74.9356 67.3073L69.9263 66.6518C69.8975 67.1805 70.0368 67.6264 70.3443 67.9893C70.6518 68.3523 71.0594 68.567 71.5671 68.6334C72.2969 68.7289 72.8524 68.491 73.2338 67.9197L74.6973 68.1112C74.4201 68.6881 73.9943 69.1366 73.4199 69.4568C72.8545 69.7701 72.1871 69.8764 71.4176 69.7757C70.791 69.6937 70.2459 69.4812 69.7825 69.1382C69.3281 68.7882 68.9913 68.3408 68.7722 67.7957C68.562 67.2438 68.501 66.6307 68.5893 65.9564C68.6775 65.2822 68.8897 64.7089 69.2258 64.2365C69.5709 63.7572 70.0075 63.4109 70.5357 63.1977C71.0717 62.9854 71.661 62.9213 72.3035 63.0054C72.9223 63.0864 73.4559 63.2934 73.9045 63.6264C74.3531 63.9594 74.6801 64.3895 74.8854 64.9166C75.0918 65.4357 75.1535 66.0126 75.0704 66.6472ZM73.7105 66.0336C73.768 65.5328 73.6419 65.1089 73.3324 64.7618C73.0228 64.4147 72.6102 64.2074 72.0946 64.1399C71.6266 64.0787 71.2063 64.177 70.8337 64.4348C70.4621 64.6847 70.2114 65.0593 70.0815 65.5587L73.7105 66.0336ZM75.936 66.8936C76.0222 66.2352 76.2333 65.6698 76.5694 65.1975C76.9135 64.7261 77.3377 64.3822 77.8421 64.1659C78.3554 63.9426 78.8976 63.8683 79.4687 63.943C79.9843 64.0105 80.419 64.1723 80.7728 64.4283C81.1355 64.6775 81.4122 64.9679 81.6028 65.2994L81.7273 64.3475L83.0957 64.5266L82.2378 71.0827L80.8694 70.9036L80.9971 69.9279C80.7266 70.2072 80.3795 70.424 79.9559 70.5783C79.5323 70.7327 79.0667 70.7766 78.559 70.7102C77.9958 70.6365 77.4989 70.4262 77.0682 70.0794C76.6386 69.7247 76.3187 69.2714 76.1086 68.7194C75.9074 68.1606 75.8499 67.552 75.936 66.8936ZM81.2992 67.6196C81.3583 67.1675 81.3145 66.7624 81.1677 66.4043C81.0289 66.0473 80.8202 65.7618 80.5416 65.5478C80.263 65.3338 79.9492 65.204 79.6001 65.1584C79.2511 65.1127 78.9145 65.1574 78.5902 65.2925C78.267 65.4196 77.9884 65.6373 77.7544 65.9455C77.5294 66.2469 77.3873 66.6236 77.3281 67.0758C77.269 67.5279 77.3083 67.9365 77.4461 68.3014C77.5919 68.6674 77.8035 68.9614 78.0811 69.1833C78.3676 69.3983 78.6814 69.5281 79.0225 69.5727C79.3715 69.6184 79.7082 69.5737 80.0324 69.4386C80.3567 69.3036 80.6318 69.0814 80.8579 68.7721C81.0929 68.4559 81.24 68.0718 81.2992 67.6196ZM86.1092 65.8891C86.3511 65.5819 86.6466 65.3583 86.9957 65.2184C87.3537 65.0717 87.7588 65.0278 88.211 65.087L88.0273 66.491L87.6822 66.4459C87.1507 66.3763 86.7285 66.4583 86.4156 66.6916C86.1106 66.926 85.9145 67.3764 85.8273 68.0427L85.3758 71.4933L84.0194 71.3158L84.8773 64.7597L86.2337 64.9372L86.1092 65.8891ZM88.5635 68.5702C88.6517 67.8959 88.8639 67.3226 89.2 66.8502C89.5451 66.371 89.9778 66.0242 90.498 65.8099C91.0182 65.5955 91.5916 65.5294 92.2183 65.6114C93.0115 65.7152 93.641 65.9912 94.1068 66.4394C94.5816 66.8808 94.8645 67.4624 94.9556 68.1843L93.4921 67.9928C93.4157 67.652 93.2585 67.3733 93.0206 67.1566C92.7827 66.9399 92.4654 66.8056 92.0688 66.7537C91.5136 66.681 91.0434 66.8212 90.6583 67.1742C90.2823 67.5203 90.048 68.0464 89.9556 68.7524C89.8633 69.4583 89.9537 70.0309 90.2271 70.4701C90.5083 70.9103 90.9266 71.1668 91.4818 71.2394C92.2671 71.3422 92.8319 71.0651 93.176 70.4082L94.6395 70.5997C94.362 71.2411 93.9355 71.7259 93.36 72.054C92.7856 72.3742 92.1097 72.4834 91.3324 72.3817C90.7057 72.2997 90.1686 72.0882 89.7211 71.7472C89.2746 71.3984 88.9457 70.9519 88.7345 70.4079C88.5323 69.857 88.4753 69.2444 88.5635 68.5702ZM99.9834 66.6275C100.483 66.6929 100.913 66.8581 101.274 67.1232C101.643 67.3892 101.91 67.747 102.078 68.1965C102.253 68.647 102.301 69.1697 102.223 69.7647L101.717 73.6317L100.373 73.4557L100.852 69.791C100.929 69.204 100.841 68.7366 100.588 68.3888C100.336 68.0331 99.9562 67.8221 99.4485 67.7556C98.9408 67.6892 98.5155 67.7949 98.1726 68.0728C97.8386 68.3437 97.6332 68.7727 97.5564 69.3597L97.0768 73.0245L95.7204 72.847L96.8726 64.042L98.229 64.2195L97.8351 67.2299C98.1015 66.9823 98.419 66.806 98.7878 66.701C99.1644 66.597 99.563 66.5725 99.9834 66.6275ZM108.625 68.8596C108.897 68.5724 109.244 68.3556 109.666 68.2092C110.098 68.0559 110.559 68.0114 111.051 68.0758C111.63 68.1516 112.136 68.3589 112.567 68.6978C112.999 69.0366 113.316 69.4815 113.518 70.0324C113.721 70.5754 113.78 71.1761 113.694 71.8345C113.608 72.4928 113.396 73.0662 113.057 73.5544C112.72 74.0347 112.294 74.3905 111.78 74.6217C111.275 74.846 110.736 74.9208 110.165 74.8461C109.658 74.7796 109.218 74.6213 108.848 74.3711C108.485 74.1219 108.209 73.8276 108.019 73.4882L107.895 74.44L106.538 74.2626L107.691 65.4576L109.047 65.6351L108.625 68.8596ZM112.314 71.6538C112.373 71.2017 112.328 70.8006 112.181 70.4504C112.042 70.0934 111.829 69.8113 111.541 69.6043C111.262 69.3903 110.949 69.2605 110.6 69.2148C110.259 69.1702 109.922 69.2149 109.59 69.3489C109.265 69.484 108.986 69.7057 108.752 70.0139C108.526 70.3232 108.384 70.7039 108.325 71.156C108.265 71.6082 108.305 72.0167 108.442 72.3817C108.589 72.7398 108.802 73.0258 109.081 73.2398C109.367 73.4547 109.681 73.5846 110.022 73.6292C110.371 73.6749 110.708 73.6302 111.032 73.4951C111.365 73.3531 111.645 73.1235 111.872 72.8063C112.107 72.4902 112.254 72.106 112.314 71.6538ZM114.583 71.9508C114.669 71.2924 114.88 70.727 115.217 70.2547C115.561 69.7833 115.985 69.4395 116.489 69.2231C117.002 68.9998 117.545 68.9255 118.116 69.0002C118.631 69.0677 119.066 69.2295 119.42 69.4855C119.783 69.7347 120.059 70.0251 120.25 70.3566L120.374 69.4047L121.743 69.5838L120.885 76.1399L119.517 75.9608L119.644 74.9851C119.374 75.2644 119.027 75.4812 118.603 75.6355C118.179 75.7899 117.714 75.8338 117.206 75.7674C116.643 75.6937 116.146 75.4835 115.715 75.1367C115.286 74.7819 114.966 74.3286 114.756 73.7766C114.554 73.2178 114.497 72.6092 114.583 71.9508ZM119.946 72.6768C120.005 72.2247 119.962 71.8196 119.815 71.4615C119.676 71.1045 119.467 70.819 119.189 70.605C118.91 70.3911 118.596 70.2612 118.247 70.2156C117.898 70.1699 117.562 70.2146 117.237 70.3497C116.914 70.4768 116.635 70.6945 116.401 71.0027C116.176 71.3041 116.034 71.6808 115.975 72.133C115.916 72.5851 115.955 72.9937 116.093 73.3587C116.239 73.7247 116.451 74.0186 116.728 74.2405C117.015 74.4555 117.328 74.5853 117.67 74.6299C118.019 74.6756 118.355 74.6309 118.68 74.4958C119.004 74.3608 119.279 74.1386 119.505 73.8293C119.74 73.5131 119.887 73.129 119.946 72.6768ZM122.644 73.0298C122.732 72.3556 122.944 71.7823 123.281 71.3099C123.626 70.8306 124.058 70.4838 124.579 70.2695C125.099 70.0552 125.672 69.989 126.299 70.071C127.092 70.1748 127.722 70.4509 128.187 70.8991C128.662 71.3404 128.945 71.922 129.036 72.644L127.573 72.4524C127.496 72.1117 127.339 71.8329 127.101 71.6162C126.863 71.3995 126.546 71.2652 126.149 71.2133C125.594 71.1406 125.124 71.2808 124.739 71.6339C124.363 71.98 124.129 72.506 124.036 73.212C123.944 73.918 124.034 74.4906 124.308 74.9298C124.589 75.37 125.007 75.6264 125.562 75.6991C126.348 75.8018 126.912 75.5248 127.257 74.8679L128.72 75.0594C128.443 75.7008 128.016 76.1855 127.441 76.5136C126.866 76.8338 126.19 76.9431 125.413 76.8413C124.786 76.7593 124.249 76.5478 123.802 76.2069C123.355 75.858 123.026 75.4116 122.815 74.8676C122.613 74.3167 122.556 73.7041 122.644 73.0298ZM132.823 74.3739L135.417 78.0415L133.585 77.8017L131.526 74.6641L131.157 77.4841L129.801 77.3066L130.953 68.5017L132.31 68.6792L131.64 73.7956L134.395 71.2394L136.275 71.4854L132.823 74.3739ZM139.903 71.8512C140.41 71.9176 140.845 72.0794 141.207 72.3365C141.577 72.5867 141.854 72.8771 142.037 73.2076L142.161 72.2557L143.53 72.4347L142.658 79.0979C142.579 79.7008 142.382 80.2196 142.067 80.6544C141.751 81.0971 141.333 81.4217 140.814 81.6281C140.303 81.8355 139.714 81.8956 139.048 81.8084C138.159 81.6922 137.449 81.3854 136.917 80.8882C136.384 80.3989 136.124 79.7921 136.139 79.0678L137.483 79.2437C137.542 79.5983 137.724 79.9005 138.03 80.1504C138.343 80.4092 138.734 80.5692 139.202 80.6305C139.749 80.7021 140.211 80.5931 140.588 80.3035C140.973 80.015 141.206 79.5535 141.289 78.9189L141.433 77.8242C141.162 78.1035 140.815 78.3242 140.39 78.4865C139.974 78.6419 139.517 78.6869 139.017 78.6215C138.446 78.5467 137.941 78.3355 137.502 77.9876C137.073 77.6329 136.753 77.1795 136.543 76.6276C136.341 76.0688 136.284 75.4602 136.37 74.8018C136.456 74.1434 136.667 73.578 137.003 73.1056C137.348 72.6343 137.772 72.2904 138.276 72.074C138.789 71.8507 139.332 71.7765 139.903 71.8512ZM141.733 75.5278C141.792 75.0756 141.749 74.6705 141.602 74.3124C141.463 73.9554 141.254 73.6699 140.976 73.456C140.697 73.242 140.383 73.1122 140.034 73.0665C139.685 73.0208 139.348 73.0655 139.024 73.2006C138.701 73.3278 138.422 73.5454 138.188 73.8537C137.963 74.155 137.821 74.5318 137.762 74.9839C137.703 75.4361 137.742 75.8446 137.88 76.2096C138.026 76.5756 138.238 76.8696 138.515 77.0914C138.802 77.3064 139.115 77.4363 139.456 77.4809C139.806 77.5266 140.142 77.4819 140.466 77.3468C140.791 77.2117 141.066 76.9895 141.292 76.6803C141.527 76.3641 141.674 75.9799 141.733 75.5278ZM146.543 73.7972C146.785 73.49 147.081 73.2665 147.43 73.1266C147.788 72.9798 148.193 72.936 148.645 72.9952L148.461 74.3992L148.116 74.3541C147.585 74.2845 147.163 74.3664 146.85 74.5998C146.545 74.8342 146.349 75.2846 146.261 75.9509L145.81 79.4015L144.453 79.224L145.311 72.6679L146.668 72.8454L146.543 73.7972ZM151.85 80.3007C151.231 80.2198 150.69 80.0078 150.226 79.6648C149.764 79.3138 149.423 78.8658 149.204 78.3208C148.986 77.7678 148.921 77.1542 149.009 76.4799C149.097 75.8136 149.321 75.2418 149.682 74.7646C150.043 74.2874 150.495 73.9432 151.039 73.732C151.583 73.5208 152.168 73.4562 152.795 73.5382C153.422 73.6202 153.971 73.8333 154.442 74.1773C154.913 74.5214 155.262 74.9704 155.488 75.5245C155.714 76.0785 155.784 76.6886 155.696 77.355C155.609 78.0213 155.381 78.5925 155.012 79.0687C154.643 79.5448 154.178 79.8914 153.618 80.1085C153.066 80.3187 152.476 80.3827 151.85 80.3007ZM152.004 79.1228C152.353 79.1685 152.689 79.1277 153.012 79.0006C153.343 78.8745 153.626 78.6573 153.86 78.3491C154.094 78.0408 154.242 77.6487 154.304 77.1728C154.367 76.6968 154.328 76.2843 154.188 75.9352C154.049 75.5782 153.84 75.2967 153.56 75.0906C153.28 74.8846 152.966 74.7588 152.617 74.7131C152.268 74.6674 151.932 74.7081 151.609 74.8353C151.293 74.9635 151.027 75.1827 150.809 75.493C150.592 75.7954 150.452 76.1846 150.39 76.6605C150.297 77.3665 150.404 77.9372 150.71 78.3726C151.025 78.8011 151.456 79.0512 152.004 79.1228ZM163.403 75.0353L162.545 81.5914L161.189 81.4139L161.29 80.6405C161.04 80.8821 160.731 81.0595 160.361 81.1724C160 81.2785 159.625 81.3061 159.237 81.2553C158.721 81.1878 158.271 81.02 157.887 80.7518C157.51 80.4847 157.23 80.1254 157.047 79.6738C156.872 79.2233 156.824 78.7006 156.902 78.1057L157.406 74.2505L158.751 74.4265L158.273 78.0793C158.196 78.6663 158.283 79.1377 158.535 79.4934C158.788 79.8411 159.169 80.0482 159.676 80.1147C160.184 80.1811 160.605 80.0788 160.939 79.8079C161.282 79.53 161.492 79.0976 161.568 78.5106L162.046 74.8578L163.403 75.0353ZM168.514 75.5952C169.03 75.6627 169.476 75.83 169.853 76.0971C170.237 76.3652 170.517 76.7246 170.692 77.1751C170.867 77.6256 170.915 78.1483 170.838 78.7433L170.332 82.6103L168.987 82.4343L169.467 78.7696C169.543 78.1826 169.455 77.7152 169.202 77.3674C168.95 77.0117 168.57 76.8007 168.063 76.7342C167.555 76.6678 167.13 76.7735 166.787 77.0514C166.453 77.3223 166.247 77.7513 166.171 78.3383L165.691 82.0031L164.335 81.8256L165.193 75.2695L166.549 75.4469L166.451 76.1966C166.708 75.9559 167.017 75.7826 167.378 75.6765C167.747 75.5714 168.126 75.5443 168.514 75.5952ZM172.042 79.4697C172.129 78.8113 172.34 78.246 172.676 77.7736C173.02 77.3022 173.444 76.9584 173.948 76.742C174.462 76.5187 175.008 76.4449 175.587 76.5207C176.015 76.5768 176.423 76.727 176.811 76.9713C177.207 77.2088 177.508 77.4983 177.714 77.8398L178.128 74.6748L179.496 74.8539L178.344 83.6588L176.976 83.4797L177.105 82.4922C176.841 82.7804 176.498 83.0017 176.074 83.156C175.659 83.3114 175.197 83.3559 174.689 83.2894C174.118 83.2147 173.613 83.0034 173.175 82.6556C172.745 82.3008 172.425 81.8475 172.215 81.2956C172.014 80.7367 171.956 80.1281 172.042 79.4697ZM177.406 80.1957C177.465 79.7436 177.421 79.3385 177.274 78.9804C177.135 78.6234 176.927 78.3379 176.648 78.1239C176.369 77.91 176.056 77.7802 175.707 77.7345C175.358 77.6888 175.021 77.7335 174.697 77.8686C174.373 77.9957 174.095 78.2134 173.861 78.5217C173.636 78.823 173.494 79.1998 173.435 79.6519C173.375 80.104 173.415 80.5126 173.553 80.8776C173.698 81.2436 173.91 81.5375 174.188 81.7594C174.474 81.9744 174.788 82.1042 175.129 82.1488C175.478 82.1945 175.815 82.1498 176.139 82.0148C176.463 81.8797 176.738 81.6575 176.964 81.3482C177.199 81.032 177.346 80.6479 177.406 80.1957ZM47.8884 84.8502C47.2696 84.7693 46.7286 84.5573 46.2652 84.2142C45.8028 83.8633 45.462 83.4153 45.2429 82.8702C45.0248 82.3173 44.9599 81.7036 45.0481 81.0294C45.1353 80.3631 45.3594 79.7913 45.7203 79.3141C46.0813 78.8369 46.5338 78.4927 47.0778 78.2815C47.6218 78.0703 48.2071 78.0057 48.8338 78.0877C49.4604 78.1697 50.0094 78.3828 50.4808 78.7268C50.9521 79.0709 51.3008 79.5199 51.5268 80.0739C51.7529 80.6279 51.8223 81.2381 51.7351 81.9044C51.6479 82.5707 51.4199 83.142 51.051 83.6181C50.6821 84.0943 50.2172 84.4409 49.6562 84.658C49.1043 84.8681 48.515 84.9322 47.8884 84.8502ZM48.0425 83.6723C48.3915 83.7179 48.7277 83.6772 49.0509 83.5501C49.382 83.424 49.6646 83.2068 49.8986 82.8985C50.1326 82.5903 50.2807 82.1982 50.343 81.7223C50.4052 81.2463 50.3664 80.8338 50.2266 80.4847C50.0877 80.1277 49.8785 79.8461 49.5988 79.6401C49.3192 79.4341 49.0049 79.3082 48.6558 79.2626C48.3068 79.2169 47.9707 79.2576 47.6475 79.3848C47.3322 79.5129 47.0655 79.7322 46.8474 80.0425C46.6303 80.3449 46.4906 80.7341 46.4283 81.21C46.336 81.916 46.4428 82.4867 46.7489 82.9221C47.064 83.3506 47.4952 83.6006 48.0425 83.6723ZM56.826 79.1335C57.3416 79.201 57.7877 79.3683 58.1642 79.6354C58.5486 79.9036 58.8284 80.2629 59.0034 80.7134C59.1784 81.1639 59.227 81.6867 59.1492 82.2816L58.6431 86.1486L57.2986 85.9727L57.7782 82.3079C57.855 81.7209 57.7669 81.2535 57.5139 80.9058C57.2619 80.5501 56.8821 80.339 56.3744 80.2726C55.8667 80.2061 55.4414 80.3119 55.0985 80.5897C54.7645 80.8607 54.5591 81.2896 54.4823 81.8766L54.0027 85.5414L52.6463 85.3639L53.5042 78.8078L54.8606 78.9853L54.7625 79.7349C55.0199 79.4943 55.329 79.3209 55.6898 79.2148C56.0586 79.1098 56.4373 79.0827 56.826 79.1335ZM65.7598 81.537L65.2849 85.1661C65.2528 85.412 65.2849 85.5977 65.3814 85.7233C65.4869 85.842 65.6785 85.9195 65.9561 85.9559L66.789 86.0648L66.6411 87.1952L65.5702 87.0551C64.9595 86.9752 64.5101 86.7711 64.2223 86.443C63.9344 86.1149 63.8325 85.6296 63.9166 84.987L64.3915 81.358L63.6181 81.2568L63.7629 80.1502L64.5363 80.2514L64.7496 78.6213L66.1179 78.8004L65.9046 80.4305L67.499 80.6391L67.3542 81.7457L65.7598 81.537ZM70.721 87.838C70.1023 87.7571 69.5613 87.5451 69.0978 87.202C68.6355 86.8511 68.2947 86.4031 68.0756 85.858C67.8575 85.3051 67.7926 84.6914 67.8808 84.0172C67.968 83.3509 68.1921 82.7791 68.553 82.3019C68.914 81.8247 69.3665 81.4805 69.9105 81.2693C70.4545 81.0581 71.0398 80.9935 71.6665 81.0755C72.2931 81.1575 72.8421 81.3706 73.3135 81.7146C73.7848 82.0587 74.1335 82.5077 74.3595 83.0617C74.5856 83.6157 74.655 84.2259 74.5678 84.8922C74.4806 85.5585 74.2525 86.1298 73.8836 86.6059C73.5147 87.0821 73.0498 87.4287 72.4889 87.6458C71.937 87.8559 71.3477 87.92 70.721 87.838ZM70.8752 86.6601C71.2242 86.7057 71.5603 86.665 71.8836 86.5379C72.2147 86.4118 72.4973 86.1946 72.7313 85.8863C72.9652 85.5781 73.1134 85.186 73.1757 84.7101C73.2379 84.2341 73.1991 83.8216 73.0592 83.4725C72.9204 83.1155 72.7112 82.8339 72.4315 82.6279C72.1519 82.4219 71.8376 82.296 71.4885 82.2504C71.1395 82.2047 70.8034 82.2454 70.4802 82.3726C70.1649 82.5007 69.8982 82.72 69.68 83.0303C69.463 83.3327 69.3233 83.7219 69.261 84.1978C69.1686 84.9038 69.2755 85.4745 69.5816 85.9099C69.8967 86.3384 70.3279 86.5884 70.8752 86.6601ZM77.5672 82.9369C77.8367 82.6655 78.1832 82.4527 78.6068 82.2984C79.0304 82.144 79.4921 82.0995 79.9918 82.1649C80.563 82.2397 81.0639 82.4505 81.4945 82.7973C81.9341 83.1372 82.2556 83.5786 82.4588 84.1216C82.6621 84.6645 82.7206 85.2652 82.6345 85.9236C82.5483 86.582 82.3362 87.1553 81.998 87.6435C81.6608 88.1239 81.235 88.4796 80.7207 88.7108C80.2153 88.9352 79.677 89.01 79.1059 88.9352C78.6062 88.8698 78.1749 88.7125 77.8122 88.4634C77.4505 88.2063 77.1664 87.9109 76.96 87.5773L76.4275 91.6466L75.071 91.4691L76.3369 81.7956L77.6933 81.9731L77.5672 82.9369ZM81.2543 85.743C81.3134 85.2908 81.2691 84.8897 81.1213 84.5396C80.9824 84.1825 80.7692 83.9005 80.4817 83.6934C80.2031 83.4795 79.8893 83.3496 79.5402 83.304C79.1991 83.2593 78.8625 83.304 78.5303 83.4381C78.206 83.5731 77.9269 83.7948 77.6929 84.103C77.4669 84.4123 77.3243 84.793 77.2651 85.2452C77.206 85.6973 77.2453 86.1059 77.3831 86.4709C77.5299 86.8289 77.7426 87.1149 78.0212 87.3289C78.3077 87.5439 78.6215 87.6737 78.9626 87.7183C79.3116 87.764 79.6483 87.7193 79.9725 87.5842C80.3058 87.4423 80.5859 87.2127 80.813 86.8955C81.048 86.5793 81.1951 86.1951 81.2543 85.743ZM85.2047 82.0725C84.9588 82.0404 84.7635 81.9301 84.6187 81.7417C84.4739 81.5533 84.4176 81.3362 84.4498 81.0903C84.482 80.8444 84.5922 80.649 84.7806 80.5042C84.969 80.3595 85.1861 80.3032 85.432 80.3353C85.67 80.3665 85.8614 80.4762 86.0062 80.6646C86.1509 80.853 86.2072 81.0701 86.1751 81.316C86.1429 81.5619 86.0326 81.7573 85.8442 81.9021C85.6559 82.0469 85.4427 82.1037 85.2047 82.0725ZM85.7574 83.0283L84.8995 89.5844L83.543 89.4069L84.4009 82.8508L85.7574 83.0283ZM86.6579 86.4743C86.7462 85.8 86.9583 85.2267 87.2945 84.7543C87.6396 84.2751 88.0722 83.9283 88.5924 83.714C89.1126 83.4996 89.6861 83.4335 90.3127 83.5155C91.106 83.6193 91.7355 83.8953 92.2013 84.3435C92.676 84.7849 92.9589 85.3665 93.05 86.0884L91.5865 85.8969C91.5101 85.5561 91.3529 85.2774 91.115 85.0607C90.8771 84.844 90.5599 84.7097 90.1633 84.6578C89.608 84.5851 89.1378 84.7253 88.7528 85.0783C88.3767 85.4244 88.1424 85.9505 88.0501 86.6565C87.9577 87.3624 88.0482 87.935 88.3215 88.3742C88.6027 88.8144 89.021 89.0709 89.5763 89.1435C90.3616 89.2463 90.9263 88.9692 91.2704 88.3123L92.734 88.5038C92.4564 89.1452 92.0299 89.63 91.4545 89.9581C90.8801 90.2783 90.2042 90.3875 89.4268 90.2858C88.8001 90.2038 88.263 89.9923 87.8155 89.6513C87.369 89.3025 87.0401 88.856 86.8289 88.312C86.6267 87.7611 86.5697 87.1485 86.6579 86.4743Z" fill="#1A2969"/>
<mask id="path-8-inside-1_45_4679" fill="white">
<path d="M16.6531 101.833C17.0831 98.5473 20.0952 96.2322 23.3809 96.6622L39.2457 98.7382C42.5314 99.1682 44.8464 102.18 44.4164 105.466L43.1189 115.381C42.689 118.667 39.6769 120.982 36.3912 120.552L20.5264 118.476C17.2407 118.046 14.9257 115.034 15.3556 111.748L16.6531 101.833Z"/>
</mask>
<path d="M16.6531 101.833C17.0831 98.5473 20.0952 96.2322 23.3809 96.6622L39.2457 98.7382C42.5314 99.1682 44.8464 102.18 44.4164 105.466L43.1189 115.381C42.689 118.667 39.6769 120.982 36.3912 120.552L20.5264 118.476C17.2407 118.046 14.9257 115.034 15.3556 111.748L16.6531 101.833Z" fill="#DAE0F8"/>
<g clip-path="url(#paint0_diamond_45_4679_clip_path)" data-figma-skip-parse="true" mask="url(#path-8-inside-1_45_4679)"><g transform="matrix(0.0204717 0.0268815 -0.0327098 0.0145684 15.7797 91.7231)"><rect x="0" y="0" width="1192.87" height="576.599" fill="url(#paint0_diamond_45_4679)" opacity="0.5" shape-rendering="crispEdges"/><rect x="0" y="0" width="1192.87" height="576.599" transform="scale(1 -1)" fill="url(#paint0_diamond_45_4679)" opacity="0.5" shape-rendering="crispEdges"/><rect x="0" y="0" width="1192.87" height="576.599" transform="scale(-1 1)" fill="url(#paint0_diamond_45_4679)" opacity="0.5" shape-rendering="crispEdges"/><rect x="0" y="0" width="1192.87" height="576.599" transform="scale(-1)" fill="url(#paint0_diamond_45_4679)" opacity="0.5" shape-rendering="crispEdges"/></g></g><path d="M23.3809 96.6622L23.2512 97.6537L39.1159 99.7297L39.2457 98.7382L39.3754 97.7467L23.5107 95.6707L23.3809 96.6622ZM44.4164 105.466L43.4249 105.336L42.1274 115.252L43.1189 115.381L44.1105 115.511L45.408 105.596L44.4164 105.466ZM36.3912 120.552L36.5209 119.561L20.6562 117.485L20.5264 118.476L20.3967 119.468L36.2614 121.544L36.3912 120.552ZM15.3556 111.748L16.3472 111.878L17.6447 101.963L16.6531 101.833L15.6616 101.703L14.3641 111.619L15.3556 111.748ZM20.5264 118.476L20.6562 117.485C17.9181 117.126 15.9889 114.616 16.3472 111.878L15.3556 111.748L14.3641 111.619C13.8625 115.452 16.5634 118.966 20.3967 119.468L20.5264 118.476ZM43.1189 115.381L42.1274 115.252C41.7691 117.99 39.259 119.919 36.5209 119.561L36.3912 120.552L36.2614 121.544C40.0947 122.045 43.6089 119.345 44.1105 115.511L43.1189 115.381ZM39.2457 98.7382L39.1159 99.7297C41.854 100.088 43.7832 102.598 43.4249 105.336L44.4164 105.466L45.408 105.596C45.9096 101.762 43.2087 98.2483 39.3754 97.7467L39.2457 98.7382ZM23.3809 96.6622L23.5107 95.6707C19.6774 95.169 16.1632 97.8699 15.6616 101.703L16.6531 101.833L17.6447 101.963C18.003 99.2246 20.5131 97.2954 23.2512 97.6537L23.3809 96.6622Z" data-figma-gradient-fill="{&#34;type&#34;:&#34;GRADIENT_DIAMOND&#34;,&#34;stops&#34;:[{&#34;color&#34;:{&#34;r&#34;:0.0,&#34;g&#34;:0.18740472197532654,&#34;b&#34;:0.71730768680572510,&#34;a&#34;:1.0},&#34;position&#34;:0.027263522148132324},{&#34;color&#34;:{&#34;r&#34;:0.82692307233810425,&#34;g&#34;:0.81102073192596436,&#34;b&#34;:0.81102073192596436,&#34;a&#34;:1.0},&#34;position&#34;:0.29674249887466431},{&#34;color&#34;:{&#34;r&#34;:0.34901961684226990,&#34;g&#34;:0.38039216399192810,&#34;b&#34;:0.88627451658248901,&#34;a&#34;:1.0},&#34;position&#34;:0.7692759633064270}],&#34;stopsVar&#34;:[{&#34;color&#34;:{&#34;r&#34;:0.0,&#34;g&#34;:0.18740472197532654,&#34;b&#34;:0.71730768680572510,&#34;a&#34;:1.0},&#34;position&#34;:0.027263522148132324},{&#34;color&#34;:{&#34;r&#34;:0.82692307233810425,&#34;g&#34;:0.81102073192596436,&#34;b&#34;:0.81102073192596436,&#34;a&#34;:1.0},&#34;position&#34;:0.29674249887466431},{&#34;color&#34;:{&#34;r&#34;:0.34901961684226990,&#34;g&#34;:0.38039216399192810,&#34;b&#34;:0.88627451658248901,&#34;a&#34;:1.0},&#34;position&#34;:0.7692759633064270}],&#34;transform&#34;:{&#34;m00&#34;:40.943302154541016,&#34;m01&#34;:-65.419509887695312,&#34;m02&#34;:28.017843246459961,&#34;m10&#34;:53.763004302978516,&#34;m11&#34;:29.136865615844727,&#34;m12&#34;:50.273147583007812},&#34;opacity&#34;:0.50,&#34;blendMode&#34;:&#34;NORMAL&#34;,&#34;visible&#34;:true}" mask="url(#path-8-inside-1_45_4679)"/>
<path d="M27.3839 112.314L34.8437 109.256L28.4219 104.382L27.3839 112.314Z" fill="#335EC3"/>
<defs>
<clipPath id="paint0_diamond_45_4679_clip_path"><path d="M23.3809 96.6622L23.2512 97.6537L39.1159 99.7297L39.2457 98.7382L39.3754 97.7467L23.5107 95.6707L23.3809 96.6622ZM44.4164 105.466L43.4249 105.336L42.1274 115.252L43.1189 115.381L44.1105 115.511L45.408 105.596L44.4164 105.466ZM36.3912 120.552L36.5209 119.561L20.6562 117.485L20.5264 118.476L20.3967 119.468L36.2614 121.544L36.3912 120.552ZM15.3556 111.748L16.3472 111.878L17.6447 101.963L16.6531 101.833L15.6616 101.703L14.3641 111.619L15.3556 111.748ZM20.5264 118.476L20.6562 117.485C17.9181 117.126 15.9889 114.616 16.3472 111.878L15.3556 111.748L14.3641 111.619C13.8625 115.452 16.5634 118.966 20.3967 119.468L20.5264 118.476ZM43.1189 115.381L42.1274 115.252C41.7691 117.99 39.259 119.919 36.5209 119.561L36.3912 120.552L36.2614 121.544C40.0947 122.045 43.6089 119.345 44.1105 115.511L43.1189 115.381ZM39.2457 98.7382L39.1159 99.7297C41.854 100.088 43.7832 102.598 43.4249 105.336L44.4164 105.466L45.408 105.596C45.9096 101.762 43.2087 98.2483 39.3754 97.7467L39.2457 98.7382ZM23.3809 96.6622L23.5107 95.6707C19.6774 95.169 16.1632 97.8699 15.6616 101.703L16.6531 101.833L17.6447 101.963C18.003 99.2246 20.5131 97.2954 23.2512 97.6537L23.3809 96.6622Z" mask="url(#path-8-inside-1_45_4679)"/></clipPath><linearGradient id="paint0_diamond_45_4679" x1="0" y1="0" x2="500" y2="500" gradientUnits="userSpaceOnUse">
<stop offset="0.0272635" stop-color="#0030B7"/>
<stop offset="0.296742" stop-color="#D3CFCF"/>
<stop offset="0.769276" stop-color="#5961E2"/>
</linearGradient>
<clipPath id="clip0_45_4679">
<rect width="25" height="17" fill="white" transform="translate(183.225 38.9138) rotate(7.45515)"/>
</clipPath>
<clipPath id="clip1_45_4679">
<rect width="11" height="11" fill="white" transform="translate(26.8472 54.7577) rotate(7.45515)"/>
</clipPath>
</defs>
</svg>
