<svg width="329" height="118" viewBox="0 0 329 118" fill="none" xmlns="http://www.w3.org/2000/svg">
<mask id="path-1-inside-1_45_4829" fill="white">
<path d="M5.02705 56.6864C5.39838 46.9109 12.7866 38.8386 22.4911 37.6052L295.586 2.89724C307.632 1.36627 318.252 10.836 318.106 22.9783L317.657 60.333C317.537 70.3115 310.079 78.6747 300.18 79.9328L26.1105 114.765C13.8565 116.322 3.13452 106.509 3.6034 94.165L5.02705 56.6864Z"/>
</mask>
<path d="M5.02705 56.6864C5.39838 46.9109 12.7866 38.8386 22.4911 37.6052L295.586 2.89724C307.632 1.36627 318.252 10.836 318.106 22.9783L317.657 60.333C317.537 70.3115 310.079 78.6747 300.18 79.9328L26.1105 114.765C13.8565 116.322 3.13452 106.509 3.6034 94.165L5.02705 56.6864Z" fill="#E5EDFD"/>
<g clip-path="url(#paint0_diamond_45_4829_clip_path)" data-figma-skip-parse="true" mask="url(#path-1-inside-1_45_4829)"><g transform="matrix(0.267202 0.0507098 -0.321256 0.106768 -19.5494 29.1492)"><rect x="0" y="0" width="1175.59" height="563.771" fill="url(#paint0_diamond_45_4829)" opacity="0.51" shape-rendering="crispEdges"/><rect x="0" y="0" width="1175.59" height="563.771" transform="scale(1 -1)" fill="url(#paint0_diamond_45_4829)" opacity="0.51" shape-rendering="crispEdges"/><rect x="0" y="0" width="1175.59" height="563.771" transform="scale(-1 1)" fill="url(#paint0_diamond_45_4829)" opacity="0.51" shape-rendering="crispEdges"/><rect x="0" y="0" width="1175.59" height="563.771" transform="scale(-1)" fill="url(#paint0_diamond_45_4829)" opacity="0.51" shape-rendering="crispEdges"/></g></g><path d="M317.657 60.333L316.657 60.321L317.657 60.333ZM318.106 22.9783L319.106 22.9903L318.106 22.9783ZM22.4911 37.6052L22.6172 38.5972L295.712 3.88926L295.586 2.89724L295.46 1.90522L22.365 36.6132L22.4911 37.6052ZM318.106 22.9783L317.106 22.9663L316.657 60.321L317.657 60.333L318.657 60.3451L319.106 22.9903L318.106 22.9783ZM300.18 79.9328L300.054 78.9408L25.9844 113.773L26.1105 114.765L26.2366 115.757L300.306 80.9248L300.18 79.9328ZM3.6034 94.165L4.60268 94.203L6.02633 56.7244L5.02705 56.6864L4.02777 56.6485L2.60412 94.127L3.6034 94.165ZM26.1105 114.765L25.9844 113.773C14.3431 115.252 4.15724 105.929 4.60268 94.203L3.6034 94.165L2.60412 94.127C2.11179 107.088 13.3699 117.392 26.2366 115.757L26.1105 114.765ZM317.657 60.333L316.657 60.321C316.543 69.8006 309.458 77.7455 300.054 78.9408L300.18 79.9328L300.306 80.9248C310.7 79.6038 318.531 70.8225 318.657 60.3451L317.657 60.333ZM295.586 2.89724L295.712 3.88926C307.156 2.43483 317.245 11.4311 317.106 22.9663L318.106 22.9783L319.106 22.9903C319.26 10.2409 308.109 0.297695 295.46 1.90522L295.586 2.89724ZM22.4911 37.6052L22.365 36.6132C12.1753 37.9082 4.41767 46.3842 4.02777 56.6485L5.02705 56.6864L6.02633 56.7244C6.3791 47.4376 13.3979 39.7689 22.6172 38.5972L22.4911 37.6052Z" data-figma-gradient-fill="{&#34;type&#34;:&#34;GRADIENT_DIAMOND&#34;,&#34;stops&#34;:[{&#34;color&#34;:{&#34;r&#34;:0.0,&#34;g&#34;:0.18740472197532654,&#34;b&#34;:0.71730768680572510,&#34;a&#34;:1.0},&#34;position&#34;:0.027263522148132324},{&#34;color&#34;:{&#34;r&#34;:0.82692307233810425,&#34;g&#34;:0.81102073192596436,&#34;b&#34;:0.81102073192596436,&#34;a&#34;:1.0},&#34;position&#34;:0.29674249887466431},{&#34;color&#34;:{&#34;r&#34;:0.34901961684226990,&#34;g&#34;:0.38039216399192810,&#34;b&#34;:0.88627451658248901,&#34;a&#34;:1.0},&#34;position&#34;:0.7692759633064270}],&#34;stopsVar&#34;:[{&#34;color&#34;:{&#34;r&#34;:0.0,&#34;g&#34;:0.18740472197532654,&#34;b&#34;:0.71730768680572510,&#34;a&#34;:1.0},&#34;position&#34;:0.027263522148132324},{&#34;color&#34;:{&#34;r&#34;:0.82692307233810425,&#34;g&#34;:0.81102073192596436,&#34;b&#34;:0.81102073192596436,&#34;a&#34;:1.0},&#34;position&#34;:0.29674249887466431},{&#34;color&#34;:{&#34;r&#34;:0.34901961684226990,&#34;g&#34;:0.38039216399192810,&#34;b&#34;:0.88627451658248901,&#34;a&#34;:1.0},&#34;position&#34;:0.7692759633064270}],&#34;transform&#34;:{&#34;m00&#34;:534.40417480468750,&#34;m01&#34;:-642.511718750,&#34;m02&#34;:34.504417419433594,&#34;m10&#34;:101.41970062255859,&#34;m11&#34;:213.53555297851562,&#34;m12&#34;:-128.32844543457031},&#34;opacity&#34;:0.50999999046325684,&#34;blendMode&#34;:&#34;NORMAL&#34;,&#34;visible&#34;:true}" mask="url(#path-1-inside-1_45_4829)"/>
<path d="M39.9696 61.6131C39.7981 60.264 39.9552 59.0142 40.4407 57.8638C40.9394 56.7117 41.6866 55.77 42.6824 55.0386C43.6896 54.2923 44.8348 53.8377 46.1178 53.6746C47.586 53.488 48.9351 53.6862 50.1651 54.2691C51.4066 54.8371 52.3693 55.7497 53.0533 57.0068L50.3351 57.3523C49.8855 56.6702 49.3206 56.1909 48.6403 55.9145C47.96 55.638 47.2033 55.5528 46.37 55.6587C45.4573 55.7746 44.6699 56.083 44.0078 56.5839C43.3456 57.0847 42.8583 57.7447 42.5457 58.564C42.2464 59.3816 42.1615 60.2996 42.2909 61.3181C42.4204 62.3366 42.7323 63.2042 43.2266 63.9209C43.7341 64.6359 44.3719 65.1597 45.1399 65.4922C45.9063 65.8115 46.7458 65.9131 47.6585 65.7971C48.4918 65.6912 49.2032 65.4193 49.7927 64.9815C50.3822 64.5437 50.8093 63.9384 51.0739 63.1655L53.7921 62.82C53.4443 64.2083 52.7405 65.3327 51.6805 66.1932C50.6338 67.052 49.3763 67.5747 47.9081 67.7613C46.6119 67.926 45.3902 67.7789 44.2432 67.3198C43.0945 66.8476 42.1346 66.1161 41.3636 65.1254C40.6057 64.133 40.1411 62.9623 39.9696 61.6131ZM65.4599 54.301L66.8492 65.2331L64.5874 65.5205L64.4235 64.2309C64.1236 64.726 63.6994 65.1428 63.151 65.4813C62.6142 65.8049 62.0217 66.0079 61.3736 66.0903C60.5139 66.1995 59.7174 66.1193 58.9842 65.8496C58.2643 65.5782 57.6613 65.1172 57.1754 64.4666C56.7027 63.8143 56.4034 62.9922 56.2773 62.0002L55.4603 55.5719L57.7023 55.2869L58.4764 61.378C58.6008 62.3567 58.9413 63.0796 59.4979 63.5465C60.0529 64.0001 60.7536 64.1731 61.6002 64.0656C62.4467 63.958 63.0819 63.6152 63.5057 63.0371C63.9411 62.4442 64.0966 61.6583 63.9722 60.6795L63.1981 54.5885L65.4599 54.301ZM73.8243 64.5281C72.9645 64.6373 72.1714 64.5836 71.445 64.3668C70.7301 64.135 70.1406 63.7799 69.6765 63.3012C69.2108 62.8093 68.9227 62.2344 68.8122 61.5764L71.1533 61.2789C71.2519 61.7368 71.5197 62.0992 71.9568 62.3663C72.4055 62.6184 72.9341 62.7058 73.5425 62.6284C74.1774 62.5477 74.6517 62.3665 74.9653 62.0847C75.2905 61.788 75.4288 61.4479 75.38 61.0643C75.3279 60.6543 75.0908 60.3753 74.6688 60.2273C74.26 60.0776 73.6172 59.9375 72.7404 59.807C71.8918 59.6864 71.1961 59.5531 70.6533 59.407C70.1106 59.2609 69.6197 58.994 69.1806 58.6063C68.7548 58.2169 68.4965 57.665 68.4057 56.9508C68.3318 56.3688 68.4365 55.8178 68.7199 55.298C69.0016 54.7649 69.4422 54.3191 70.0418 53.9606C70.6546 53.6005 71.3777 53.3675 72.211 53.2616C73.4543 53.1036 74.4933 53.2941 75.3279 53.8332C76.1741 54.3573 76.6925 55.1583 76.8833 56.2362L74.6215 56.5237C74.5196 56.0393 74.2716 55.6744 73.8775 55.4288C73.4834 55.1831 72.9821 55.099 72.3737 55.1763C71.7785 55.252 71.3364 55.4224 71.0476 55.6876C70.7587 55.9528 70.6378 56.2706 70.6849 56.6409C70.7218 56.9319 70.8588 57.1632 71.0956 57.3347C71.3324 57.5062 71.6105 57.6321 71.9299 57.7125C72.2476 57.7797 72.7149 57.8614 73.332 57.9577C74.1525 58.0685 74.8284 58.2044 75.3596 58.3653C75.9023 58.5114 76.3858 58.7725 76.8099 59.1487C77.2341 59.5249 77.4973 60.0627 77.5996 60.762C77.6786 61.3837 77.5773 61.9611 77.2956 62.4942C77.0139 63.0273 76.5732 63.4731 75.9736 63.8315C75.3873 64.1883 74.6708 64.4205 73.8243 64.5281ZM81.9158 54.0846L82.6848 60.1359C82.737 60.5459 82.8674 60.8318 83.0761 60.9934C83.2963 61.1402 83.6379 61.1841 84.1009 61.1253L85.4897 60.9488L85.7293 62.8336L83.9436 63.0605C82.9251 63.19 82.1145 63.0511 81.5117 62.6438C80.9089 62.2366 80.5394 61.4973 80.4032 60.4259L79.6341 54.3746L78.3445 54.5385L78.11 52.6933L79.3996 52.5294L79.0542 49.8113L81.3358 49.5213L81.6813 52.2394L84.3399 51.9015L84.5744 53.7467L81.9158 54.0846ZM92.5784 62.1446C91.5467 62.2757 90.5848 62.1627 89.6927 61.8057C88.7989 61.4354 88.0601 60.8573 87.4763 60.0713C86.8909 59.2721 86.5267 58.3103 86.3838 57.186C86.2426 56.0749 86.3621 55.0584 86.7422 54.1365C87.1224 53.2145 87.7063 52.4683 88.494 51.8978C89.2817 51.3272 90.198 50.9756 91.2429 50.8428C92.2878 50.71 93.263 50.8213 94.1683 51.1766C95.0737 51.532 95.8257 52.1084 96.4244 52.906C97.023 53.7035 97.393 54.6578 97.5342 55.7689C97.6754 56.88 97.5493 57.8973 97.1559 58.8209C96.7626 59.7446 96.1597 60.4999 95.3472 61.0871C94.5463 61.6593 93.6234 62.0118 92.5784 62.1446ZM92.3288 60.1804C92.9108 60.1064 93.4354 59.8986 93.9028 59.557C94.3833 59.2136 94.747 58.744 94.9939 58.1482C95.2407 57.5523 95.3137 56.8575 95.2128 56.0639C95.112 55.2703 94.875 54.6217 94.5018 54.118C94.127 53.6012 93.6706 53.2358 93.1327 53.0219C92.5948 52.808 92.0348 52.7381 91.4528 52.812C90.8709 52.886 90.3462 53.0938 89.8789 53.4354C89.4248 53.7754 89.0875 54.2416 88.8672 54.8342C88.6451 55.4134 88.5845 56.0999 88.6853 56.8935C88.8349 58.0707 89.2485 58.9455 89.9261 59.518C90.6153 60.0756 91.4162 60.2964 92.3288 60.1804ZM112.288 48.1682C113.147 48.0589 113.937 48.14 114.657 48.4114C115.39 48.6811 115.993 49.1421 116.466 49.7944C116.952 50.445 117.258 51.2663 117.384 52.2583L118.203 58.7064L115.961 58.9914L115.185 52.8805C115.06 51.9017 114.721 51.1855 114.166 50.7319C113.609 50.265 112.908 50.0853 112.061 50.1929C111.214 50.3005 110.574 50.6508 110.138 51.2437C109.714 51.8218 109.565 52.6002 109.689 53.579L110.466 59.6898L108.224 59.9748L107.447 53.8639C107.323 52.8851 106.983 52.1689 106.428 51.7153C105.871 51.2484 105.17 51.0687 104.323 51.1763C103.477 51.2839 102.836 51.6342 102.4 52.2271C101.977 52.8052 101.827 53.5836 101.951 54.5624L102.728 60.6732L100.466 60.9607L99.0767 50.0286L101.338 49.7412L101.497 50.9911C101.811 50.4943 102.236 50.0841 102.772 49.7605C103.309 49.437 103.902 49.234 104.55 49.1516C105.423 49.0407 106.227 49.1266 106.962 49.4096C107.696 49.6925 108.294 50.161 108.753 50.8149C109 50.1116 109.449 49.5235 110.101 49.0509C110.752 48.565 111.481 48.2707 112.288 48.1682ZM120.659 45.814C120.249 45.8661 119.887 45.7709 119.574 45.5285C119.261 45.286 119.078 44.9597 119.026 44.5497C118.974 44.1397 119.069 43.7781 119.312 43.4651C119.554 43.152 119.881 42.9694 120.291 42.9173C120.687 42.8669 121.042 42.9629 121.355 43.2053C121.668 43.4478 121.851 43.7741 121.903 44.1841C121.955 44.5941 121.86 44.9557 121.618 45.2687C121.375 45.5818 121.056 45.7636 120.659 45.814ZM121.954 47.1211L123.343 58.0532L121.081 58.3407L119.692 47.4086L121.954 47.1211ZM128.082 55.576L133.042 54.9456L133.277 56.7907L125.698 57.754L125.463 55.9088L129.523 48.0341L124.543 48.6671L124.308 46.8219L131.887 45.8587L132.122 47.7038L128.082 55.576ZM144.942 49.4816C144.995 49.8917 145.015 50.2654 145.004 50.6028L136.651 51.6644C136.829 52.5289 137.242 53.1888 137.891 53.6439C138.54 54.099 139.288 54.2728 140.135 54.1652C141.351 54.0105 142.146 53.392 142.52 52.3097L144.96 51.9995C144.757 53.0468 144.26 53.95 143.47 54.709C142.691 55.4532 141.66 55.9068 140.377 56.0699C139.332 56.2027 138.363 56.0905 137.471 55.7335C136.59 55.3616 135.858 54.7826 135.275 53.9966C134.702 53.1957 134.345 52.2331 134.202 51.1088C134.059 49.9845 134.159 48.9705 134.501 48.0668C134.854 47.1482 135.412 46.4053 136.173 45.8382C136.948 45.2693 137.87 44.9168 138.942 44.7807C139.974 44.6495 140.921 44.7576 141.785 45.1047C142.649 45.4519 143.358 46.007 143.912 46.7699C144.465 47.5196 144.808 48.4235 144.942 49.4816ZM142.491 49.0675C142.372 48.2358 141.989 47.6057 141.343 47.177C140.697 46.7484 139.944 46.5887 139.085 46.698C138.304 46.7971 137.668 47.1333 137.177 47.7066C136.683 48.2666 136.438 48.9765 136.439 49.8365L142.491 49.0675ZM161.516 39.1899L158.07 48.5592L158.705 53.559L156.444 53.8464L155.808 48.8467L150.108 40.6398L152.628 40.3196L156.682 46.6792L159.016 39.5077L161.516 39.1899ZM169.828 52.3268C168.796 52.4579 167.835 52.345 166.942 51.988C166.049 51.6177 165.31 51.0395 164.726 50.2535C164.141 49.4543 163.776 48.4925 163.634 47.3683C163.492 46.2572 163.612 45.2407 163.992 44.3187C164.372 43.3968 164.956 42.6506 165.744 42.08C166.531 41.5095 167.448 41.1578 168.493 41.025C169.538 40.8922 170.513 41.0035 171.418 41.3589C172.323 41.7142 173.075 42.2907 173.674 43.0882C174.273 43.8858 174.643 44.8401 174.784 45.9512C174.925 47.0622 174.799 48.0796 174.406 49.0032C174.012 49.9268 173.409 50.6822 172.597 51.2693C171.796 51.8415 170.873 52.194 169.828 52.3268ZM169.579 50.3626C170.161 50.2887 170.685 50.0809 171.152 49.7392C171.633 49.3959 171.997 48.9263 172.244 48.3304C172.49 47.7345 172.563 47.0398 172.463 46.2462C172.362 45.4526 172.125 44.8039 171.752 44.3003C171.377 43.7834 170.92 43.418 170.382 43.2042C169.844 42.9903 169.285 42.9203 168.703 42.9943C168.121 43.0682 167.596 43.276 167.129 43.6177C166.674 43.9576 166.337 44.4239 166.117 45.0164C165.895 45.5957 165.834 46.2821 165.935 47.0758C166.085 48.253 166.498 49.1278 167.176 49.7003C167.865 50.2578 168.666 50.4786 169.579 50.3626ZM186.227 38.9526L187.616 49.8847L185.354 50.1721L185.19 48.8825C184.89 49.3776 184.466 49.7944 183.918 50.1329C183.381 50.4565 182.789 50.6595 182.14 50.7419C181.281 50.8511 180.484 50.7709 179.751 50.5012C179.031 50.2298 178.428 49.7688 177.942 49.1182C177.47 48.4659 177.17 47.6438 177.044 46.6518L176.227 40.2235L178.469 39.9385L179.243 46.0296C179.368 47.0083 179.708 47.7312 180.265 48.1981C180.82 48.6517 181.52 48.8247 182.367 48.7172C183.214 48.6096 183.849 48.2668 184.273 47.6887C184.708 47.0958 184.863 46.3099 184.739 45.3311L183.965 39.2401L186.227 38.9526ZM191.675 39.8731C191.935 39.2756 192.316 38.7902 192.82 38.4171C193.335 38.029 193.97 37.7871 194.724 37.6913L195.021 40.0324L194.446 40.1056C193.56 40.2182 192.914 40.5288 192.508 41.0373C192.115 41.5442 191.99 42.3532 192.131 43.4642L192.862 49.218L190.6 49.5054L189.211 38.5733L191.473 38.2859L191.675 39.8731ZM211.781 36.9751C211.87 37.6761 211.789 38.3585 211.537 39.0222C211.285 39.6858 210.821 40.2623 210.144 40.7516C209.465 41.2276 208.557 41.5379 207.419 41.6825L204.92 42.0002L205.631 47.5952L203.369 47.8827L201.616 34.0936L206.378 33.4884C207.436 33.3539 208.353 33.4256 209.127 33.7035C209.913 33.9665 210.524 34.3862 210.96 34.9624C211.41 35.537 211.683 36.2079 211.781 36.9751ZM207.185 39.8373C208.045 39.7281 208.662 39.4548 209.036 39.0174C209.409 38.5668 209.55 37.9844 209.459 37.2701C209.268 35.7622 208.319 35.1167 206.613 35.3336L204.113 35.6513L204.685 40.1551L207.185 39.8373ZM224.459 39.3758C224.511 39.7858 224.532 40.1595 224.521 40.4969L216.168 41.5585C216.345 42.4231 216.758 43.0829 217.408 43.538C218.057 43.9931 218.805 44.1669 219.651 44.0593C220.868 43.9047 221.663 43.2862 222.036 42.2038L224.477 41.8937C224.274 42.9409 223.777 43.8441 222.986 44.6032C222.207 45.3473 221.176 45.8009 219.893 45.964C218.848 46.0968 217.88 45.9847 216.988 45.6276C216.107 45.2557 215.375 44.6767 214.791 43.8907C214.219 43.0898 213.861 42.1272 213.719 41.0029C213.576 39.8786 213.675 38.8646 214.017 37.9609C214.371 37.0424 214.929 36.2995 215.69 35.7323C216.464 35.1635 217.387 34.811 218.459 34.6748C219.49 34.5437 220.438 34.6517 221.302 34.9989C222.166 35.3461 222.875 35.9011 223.429 36.664C223.981 37.4137 224.325 38.3176 224.459 39.3758ZM222.007 38.9616C221.888 38.13 221.506 37.4998 220.86 37.0712C220.214 36.6425 219.461 36.4828 218.601 36.5921C217.821 36.6913 217.185 37.0275 216.693 37.6007C216.2 38.1607 215.954 38.8707 215.956 39.7307L222.007 38.9616ZM228.488 35.1945C228.748 34.5969 229.13 34.1116 229.633 33.7384C230.149 33.3504 230.783 33.1085 231.537 33.0126L231.835 35.3538L231.259 35.4269C230.373 35.5396 229.727 35.8501 229.321 36.3587C228.929 36.8656 228.803 37.6745 228.944 38.7856L229.675 44.5393L227.414 44.8268L226.024 33.8947L228.286 33.6073L228.488 35.1945ZM238.456 34.1897L236.433 34.4468L237.588 43.5338L235.306 43.8237L234.151 34.7368L232.861 34.9007L232.627 33.0556L233.917 32.8917L233.818 32.1179C233.659 30.8613 233.873 29.9066 234.462 29.2538C235.063 28.5861 236.077 28.1615 237.506 27.9799L237.745 29.8648C237.058 29.9522 236.592 30.1458 236.348 30.4457C236.102 30.7323 236.019 31.193 236.1 31.8279L236.198 32.6017L238.222 32.3445L238.456 34.1897ZM250.906 36.0145C250.959 36.4246 250.979 36.7983 250.968 37.1357L242.616 38.1973C242.793 39.0618 243.206 39.7217 243.855 40.1768C244.504 40.6319 245.252 40.8057 246.099 40.6981C247.315 40.5434 248.111 39.9249 248.484 38.8426L250.924 38.5324C250.721 39.5797 250.224 40.4829 249.434 41.2419C248.655 41.9861 247.624 42.4397 246.341 42.6028C245.296 42.7356 244.327 42.6234 243.435 42.2664C242.554 41.8945 241.822 41.3155 241.239 40.5295C240.666 39.7286 240.309 38.766 240.166 37.6417C240.023 36.5174 240.123 35.5034 240.465 34.5997C240.818 33.6811 241.376 32.9383 242.137 32.3711C242.912 31.8022 243.835 31.4497 244.906 31.3136C245.938 31.1825 246.885 31.2905 247.749 31.6376C248.613 31.9848 249.322 32.5399 249.876 33.3028C250.429 34.0525 250.772 34.9564 250.906 36.0145ZM248.455 35.6004C248.336 34.7687 247.953 34.1386 247.307 33.7099C246.661 33.2813 245.909 33.1216 245.049 33.2309C244.268 33.33 243.632 33.6662 243.141 34.2395C242.647 34.7995 242.402 35.5095 242.403 36.3694L248.455 35.6004ZM252.411 36.0854C252.268 34.9611 252.368 33.9471 252.71 33.0435C253.064 32.1249 253.615 31.3828 254.363 30.8173C255.111 30.2519 256.007 29.9027 257.052 29.7699C258.375 29.6018 259.506 29.7806 260.447 30.3062C261.399 30.8169 262.101 31.6349 262.553 32.7602L260.113 33.0704C259.845 32.5533 259.474 32.1704 258.999 31.9216C258.524 31.6729 257.955 31.5905 257.294 31.6746C256.368 31.7923 255.669 32.2171 255.198 32.949C254.738 33.6661 254.583 34.6132 254.733 35.7904C254.882 36.9676 255.27 37.8524 255.896 38.4448C256.536 39.0356 257.319 39.2721 258.245 39.1544C259.554 38.988 260.347 38.3025 260.624 37.098L263.065 36.7878C262.889 37.9392 262.406 38.9011 261.617 39.6734C260.826 40.4325 259.783 40.8944 258.487 41.0591C257.442 41.1919 256.486 41.0781 255.621 40.7177C254.753 40.3441 254.035 39.7634 253.464 38.9757C252.905 38.1731 252.554 37.2097 252.411 36.0854ZM267.241 30.5313L268.011 36.5827C268.063 36.9927 268.193 37.2785 268.402 37.4402C268.622 37.5869 268.964 37.6309 269.427 37.572L270.815 37.3955L271.055 39.2804L269.269 39.5073C268.251 39.6367 267.44 39.4978 266.837 39.0906C266.235 38.6833 265.865 37.944 265.729 36.8726L264.96 30.8213L263.67 30.9852L263.436 29.14L264.725 28.9761L264.38 26.258L266.662 25.968L267.007 28.6862L269.666 28.3483L269.9 30.1934L267.241 30.5313Z" fill="#1A2969"/>
<path d="M74.1336 80.6779C74.2227 81.379 74.1414 82.0613 73.8897 82.725C73.6381 83.3887 73.1737 83.9652 72.4967 84.4544C71.8179 84.9305 70.9098 85.2408 69.7723 85.3854L67.2724 85.7031L67.9835 91.2981L65.7217 91.5855L63.9692 77.7964L68.7309 77.1913C69.789 77.0568 70.7054 77.1285 71.48 77.4064C72.266 77.6694 72.8772 78.089 73.3133 78.6653C73.7627 79.2399 74.0361 79.9108 74.1336 80.6779ZM69.5378 83.5402C70.3975 83.4309 71.0147 83.1576 71.3892 82.7202C71.762 82.2696 71.903 81.6872 71.8123 80.973C71.6206 79.4651 70.6717 78.8196 68.9654 79.0364L66.4655 79.3541L67.0379 83.8579L69.5378 83.5402ZM78.5954 80.4536C78.8555 79.856 79.2374 79.3707 79.741 78.9976C80.2562 78.6095 80.8908 78.3676 81.6447 78.2718L81.9422 80.6129L81.3669 80.686C80.4807 80.7987 79.8347 81.1093 79.4289 81.6178C79.0363 82.1247 78.9106 82.9337 79.0518 84.0447L79.7831 89.7984L77.5213 90.0859L76.1319 79.1538L78.3937 78.8664L78.5954 80.4536ZM94.4265 82.1109C94.4786 82.5209 94.4992 82.8946 94.4883 83.232L86.1355 84.2936C86.3126 85.1582 86.7258 85.818 87.375 86.2731C88.0242 86.7283 88.7721 86.902 89.6186 86.7944C90.8355 86.6398 91.6305 86.0213 92.0037 84.9389L94.4441 84.6288C94.2412 85.676 93.7444 86.5792 92.9538 87.3383C92.1747 88.0824 91.1437 88.5361 89.8607 88.6991C88.8158 88.8319 87.8472 88.7198 86.9551 88.3628C86.0745 87.9908 85.3423 87.4118 84.7586 86.6258C84.1864 85.8249 83.8288 84.8623 83.6859 83.738C83.543 82.6137 83.6427 81.5997 83.9848 80.6961C84.3385 79.7775 84.8959 79.0346 85.6572 78.4674C86.4316 77.8986 87.3545 77.5461 88.4259 77.4099C89.4576 77.2788 90.4055 77.3868 91.2695 77.734C92.1335 78.0812 92.8424 78.6362 93.3964 79.3991C93.9486 80.1488 94.292 81.0527 94.4265 82.1109ZM91.9747 81.6967C91.8556 80.8651 91.4731 80.235 90.8272 79.8063C90.1814 79.3776 89.4285 79.2179 88.5688 79.3272C87.7884 79.4264 87.1524 79.7626 86.6607 80.3358C86.1674 80.8958 85.9216 81.6058 85.9234 82.4658L91.9747 81.6967ZM101.372 87.2361C100.512 87.3454 99.719 87.2916 98.9925 87.0748C98.2776 86.8431 97.6881 86.4879 97.2241 86.0093C96.7583 85.5174 96.4702 84.9425 96.3597 84.2845L98.7009 83.987C98.7994 84.4449 99.0672 84.8073 99.5044 85.0743C99.9531 85.3264 100.482 85.4138 101.09 85.3365C101.725 85.2558 102.199 85.0746 102.513 84.7928C102.838 84.4961 102.976 84.1559 102.928 83.7724C102.875 83.3623 102.638 83.0833 102.216 82.9354C101.808 82.7857 101.165 82.6456 100.288 82.5151C99.4393 82.3945 98.7436 82.2611 98.2009 82.1151C97.6581 81.969 97.1672 81.7021 96.7282 81.3144C96.3024 80.9249 96.0441 80.3731 95.9533 79.6588C95.8793 79.0769 95.984 78.5259 96.2674 78.006C96.5491 77.4729 96.9898 77.0272 97.5893 76.6687C98.2022 76.3086 98.9252 76.0756 99.7585 75.9696C101.002 75.8116 102.041 76.0022 102.875 76.5412C103.722 77.0654 104.24 77.8664 104.431 78.9443L102.169 79.2318C102.067 78.7474 101.819 78.3824 101.425 78.1368C101.031 77.8912 100.53 77.8071 99.9212 77.8844C99.326 77.9601 98.884 78.1305 98.5951 78.3957C98.3062 78.6609 98.1853 78.9787 98.2324 79.349C98.2694 79.64 98.4063 79.8713 98.6431 80.0428C98.88 80.2143 99.1581 80.3402 99.4774 80.4206C99.7951 80.4878 100.262 80.5695 100.88 80.6658C101.7 80.7766 102.376 80.9124 102.907 81.0734C103.45 81.2195 103.933 81.4806 104.357 81.8568C104.782 82.233 105.045 82.7708 105.147 83.4701C105.226 84.0918 105.125 84.6692 104.843 85.2023C104.561 85.7354 104.121 86.1812 103.521 86.5396C102.935 86.8964 102.218 87.1286 101.372 87.2361ZM117.27 79.2077C117.322 79.6177 117.343 79.9914 117.332 80.3288L108.979 81.3904C109.156 82.255 109.569 82.9148 110.219 83.3699C110.868 83.825 111.616 83.9988 112.462 83.8912C113.679 83.7366 114.474 83.1181 114.847 82.0357L117.288 81.7256C117.085 82.7728 116.588 83.676 115.797 84.4351C115.018 85.1792 113.987 85.6328 112.704 85.7959C111.659 85.9287 110.691 85.8166 109.799 85.4595C108.918 85.0876 108.186 84.5086 107.602 83.7226C107.03 82.9217 106.672 81.9591 106.53 80.8348C106.387 79.7105 106.486 78.6965 106.828 77.7928C107.182 76.8743 107.74 76.1314 108.501 75.5642C109.275 74.9954 110.198 74.6429 111.27 74.5067C112.301 74.3756 113.249 74.4836 114.113 74.8308C114.977 75.178 115.686 75.733 116.24 76.4959C116.792 77.2456 117.136 78.1495 117.27 79.2077ZM114.818 78.7935C114.699 77.9619 114.317 77.3317 113.671 76.9031C113.025 76.4744 112.272 76.3147 111.412 76.424C110.632 76.5232 109.996 76.8594 109.504 77.4326C109.011 77.9926 108.765 78.7026 108.767 79.5626L114.818 78.7935ZM124.328 72.8471C125.188 72.7378 125.978 72.8189 126.698 73.0902C127.431 73.36 128.034 73.821 128.507 74.4732C128.979 75.1255 129.279 75.9477 129.405 76.9397L130.224 83.3878L127.982 83.6727L127.206 77.5619C127.081 76.5831 126.742 75.8669 126.187 75.4132C125.63 74.9464 124.928 74.7667 124.082 74.8743C123.235 74.9819 122.594 75.3321 122.159 75.9251C121.735 76.5032 121.585 77.2816 121.71 78.2604L122.486 84.3712L120.225 84.6587L118.835 73.7266L121.097 73.4392L121.256 74.6891C121.569 74.1923 121.994 73.7821 122.531 73.4585C123.081 73.1332 123.68 72.9294 124.328 72.8471ZM134.593 73.5989L135.362 79.6502C135.414 80.0602 135.545 80.3461 135.754 80.5077C135.974 80.6545 136.315 80.6984 136.778 80.6396L138.167 80.4631L138.407 82.3479L136.621 82.5748C135.603 82.7043 134.792 82.5654 134.189 82.1581C133.586 81.7509 133.217 81.0116 133.081 79.9402L132.312 73.8889L131.022 74.0528L130.787 72.2076L132.077 72.0437L131.732 69.3256L134.013 69.0356L134.359 71.7537L137.017 71.4158L137.252 73.261L134.593 73.5989ZM139.036 76.6631C138.897 75.5653 138.998 74.5645 139.34 73.6609C139.696 72.7555 140.234 72.0218 140.956 71.4596C141.689 70.8826 142.531 70.5336 143.484 70.4125C144.344 70.3033 145.113 70.3803 145.791 70.6435C146.482 70.8918 147.05 71.2429 147.498 71.6967L147.296 70.1095L149.578 69.8195L150.967 80.7516L148.685 81.0416L148.479 79.4146C148.161 79.9792 147.693 80.4755 147.075 80.9035C146.458 81.3314 145.725 81.5992 144.879 81.7068C143.94 81.8261 143.05 81.6973 142.209 81.3203C141.366 80.9301 140.659 80.3345 140.087 79.5336C139.526 78.7178 139.176 77.761 139.036 76.6631ZM147.989 75.5656C147.894 74.8117 147.652 74.1771 147.264 73.6619C146.889 73.1451 146.432 72.7731 145.892 72.546C145.352 72.3188 144.792 72.2423 144.21 72.3162C143.628 72.3902 143.104 72.6046 142.638 72.9595C142.171 73.3011 141.814 73.7699 141.567 74.3658C141.332 74.9467 141.262 75.6142 141.358 76.3681C141.454 77.1221 141.69 77.7641 142.066 78.2942C142.456 78.8226 142.921 79.207 143.463 79.4473C144.016 79.6727 144.576 79.7493 145.145 79.677C145.727 79.6031 146.251 79.3886 146.717 79.0338C147.182 78.6789 147.532 78.2044 147.765 77.6102C148.011 77.0011 148.085 76.3195 147.989 75.5656ZM155.422 70.9518L156.191 77.0031C156.243 77.4131 156.373 77.6989 156.582 77.8606C156.802 78.0073 157.144 78.0513 157.607 77.9924L158.996 77.8159L159.235 79.7008L157.45 79.9277C156.431 80.0571 155.62 79.9182 155.018 79.511C154.415 79.1037 154.045 78.3644 153.909 77.2931L153.14 71.2417L151.85 71.4056L151.616 69.5605L152.906 69.3966L152.56 66.6784L154.842 66.3885L155.187 69.1066L157.846 68.7687L158.08 70.6139L155.422 70.9518ZM160.897 66.9092C160.487 66.9613 160.126 66.8661 159.813 66.6236C159.499 66.3812 159.317 66.0549 159.265 65.6449C159.213 65.2349 159.308 64.8733 159.55 64.5602C159.793 64.2472 160.119 64.0646 160.529 64.0125C160.926 63.962 161.281 64.0581 161.594 64.3005C161.907 64.543 162.09 64.8692 162.142 65.2793C162.194 65.6893 162.099 66.0509 161.856 66.3639C161.614 66.677 161.294 66.8587 160.897 66.9092ZM162.192 68.2163L163.582 79.1484L161.32 79.4358L159.931 68.5038L162.192 68.2163ZM171.316 78.3469C170.284 78.478 169.322 78.365 168.43 78.008C167.536 77.6377 166.797 77.0596 166.214 76.2736C165.628 75.4744 165.264 74.5126 165.121 73.3883C164.98 72.2773 165.099 71.2607 165.48 70.3388C165.86 69.4169 166.444 68.6706 167.231 68.1001C168.019 67.5296 168.935 67.1779 169.98 67.0451C171.025 66.9123 172 67.0236 172.906 67.3789C173.811 67.7343 174.563 68.3107 175.162 69.1083C175.76 69.9058 176.13 70.8601 176.272 71.9712C176.413 73.0823 176.287 74.0996 175.893 75.0233C175.5 75.9469 174.897 76.7023 174.085 77.2894C173.284 77.8616 172.361 78.2141 171.316 78.3469ZM171.066 76.3827C171.648 76.3087 172.173 76.1009 172.64 75.7593C173.121 75.4159 173.484 74.9463 173.731 74.3505C173.978 73.7546 174.051 73.0598 173.95 72.2662C173.849 71.4726 173.612 70.824 173.239 70.3203C172.864 69.8035 172.408 69.4381 171.87 69.2242C171.332 69.0103 170.772 68.9404 170.19 69.0143C169.608 69.0883 169.084 69.2961 168.616 69.6377C168.162 69.9777 167.825 70.4439 167.605 71.0365C167.382 71.6158 167.322 72.3022 167.423 73.0958C167.572 74.273 167.986 75.1479 168.663 75.7203C169.353 76.2779 170.154 76.4987 171.066 76.3827ZM183.307 65.3514C184.167 65.2421 184.957 65.3232 185.677 65.5946C186.41 65.8643 187.013 66.3253 187.485 66.9776C187.958 67.6298 188.257 68.452 188.383 69.444L189.203 75.8921L186.961 76.1771L186.184 70.0662C186.06 69.0874 185.72 68.3712 185.165 67.9176C184.609 67.4507 183.907 67.271 183.061 67.3786C182.214 67.4862 181.573 67.8365 181.138 68.4294C180.714 69.0075 180.564 69.7859 180.689 70.7647L181.465 76.8755L179.203 77.163L177.814 66.2309L180.076 65.9435L180.235 67.1934C180.548 66.6966 180.973 66.2864 181.51 65.9629C182.06 65.6376 182.659 65.4338 183.307 65.3514Z" fill="#1A2969"/>
<mask id="path-5-inside-2_45_4829" fill="white">
<path d="M13.3812 90.6772C12.1626 81.0894 18.9473 72.3291 28.5352 71.1105C38.123 69.892 46.8833 76.6767 48.1019 86.2645C49.3204 95.8524 42.5357 104.613 32.9479 105.831C23.36 107.05 14.5997 100.265 13.3812 90.6772Z"/>
</mask>
<path d="M13.3812 90.6772C12.1626 81.0894 18.9473 72.3291 28.5352 71.1105C38.123 69.892 46.8833 76.6767 48.1019 86.2645C49.3204 95.8524 42.5357 104.613 32.9479 105.831C23.36 107.05 14.5997 100.265 13.3812 90.6772Z" fill="#4269C8" fill-opacity="0.22"/>
<g clip-path="url(#paint1_diamond_45_4829_clip_path)" data-figma-skip-parse="true" mask="url(#path-5-inside-2_45_4829)"><g transform="matrix(0.0343093 0.0341254 -0.0341254 0.0343093 7.68983 67.4875)"><rect x="0" y="0" width="1180.06" height="565.02" fill="url(#paint1_diamond_45_4829)" opacity="0.2" shape-rendering="crispEdges"/><rect x="0" y="0" width="1180.06" height="565.02" transform="scale(1 -1)" fill="url(#paint1_diamond_45_4829)" opacity="0.2" shape-rendering="crispEdges"/><rect x="0" y="0" width="1180.06" height="565.02" transform="scale(-1 1)" fill="url(#paint1_diamond_45_4829)" opacity="0.2" shape-rendering="crispEdges"/><rect x="0" y="0" width="1180.06" height="565.02" transform="scale(-1)" fill="url(#paint1_diamond_45_4829)" opacity="0.2" shape-rendering="crispEdges"/></g></g><path d="M32.9479 105.831L32.8218 104.839C23.7818 105.988 15.5221 99.5911 14.3732 90.5512L13.3812 90.6772L12.3891 90.8033C13.6773 100.939 22.9382 108.111 33.0739 106.823L32.9479 105.831ZM48.1019 86.2645L47.1098 86.3906C48.2587 95.4306 41.8618 103.69 32.8218 104.839L32.9479 105.831L33.0739 106.823C43.2097 105.535 50.3821 96.2742 49.0939 86.1385L48.1019 86.2645ZM28.5352 71.1105L28.6612 72.1026C37.7012 70.9537 45.9609 77.3506 47.1098 86.3906L48.1019 86.2645L49.0939 86.1385C47.8057 76.0027 38.5448 68.8304 28.4091 70.1185L28.5352 71.1105ZM28.5352 71.1105L28.4091 70.1185C18.2733 71.4067 11.101 80.6676 12.3891 90.8033L13.3812 90.6772L14.3732 90.5512C13.2243 81.5112 19.6213 73.2515 28.6612 72.1026L28.5352 71.1105Z" data-figma-gradient-fill="{&#34;type&#34;:&#34;GRADIENT_DIAMOND&#34;,&#34;stops&#34;:[{&#34;color&#34;:{&#34;r&#34;:0.0,&#34;g&#34;:0.18740472197532654,&#34;b&#34;:0.71730768680572510,&#34;a&#34;:1.0},&#34;position&#34;:0.027263522148132324},{&#34;color&#34;:{&#34;r&#34;:0.82692307233810425,&#34;g&#34;:0.81102073192596436,&#34;b&#34;:0.81102073192596436,&#34;a&#34;:1.0},&#34;position&#34;:0.29674249887466431},{&#34;color&#34;:{&#34;r&#34;:0.34901961684226990,&#34;g&#34;:0.38039216399192810,&#34;b&#34;:0.88627451658248901,&#34;a&#34;:1.0},&#34;position&#34;:0.7692759633064270}],&#34;stopsVar&#34;:[{&#34;color&#34;:{&#34;r&#34;:0.0,&#34;g&#34;:0.18740472197532654,&#34;b&#34;:0.71730768680572510,&#34;a&#34;:1.0},&#34;position&#34;:0.027263522148132324},{&#34;color&#34;:{&#34;r&#34;:0.82692307233810425,&#34;g&#34;:0.81102073192596436,&#34;b&#34;:0.81102073192596436,&#34;a&#34;:1.0},&#34;position&#34;:0.29674249887466431},{&#34;color&#34;:{&#34;r&#34;:0.34901961684226990,&#34;g&#34;:0.38039216399192810,&#34;b&#34;:0.88627451658248901,&#34;a&#34;:1.0},&#34;position&#34;:0.7692759633064270}],&#34;transform&#34;:{&#34;m00&#34;:68.618598937988281,&#34;m01&#34;:-68.250869750976562,&#34;m02&#34;:7.5059638023376465,&#34;m10&#34;:68.250869750976562,&#34;m11&#34;:68.618598937988281,&#34;m12&#34;:-0.94721335172653198},&#34;opacity&#34;:0.20000000298023224,&#34;blendMode&#34;:&#34;NORMAL&#34;,&#34;visible&#34;:true}" mask="url(#path-5-inside-2_45_4829)"/>
<path fill-rule="evenodd" clip-rule="evenodd" d="M26.7781 83.2863C26.6826 82.5346 26.8813 81.7768 27.3305 81.1796C27.7797 80.5823 28.4426 80.1946 29.1735 80.1018C29.9043 80.0089 30.6432 80.2184 31.2275 80.6843C31.8118 81.1501 32.1938 81.8342 32.2893 82.5859L32.9377 87.6877C33.0332 88.4394 32.8345 89.1972 32.3853 89.7945C31.9361 90.3917 31.2732 90.7794 30.5423 90.8723C29.8115 90.9651 29.0726 90.7556 28.4883 90.2897C27.904 89.8239 27.522 89.1399 27.4265 88.3881L26.7781 83.2863ZM26.0361 86.2607L26.3242 88.5282C26.458 89.5806 26.9927 90.5383 27.8108 91.1905C28.6288 91.8427 29.6632 92.136 30.6864 92.006C31.7096 91.876 32.6377 91.3332 33.2666 90.4971C33.8955 89.661 34.1737 88.6 34.04 87.5476L33.7518 85.2801L34.854 85.1401L35.1422 87.4075C35.3019 88.6626 35.0063 89.9309 34.3118 90.9698C33.6173 92.0088 32.5727 92.7455 31.3777 93.0391L31.5977 94.7703L35.4556 94.28L35.5997 95.4137L26.7817 96.5344L26.6376 95.4007L30.4955 94.9104L30.2755 93.1792C29.0451 93.1938 27.8494 92.7419 26.9171 91.9097C25.9848 91.0775 25.3813 89.9234 25.222 88.6683L24.9338 86.4008L26.0361 86.2607Z" fill="#003BC8" fill-opacity="0.7"/>
<g clip-path="url(#clip0_45_4829)">
<path d="M294.533 36.2401C294.381 37.0079 293.341 37.1401 293.002 36.4347L291.013 32.2942C290.575 31.3841 289.931 30.5884 289.133 29.9703C288.334 29.3521 287.402 28.9284 286.412 28.7329L281.907 27.8424C281.14 27.6905 281.007 26.6504 281.713 26.3112L285.853 24.3221C286.763 23.8844 287.559 23.2408 288.177 22.4421C288.795 21.6435 289.219 20.7119 289.415 19.7211L290.305 15.2169C290.338 15.0489 290.422 14.8954 290.547 14.7784C290.672 14.6613 290.83 14.5867 291 14.5651C291.17 14.5435 291.342 14.5761 291.492 14.6582C291.642 14.7403 291.763 14.8677 291.836 15.0223L293.825 19.1628C294.263 20.0727 294.906 20.8683 295.704 21.4865C296.503 22.1047 297.434 22.5285 298.424 22.7244L302.931 23.6146C303.099 23.6471 303.252 23.7317 303.369 23.8566C303.486 23.9814 303.561 24.14 303.582 24.3097C303.604 24.4795 303.571 24.6517 303.489 24.8019C303.407 24.952 303.28 25.0724 303.125 25.1458L298.985 27.135C298.075 27.5724 297.279 28.2157 296.661 29.0139C296.043 29.8121 295.619 30.7433 295.423 31.7337L294.533 36.2401ZM304.602 46.5255C304.582 46.6262 304.531 46.7182 304.456 46.7883C304.381 46.8584 304.286 46.9031 304.184 46.916C304.082 46.929 303.979 46.9095 303.889 46.8604C303.799 46.8113 303.726 46.735 303.682 46.6424L302.489 44.1585C301.956 43.0514 300.934 42.2604 299.729 42.0212L297.026 41.487C296.925 41.4673 296.833 41.4163 296.763 41.3413C296.693 41.2664 296.648 41.1712 296.635 41.0694C296.622 40.9676 296.642 40.8643 296.691 40.7741C296.74 40.684 296.816 40.6117 296.909 40.5674L299.393 39.374C299.939 39.1121 300.417 38.7262 300.788 38.2471C301.159 37.768 301.413 37.2088 301.53 36.6142L302.064 33.9108C302.084 33.8101 302.135 33.7181 302.21 33.648C302.285 33.5779 302.38 33.5332 302.482 33.5203C302.583 33.5073 302.687 33.5268 302.777 33.5759C302.867 33.625 302.939 33.7013 302.984 33.7939L304.177 36.2778C304.439 36.8243 304.825 37.3021 305.304 37.6731C305.783 38.0442 306.342 38.2983 306.937 38.4151L309.64 38.9493C309.741 38.969 309.833 39.02 309.903 39.095C309.973 39.1699 310.018 39.2651 310.031 39.3669C310.044 39.4687 310.024 39.572 309.975 39.6622C309.926 39.7523 309.85 39.8246 309.757 39.8689L307.273 41.0623C306.727 41.3242 306.249 41.7101 305.878 42.1892C305.507 42.6683 305.253 43.2275 305.136 43.8221L304.602 46.5255ZM289.121 50.8722C289.107 50.9386 289.073 50.9989 289.023 51.0449C288.973 51.0909 288.91 51.1202 288.843 51.1287C288.776 51.1373 288.707 51.1246 288.648 51.0926C288.588 51.0606 288.539 51.0107 288.509 50.9499L287.714 49.2955C287.359 48.5559 286.677 48.0278 285.872 47.8693L284.072 47.513C284.005 47.499 283.945 47.4648 283.899 47.4149C283.853 47.3651 283.824 47.3021 283.815 47.2349C283.807 47.1676 283.819 47.0993 283.851 47.0396C283.883 46.9798 283.933 46.9315 283.994 46.9014L285.648 46.106C286.012 45.9304 286.331 45.6727 286.578 45.3532C286.826 45.0336 286.996 44.6609 287.075 44.2645L287.431 42.4637C287.445 42.3973 287.479 42.337 287.529 42.291C287.579 42.245 287.642 42.2158 287.709 42.2072C287.776 42.1987 287.845 42.2113 287.904 42.2433C287.964 42.2754 288.012 42.3252 288.042 42.386L288.838 44.0404C289.013 44.4045 289.271 44.7228 289.591 44.9703C289.91 45.2178 290.283 45.3877 290.679 45.4666L292.478 45.8232C292.544 45.8371 292.605 45.8714 292.651 45.9213C292.697 45.9711 292.726 46.034 292.734 46.1013C292.743 46.1686 292.73 46.2368 292.698 46.2966C292.666 46.3564 292.616 46.4047 292.556 46.4348L290.901 47.2302C290.162 47.585 289.634 48.2668 289.475 49.0717L289.121 50.8722Z" fill="#C2D0F1"/>
</g>
<defs>
<clipPath id="paint0_diamond_45_4829_clip_path"><path d="M317.657 60.333L316.657 60.321L317.657 60.333ZM318.106 22.9783L319.106 22.9903L318.106 22.9783ZM22.4911 37.6052L22.6172 38.5972L295.712 3.88926L295.586 2.89724L295.46 1.90522L22.365 36.6132L22.4911 37.6052ZM318.106 22.9783L317.106 22.9663L316.657 60.321L317.657 60.333L318.657 60.3451L319.106 22.9903L318.106 22.9783ZM300.18 79.9328L300.054 78.9408L25.9844 113.773L26.1105 114.765L26.2366 115.757L300.306 80.9248L300.18 79.9328ZM3.6034 94.165L4.60268 94.203L6.02633 56.7244L5.02705 56.6864L4.02777 56.6485L2.60412 94.127L3.6034 94.165ZM26.1105 114.765L25.9844 113.773C14.3431 115.252 4.15724 105.929 4.60268 94.203L3.6034 94.165L2.60412 94.127C2.11179 107.088 13.3699 117.392 26.2366 115.757L26.1105 114.765ZM317.657 60.333L316.657 60.321C316.543 69.8006 309.458 77.7455 300.054 78.9408L300.18 79.9328L300.306 80.9248C310.7 79.6038 318.531 70.8225 318.657 60.3451L317.657 60.333ZM295.586 2.89724L295.712 3.88926C307.156 2.43483 317.245 11.4311 317.106 22.9663L318.106 22.9783L319.106 22.9903C319.26 10.2409 308.109 0.297695 295.46 1.90522L295.586 2.89724ZM22.4911 37.6052L22.365 36.6132C12.1753 37.9082 4.41767 46.3842 4.02777 56.6485L5.02705 56.6864L6.02633 56.7244C6.3791 47.4376 13.3979 39.7689 22.6172 38.5972L22.4911 37.6052Z" mask="url(#path-1-inside-1_45_4829)"/></clipPath><clipPath id="paint1_diamond_45_4829_clip_path"><path d="M32.9479 105.831L32.8218 104.839C23.7818 105.988 15.5221 99.5911 14.3732 90.5512L13.3812 90.6772L12.3891 90.8033C13.6773 100.939 22.9382 108.111 33.0739 106.823L32.9479 105.831ZM48.1019 86.2645L47.1098 86.3906C48.2587 95.4306 41.8618 103.69 32.8218 104.839L32.9479 105.831L33.0739 106.823C43.2097 105.535 50.3821 96.2742 49.0939 86.1385L48.1019 86.2645ZM28.5352 71.1105L28.6612 72.1026C37.7012 70.9537 45.9609 77.3506 47.1098 86.3906L48.1019 86.2645L49.0939 86.1385C47.8057 76.0027 38.5448 68.8304 28.4091 70.1185L28.5352 71.1105ZM28.5352 71.1105L28.4091 70.1185C18.2733 71.4067 11.101 80.6676 12.3891 90.8033L13.3812 90.6772L14.3732 90.5512C13.2243 81.5112 19.6213 73.2515 28.6612 72.1026L28.5352 71.1105Z" mask="url(#path-5-inside-2_45_4829)"/></clipPath><linearGradient id="paint0_diamond_45_4829" x1="0" y1="0" x2="500" y2="500" gradientUnits="userSpaceOnUse">
<stop offset="0.0272635" stop-color="#0030B7"/>
<stop offset="0.296742" stop-color="#D3CFCF"/>
<stop offset="0.769276" stop-color="#5961E2"/>
</linearGradient>
<linearGradient id="paint1_diamond_45_4829" x1="0" y1="0" x2="500" y2="500" gradientUnits="userSpaceOnUse">
<stop offset="0.0272635" stop-color="#0030B7"/>
<stop offset="0.296742" stop-color="#D3CFCF"/>
<stop offset="0.769276" stop-color="#5961E2"/>
</linearGradient>
<clipPath id="clip0_45_4829">
<rect width="36" height="36" fill="white" transform="translate(313.396 48.0116) rotate(172.757)"/>
</clipPath>
</defs>
</svg>
