<svg width="41" height="41" viewBox="0 0 41 41" fill="none" xmlns="http://www.w3.org/2000/svg">
<g clip-path="url(#clip0_45_4798)">
<path d="M21.3884 23.9412C21.2365 24.709 20.1963 24.8412 19.8572 24.1358L17.8681 19.9953C17.4304 19.0852 16.7867 18.2895 15.9881 17.6714C15.1895 17.0532 14.2579 16.6295 13.2671 16.434L8.76288 15.5435C7.9951 15.3916 7.86291 14.3515 8.56828 14.0123L12.7088 12.0232C13.6189 11.5855 14.4146 10.9418 15.0328 10.1432C15.6509 9.34462 16.0746 8.413 16.2701 7.42221L17.1606 2.918C17.193 2.74998 17.2777 2.5965 17.4025 2.47945C17.5274 2.3624 17.686 2.28777 17.8557 2.26619C18.0255 2.24462 18.1977 2.27721 18.3478 2.35931C18.498 2.44141 18.6184 2.56884 18.6918 2.7234L20.6809 6.86391C21.1183 7.77383 21.7616 8.5694 22.5598 9.18759C23.3581 9.80579 24.2892 10.2296 25.2797 10.4255L29.7861 11.3157C29.9541 11.3482 30.1076 11.4328 30.2247 11.5577C30.3417 11.6825 30.4163 11.8411 30.4379 12.0108C30.4595 12.1806 30.4269 12.3528 30.3448 12.503C30.2627 12.6531 30.1353 12.7735 29.9807 12.8469L25.8402 14.8361C24.9303 15.2735 24.1347 15.9168 23.5165 16.715C22.8983 17.5132 22.4745 18.4444 22.2786 19.4348L21.3884 23.9412ZM31.4572 34.2266C31.4375 34.3273 31.3865 34.4193 31.3116 34.4894C31.2366 34.5595 31.1414 34.6042 31.0396 34.6171C30.9378 34.6301 30.8345 34.6106 30.7444 34.5615C30.6543 34.5123 30.5819 34.4361 30.5376 34.3435L29.3442 31.8596C28.8111 30.7525 27.7897 29.9615 26.5844 29.7223L23.881 29.1881C23.7803 29.1684 23.6883 29.1174 23.6182 29.0424C23.5481 28.9675 23.5034 28.8723 23.4905 28.7705C23.4775 28.6687 23.497 28.5654 23.5462 28.4752C23.5953 28.3851 23.6716 28.3128 23.7642 28.2685L26.248 27.075C26.7945 26.8132 27.2723 26.4273 27.6434 25.9482C28.0145 25.4691 28.2685 24.9099 28.3854 24.3153L28.9195 21.6119C28.9393 21.5112 28.9902 21.4192 29.0652 21.3491C29.1402 21.279 29.2353 21.2343 29.3371 21.2213C29.439 21.2084 29.5423 21.2279 29.6324 21.277C29.7225 21.3261 29.7949 21.4024 29.8392 21.495L31.0326 23.9789C31.2945 24.5254 31.6803 25.0032 32.1594 25.3742C32.6386 25.7453 33.1977 25.9994 33.7923 26.1162L36.4957 26.6504C36.5965 26.6701 36.6884 26.7211 36.7585 26.7961C36.8286 26.871 36.8733 26.9662 36.8863 27.068C36.8992 27.1698 36.8797 27.2731 36.8306 27.3633C36.7815 27.4534 36.7052 27.5257 36.6126 27.57L34.1288 28.7634C33.5823 29.0253 33.1045 29.4112 32.7334 29.8903C32.3623 30.3694 32.1082 30.9286 31.9914 31.5232L31.4572 34.2266ZM15.9765 38.5733C15.9625 38.6397 15.9282 38.7 15.8784 38.746C15.8285 38.792 15.7656 38.8212 15.6983 38.8298C15.6311 38.8383 15.5628 38.8257 15.503 38.7937C15.4433 38.7616 15.395 38.7118 15.3649 38.651L14.5695 36.9966C14.2146 36.2569 13.5329 35.7289 12.7279 35.5704L10.9272 35.2141C10.8608 35.2001 10.8004 35.1659 10.7545 35.116C10.7085 35.0662 10.6792 35.0032 10.6707 34.936C10.6621 34.8687 10.6747 34.8004 10.7068 34.7407C10.7388 34.6809 10.7887 34.6326 10.8494 34.6025L12.5038 33.8071C12.8679 33.6315 13.1863 33.3738 13.4338 33.0543C13.6813 32.7347 13.8512 32.362 13.9301 31.9656L14.2864 30.1648C14.3003 30.0984 14.3346 30.0381 14.3844 29.9921C14.4343 29.9461 14.4972 29.9168 14.5645 29.9083C14.6318 29.8997 14.7 29.9124 14.7598 29.9444C14.8195 29.9764 14.8678 30.0263 14.8979 30.0871L15.6934 31.7415C15.8689 32.1056 16.1266 32.4239 16.4462 32.6714C16.7658 32.9189 17.1385 33.0888 17.5349 33.1677L19.3334 33.5243C19.3998 33.5382 19.4601 33.5725 19.5061 33.6224C19.5521 33.6722 19.5814 33.7351 19.5899 33.8024C19.5985 33.8697 19.5859 33.9379 19.5538 33.9977C19.5218 34.0575 19.4719 34.1057 19.4112 34.1359L17.7567 34.9313C17.0171 35.2861 16.4891 35.9679 16.3305 36.7728L15.9765 38.5733Z" fill="#C2D0F1"/>
</g>
<defs>
<clipPath id="clip0_45_4798">
<rect width="36" height="36" fill="white" transform="translate(40.2515 35.7127) rotate(172.757)"/>
</clipPath>
</defs>
</svg>
