<svg width="235" height="144" viewBox="0 0 235 144" fill="none" xmlns="http://www.w3.org/2000/svg">
<mask id="path-1-inside-1_45_4912" fill="white">
<path d="M0 20C0 8.95431 8.95431 0 20 0C31.0457 0 40 8.95431 40 20C40 31.0457 31.0457 40 20 40C8.95431 40 0 31.0457 0 20Z"/>
</mask>
<path d="M0 20C0 8.95431 8.95431 0 20 0C31.0457 0 40 8.95431 40 20C40 31.0457 31.0457 40 20 40C8.95431 40 0 31.0457 0 20Z" fill="#8383E8" fill-opacity="0.13"/>
<g clip-path="url(#paint0_diamond_45_4912_clip_path)" data-figma-skip-parse="true" mask="url(#path-1-inside-1_45_4912)"><g transform="matrix(0.0339807 0.0436329 -0.0436329 0.0339807 -3.11111 -7.11111)"><rect x="0" y="0" width="1176.44" height="561.395" fill="url(#paint0_diamond_45_4912)" opacity="1" shape-rendering="crispEdges"/><rect x="0" y="0" width="1176.44" height="561.395" transform="scale(1 -1)" fill="url(#paint0_diamond_45_4912)" opacity="1" shape-rendering="crispEdges"/><rect x="0" y="0" width="1176.44" height="561.395" transform="scale(-1 1)" fill="url(#paint0_diamond_45_4912)" opacity="1" shape-rendering="crispEdges"/><rect x="0" y="0" width="1176.44" height="561.395" transform="scale(-1)" fill="url(#paint0_diamond_45_4912)" opacity="1" shape-rendering="crispEdges"/></g></g><path d="M20 40V39C9.50659 39 1 30.4934 1 20H0H-1C-1 31.598 8.40202 41 20 41V40ZM40 20H39C39 30.4934 30.4934 39 20 39V40V41C31.598 41 41 31.598 41 20H40ZM20 0V1C30.4934 1 39 9.50659 39 20H40H41C41 8.40202 31.598 -1 20 -1V0ZM20 0V-1C8.40202 -1 -1 8.40202 -1 20H0H1C1 9.50659 9.50659 1 20 1V0Z" data-figma-gradient-fill="{&#34;type&#34;:&#34;GRADIENT_DIAMOND&#34;,&#34;stops&#34;:[{&#34;color&#34;:{&#34;r&#34;:0.0,&#34;g&#34;:0.18740472197532654,&#34;b&#34;:0.71730768680572510,&#34;a&#34;:1.0},&#34;position&#34;:0.027263522148132324},{&#34;color&#34;:{&#34;r&#34;:0.82692307233810425,&#34;g&#34;:0.81102073192596436,&#34;b&#34;:0.81102073192596436,&#34;a&#34;:1.0},&#34;position&#34;:0.29674249887466431},{&#34;color&#34;:{&#34;r&#34;:0.34901961684226990,&#34;g&#34;:0.38039216399192810,&#34;b&#34;:0.88627451658248901,&#34;a&#34;:1.0},&#34;position&#34;:0.7692759633064270}],&#34;stopsVar&#34;:[{&#34;color&#34;:{&#34;r&#34;:0.0,&#34;g&#34;:0.18740472197532654,&#34;b&#34;:0.71730768680572510,&#34;a&#34;:1.0},&#34;position&#34;:0.027263522148132324},{&#34;color&#34;:{&#34;r&#34;:0.82692307233810425,&#34;g&#34;:0.81102073192596436,&#34;b&#34;:0.81102073192596436,&#34;a&#34;:1.0},&#34;position&#34;:0.29674249887466431},{&#34;color&#34;:{&#34;r&#34;:0.34901961684226990,&#34;g&#34;:0.38039216399192810,&#34;b&#34;:0.88627451658248901,&#34;a&#34;:1.0},&#34;position&#34;:0.7692759633064270}],&#34;transform&#34;:{&#34;m00&#34;:67.961357116699219,&#34;m01&#34;:-87.265701293945312,&#34;m02&#34;:6.5410647392272949,&#34;m10&#34;:87.265701293945312,&#34;m11&#34;:67.961357116699219,&#34;m12&#34;:-84.724639892578125},&#34;opacity&#34;:1.0,&#34;blendMode&#34;:&#34;NORMAL&#34;,&#34;visible&#34;:true}" mask="url(#path-1-inside-1_45_4912)"/>
<path d="M24.6668 17.5V15.8333C24.6668 13.5 22.8335 11.6667 20.5002 11.6667C18.1668 11.6667 16.3335 13.5 16.3335 15.8333V17.5C14.9168 17.5 13.8335 18.5833 13.8335 20V25.8333C13.8335 27.25 14.9168 28.3333 16.3335 28.3333H24.6668C26.0835 28.3333 27.1668 27.25 27.1668 25.8333V20C27.1668 18.5833 26.0835 17.5 24.6668 17.5ZM18.0002 15.8333C18.0002 14.4167 19.0835 13.3333 20.5002 13.3333C21.9168 13.3333 23.0002 14.4167 23.0002 15.8333V17.5H18.0002V15.8333ZM21.4168 22.9167L21.3335 23V24.1667C21.3335 24.6667 21.0002 25 20.5002 25C20.0002 25 19.6668 24.6667 19.6668 24.1667V23C19.1668 22.5 19.0835 21.75 19.5835 21.25C20.0835 20.75 20.8335 20.6667 21.3335 21.1667C21.8335 21.5833 21.9168 22.4167 21.4168 22.9167Z" fill="#335EC3"/>
<path d="M47.4537 16.352V19.616H51.2937V21.104H47.4537V24.512H51.7737V26H45.6297V14.864H51.7737V16.352H47.4537ZM58.4683 17.04C59.1616 17.04 59.7803 17.184 60.3243 17.472C60.879 17.76 61.311 18.1867 61.6203 18.752C61.9296 19.3173 62.0843 20 62.0843 20.8V26H60.2763V21.072C60.2763 20.2827 60.079 19.68 59.6843 19.264C59.2896 18.8373 58.751 18.624 58.0683 18.624C57.3856 18.624 56.8416 18.8373 56.4363 19.264C56.0416 19.68 55.8443 20.2827 55.8443 21.072V26H54.0203V17.184H55.8443V18.192C56.143 17.8293 56.5216 17.5467 56.9803 17.344C57.4496 17.1413 57.9456 17.04 58.4683 17.04ZM63.8029 21.552C63.8029 20.6667 63.9843 19.8827 64.3469 19.2C64.7203 18.5173 65.2216 17.9893 65.8509 17.616C66.4909 17.232 67.2003 17.04 67.9789 17.04C68.5549 17.04 69.1203 17.168 69.6749 17.424C70.2403 17.6693 70.6883 18 71.0189 18.416V14.16H72.8589V26H71.0189V24.672C70.7203 25.0987 70.3043 25.4507 69.7709 25.728C69.2483 26.0053 68.6456 26.144 67.9629 26.144C67.1949 26.144 66.4909 25.952 65.8509 25.568C65.2216 25.1733 64.7203 24.6293 64.3469 23.936C63.9843 23.232 63.8029 22.4373 63.8029 21.552ZM71.0189 21.584C71.0189 20.976 70.8909 20.448 70.6349 20C70.3896 19.552 70.0643 19.2107 69.6589 18.976C69.2536 18.7413 68.8163 18.624 68.3469 18.624C67.8776 18.624 67.4403 18.7413 67.0349 18.976C66.6296 19.2 66.2989 19.536 66.0429 19.984C65.7976 20.4213 65.6749 20.944 65.6749 21.552C65.6749 22.16 65.7976 22.6933 66.0429 23.152C66.2989 23.6107 66.6296 23.9627 67.0349 24.208C67.4509 24.4427 67.8883 24.56 68.3469 24.56C68.8163 24.56 69.2536 24.4427 69.6589 24.208C70.0643 23.9733 70.3896 23.632 70.6349 23.184C70.8909 22.7253 71.0189 22.192 71.0189 21.584ZM82.0227 19.44V20.976H75.4467V19.44H82.0227ZM86.7421 18.672V23.552C86.7421 23.8827 86.8167 24.1227 86.9661 24.272C87.1261 24.4107 87.3927 24.48 87.7661 24.48H88.8861V26H87.4461C86.6247 26 85.9954 25.808 85.5581 25.424C85.1207 25.04 84.9021 24.416 84.9021 23.552V18.672H83.8621V17.184H84.9021V14.992H86.7421V17.184H88.8861V18.672H86.7421ZM94.3912 26.144C93.5592 26.144 92.8072 25.9573 92.1352 25.584C91.4632 25.2 90.9352 24.6667 90.5512 23.984C90.1672 23.2907 89.9752 22.4907 89.9752 21.584C89.9752 20.688 90.1725 19.8933 90.5672 19.2C90.9619 18.5067 91.5005 17.9733 92.1832 17.6C92.8659 17.2267 93.6285 17.04 94.4712 17.04C95.3139 17.04 96.0765 17.2267 96.7592 17.6C97.4419 17.9733 97.9805 18.5067 98.3752 19.2C98.7699 19.8933 98.9672 20.688 98.9672 21.584C98.9672 22.48 98.7645 23.2747 98.3592 23.968C97.9539 24.6613 97.3992 25.2 96.6952 25.584C96.0019 25.9573 95.2339 26.144 94.3912 26.144ZM94.3912 24.56C94.8605 24.56 95.2979 24.448 95.7032 24.224C96.1192 24 96.4552 23.664 96.7112 23.216C96.9672 22.768 97.0952 22.224 97.0952 21.584C97.0952 20.944 96.9725 20.4053 96.7272 19.968C96.4819 19.52 96.1565 19.184 95.7512 18.96C95.3459 18.736 94.9085 18.624 94.4392 18.624C93.9699 18.624 93.5325 18.736 93.1272 18.96C92.7325 19.184 92.4179 19.52 92.1832 19.968C91.9485 20.4053 91.8312 20.944 91.8312 21.584C91.8312 22.5333 92.0712 23.2693 92.5512 23.792C93.0419 24.304 93.6552 24.56 94.3912 24.56ZM107.538 19.44V20.976H100.962V19.44H107.538ZM118.21 21.376C118.21 21.7067 118.188 22.0053 118.146 22.272H111.41C111.463 22.976 111.724 23.5413 112.194 23.968C112.663 24.3947 113.239 24.608 113.922 24.608C114.903 24.608 115.596 24.1973 116.002 23.376H117.97C117.703 24.1867 117.218 24.8533 116.514 25.376C115.82 25.888 114.956 26.144 113.922 26.144C113.079 26.144 112.322 25.9573 111.65 25.584C110.988 25.2 110.466 24.6667 110.082 23.984C109.708 23.2907 109.522 22.4907 109.522 21.584C109.522 20.6773 109.703 19.8827 110.066 19.2C110.439 18.5067 110.956 17.9733 111.618 17.6C112.29 17.2267 113.058 17.04 113.922 17.04C114.754 17.04 115.495 17.2213 116.146 17.584C116.796 17.9467 117.303 18.4587 117.666 19.12C118.028 19.7707 118.21 20.5227 118.21 21.376ZM116.306 20.8C116.295 20.128 116.055 19.5893 115.586 19.184C115.116 18.7787 114.535 18.576 113.842 18.576C113.212 18.576 112.674 18.7787 112.226 19.184C111.778 19.5787 111.511 20.1173 111.426 20.8H116.306ZM124.453 17.04C125.146 17.04 125.765 17.184 126.309 17.472C126.863 17.76 127.295 18.1867 127.605 18.752C127.914 19.3173 128.069 20 128.069 20.8V26H126.261V21.072C126.261 20.2827 126.063 19.68 125.669 19.264C125.274 18.8373 124.735 18.624 124.053 18.624C123.37 18.624 122.826 18.8373 122.421 19.264C122.026 19.68 121.829 20.2827 121.829 21.072V26H120.005V17.184H121.829V18.192C122.127 17.8293 122.506 17.5467 122.965 17.344C123.434 17.1413 123.93 17.04 124.453 17.04ZM129.787 21.552C129.787 20.6667 129.969 19.8827 130.331 19.2C130.705 18.5173 131.206 17.9893 131.835 17.616C132.475 17.232 133.185 17.04 133.963 17.04C134.539 17.04 135.105 17.168 135.659 17.424C136.225 17.6693 136.673 18 137.003 18.416V14.16H138.843V26H137.003V24.672C136.705 25.0987 136.289 25.4507 135.755 25.728C135.233 26.0053 134.63 26.144 133.947 26.144C133.179 26.144 132.475 25.952 131.835 25.568C131.206 25.1733 130.705 24.6293 130.331 23.936C129.969 23.232 129.787 22.4373 129.787 21.552ZM137.003 21.584C137.003 20.976 136.875 20.448 136.619 20C136.374 19.552 136.049 19.2107 135.643 18.976C135.238 18.7413 134.801 18.624 134.331 18.624C133.862 18.624 133.425 18.7413 133.019 18.976C132.614 19.2 132.283 19.536 132.027 19.984C131.782 20.4213 131.659 20.944 131.659 21.552C131.659 22.16 131.782 22.6933 132.027 23.152C132.283 23.6107 132.614 23.9627 133.019 24.208C133.435 24.4427 133.873 24.56 134.331 24.56C134.801 24.56 135.238 24.4427 135.643 24.208C136.049 23.9733 136.374 23.632 136.619 23.184C136.875 22.7253 137.003 22.192 137.003 21.584ZM147.219 18.48C147.529 18.0747 147.95 17.7333 148.483 17.456C149.017 17.1787 149.619 17.04 150.291 17.04C151.059 17.04 151.758 17.232 152.387 17.616C153.027 17.9893 153.529 18.5173 153.891 19.2C154.254 19.8827 154.435 20.6667 154.435 21.552C154.435 22.4373 154.254 23.232 153.891 23.936C153.529 24.6293 153.027 25.1733 152.387 25.568C151.758 25.952 151.059 26.144 150.291 26.144C149.619 26.144 149.022 26.0107 148.499 25.744C147.977 25.4667 147.55 25.1253 147.219 24.72V30.192H145.395V17.184H147.219V18.48ZM152.579 21.552C152.579 20.944 152.451 20.4213 152.195 19.984C151.95 19.536 151.619 19.2 151.203 18.976C150.798 18.7413 150.361 18.624 149.891 18.624C149.433 18.624 148.995 18.7413 148.579 18.976C148.174 19.2107 147.843 19.552 147.587 20C147.342 20.448 147.219 20.976 147.219 21.584C147.219 22.192 147.342 22.7253 147.587 23.184C147.843 23.632 148.174 23.9733 148.579 24.208C148.995 24.4427 149.433 24.56 149.891 24.56C150.361 24.56 150.798 24.4427 151.203 24.208C151.619 23.9627 151.95 23.6107 152.195 23.152C152.451 22.6933 152.579 22.16 152.579 21.552ZM158.063 18.464C158.33 18.016 158.682 17.6693 159.119 17.424C159.567 17.168 160.095 17.04 160.703 17.04V18.928H160.239C159.524 18.928 158.98 19.1093 158.607 19.472C158.244 19.8347 158.063 20.464 158.063 21.36V26H156.239V17.184H158.063V18.464ZM166.204 26.144C165.372 26.144 164.62 25.9573 163.948 25.584C163.276 25.2 162.748 24.6667 162.364 23.984C161.98 23.2907 161.788 22.4907 161.788 21.584C161.788 20.688 161.985 19.8933 162.38 19.2C162.774 18.5067 163.313 17.9733 163.996 17.6C164.678 17.2267 165.441 17.04 166.284 17.04C167.126 17.04 167.889 17.2267 168.572 17.6C169.254 17.9733 169.793 18.5067 170.188 19.2C170.582 19.8933 170.78 20.688 170.78 21.584C170.78 22.48 170.577 23.2747 170.172 23.968C169.766 24.6613 169.212 25.2 168.508 25.584C167.814 25.9573 167.046 26.144 166.204 26.144ZM166.204 24.56C166.673 24.56 167.11 24.448 167.516 24.224C167.932 24 168.268 23.664 168.524 23.216C168.78 22.768 168.908 22.224 168.908 21.584C168.908 20.944 168.785 20.4053 168.54 19.968C168.294 19.52 167.969 19.184 167.564 18.96C167.158 18.736 166.721 18.624 166.252 18.624C165.782 18.624 165.345 18.736 164.94 18.96C164.545 19.184 164.23 19.52 163.996 19.968C163.761 20.4053 163.644 20.944 163.644 21.584C163.644 22.5333 163.884 23.2693 164.364 23.792C164.854 24.304 165.468 24.56 166.204 24.56ZM174.711 18.672V23.552C174.711 23.8827 174.785 24.1227 174.935 24.272C175.095 24.4107 175.361 24.48 175.735 24.48H176.855V26H175.415C174.593 26 173.964 25.808 173.527 25.424C173.089 25.04 172.871 24.416 172.871 23.552V18.672H171.831V17.184H172.871V14.992H174.711V17.184H176.855V18.672H174.711ZM186.616 21.376C186.616 21.7067 186.595 22.0053 186.552 22.272H179.816C179.869 22.976 180.131 23.5413 180.6 23.968C181.069 24.3947 181.645 24.608 182.328 24.608C183.309 24.608 184.003 24.1973 184.408 23.376H186.376C186.109 24.1867 185.624 24.8533 184.92 25.376C184.227 25.888 183.363 26.144 182.328 26.144C181.485 26.144 180.728 25.9573 180.056 25.584C179.395 25.2 178.872 24.6667 178.488 23.984C178.115 23.2907 177.928 22.4907 177.928 21.584C177.928 20.6773 178.109 19.8827 178.472 19.2C178.845 18.5067 179.363 17.9733 180.024 17.6C180.696 17.2267 181.464 17.04 182.328 17.04C183.16 17.04 183.901 17.2213 184.552 17.584C185.203 17.9467 185.709 18.4587 186.072 19.12C186.435 19.7707 186.616 20.5227 186.616 21.376ZM184.712 20.8C184.701 20.128 184.461 19.5893 183.992 19.184C183.523 18.7787 182.941 18.576 182.248 18.576C181.619 18.576 181.08 18.7787 180.632 19.184C180.184 19.5787 179.917 20.1173 179.832 20.8H184.712ZM187.803 21.584C187.803 20.6773 187.984 19.8827 188.347 19.2C188.72 18.5067 189.232 17.9733 189.883 17.6C190.534 17.2267 191.28 17.04 192.123 17.04C193.19 17.04 194.07 17.296 194.763 17.808C195.467 18.3093 195.942 19.0293 196.187 19.968H194.219C194.059 19.5307 193.803 19.1893 193.451 18.944C193.099 18.6987 192.656 18.576 192.123 18.576C191.376 18.576 190.779 18.8427 190.331 19.376C189.894 19.8987 189.675 20.6347 189.675 21.584C189.675 22.5333 189.894 23.2747 190.331 23.808C190.779 24.3413 191.376 24.608 192.123 24.608C193.179 24.608 193.878 24.144 194.219 23.216H196.187C195.931 24.112 195.451 24.8267 194.747 25.36C194.043 25.8827 193.168 26.144 192.123 26.144C191.28 26.144 190.534 25.9573 189.883 25.584C189.232 25.2 188.72 24.6667 188.347 23.984C187.984 23.2907 187.803 22.4907 187.803 21.584ZM200.133 18.672V23.552C200.133 23.8827 200.207 24.1227 200.357 24.272C200.517 24.4107 200.783 24.48 201.157 24.48H202.277V26H200.837C200.015 26 199.386 25.808 198.949 25.424C198.511 25.04 198.293 24.416 198.293 23.552V18.672H197.253V17.184H198.293V14.992H200.133V17.184H202.277V18.672H200.133ZM204.886 16.016C204.555 16.016 204.278 15.904 204.054 15.68C203.83 15.456 203.718 15.1787 203.718 14.848C203.718 14.5173 203.83 14.24 204.054 14.016C204.278 13.792 204.555 13.68 204.886 13.68C205.206 13.68 205.478 13.792 205.702 14.016C205.926 14.24 206.038 14.5173 206.038 14.848C206.038 15.1787 205.926 15.456 205.702 15.68C205.478 15.904 205.206 16.016 204.886 16.016ZM205.782 17.184V26H203.958V17.184H205.782ZM212.001 26.144C211.169 26.144 210.417 25.9573 209.745 25.584C209.073 25.2 208.545 24.6667 208.161 23.984C207.777 23.2907 207.585 22.4907 207.585 21.584C207.585 20.688 207.782 19.8933 208.177 19.2C208.571 18.5067 209.11 17.9733 209.793 17.6C210.475 17.2267 211.238 17.04 212.081 17.04C212.923 17.04 213.686 17.2267 214.369 17.6C215.051 17.9733 215.59 18.5067 215.985 19.2C216.379 19.8933 216.577 20.688 216.577 21.584C216.577 22.48 216.374 23.2747 215.969 23.968C215.563 24.6613 215.009 25.2 214.305 25.584C213.611 25.9573 212.843 26.144 212.001 26.144ZM212.001 24.56C212.47 24.56 212.907 24.448 213.313 24.224C213.729 24 214.065 23.664 214.321 23.216C214.577 22.768 214.705 22.224 214.705 21.584C214.705 20.944 214.582 20.4053 214.337 19.968C214.091 19.52 213.766 19.184 213.361 18.96C212.955 18.736 212.518 18.624 212.049 18.624C211.579 18.624 211.142 18.736 210.737 18.96C210.342 19.184 210.027 19.52 209.793 19.968C209.558 20.4053 209.441 20.944 209.441 21.584C209.441 22.5333 209.681 23.2693 210.161 23.792C210.651 24.304 211.265 24.56 212.001 24.56ZM222.828 17.04C223.521 17.04 224.14 17.184 224.684 17.472C225.238 17.76 225.67 18.1867 225.98 18.752C226.289 19.3173 226.444 20 226.444 20.8V26H224.636V21.072C224.636 20.2827 224.438 19.68 224.044 19.264C223.649 18.8373 223.11 18.624 222.428 18.624C221.745 18.624 221.201 18.8373 220.796 19.264C220.401 19.68 220.204 20.2827 220.204 21.072V26H218.38V17.184H220.204V18.192C220.502 17.8293 220.881 17.5467 221.34 17.344C221.809 17.1413 222.305 17.04 222.828 17.04Z" fill="#1A2969" fill-opacity="0.7"/>
<mask id="path-5-inside-2_45_4912" fill="white">
<path d="M0 72C0 60.9543 8.95431 52 20 52C31.0457 52 40 60.9543 40 72C40 83.0457 31.0457 92 20 92C8.95431 92 0 83.0457 0 72Z"/>
</mask>
<path d="M0 72C0 60.9543 8.95431 52 20 52C31.0457 52 40 60.9543 40 72C40 83.0457 31.0457 92 20 92C8.95431 92 0 83.0457 0 72Z" fill="#8383E8" fill-opacity="0.13"/>
<g clip-path="url(#paint1_diamond_45_4912_clip_path)" data-figma-skip-parse="true" mask="url(#path-5-inside-2_45_4912)"><g transform="matrix(0.0339807 0.0436329 -0.0436329 0.0339807 -3.11111 44.8889)"><rect x="0" y="0" width="1176.44" height="561.395" fill="url(#paint1_diamond_45_4912)" opacity="1" shape-rendering="crispEdges"/><rect x="0" y="0" width="1176.44" height="561.395" transform="scale(1 -1)" fill="url(#paint1_diamond_45_4912)" opacity="1" shape-rendering="crispEdges"/><rect x="0" y="0" width="1176.44" height="561.395" transform="scale(-1 1)" fill="url(#paint1_diamond_45_4912)" opacity="1" shape-rendering="crispEdges"/><rect x="0" y="0" width="1176.44" height="561.395" transform="scale(-1)" fill="url(#paint1_diamond_45_4912)" opacity="1" shape-rendering="crispEdges"/></g></g><path d="M20 92V91C9.50659 91 1 82.4934 1 72H0H-1C-1 83.598 8.40202 93 20 93V92ZM40 72H39C39 82.4934 30.4934 91 20 91V92V93C31.598 93 41 83.598 41 72H40ZM20 52V53C30.4934 53 39 61.5066 39 72H40H41C41 60.402 31.598 51 20 51V52ZM20 52V51C8.40202 51 -1 60.402 -1 72H0H1C1 61.5066 9.50659 53 20 53V52Z" data-figma-gradient-fill="{&#34;type&#34;:&#34;GRADIENT_DIAMOND&#34;,&#34;stops&#34;:[{&#34;color&#34;:{&#34;r&#34;:0.0,&#34;g&#34;:0.18740472197532654,&#34;b&#34;:0.71730768680572510,&#34;a&#34;:1.0},&#34;position&#34;:0.027263522148132324},{&#34;color&#34;:{&#34;r&#34;:0.82692307233810425,&#34;g&#34;:0.81102073192596436,&#34;b&#34;:0.81102073192596436,&#34;a&#34;:1.0},&#34;position&#34;:0.29674249887466431},{&#34;color&#34;:{&#34;r&#34;:0.34901961684226990,&#34;g&#34;:0.38039216399192810,&#34;b&#34;:0.88627451658248901,&#34;a&#34;:1.0},&#34;position&#34;:0.7692759633064270}],&#34;stopsVar&#34;:[{&#34;color&#34;:{&#34;r&#34;:0.0,&#34;g&#34;:0.18740472197532654,&#34;b&#34;:0.71730768680572510,&#34;a&#34;:1.0},&#34;position&#34;:0.027263522148132324},{&#34;color&#34;:{&#34;r&#34;:0.82692307233810425,&#34;g&#34;:0.81102073192596436,&#34;b&#34;:0.81102073192596436,&#34;a&#34;:1.0},&#34;position&#34;:0.29674249887466431},{&#34;color&#34;:{&#34;r&#34;:0.34901961684226990,&#34;g&#34;:0.38039216399192810,&#34;b&#34;:0.88627451658248901,&#34;a&#34;:1.0},&#34;position&#34;:0.7692759633064270}],&#34;transform&#34;:{&#34;m00&#34;:67.961357116699219,&#34;m01&#34;:-87.265701293945312,&#34;m02&#34;:6.5410647392272949,&#34;m10&#34;:87.265701293945312,&#34;m11&#34;:67.961357116699219,&#34;m12&#34;:-32.724643707275391},&#34;opacity&#34;:1.0,&#34;blendMode&#34;:&#34;NORMAL&#34;,&#34;visible&#34;:true}" mask="url(#path-5-inside-2_45_4912)"/>
<path d="M15 79C13.7527 79 12.691 78.5647 11.815 77.694C10.9383 76.8247 10.5 75.7657 10.5 74.517C10.5 73.371 10.8917 72.354 11.675 71.466C12.4583 70.578 13.432 70.101 14.596 70.035C14.8207 68.5783 15.4907 67.375 16.606 66.425C17.7213 65.475 19.0193 65 20.5 65C22.168 65 23.585 65.583 24.751 66.749C25.917 67.915 26.5 69.332 26.5 71V72H27.116C28.0733 72.0307 28.8767 72.3823 29.526 73.055C30.1753 73.7277 30.5 74.5427 30.5 75.5C30.5 76.4807 30.162 77.3093 29.486 77.986C28.8087 78.662 27.98 79 27 79H15Z" fill="#335EC3"/>
<path d="M48.8953 78.112C48.1486 78.112 47.4766 77.984 46.8793 77.728C46.2819 77.4613 45.8126 77.088 45.4713 76.608C45.1299 76.128 44.9593 75.568 44.9593 74.928H46.9113C46.9539 75.408 47.1406 75.8027 47.4713 76.112C47.8126 76.4213 48.2873 76.576 48.8953 76.576C49.5246 76.576 50.0153 76.4267 50.3673 76.128C50.7193 75.8187 50.8953 75.424 50.8953 74.944C50.8953 74.5707 50.7833 74.2667 50.5593 74.032C50.3459 73.7973 50.0739 73.616 49.7433 73.488C49.4233 73.36 48.9753 73.2213 48.3993 73.072C47.6739 72.88 47.0819 72.688 46.6233 72.496C46.1753 72.2933 45.7913 71.984 45.4713 71.568C45.1513 71.152 44.9913 70.5973 44.9913 69.904C44.9913 69.264 45.1513 68.704 45.4713 68.224C45.7913 67.744 46.2393 67.376 46.8153 67.12C47.3913 66.864 48.0579 66.736 48.8153 66.736C49.8926 66.736 50.7726 67.008 51.4553 67.552C52.1486 68.0853 52.5326 68.8213 52.6073 69.76H50.5913C50.5593 69.3547 50.3673 69.008 50.0153 68.72C49.6633 68.432 49.1993 68.288 48.6233 68.288C48.1006 68.288 47.6739 68.4213 47.3433 68.688C47.0126 68.9547 46.8473 69.3387 46.8473 69.84C46.8473 70.1813 46.9486 70.464 47.1513 70.688C47.3646 70.9013 47.6313 71.072 47.9513 71.2C48.2713 71.328 48.7086 71.4667 49.2633 71.616C49.9993 71.8187 50.5966 72.0213 51.0553 72.224C51.5246 72.4267 51.9193 72.7413 52.2393 73.168C52.5699 73.584 52.7353 74.144 52.7353 74.848C52.7353 75.4133 52.5806 75.9467 52.2713 76.448C51.9726 76.9493 51.5299 77.3547 50.9433 77.664C50.3673 77.9627 49.6846 78.112 48.8953 78.112ZM62.9675 73.376C62.9675 73.7067 62.9462 74.0053 62.9035 74.272H56.1675C56.2208 74.976 56.4822 75.5413 56.9515 75.968C57.4208 76.3947 57.9968 76.608 58.6795 76.608C59.6608 76.608 60.3542 76.1973 60.7595 75.376H62.7275C62.4608 76.1867 61.9755 76.8533 61.2715 77.376C60.5782 77.888 59.7142 78.144 58.6795 78.144C57.8368 78.144 57.0795 77.9573 56.4075 77.584C55.7462 77.2 55.2235 76.6667 54.8395 75.984C54.4662 75.2907 54.2795 74.4907 54.2795 73.584C54.2795 72.6773 54.4608 71.8827 54.8235 71.2C55.1968 70.5067 55.7142 69.9733 56.3755 69.6C57.0475 69.2267 57.8155 69.04 58.6795 69.04C59.5115 69.04 60.2528 69.2213 60.9035 69.584C61.5542 69.9467 62.0608 70.4587 62.4235 71.12C62.7862 71.7707 62.9675 72.5227 62.9675 73.376ZM61.0635 72.8C61.0528 72.128 60.8128 71.5893 60.3435 71.184C59.8742 70.7787 59.2928 70.576 58.5995 70.576C57.9702 70.576 57.4315 70.7787 56.9835 71.184C56.5355 71.5787 56.2688 72.1173 56.1835 72.8H61.0635ZM64.1545 73.584C64.1545 72.6773 64.3358 71.8827 64.6985 71.2C65.0718 70.5067 65.5838 69.9733 66.2345 69.6C66.8852 69.2267 67.6318 69.04 68.4745 69.04C69.5412 69.04 70.4212 69.296 71.1145 69.808C71.8185 70.3093 72.2932 71.0293 72.5385 71.968H70.5705C70.4105 71.5307 70.1545 71.1893 69.8025 70.944C69.4505 70.6987 69.0078 70.576 68.4745 70.576C67.7278 70.576 67.1305 70.8427 66.6825 71.376C66.2452 71.8987 66.0265 72.6347 66.0265 73.584C66.0265 74.5333 66.2452 75.2747 66.6825 75.808C67.1305 76.3413 67.7278 76.608 68.4745 76.608C69.5305 76.608 70.2292 76.144 70.5705 75.216H72.5385C72.2825 76.112 71.8025 76.8267 71.0985 77.36C70.3945 77.8827 69.5198 78.144 68.4745 78.144C67.6318 78.144 66.8852 77.9573 66.2345 77.584C65.5838 77.2 65.0718 76.6667 64.6985 75.984C64.3358 75.2907 64.1545 74.4907 64.1545 73.584ZM82.3403 69.184V78H80.5163V76.96C80.2283 77.3227 79.8496 77.6107 79.3803 77.824C78.9216 78.0267 78.4309 78.128 77.9083 78.128C77.2149 78.128 76.5909 77.984 76.0363 77.696C75.4923 77.408 75.0603 76.9813 74.7403 76.416C74.4309 75.8507 74.2763 75.168 74.2763 74.368V69.184H76.0843V74.096C76.0843 74.8853 76.2816 75.4933 76.6763 75.92C77.0709 76.336 77.6096 76.544 78.2923 76.544C78.9749 76.544 79.5136 76.336 79.9083 75.92C80.3136 75.4933 80.5163 74.8853 80.5163 74.096V69.184H82.3403ZM86.5709 70.464C86.8375 70.016 87.1895 69.6693 87.6269 69.424C88.0749 69.168 88.6029 69.04 89.2109 69.04V70.928H88.7469C88.0322 70.928 87.4882 71.1093 87.1149 71.472C86.7522 71.8347 86.5709 72.464 86.5709 73.36V78H84.7469V69.184H86.5709V70.464ZM98.9675 73.376C98.9675 73.7067 98.9462 74.0053 98.9035 74.272H92.1675C92.2208 74.976 92.4822 75.5413 92.9515 75.968C93.4208 76.3947 93.9968 76.608 94.6795 76.608C95.6608 76.608 96.3542 76.1973 96.7595 75.376H98.7275C98.4608 76.1867 97.9755 76.8533 97.2715 77.376C96.5782 77.888 95.7142 78.144 94.6795 78.144C93.8368 78.144 93.0795 77.9573 92.4075 77.584C91.7462 77.2 91.2235 76.6667 90.8395 75.984C90.4662 75.2907 90.2795 74.4907 90.2795 73.584C90.2795 72.6773 90.4608 71.8827 90.8235 71.2C91.1968 70.5067 91.7142 69.9733 92.3755 69.6C93.0475 69.2267 93.8155 69.04 94.6795 69.04C95.5115 69.04 96.2528 69.2213 96.9035 69.584C97.5542 69.9467 98.0608 70.4587 98.4235 71.12C98.7862 71.7707 98.9675 72.5227 98.9675 73.376ZM97.0635 72.8C97.0528 72.128 96.8128 71.5893 96.3435 71.184C95.8742 70.7787 95.2928 70.576 94.5995 70.576C93.9702 70.576 93.4315 70.7787 92.9835 71.184C92.5355 71.5787 92.2688 72.1173 92.1835 72.8H97.0635ZM104.311 73.584C104.311 72.6773 104.492 71.8827 104.855 71.2C105.228 70.5067 105.74 69.9733 106.391 69.6C107.041 69.2267 107.788 69.04 108.631 69.04C109.697 69.04 110.577 69.296 111.271 69.808C111.975 70.3093 112.449 71.0293 112.695 71.968H110.727C110.567 71.5307 110.311 71.1893 109.959 70.944C109.607 70.6987 109.164 70.576 108.631 70.576C107.884 70.576 107.287 70.8427 106.839 71.376C106.401 71.8987 106.183 72.6347 106.183 73.584C106.183 74.5333 106.401 75.2747 106.839 75.808C107.287 76.3413 107.884 76.608 108.631 76.608C109.687 76.608 110.385 76.144 110.727 75.216H112.695C112.439 76.112 111.959 76.8267 111.255 77.36C110.551 77.8827 109.676 78.144 108.631 78.144C107.788 78.144 107.041 77.9573 106.391 77.584C105.74 77.2 105.228 76.6667 104.855 75.984C104.492 75.2907 104.311 74.4907 104.311 73.584ZM116.337 66.16V78H114.513V66.16H116.337ZM122.555 78.144C121.723 78.144 120.971 77.9573 120.299 77.584C119.627 77.2 119.099 76.6667 118.715 75.984C118.331 75.2907 118.139 74.4907 118.139 73.584C118.139 72.688 118.337 71.8933 118.731 71.2C119.126 70.5067 119.665 69.9733 120.347 69.6C121.03 69.2267 121.793 69.04 122.635 69.04C123.478 69.04 124.241 69.2267 124.923 69.6C125.606 69.9733 126.145 70.5067 126.539 71.2C126.934 71.8933 127.131 72.688 127.131 73.584C127.131 74.48 126.929 75.2747 126.523 75.968C126.118 76.6613 125.563 77.2 124.859 77.584C124.166 77.9573 123.398 78.144 122.555 78.144ZM122.555 76.56C123.025 76.56 123.462 76.448 123.867 76.224C124.283 76 124.619 75.664 124.875 75.216C125.131 74.768 125.259 74.224 125.259 73.584C125.259 72.944 125.137 72.4053 124.891 71.968C124.646 71.52 124.321 71.184 123.915 70.96C123.51 70.736 123.073 70.624 122.603 70.624C122.134 70.624 121.697 70.736 121.291 70.96C120.897 71.184 120.582 71.52 120.347 71.968C120.113 72.4053 119.995 72.944 119.995 73.584C119.995 74.5333 120.235 75.2693 120.715 75.792C121.206 76.304 121.819 76.56 122.555 76.56ZM136.918 69.184V78H135.094V76.96C134.806 77.3227 134.428 77.6107 133.958 77.824C133.5 78.0267 133.009 78.128 132.486 78.128C131.793 78.128 131.169 77.984 130.614 77.696C130.07 77.408 129.638 76.9813 129.318 76.416C129.009 75.8507 128.854 75.168 128.854 74.368V69.184H130.662V74.096C130.662 74.8853 130.86 75.4933 131.254 75.92C131.649 76.336 132.188 76.544 132.87 76.544C133.553 76.544 134.092 76.336 134.486 75.92C134.892 75.4933 135.094 74.8853 135.094 74.096V69.184H136.918ZM138.717 73.552C138.717 72.6667 138.898 71.8827 139.261 71.2C139.634 70.5173 140.136 69.9893 140.765 69.616C141.405 69.232 142.114 69.04 142.893 69.04C143.469 69.04 144.034 69.168 144.589 69.424C145.154 69.6693 145.602 70 145.933 70.416V66.16H147.773V78H145.933V76.672C145.634 77.0987 145.218 77.4507 144.685 77.728C144.162 78.0053 143.56 78.144 142.877 78.144C142.109 78.144 141.405 77.952 140.765 77.568C140.136 77.1733 139.634 76.6293 139.261 75.936C138.898 75.232 138.717 74.4373 138.717 73.552ZM145.933 73.584C145.933 72.976 145.805 72.448 145.549 72C145.304 71.552 144.978 71.2107 144.573 70.976C144.168 70.7413 143.73 70.624 143.261 70.624C142.792 70.624 142.354 70.7413 141.949 70.976C141.544 71.2 141.213 71.536 140.957 71.984C140.712 72.4213 140.589 72.944 140.589 73.552C140.589 74.16 140.712 74.6933 140.957 75.152C141.213 75.6107 141.544 75.9627 141.949 76.208C142.365 76.4427 142.802 76.56 143.261 76.56C143.73 76.56 144.168 76.4427 144.573 76.208C144.978 75.9733 145.304 75.632 145.549 75.184C145.805 74.7253 145.933 74.192 145.933 73.584Z" fill="#1A2969" fill-opacity="0.7"/>
<mask id="path-9-inside-3_45_4912" fill="white">
<path d="M0 124C0 112.954 8.95431 104 20 104C31.0457 104 40 112.954 40 124C40 135.046 31.0457 144 20 144C8.95431 144 0 135.046 0 124Z"/>
</mask>
<path d="M0 124C0 112.954 8.95431 104 20 104C31.0457 104 40 112.954 40 124C40 135.046 31.0457 144 20 144C8.95431 144 0 135.046 0 124Z" fill="#8383E8" fill-opacity="0.13"/>
<g clip-path="url(#paint2_diamond_45_4912_clip_path)" data-figma-skip-parse="true" mask="url(#path-9-inside-3_45_4912)"><g transform="matrix(0.0339807 0.0436329 -0.0436329 0.0339807 -3.11111 96.8889)"><rect x="0" y="0" width="1176.44" height="561.395" fill="url(#paint2_diamond_45_4912)" opacity="1" shape-rendering="crispEdges"/><rect x="0" y="0" width="1176.44" height="561.395" transform="scale(1 -1)" fill="url(#paint2_diamond_45_4912)" opacity="1" shape-rendering="crispEdges"/><rect x="0" y="0" width="1176.44" height="561.395" transform="scale(-1 1)" fill="url(#paint2_diamond_45_4912)" opacity="1" shape-rendering="crispEdges"/><rect x="0" y="0" width="1176.44" height="561.395" transform="scale(-1)" fill="url(#paint2_diamond_45_4912)" opacity="1" shape-rendering="crispEdges"/></g></g><path d="M20 144V143C9.50659 143 1 134.493 1 124H0H-1C-1 135.598 8.40202 145 20 145V144ZM40 124H39C39 134.493 30.4934 143 20 143V144V145C31.598 145 41 135.598 41 124H40ZM20 104V105C30.4934 105 39 113.507 39 124H40H41C41 112.402 31.598 103 20 103V104ZM20 104V103C8.40202 103 -1 112.402 -1 124H0H1C1 113.507 9.50659 105 20 105V104Z" data-figma-gradient-fill="{&#34;type&#34;:&#34;GRADIENT_DIAMOND&#34;,&#34;stops&#34;:[{&#34;color&#34;:{&#34;r&#34;:0.0,&#34;g&#34;:0.18740472197532654,&#34;b&#34;:0.71730768680572510,&#34;a&#34;:1.0},&#34;position&#34;:0.027263522148132324},{&#34;color&#34;:{&#34;r&#34;:0.82692307233810425,&#34;g&#34;:0.81102073192596436,&#34;b&#34;:0.81102073192596436,&#34;a&#34;:1.0},&#34;position&#34;:0.29674249887466431},{&#34;color&#34;:{&#34;r&#34;:0.34901961684226990,&#34;g&#34;:0.38039216399192810,&#34;b&#34;:0.88627451658248901,&#34;a&#34;:1.0},&#34;position&#34;:0.7692759633064270}],&#34;stopsVar&#34;:[{&#34;color&#34;:{&#34;r&#34;:0.0,&#34;g&#34;:0.18740472197532654,&#34;b&#34;:0.71730768680572510,&#34;a&#34;:1.0},&#34;position&#34;:0.027263522148132324},{&#34;color&#34;:{&#34;r&#34;:0.82692307233810425,&#34;g&#34;:0.81102073192596436,&#34;b&#34;:0.81102073192596436,&#34;a&#34;:1.0},&#34;position&#34;:0.29674249887466431},{&#34;color&#34;:{&#34;r&#34;:0.34901961684226990,&#34;g&#34;:0.38039216399192810,&#34;b&#34;:0.88627451658248901,&#34;a&#34;:1.0},&#34;position&#34;:0.7692759633064270}],&#34;transform&#34;:{&#34;m00&#34;:67.961357116699219,&#34;m01&#34;:-87.265701293945312,&#34;m02&#34;:6.5410647392272949,&#34;m10&#34;:87.265701293945312,&#34;m11&#34;:67.961357116699219,&#34;m12&#34;:19.275358200073242},&#34;opacity&#34;:1.0,&#34;blendMode&#34;:&#34;NORMAL&#34;,&#34;visible&#34;:true}" mask="url(#path-9-inside-3_45_4912)"/>
<path d="M20.3585 121.5L23.0002 124.133V124C23.0002 123.337 22.7368 122.701 22.2679 122.232C21.7991 121.763 21.1632 121.5 20.5002 121.5H20.3585ZM16.7752 122.167L18.0668 123.458C18.0252 123.633 18.0002 123.808 18.0002 124C18.0002 124.663 18.2636 125.299 18.7324 125.768C19.2012 126.237 19.8371 126.5 20.5002 126.5C20.6835 126.5 20.8668 126.475 21.0418 126.433L22.3335 127.725C21.7752 128 21.1585 128.167 20.5002 128.167C19.3951 128.167 18.3353 127.728 17.5539 126.946C16.7725 126.165 16.3335 125.105 16.3335 124C16.3335 123.342 16.5002 122.725 16.7752 122.167ZM12.1668 117.558L14.0668 119.458L14.4418 119.833C13.0668 120.917 11.9835 122.333 11.3335 124C12.7752 127.658 16.3335 130.25 20.5002 130.25C21.7918 130.25 23.0252 130 24.1502 129.55L24.5085 129.9L26.9418 132.333L28.0002 131.275L13.2252 116.5M20.5002 119.833C21.6052 119.833 22.665 120.272 23.4464 121.054C24.2278 121.835 24.6668 122.895 24.6668 124C24.6668 124.533 24.5585 125.05 24.3668 125.517L26.8085 127.958C28.0585 126.917 29.0585 125.55 29.6668 124C28.2252 120.342 24.6668 117.75 20.5002 117.75C19.3335 117.75 18.2168 117.958 17.1668 118.333L18.9752 120.125C19.4502 119.942 19.9585 119.833 20.5002 119.833Z" fill="#335EC3"/>
<path d="M55.3126 130H53.4886L48.0006 121.696V130H46.1766V118.864H48.0006L53.4886 127.152V118.864H55.3126V130ZM61.5318 130.144C60.6998 130.144 59.9478 129.957 59.2758 129.584C58.6038 129.2 58.0758 128.667 57.6918 127.984C57.3078 127.291 57.1158 126.491 57.1158 125.584C57.1158 124.688 57.3131 123.893 57.7078 123.2C58.1025 122.507 58.6411 121.973 59.3238 121.6C60.0065 121.227 60.7691 121.04 61.6118 121.04C62.4545 121.04 63.2171 121.227 63.8998 121.6C64.5825 121.973 65.1211 122.507 65.5158 123.2C65.9105 123.893 66.1078 124.688 66.1078 125.584C66.1078 126.48 65.9051 127.275 65.4998 127.968C65.0945 128.661 64.5398 129.2 63.8358 129.584C63.1425 129.957 62.3745 130.144 61.5318 130.144ZM61.5318 128.56C62.0011 128.56 62.4385 128.448 62.8438 128.224C63.2598 128 63.5958 127.664 63.8518 127.216C64.1078 126.768 64.2358 126.224 64.2358 125.584C64.2358 124.944 64.1131 124.405 63.8678 123.968C63.6225 123.52 63.2971 123.184 62.8918 122.96C62.4865 122.736 62.0491 122.624 61.5798 122.624C61.1105 122.624 60.6731 122.736 60.2678 122.96C59.8731 123.184 59.5585 123.52 59.3238 123.968C59.0891 124.405 58.9718 124.944 58.9718 125.584C58.9718 126.533 59.2118 127.269 59.6918 127.792C60.1825 128.304 60.7958 128.56 61.5318 128.56ZM74.1952 122.672V127.552C74.1952 127.883 74.2699 128.123 74.4192 128.272C74.5792 128.411 74.8459 128.48 75.2192 128.48H76.3392V130H74.8992C74.0779 130 73.4485 129.808 73.0112 129.424C72.5739 129.04 72.3552 128.416 72.3552 127.552V122.672H71.3152V121.184H72.3552V118.992H74.1952V121.184H76.3392V122.672H74.1952ZM82.5803 121.04C83.2523 121.04 83.8496 121.184 84.3723 121.472C84.9056 121.76 85.3216 122.187 85.6203 122.752C85.9296 123.317 86.0843 124 86.0843 124.8V130H84.2763V125.072C84.2763 124.283 84.079 123.68 83.6843 123.264C83.2896 122.837 82.751 122.624 82.0683 122.624C81.3856 122.624 80.8416 122.837 80.4363 123.264C80.0416 123.68 79.8443 124.283 79.8443 125.072V130H78.0203V118.16H79.8443V122.208C80.1536 121.835 80.543 121.547 81.0123 121.344C81.4923 121.141 82.015 121.04 82.5803 121.04ZM89.3389 120.016C89.0083 120.016 88.7309 119.904 88.5069 119.68C88.2829 119.456 88.1709 119.179 88.1709 118.848C88.1709 118.517 88.2829 118.24 88.5069 118.016C88.7309 117.792 89.0083 117.68 89.3389 117.68C89.6589 117.68 89.9309 117.792 90.1549 118.016C90.3789 118.24 90.4909 118.517 90.4909 118.848C90.4909 119.179 90.3789 119.456 90.1549 119.68C89.9309 119.904 89.6589 120.016 89.3389 120.016ZM90.2349 121.184V130H88.4109V121.184H90.2349ZM94.4537 122.464C94.7204 122.016 95.0724 121.669 95.5097 121.424C95.9577 121.168 96.4857 121.04 97.0937 121.04V122.928H96.6297C95.915 122.928 95.371 123.109 94.9977 123.472C94.635 123.835 94.4537 124.464 94.4537 125.36V130H92.6297V121.184H94.4537V122.464ZM98.1623 125.552C98.1623 124.667 98.3436 123.883 98.7063 123.2C99.0796 122.517 99.581 121.989 100.21 121.616C100.85 121.232 101.56 121.04 102.338 121.04C102.914 121.04 103.48 121.168 104.034 121.424C104.6 121.669 105.048 122 105.378 122.416V118.16H107.218V130H105.378V128.672C105.08 129.099 104.664 129.451 104.13 129.728C103.608 130.005 103.005 130.144 102.322 130.144C101.554 130.144 100.85 129.952 100.21 129.568C99.581 129.173 99.0796 128.629 98.7063 127.936C98.3436 127.232 98.1623 126.437 98.1623 125.552ZM105.378 125.584C105.378 124.976 105.25 124.448 104.994 124C104.749 123.552 104.424 123.211 104.018 122.976C103.613 122.741 103.176 122.624 102.706 122.624C102.237 122.624 101.8 122.741 101.394 122.976C100.989 123.2 100.658 123.536 100.402 123.984C100.157 124.421 100.034 124.944 100.034 125.552C100.034 126.16 100.157 126.693 100.402 127.152C100.658 127.611 100.989 127.963 101.394 128.208C101.81 128.443 102.248 128.56 102.706 128.56C103.176 128.56 103.613 128.443 104.018 128.208C104.424 127.973 104.749 127.632 104.994 127.184C105.25 126.725 105.378 126.192 105.378 125.584ZM116.382 123.44V124.976H109.806V123.44H116.382ZM120.797 122.48C121.107 122.075 121.528 121.733 122.061 121.456C122.595 121.179 123.197 121.04 123.869 121.04C124.637 121.04 125.336 121.232 125.965 121.616C126.605 121.989 127.107 122.517 127.469 123.2C127.832 123.883 128.013 124.667 128.013 125.552C128.013 126.437 127.832 127.232 127.469 127.936C127.107 128.629 126.605 129.173 125.965 129.568C125.336 129.952 124.637 130.144 123.869 130.144C123.197 130.144 122.6 130.011 122.077 129.744C121.555 129.467 121.128 129.125 120.797 128.72V134.192H118.973V121.184H120.797V122.48ZM126.157 125.552C126.157 124.944 126.029 124.421 125.773 123.984C125.528 123.536 125.197 123.2 124.781 122.976C124.376 122.741 123.939 122.624 123.469 122.624C123.011 122.624 122.573 122.741 122.157 122.976C121.752 123.211 121.421 123.552 121.165 124C120.92 124.448 120.797 124.976 120.797 125.584C120.797 126.192 120.92 126.725 121.165 127.184C121.421 127.632 121.752 127.973 122.157 128.208C122.573 128.443 123.011 128.56 123.469 128.56C123.939 128.56 124.376 128.443 124.781 128.208C125.197 127.963 125.528 127.611 125.773 127.152C126.029 126.693 126.157 126.16 126.157 125.552ZM129.209 125.552C129.209 124.667 129.391 123.883 129.753 123.2C130.127 122.517 130.628 121.989 131.257 121.616C131.897 121.232 132.601 121.04 133.369 121.04C134.063 121.04 134.665 121.179 135.177 121.456C135.7 121.723 136.116 122.059 136.425 122.464V121.184H138.265V130H136.425V128.688C136.116 129.104 135.695 129.451 135.161 129.728C134.628 130.005 134.02 130.144 133.337 130.144C132.58 130.144 131.887 129.952 131.257 129.568C130.628 129.173 130.127 128.629 129.753 127.936C129.391 127.232 129.209 126.437 129.209 125.552ZM136.425 125.584C136.425 124.976 136.297 124.448 136.041 124C135.796 123.552 135.471 123.211 135.065 122.976C134.66 122.741 134.223 122.624 133.753 122.624C133.284 122.624 132.847 122.741 132.441 122.976C132.036 123.2 131.705 123.536 131.449 123.984C131.204 124.421 131.081 124.944 131.081 125.552C131.081 126.16 131.204 126.693 131.449 127.152C131.705 127.611 132.036 127.963 132.441 128.208C132.857 128.443 133.295 128.56 133.753 128.56C134.223 128.56 134.66 128.443 135.065 128.208C135.471 127.973 135.796 127.632 136.041 127.184C136.297 126.725 136.425 126.192 136.425 125.584ZM142.485 122.464C142.752 122.016 143.104 121.669 143.541 121.424C143.989 121.168 144.517 121.04 145.125 121.04V122.928H144.661C143.946 122.928 143.402 123.109 143.029 123.472C142.666 123.835 142.485 124.464 142.485 125.36V130H140.661V121.184H142.485V122.464ZM148.93 122.672V127.552C148.93 127.883 149.004 128.123 149.154 128.272C149.314 128.411 149.58 128.48 149.954 128.48H151.074V130H149.634C148.812 130 148.183 129.808 147.746 129.424C147.308 129.04 147.09 128.416 147.09 127.552V122.672H146.05V121.184H147.09V118.992H148.93V121.184H151.074V122.672H148.93ZM160.691 121.184L155.283 134.144H153.395L155.187 129.856L151.715 121.184H153.747L156.227 127.904L158.803 121.184H160.691ZM165.615 125.552C165.615 124.667 165.797 123.883 166.159 123.2C166.533 122.517 167.034 121.989 167.663 121.616C168.303 121.232 169.007 121.04 169.775 121.04C170.469 121.04 171.071 121.179 171.583 121.456C172.106 121.723 172.522 122.059 172.831 122.464V121.184H174.671V130H172.831V128.688C172.522 129.104 172.101 129.451 171.567 129.728C171.034 130.005 170.426 130.144 169.743 130.144C168.986 130.144 168.293 129.952 167.663 129.568C167.034 129.173 166.533 128.629 166.159 127.936C165.797 127.232 165.615 126.437 165.615 125.552ZM172.831 125.584C172.831 124.976 172.703 124.448 172.447 124C172.202 123.552 171.877 123.211 171.471 122.976C171.066 122.741 170.629 122.624 170.159 122.624C169.69 122.624 169.253 122.741 168.847 122.976C168.442 123.2 168.111 123.536 167.855 123.984C167.61 124.421 167.487 124.944 167.487 125.552C167.487 126.16 167.61 126.693 167.855 127.152C168.111 127.611 168.442 127.963 168.847 128.208C169.263 128.443 169.701 128.56 170.159 128.56C170.629 128.56 171.066 128.443 171.471 128.208C171.877 127.973 172.202 127.632 172.447 127.184C172.703 126.725 172.831 126.192 172.831 125.584ZM176.459 125.584C176.459 124.677 176.641 123.883 177.003 123.2C177.377 122.507 177.889 121.973 178.539 121.6C179.19 121.227 179.937 121.04 180.779 121.04C181.846 121.04 182.726 121.296 183.419 121.808C184.123 122.309 184.598 123.029 184.843 123.968H182.875C182.715 123.531 182.459 123.189 182.107 122.944C181.755 122.699 181.313 122.576 180.779 122.576C180.033 122.576 179.435 122.843 178.987 123.376C178.55 123.899 178.331 124.635 178.331 125.584C178.331 126.533 178.55 127.275 178.987 127.808C179.435 128.341 180.033 128.608 180.779 128.608C181.835 128.608 182.534 128.144 182.875 127.216H184.843C184.587 128.112 184.107 128.827 183.403 129.36C182.699 129.883 181.825 130.144 180.779 130.144C179.937 130.144 179.19 129.957 178.539 129.584C177.889 129.2 177.377 128.667 177.003 127.984C176.641 127.291 176.459 126.491 176.459 125.584ZM186.053 125.584C186.053 124.677 186.234 123.883 186.597 123.2C186.97 122.507 187.482 121.973 188.133 121.6C188.784 121.227 189.53 121.04 190.373 121.04C191.44 121.04 192.32 121.296 193.013 121.808C193.717 122.309 194.192 123.029 194.437 123.968H192.469C192.309 123.531 192.053 123.189 191.701 122.944C191.349 122.699 190.906 122.576 190.373 122.576C189.626 122.576 189.029 122.843 188.581 123.376C188.144 123.899 187.925 124.635 187.925 125.584C187.925 126.533 188.144 127.275 188.581 127.808C189.029 128.341 189.626 128.608 190.373 128.608C191.429 128.608 192.128 128.144 192.469 127.216H194.437C194.181 128.112 193.701 128.827 192.997 129.36C192.293 129.883 191.418 130.144 190.373 130.144C189.53 130.144 188.784 129.957 188.133 129.584C187.482 129.2 186.97 128.667 186.597 127.984C186.234 127.291 186.053 126.491 186.053 125.584ZM204.335 125.376C204.335 125.707 204.313 126.005 204.271 126.272H197.535C197.588 126.976 197.849 127.541 198.319 127.968C198.788 128.395 199.364 128.608 200.047 128.608C201.028 128.608 201.721 128.197 202.127 127.376H204.095C203.828 128.187 203.343 128.853 202.639 129.376C201.945 129.888 201.081 130.144 200.047 130.144C199.204 130.144 198.447 129.957 197.775 129.584C197.113 129.2 196.591 128.667 196.207 127.984C195.833 127.291 195.647 126.491 195.647 125.584C195.647 124.677 195.828 123.883 196.191 123.2C196.564 122.507 197.081 121.973 197.743 121.6C198.415 121.227 199.183 121.04 200.047 121.04C200.879 121.04 201.62 121.221 202.271 121.584C202.921 121.947 203.428 122.459 203.791 123.12C204.153 123.771 204.335 124.523 204.335 125.376ZM202.431 124.8C202.42 124.128 202.18 123.589 201.711 123.184C201.241 122.779 200.66 122.576 199.967 122.576C199.337 122.576 198.799 122.779 198.351 123.184C197.903 123.579 197.636 124.117 197.551 124.8H202.431ZM209.33 130.144C208.636 130.144 208.012 130.021 207.458 129.776C206.914 129.52 206.482 129.179 206.162 128.752C205.842 128.315 205.671 127.829 205.65 127.296H207.538C207.57 127.669 207.746 127.984 208.066 128.24C208.396 128.485 208.807 128.608 209.298 128.608C209.81 128.608 210.204 128.512 210.482 128.32C210.77 128.117 210.914 127.861 210.914 127.552C210.914 127.221 210.754 126.976 210.434 126.816C210.124 126.656 209.628 126.48 208.946 126.288C208.284 126.107 207.746 125.931 207.33 125.76C206.914 125.589 206.551 125.328 206.242 124.976C205.943 124.624 205.794 124.16 205.794 123.584C205.794 123.115 205.932 122.688 206.21 122.304C206.487 121.909 206.882 121.6 207.394 121.376C207.916 121.152 208.514 121.04 209.186 121.04C210.188 121.04 210.994 121.296 211.602 121.808C212.22 122.309 212.551 122.997 212.594 123.872H210.77C210.738 123.477 210.578 123.163 210.29 122.928C210.002 122.693 209.612 122.576 209.122 122.576C208.642 122.576 208.274 122.667 208.018 122.848C207.762 123.029 207.634 123.269 207.634 123.568C207.634 123.803 207.719 124 207.89 124.16C208.06 124.32 208.268 124.448 208.514 124.544C208.759 124.629 209.122 124.741 209.602 124.88C210.242 125.051 210.764 125.227 211.17 125.408C211.586 125.579 211.943 125.835 212.242 126.176C212.54 126.517 212.695 126.971 212.706 127.536C212.706 128.037 212.567 128.485 212.29 128.88C212.012 129.275 211.618 129.584 211.106 129.808C210.604 130.032 210.012 130.144 209.33 130.144ZM217.877 130.144C217.183 130.144 216.559 130.021 216.005 129.776C215.461 129.52 215.029 129.179 214.709 128.752C214.389 128.315 214.218 127.829 214.197 127.296H216.085C216.117 127.669 216.293 127.984 216.613 128.24C216.943 128.485 217.354 128.608 217.845 128.608C218.357 128.608 218.751 128.512 219.029 128.32C219.317 128.117 219.461 127.861 219.461 127.552C219.461 127.221 219.301 126.976 218.981 126.816C218.671 126.656 218.175 126.48 217.493 126.288C216.831 126.107 216.293 125.931 215.877 125.76C215.461 125.589 215.098 125.328 214.789 124.976C214.49 124.624 214.341 124.16 214.341 123.584C214.341 123.115 214.479 122.688 214.757 122.304C215.034 121.909 215.429 121.6 215.941 121.376C216.463 121.152 217.061 121.04 217.733 121.04C218.735 121.04 219.541 121.296 220.149 121.808C220.767 122.309 221.098 122.997 221.141 123.872H219.317C219.285 123.477 219.125 123.163 218.837 122.928C218.549 122.693 218.159 122.576 217.669 122.576C217.189 122.576 216.821 122.667 216.565 122.848C216.309 123.029 216.181 123.269 216.181 123.568C216.181 123.803 216.266 124 216.437 124.16C216.607 124.32 216.815 124.448 217.061 124.544C217.306 124.629 217.669 124.741 218.149 124.88C218.789 125.051 219.311 125.227 219.717 125.408C220.133 125.579 220.49 125.835 220.789 126.176C221.087 126.517 221.242 126.971 221.253 127.536C221.253 128.037 221.114 128.485 220.837 128.88C220.559 129.275 220.165 129.584 219.653 129.808C219.151 130.032 218.559 130.144 217.877 130.144Z" fill="#1A2969" fill-opacity="0.7"/>
<defs>
<clipPath id="paint0_diamond_45_4912_clip_path"><path d="M20 40V39C9.50659 39 1 30.4934 1 20H0H-1C-1 31.598 8.40202 41 20 41V40ZM40 20H39C39 30.4934 30.4934 39 20 39V40V41C31.598 41 41 31.598 41 20H40ZM20 0V1C30.4934 1 39 9.50659 39 20H40H41C41 8.40202 31.598 -1 20 -1V0ZM20 0V-1C8.40202 -1 -1 8.40202 -1 20H0H1C1 9.50659 9.50659 1 20 1V0Z" mask="url(#path-1-inside-1_45_4912)"/></clipPath><clipPath id="paint1_diamond_45_4912_clip_path"><path d="M20 92V91C9.50659 91 1 82.4934 1 72H0H-1C-1 83.598 8.40202 93 20 93V92ZM40 72H39C39 82.4934 30.4934 91 20 91V92V93C31.598 93 41 83.598 41 72H40ZM20 52V53C30.4934 53 39 61.5066 39 72H40H41C41 60.402 31.598 51 20 51V52ZM20 52V51C8.40202 51 -1 60.402 -1 72H0H1C1 61.5066 9.50659 53 20 53V52Z" mask="url(#path-5-inside-2_45_4912)"/></clipPath><clipPath id="paint2_diamond_45_4912_clip_path"><path d="M20 144V143C9.50659 143 1 134.493 1 124H0H-1C-1 135.598 8.40202 145 20 145V144ZM40 124H39C39 134.493 30.4934 143 20 143V144V145C31.598 145 41 135.598 41 124H40ZM20 104V105C30.4934 105 39 113.507 39 124H40H41C41 112.402 31.598 103 20 103V104ZM20 104V103C8.40202 103 -1 112.402 -1 124H0H1C1 113.507 9.50659 105 20 105V104Z" mask="url(#path-9-inside-3_45_4912)"/></clipPath><linearGradient id="paint0_diamond_45_4912" x1="0" y1="0" x2="500" y2="500" gradientUnits="userSpaceOnUse">
<stop offset="0.0272635" stop-color="#0030B7"/>
<stop offset="0.296742" stop-color="#D3CFCF"/>
<stop offset="0.769276" stop-color="#5961E2"/>
</linearGradient>
<linearGradient id="paint1_diamond_45_4912" x1="0" y1="0" x2="500" y2="500" gradientUnits="userSpaceOnUse">
<stop offset="0.0272635" stop-color="#0030B7"/>
<stop offset="0.296742" stop-color="#D3CFCF"/>
<stop offset="0.769276" stop-color="#5961E2"/>
</linearGradient>
<linearGradient id="paint2_diamond_45_4912" x1="0" y1="0" x2="500" y2="500" gradientUnits="userSpaceOnUse">
<stop offset="0.0272635" stop-color="#0030B7"/>
<stop offset="0.296742" stop-color="#D3CFCF"/>
<stop offset="0.769276" stop-color="#5961E2"/>
</linearGradient>
</defs>
</svg>
