<svg width="192" height="21" viewBox="0 0 192 21" fill="none" xmlns="http://www.w3.org/2000/svg">
<circle cx="6.5" cy="10.5" r="5.5" fill="#F80E0E" stroke="#F5A5A5" stroke-width="2"/>
<path d="M22.8124 14.5L20.8204 11.08H19.5004V14.5H18.4084V6.136H21.1084C21.7404 6.136 22.2724 6.244 22.7044 6.46C23.1444 6.676 23.4724 6.968 23.6884 7.336C23.9044 7.704 24.0124 8.124 24.0124 8.596C24.0124 9.172 23.8444 9.68 23.5084 10.12C23.1804 10.56 22.6844 10.852 22.0204 10.996L24.1204 14.5H22.8124ZM19.5004 10.204H21.1084C21.7004 10.204 22.1444 10.06 22.4404 9.772C22.7364 9.476 22.8844 9.084 22.8844 8.596C22.8844 8.1 22.7364 7.716 22.4404 7.444C22.1524 7.172 21.7084 7.036 21.1084 7.036H19.5004V10.204ZM31.7092 10.96C31.7092 11.168 31.6972 11.388 31.6732 11.62H26.4172C26.4572 12.268 26.6772 12.776 27.0772 13.144C27.4852 13.504 27.9772 13.684 28.5532 13.684C29.0252 13.684 29.4172 13.576 29.7292 13.36C30.0492 13.136 30.2732 12.84 30.4012 12.472H31.5772C31.4012 13.104 31.0492 13.62 30.5212 14.02C29.9932 14.412 29.3372 14.608 28.5532 14.608C27.9292 14.608 27.3692 14.468 26.8732 14.188C26.3852 13.908 26.0012 13.512 25.7212 13C25.4412 12.48 25.3012 11.88 25.3012 11.2C25.3012 10.52 25.4372 9.924 25.7092 9.412C25.9812 8.9 26.3612 8.508 26.8492 8.236C27.3452 7.956 27.9132 7.816 28.5532 7.816C29.1772 7.816 29.7292 7.952 30.2092 8.224C30.6892 8.496 31.0572 8.872 31.3132 9.352C31.5772 9.824 31.7092 10.36 31.7092 10.96ZM30.5812 10.732C30.5812 10.316 30.4892 9.96 30.3052 9.664C30.1212 9.36 29.8692 9.132 29.5492 8.98C29.2372 8.82 28.8892 8.74 28.5052 8.74C27.9532 8.74 27.4812 8.916 27.0892 9.268C26.7052 9.62 26.4852 10.108 26.4292 10.732H30.5812ZM32.7426 11.2C32.7426 10.52 32.8786 9.928 33.1506 9.424C33.4226 8.912 33.7986 8.516 34.2786 8.236C34.7666 7.956 35.3226 7.816 35.9466 7.816C36.7546 7.816 37.4186 8.012 37.9386 8.404C38.4666 8.796 38.8146 9.34 38.9826 10.036H37.8066C37.6946 9.636 37.4746 9.32 37.1466 9.088C36.8266 8.856 36.4266 8.74 35.9466 8.74C35.3226 8.74 34.8186 8.956 34.4346 9.388C34.0506 9.812 33.8586 10.416 33.8586 11.2C33.8586 11.992 34.0506 12.604 34.4346 13.036C34.8186 13.468 35.3226 13.684 35.9466 13.684C36.4266 13.684 36.8266 13.572 37.1466 13.348C37.4666 13.124 37.6866 12.804 37.8066 12.388H38.9826C38.8066 13.06 38.4546 13.6 37.9266 14.008C37.3986 14.408 36.7386 14.608 35.9466 14.608C35.3226 14.608 34.7666 14.468 34.2786 14.188C33.7986 13.908 33.4226 13.512 33.1506 13C32.8786 12.488 32.7426 11.888 32.7426 11.2ZM43.3076 14.608C42.6916 14.608 42.1316 14.468 41.6276 14.188C41.1316 13.908 40.7396 13.512 40.4516 13C40.1716 12.48 40.0316 11.88 40.0316 11.2C40.0316 10.528 40.1756 9.936 40.4636 9.424C40.7596 8.904 41.1596 8.508 41.6636 8.236C42.1676 7.956 42.7316 7.816 43.3556 7.816C43.9796 7.816 44.5436 7.956 45.0476 8.236C45.5516 8.508 45.9476 8.9 46.2356 9.412C46.5316 9.924 46.6796 10.52 46.6796 11.2C46.6796 11.88 46.5276 12.48 46.2236 13C45.9276 13.512 45.5236 13.908 45.0116 14.188C44.4996 14.468 43.9316 14.608 43.3076 14.608ZM43.3076 13.648C43.6996 13.648 44.0676 13.556 44.4116 13.372C44.7556 13.188 45.0316 12.912 45.2396 12.544C45.4556 12.176 45.5636 11.728 45.5636 11.2C45.5636 10.672 45.4596 10.224 45.2516 9.856C45.0436 9.488 44.7716 9.216 44.4356 9.04C44.0996 8.856 43.7356 8.764 43.3436 8.764C42.9436 8.764 42.5756 8.856 42.2396 9.04C41.9116 9.216 41.6476 9.488 41.4476 9.856C41.2476 10.224 41.1476 10.672 41.1476 11.2C41.1476 11.736 41.2436 12.188 41.4356 12.556C41.6356 12.924 41.8996 13.2 42.2276 13.384C42.5556 13.56 42.9156 13.648 43.3076 13.648ZM49.2074 8.992C49.3994 8.616 49.6714 8.324 50.0234 8.116C50.3834 7.908 50.8194 7.804 51.3314 7.804V8.932H51.0434C49.8194 8.932 49.2074 9.596 49.2074 10.924V14.5H48.1154V7.924H49.2074V8.992ZM52.184 11.188C52.184 10.516 52.32 9.928 52.592 9.424C52.864 8.912 53.236 8.516 53.708 8.236C54.188 7.956 54.724 7.816 55.316 7.816C55.828 7.816 56.304 7.936 56.744 8.176C57.184 8.408 57.52 8.716 57.752 9.1V5.62H58.856V14.5H57.752V13.264C57.536 13.656 57.216 13.98 56.792 14.236C56.368 14.484 55.872 14.608 55.304 14.608C54.72 14.608 54.188 14.464 53.708 14.176C53.236 13.888 52.864 13.484 52.592 12.964C52.32 12.444 52.184 11.852 52.184 11.188ZM57.752 11.2C57.752 10.704 57.652 10.272 57.452 9.904C57.252 9.536 56.98 9.256 56.636 9.064C56.3 8.864 55.928 8.764 55.52 8.764C55.112 8.764 54.74 8.86 54.404 9.052C54.068 9.244 53.8 9.524 53.6 9.892C53.4 10.26 53.3 10.692 53.3 11.188C53.3 11.692 53.4 12.132 53.6 12.508C53.8 12.876 54.068 13.16 54.404 13.36C54.74 13.552 55.112 13.648 55.52 13.648C55.928 13.648 56.3 13.552 56.636 13.36C56.98 13.16 57.252 12.876 57.452 12.508C57.652 12.132 57.752 11.696 57.752 11.2ZM61.2653 6.856C61.0573 6.856 60.8813 6.784 60.7373 6.64C60.5933 6.496 60.5213 6.32 60.5213 6.112C60.5213 5.904 60.5933 5.728 60.7373 5.584C60.8813 5.44 61.0573 5.368 61.2653 5.368C61.4653 5.368 61.6333 5.44 61.7693 5.584C61.9133 5.728 61.9853 5.904 61.9853 6.112C61.9853 6.32 61.9133 6.496 61.7693 6.64C61.6333 6.784 61.4653 6.856 61.2653 6.856ZM61.7933 7.924V14.5H60.7013V7.924H61.7933ZM66.8585 7.804C67.6585 7.804 68.3065 8.048 68.8025 8.536C69.2985 9.016 69.5465 9.712 69.5465 10.624V14.5H68.4665V10.78C68.4665 10.124 68.3025 9.624 67.9745 9.28C67.6465 8.928 67.1985 8.752 66.6305 8.752C66.0545 8.752 65.5945 8.932 65.2505 9.292C64.9145 9.652 64.7465 10.176 64.7465 10.864V14.5H63.6545V7.924H64.7465V8.86C64.9625 8.524 65.2545 8.264 65.6225 8.08C65.9985 7.896 66.4105 7.804 66.8585 7.804ZM74.0423 7.816C74.6103 7.816 75.1063 7.94 75.5303 8.188C75.9623 8.436 76.2823 8.748 76.4903 9.124V7.924H77.5943V14.644C77.5943 15.244 77.4663 15.776 77.2103 16.24C76.9543 16.712 76.5863 17.08 76.1063 17.344C75.6343 17.608 75.0823 17.74 74.4503 17.74C73.5863 17.74 72.8663 17.536 72.2903 17.128C71.7143 16.72 71.3743 16.164 71.2703 15.46H72.3503C72.4703 15.86 72.7183 16.18 73.0943 16.42C73.4703 16.668 73.9223 16.792 74.4503 16.792C75.0503 16.792 75.5383 16.604 75.9143 16.228C76.2983 15.852 76.4903 15.324 76.4903 14.644V13.264C76.2743 13.648 75.9543 13.968 75.5303 14.224C75.1063 14.48 74.6103 14.608 74.0423 14.608C73.4583 14.608 72.9263 14.464 72.4463 14.176C71.9743 13.888 71.6023 13.484 71.3303 12.964C71.0583 12.444 70.9223 11.852 70.9223 11.188C70.9223 10.516 71.0583 9.928 71.3303 9.424C71.6023 8.912 71.9743 8.516 72.4463 8.236C72.9263 7.956 73.4583 7.816 74.0423 7.816ZM76.4903 11.2C76.4903 10.704 76.3903 10.272 76.1903 9.904C75.9903 9.536 75.7183 9.256 75.3743 9.064C75.0383 8.864 74.6663 8.764 74.2583 8.764C73.8503 8.764 73.4783 8.86 73.1423 9.052C72.8063 9.244 72.5383 9.524 72.3383 9.892C72.1383 10.26 72.0383 10.692 72.0383 11.188C72.0383 11.692 72.1383 12.132 72.3383 12.508C72.5383 12.876 72.8063 13.16 73.1423 13.36C73.4783 13.552 73.8503 13.648 74.2583 13.648C74.6663 13.648 75.0383 13.552 75.3743 13.36C75.7183 13.16 75.9903 12.876 76.1903 12.508C76.3903 12.132 76.4903 11.696 76.4903 11.2Z" fill="black"/>
<path d="M162.184 9.834C162.184 8.22867 162.446 6.978 162.968 6.082C163.491 5.17667 164.406 4.724 165.712 4.724C167.01 4.724 167.92 5.17667 168.442 6.082C168.965 6.978 169.226 8.22867 169.226 9.834C169.226 11.4673 168.965 12.7367 168.442 13.642C167.92 14.5473 167.01 15 165.712 15C164.406 15 163.491 14.5473 162.968 13.642C162.446 12.7367 162.184 11.4673 162.184 9.834ZM167.966 9.834C167.966 9.022 167.91 8.336 167.798 7.776C167.696 7.20667 167.476 6.74933 167.14 6.404C166.814 6.05867 166.338 5.886 165.712 5.886C165.078 5.886 164.592 6.05867 164.256 6.404C163.93 6.74933 163.71 7.20667 163.598 7.776C163.496 8.336 163.444 9.022 163.444 9.834C163.444 10.674 163.496 11.3787 163.598 11.948C163.71 12.5173 163.93 12.9747 164.256 13.32C164.592 13.6653 165.078 13.838 165.712 13.838C166.338 13.838 166.814 13.6653 167.14 13.32C167.476 12.9747 167.696 12.5173 167.798 11.948C167.91 11.3787 167.966 10.674 167.966 9.834ZM171.591 15.084C171.349 15.084 171.143 15 170.975 14.832C170.807 14.664 170.723 14.4587 170.723 14.216C170.723 13.9733 170.807 13.768 170.975 13.6C171.143 13.432 171.349 13.348 171.591 13.348C171.825 13.348 172.021 13.432 172.179 13.6C172.347 13.768 172.431 13.9733 172.431 14.216C172.431 14.4587 172.347 14.664 172.179 14.832C172.021 15 171.825 15.084 171.591 15.084ZM171.591 9.092C171.349 9.092 171.143 9.008 170.975 8.84C170.807 8.672 170.723 8.46667 170.723 8.224C170.723 7.98133 170.807 7.776 170.975 7.608C171.143 7.44 171.349 7.356 171.591 7.356C171.825 7.356 172.021 7.44 172.179 7.608C172.347 7.776 172.431 7.98133 172.431 8.224C172.431 8.46667 172.347 8.672 172.179 8.84C172.021 9.008 171.825 9.092 171.591 9.092ZM173.648 12.746V11.78L178.562 4.976H180.088V11.64H181.488V12.746H180.088V15H178.828V12.746H173.648ZM178.884 6.306L175.118 11.64H178.884V6.306ZM182.761 9.834C182.761 8.22867 183.022 6.978 183.545 6.082C184.067 5.17667 184.982 4.724 186.289 4.724C187.586 4.724 188.496 5.17667 189.019 6.082C189.541 6.978 189.803 8.22867 189.803 9.834C189.803 11.4673 189.541 12.7367 189.019 13.642C188.496 14.5473 187.586 15 186.289 15C184.982 15 184.067 14.5473 183.545 13.642C183.022 12.7367 182.761 11.4673 182.761 9.834ZM188.543 9.834C188.543 9.022 188.487 8.336 188.375 7.776C188.272 7.20667 188.053 6.74933 187.717 6.404C187.39 6.05867 186.914 5.886 186.289 5.886C185.654 5.886 185.169 6.05867 184.833 6.404C184.506 6.74933 184.287 7.20667 184.175 7.776C184.072 8.336 184.021 9.022 184.021 9.834C184.021 10.674 184.072 11.3787 184.175 11.948C184.287 12.5173 184.506 12.9747 184.833 13.32C185.169 13.6653 185.654 13.838 186.289 13.838C186.914 13.838 187.39 13.6653 187.717 13.32C188.053 12.9747 188.272 12.5173 188.375 11.948C188.487 11.3787 188.543 10.674 188.543 9.834Z" fill="black"/>
</svg>
