<svg width="345" height="136" viewBox="0 0 345 136" fill="none" xmlns="http://www.w3.org/2000/svg">
<mask id="path-1-inside-1_53_68" fill="white">
<path d="M0 20C0 8.95431 8.95431 0 20 0H325C336.046 0 345 8.95431 345 20V116C345 127.046 336.046 136 325 136H20C8.9543 136 0 127.046 0 116V20Z"/>
</mask>
<path d="M0 20C0 8.95431 8.95431 0 20 0H325C336.046 0 345 8.95431 345 20V116C345 127.046 336.046 136 325 136H20C8.9543 136 0 127.046 0 116V20Z" fill="white"/>
<g clip-path="url(#paint0_diamond_53_68_clip_path)" data-figma-skip-parse="true" mask="url(#path-1-inside-1_53_68)"><g transform="matrix(0.293083 0.148352 -0.376333 0.115534 -26.8333 -24.1778)"><rect x="0" y="0" width="1156.55" height="540.941" fill="url(#paint0_diamond_53_68)" opacity="1" shape-rendering="crispEdges"/><rect x="0" y="0" width="1156.55" height="540.941" transform="scale(1 -1)" fill="url(#paint0_diamond_53_68)" opacity="1" shape-rendering="crispEdges"/><rect x="0" y="0" width="1156.55" height="540.941" transform="scale(-1 1)" fill="url(#paint0_diamond_53_68)" opacity="1" shape-rendering="crispEdges"/><rect x="0" y="0" width="1156.55" height="540.941" transform="scale(-1)" fill="url(#paint0_diamond_53_68)" opacity="1" shape-rendering="crispEdges"/></g></g><path d="M20 0V1H325V0V-1H20V0ZM345 20H344V116H345H346V20H345ZM325 136V135H20V136V137H325V136ZM0 116H1V20H0H-1V116H0ZM20 136V135C9.50659 135 1 126.493 1 116H0H-1C-1 127.598 8.40202 137 20 137V136ZM345 116H344C344 126.493 335.493 135 325 135V136V137C336.598 137 346 127.598 346 116H345ZM325 0V1C335.493 1 344 9.50659 344 20H345H346C346 8.40202 336.598 -1 325 -1V0ZM20 0V-1C8.40202 -1 -1 8.40202 -1 20H0H1C1 9.50659 9.50659 1 20 1V0Z" data-figma-gradient-fill="{&#34;type&#34;:&#34;GRADIENT_DIAMOND&#34;,&#34;stops&#34;:[{&#34;color&#34;:{&#34;r&#34;:0.0,&#34;g&#34;:0.18740472197532654,&#34;b&#34;:0.71730768680572510,&#34;a&#34;:1.0},&#34;position&#34;:0.027263522148132324},{&#34;color&#34;:{&#34;r&#34;:0.82692307233810425,&#34;g&#34;:0.81102073192596436,&#34;b&#34;:0.81102073192596436,&#34;a&#34;:1.0},&#34;position&#34;:0.29674249887466431},{&#34;color&#34;:{&#34;r&#34;:0.34901961684226990,&#34;g&#34;:0.38039216399192810,&#34;b&#34;:0.88627451658248901,&#34;a&#34;:1.0},&#34;position&#34;:0.7692759633064270}],&#34;stopsVar&#34;:[{&#34;color&#34;:{&#34;r&#34;:0.0,&#34;g&#34;:0.18740472197532654,&#34;b&#34;:0.71730768680572510,&#34;a&#34;:1.0},&#34;position&#34;:0.027263522148132324},{&#34;color&#34;:{&#34;r&#34;:0.82692307233810425,&#34;g&#34;:0.81102073192596436,&#34;b&#34;:0.81102073192596436,&#34;a&#34;:1.0},&#34;position&#34;:0.29674249887466431},{&#34;color&#34;:{&#34;r&#34;:0.34901961684226990,&#34;g&#34;:0.38039216399192810,&#34;b&#34;:0.88627451658248901,&#34;a&#34;:1.0},&#34;position&#34;:0.7692759633064270}],&#34;transform&#34;:{&#34;m00&#34;:586.16668701171875,&#34;m01&#34;:-752.66668701171875,&#34;m02&#34;:56.416683197021484,&#34;m10&#34;:296.70339965820312,&#34;m11&#34;:231.06861877441406,&#34;m12&#34;:-288.06378173828125},&#34;opacity&#34;:1.0,&#34;blendMode&#34;:&#34;NORMAL&#34;,&#34;visible&#34;:true}" mask="url(#path-1-inside-1_53_68)"/>
<circle cx="35" cy="35" r="19" fill="#D9D9D9"/>
<path d="M66.8446 34L63.0786 29.646V34H61.4826V24.27H63.0786V28.708L66.8586 24.27H68.8606L64.6326 29.142L68.9306 34H66.8446ZM69.81 30.108C69.81 29.3333 69.9687 28.6473 70.286 28.05C70.6127 27.4527 71.0513 26.9907 71.602 26.664C72.162 26.328 72.778 26.16 73.45 26.16C74.0567 26.16 74.584 26.2813 75.032 26.524C75.4893 26.7573 75.8533 27.0513 76.124 27.406V26.286H77.734V34H76.124V32.852C75.8533 33.216 75.4847 33.5193 75.018 33.762C74.5513 34.0047 74.0193 34.126 73.422 34.126C72.7593 34.126 72.1527 33.958 71.602 33.622C71.0513 33.2767 70.6127 32.8007 70.286 32.194C69.9687 31.578 69.81 30.8827 69.81 30.108ZM76.124 30.136C76.124 29.604 76.012 29.142 75.788 28.75C75.5733 28.358 75.2887 28.0593 74.934 27.854C74.5793 27.6487 74.1967 27.546 73.786 27.546C73.3753 27.546 72.9927 27.6487 72.638 27.854C72.2833 28.05 71.994 28.344 71.77 28.736C71.5553 29.1187 71.448 29.576 71.448 30.108C71.448 30.64 71.5553 31.1067 71.77 31.508C71.994 31.9093 72.2833 32.2173 72.638 32.432C73.002 32.6373 73.3847 32.74 73.786 32.74C74.1967 32.74 74.5793 32.6373 74.934 32.432C75.2887 32.2267 75.5733 31.928 75.788 31.536C76.012 31.1347 76.124 30.668 76.124 30.136ZM81.6923 27.588V31.858C81.6923 32.1473 81.7576 32.3573 81.8883 32.488C82.0283 32.6093 82.2616 32.67 82.5883 32.67H83.5683V34H82.3083C81.5896 34 81.0389 33.832 80.6563 33.496C80.2736 33.16 80.0823 32.614 80.0823 31.858V27.588H79.1723V26.286H80.0823V24.368H81.6923V26.286H83.5683V27.588H81.6923ZM92.1093 29.954C92.1093 30.2433 92.0906 30.5047 92.0533 30.738H86.1593C86.2059 31.354 86.4346 31.8487 86.8453 32.222C87.2559 32.5953 87.7599 32.782 88.3573 32.782C89.2159 32.782 89.8226 32.4227 90.1773 31.704H91.8993C91.6659 32.4133 91.2413 32.9967 90.6253 33.454C90.0186 33.902 89.2626 34.126 88.3573 34.126C87.6199 34.126 86.9573 33.9627 86.3693 33.636C85.7906 33.3 85.3333 32.8333 84.9973 32.236C84.6706 31.6293 84.5073 30.9293 84.5073 30.136C84.5073 29.3427 84.6659 28.6473 84.9833 28.05C85.3099 27.4433 85.7626 26.9767 86.3413 26.65C86.9293 26.3233 87.6013 26.16 88.3573 26.16C89.0853 26.16 89.7339 26.3187 90.3033 26.636C90.8726 26.9533 91.3159 27.4013 91.6333 27.98C91.9506 28.5493 92.1093 29.2073 92.1093 29.954ZM90.4433 29.45C90.4339 28.862 90.2239 28.3907 89.8133 28.036C89.4026 27.6813 88.8939 27.504 88.2873 27.504C87.7366 27.504 87.2653 27.6813 86.8733 28.036C86.4813 28.3813 86.2479 28.8527 86.1733 29.45H90.4433ZM105.703 24.27L102.049 34H100.201L96.5326 24.27H98.2406L101.125 32.362L104.023 24.27H105.703ZM106.505 30.108C106.505 29.3333 106.664 28.6473 106.981 28.05C107.308 27.4527 107.747 26.9907 108.297 26.664C108.857 26.328 109.473 26.16 110.145 26.16C110.752 26.16 111.279 26.2813 111.727 26.524C112.185 26.7573 112.549 27.0513 112.819 27.406V26.286H114.429V34H112.819V32.852C112.549 33.216 112.18 33.5193 111.713 33.762C111.247 34.0047 110.715 34.126 110.117 34.126C109.455 34.126 108.848 33.958 108.297 33.622C107.747 33.2767 107.308 32.8007 106.981 32.194C106.664 31.578 106.505 30.8827 106.505 30.108ZM112.819 30.136C112.819 29.604 112.707 29.142 112.483 28.75C112.269 28.358 111.984 28.0593 111.629 27.854C111.275 27.6487 110.892 27.546 110.481 27.546C110.071 27.546 109.688 27.6487 109.333 27.854C108.979 28.05 108.689 28.344 108.465 28.736C108.251 29.1187 108.143 29.576 108.143 30.108C108.143 30.64 108.251 31.1067 108.465 31.508C108.689 31.9093 108.979 32.2173 109.333 32.432C109.697 32.6373 110.08 32.74 110.481 32.74C110.892 32.74 111.275 32.6373 111.629 32.432C111.984 32.2267 112.269 31.928 112.483 31.536C112.707 31.1347 112.819 30.668 112.819 30.136ZM120.418 26.16C121.024 26.16 121.566 26.286 122.042 26.538C122.527 26.79 122.905 27.1633 123.176 27.658C123.446 28.1527 123.582 28.75 123.582 29.45V34H122V29.688C122 28.9973 121.827 28.47 121.482 28.106C121.136 27.7327 120.665 27.546 120.068 27.546C119.47 27.546 118.994 27.7327 118.64 28.106C118.294 28.47 118.122 28.9973 118.122 29.688V34H116.526V26.286H118.122V27.168C118.383 26.8507 118.714 26.6033 119.116 26.426C119.526 26.2487 119.96 26.16 120.418 26.16Z" fill="black" fill-opacity="0.8"/>
<path d="M63.04 47.07C62.5733 47.07 62.1533 46.99 61.78 46.83C61.4067 46.6633 61.1133 46.43 60.9 46.13C60.6867 45.83 60.58 45.48 60.58 45.08H61.8C61.8267 45.38 61.9433 45.6267 62.15 45.82C62.3633 46.0133 62.66 46.11 63.04 46.11C63.4333 46.11 63.74 46.0167 63.96 45.83C64.18 45.6367 64.29 45.39 64.29 45.09C64.29 44.8567 64.22 44.6667 64.08 44.52C63.9467 44.3733 63.7767 44.26 63.57 44.18C63.37 44.1 63.09 44.0133 62.73 43.92C62.2767 43.8 61.9067 43.68 61.62 43.56C61.34 43.4333 61.1 43.24 60.9 42.98C60.7 42.72 60.6 42.3733 60.6 41.94C60.6 41.54 60.7 41.19 60.9 40.89C61.1 40.59 61.38 40.36 61.74 40.2C62.1 40.04 62.5167 39.96 62.99 39.96C63.6633 39.96 64.2133 40.13 64.64 40.47C65.0733 40.8033 65.3133 41.2633 65.36 41.85H64.1C64.08 41.5967 63.96 41.38 63.74 41.2C63.52 41.02 63.23 40.93 62.87 40.93C62.5433 40.93 62.2767 41.0133 62.07 41.18C61.8633 41.3467 61.76 41.5867 61.76 41.9C61.76 42.1133 61.8233 42.29 61.95 42.43C62.0833 42.5633 62.25 42.67 62.45 42.75C62.65 42.83 62.9233 42.9167 63.27 43.01C63.73 43.1367 64.1033 43.2633 64.39 43.39C64.6833 43.5167 64.93 43.7133 65.13 43.98C65.3367 44.24 65.44 44.59 65.44 45.03C65.44 45.3833 65.3433 45.7167 65.15 46.03C64.9633 46.3433 64.6867 46.5967 64.32 46.79C63.96 46.9767 63.5333 47.07 63.04 47.07ZM67.3652 40.76C67.1585 40.76 66.9852 40.69 66.8452 40.55C66.7052 40.41 66.6352 40.2367 66.6352 40.03C66.6352 39.8233 66.7052 39.65 66.8452 39.51C66.9852 39.37 67.1585 39.3 67.3652 39.3C67.5652 39.3 67.7352 39.37 67.8752 39.51C68.0152 39.65 68.0852 39.8233 68.0852 40.03C68.0852 40.2367 68.0152 40.41 67.8752 40.55C67.7352 40.69 67.5652 40.76 67.3652 40.76ZM67.9252 41.49V47H66.7852V41.49H67.9252ZM76.0919 41.4C76.5252 41.4 76.9119 41.49 77.2519 41.67C77.5985 41.85 77.8685 42.1167 78.0619 42.47C78.2619 42.8233 78.3619 43.25 78.3619 43.75V47H77.2319V43.92C77.2319 43.4267 77.1085 43.05 76.8619 42.79C76.6152 42.5233 76.2785 42.39 75.8519 42.39C75.4252 42.39 75.0852 42.5233 74.8319 42.79C74.5852 43.05 74.4619 43.4267 74.4619 43.92V47H73.3319V43.92C73.3319 43.4267 73.2085 43.05 72.9619 42.79C72.7152 42.5233 72.3785 42.39 71.9519 42.39C71.5252 42.39 71.1852 42.5233 70.9319 42.79C70.6852 43.05 70.5619 43.4267 70.5619 43.92V47H69.4219V41.49H70.5619V42.12C70.7485 41.8933 70.9852 41.7167 71.2719 41.59C71.5585 41.4633 71.8652 41.4 72.1919 41.4C72.6319 41.4 73.0252 41.4933 73.3719 41.68C73.7185 41.8667 73.9852 42.1367 74.1719 42.49C74.3385 42.1567 74.5985 41.8933 74.9519 41.7C75.3052 41.5 75.6852 41.4 76.0919 41.4ZM82.2025 47.09C81.6825 47.09 81.2125 46.9733 80.7925 46.74C80.3725 46.5 80.0425 46.1667 79.8025 45.74C79.5625 45.3067 79.4425 44.8067 79.4425 44.24C79.4425 43.68 79.5658 43.1833 79.8125 42.75C80.0592 42.3167 80.3958 41.9833 80.8225 41.75C81.2492 41.5167 81.7258 41.4 82.2525 41.4C82.7792 41.4 83.2558 41.5167 83.6825 41.75C84.1092 41.9833 84.4458 42.3167 84.6925 42.75C84.9392 43.1833 85.0625 43.68 85.0625 44.24C85.0625 44.8 84.9358 45.2967 84.6825 45.73C84.4292 46.1633 84.0825 46.5 83.6425 46.74C83.2092 46.9733 82.7292 47.09 82.2025 47.09ZM82.2025 46.1C82.4958 46.1 82.7692 46.03 83.0225 45.89C83.2825 45.75 83.4925 45.54 83.6525 45.26C83.8125 44.98 83.8925 44.64 83.8925 44.24C83.8925 43.84 83.8158 43.5033 83.6625 43.23C83.5092 42.95 83.3058 42.74 83.0525 42.6C82.7992 42.46 82.5258 42.39 82.2325 42.39C81.9392 42.39 81.6658 42.46 81.4125 42.6C81.1658 42.74 80.9692 42.95 80.8225 43.23C80.6758 43.5033 80.6025 43.84 80.6025 44.24C80.6025 44.8333 80.7525 45.2933 81.0525 45.62C81.3592 45.94 81.7425 46.1 82.2025 46.1ZM88.9695 41.4C89.4028 41.4 89.7895 41.49 90.1295 41.67C90.4761 41.85 90.7461 42.1167 90.9395 42.47C91.1328 42.8233 91.2295 43.25 91.2295 43.75V47H90.0995V43.92C90.0995 43.4267 89.9761 43.05 89.7295 42.79C89.4828 42.5233 89.1461 42.39 88.7195 42.39C88.2928 42.39 87.9528 42.5233 87.6995 42.79C87.4528 43.05 87.3295 43.4267 87.3295 43.92V47H86.1895V41.49H87.3295V42.12C87.5161 41.8933 87.7528 41.7167 88.0395 41.59C88.3328 41.4633 88.6428 41.4 88.9695 41.4ZM95.0736 47.09C94.5536 47.09 94.0836 46.9733 93.6636 46.74C93.2436 46.5 92.9136 46.1667 92.6736 45.74C92.4336 45.3067 92.3136 44.8067 92.3136 44.24C92.3136 43.68 92.4369 43.1833 92.6836 42.75C92.9303 42.3167 93.2669 41.9833 93.6936 41.75C94.1203 41.5167 94.5969 41.4 95.1236 41.4C95.6503 41.4 96.1269 41.5167 96.5536 41.75C96.9803 41.9833 97.3169 42.3167 97.5636 42.75C97.8103 43.1833 97.9336 43.68 97.9336 44.24C97.9336 44.8 97.8069 45.2967 97.5536 45.73C97.3003 46.1633 96.9536 46.5 96.5136 46.74C96.0803 46.9733 95.6003 47.09 95.0736 47.09ZM95.0736 46.1C95.3669 46.1 95.6403 46.03 95.8936 45.89C96.1536 45.75 96.3636 45.54 96.5236 45.26C96.6836 44.98 96.7636 44.64 96.7636 44.24C96.7636 43.84 96.6869 43.5033 96.5336 43.23C96.3803 42.95 96.1769 42.74 95.9236 42.6C95.6703 42.46 95.3969 42.39 95.1036 42.39C94.8103 42.39 94.5369 42.46 94.2836 42.6C94.0369 42.74 93.8403 42.95 93.6936 43.23C93.5469 43.5033 93.4736 43.84 93.4736 44.24C93.4736 44.8333 93.6236 45.2933 93.9236 45.62C94.2303 45.94 94.6136 46.1 95.0736 46.1ZM101.191 45.98L102.751 41.49H103.961L101.861 47H100.501L98.4105 41.49H99.6305L101.191 45.98ZM104.442 44.22C104.442 43.6667 104.556 43.1767 104.782 42.75C105.016 42.3233 105.329 41.9933 105.722 41.76C106.122 41.52 106.562 41.4 107.042 41.4C107.476 41.4 107.852 41.4867 108.172 41.66C108.499 41.8267 108.759 42.0367 108.952 42.29V41.49H110.102V47H108.952V46.18C108.759 46.44 108.496 46.6567 108.162 46.83C107.829 47.0033 107.449 47.09 107.022 47.09C106.549 47.09 106.116 46.97 105.722 46.73C105.329 46.4833 105.016 46.1433 104.782 45.71C104.556 45.27 104.442 44.7733 104.442 44.22ZM108.952 44.24C108.952 43.86 108.872 43.53 108.712 43.25C108.559 42.97 108.356 42.7567 108.102 42.61C107.849 42.4633 107.576 42.39 107.282 42.39C106.989 42.39 106.716 42.4633 106.462 42.61C106.209 42.75 106.002 42.96 105.842 43.24C105.689 43.5133 105.612 43.84 105.612 44.22C105.612 44.6 105.689 44.9333 105.842 45.22C106.002 45.5067 106.209 45.7267 106.462 45.88C106.722 46.0267 106.996 46.1 107.282 46.1C107.576 46.1 107.849 46.0267 108.102 45.88C108.356 45.7333 108.559 45.52 108.712 45.24C108.872 44.9533 108.952 44.62 108.952 44.24Z" fill="#626262" fill-opacity="0.7"/>
<path d="M239 30.3958L235.542 32.4792C235.389 32.5764 235.229 32.6181 235.063 32.6042C234.896 32.5903 234.75 32.5347 234.625 32.4375C234.5 32.3403 234.403 32.2189 234.333 32.0733C234.264 31.9278 234.25 31.7644 234.292 31.5833L235.208 27.6458L232.146 25C232.007 24.875 231.92 24.7325 231.886 24.5725C231.851 24.4125 231.862 24.2564 231.917 24.1042C231.972 23.9519 232.055 23.8269 232.167 23.7292C232.278 23.6314 232.431 23.5689 232.625 23.5417L236.667 23.1875L238.229 19.4792C238.299 19.3125 238.406 19.1875 238.553 19.1042C238.699 19.0208 238.848 18.9792 239 18.9792C239.152 18.9792 239.301 19.0208 239.448 19.1042C239.594 19.1875 239.701 19.3125 239.771 19.4792L241.333 23.1875L245.375 23.5417C245.569 23.5694 245.722 23.6319 245.833 23.7292C245.944 23.8264 246.028 23.9514 246.083 24.1042C246.139 24.2569 246.149 24.4133 246.115 24.5733C246.081 24.7333 245.994 24.8756 245.854 25L242.792 27.6458L243.708 31.5833C243.75 31.7639 243.736 31.9272 243.667 32.0733C243.597 32.2194 243.5 32.3408 243.375 32.4375C243.25 32.5342 243.104 32.5897 242.938 32.6042C242.771 32.6186 242.611 32.5769 242.458 32.4792L239 30.3958Z" fill="#FEBF07"/>
<path d="M259 30.3958L255.542 32.4792C255.389 32.5764 255.229 32.6181 255.063 32.6042C254.896 32.5903 254.75 32.5347 254.625 32.4375C254.5 32.3403 254.403 32.2189 254.333 32.0733C254.264 31.9278 254.25 31.7644 254.292 31.5833L255.208 27.6458L252.146 25C252.007 24.875 251.92 24.7325 251.886 24.5725C251.851 24.4125 251.862 24.2564 251.917 24.1042C251.972 23.9519 252.055 23.8269 252.167 23.7292C252.278 23.6314 252.431 23.5689 252.625 23.5417L256.667 23.1875L258.229 19.4792C258.299 19.3125 258.406 19.1875 258.553 19.1042C258.699 19.0208 258.848 18.9792 259 18.9792C259.152 18.9792 259.301 19.0208 259.448 19.1042C259.594 19.1875 259.701 19.3125 259.771 19.4792L261.333 23.1875L265.375 23.5417C265.569 23.5694 265.722 23.6319 265.833 23.7292C265.944 23.8264 266.028 23.9514 266.083 24.1042C266.139 24.2569 266.149 24.4133 266.115 24.5733C266.081 24.7333 265.994 24.8756 265.854 25L262.792 27.6458L263.708 31.5833C263.75 31.7639 263.736 31.9272 263.667 32.0733C263.597 32.2194 263.5 32.3408 263.375 32.4375C263.25 32.5342 263.104 32.5897 262.938 32.6042C262.771 32.6186 262.611 32.5769 262.458 32.4792L259 30.3958Z" fill="#FEBF07"/>
<path d="M279 30.3958L275.542 32.4792C275.389 32.5764 275.229 32.6181 275.063 32.6042C274.896 32.5903 274.75 32.5347 274.625 32.4375C274.5 32.3403 274.403 32.2189 274.333 32.0733C274.264 31.9278 274.25 31.7644 274.292 31.5833L275.208 27.6458L272.146 25C272.007 24.875 271.92 24.7325 271.886 24.5725C271.851 24.4125 271.862 24.2564 271.917 24.1042C271.972 23.9519 272.055 23.8269 272.167 23.7292C272.278 23.6314 272.431 23.5689 272.625 23.5417L276.667 23.1875L278.229 19.4792C278.299 19.3125 278.406 19.1875 278.553 19.1042C278.699 19.0208 278.848 18.9792 279 18.9792C279.152 18.9792 279.301 19.0208 279.448 19.1042C279.594 19.1875 279.701 19.3125 279.771 19.4792L281.333 23.1875L285.375 23.5417C285.569 23.5694 285.722 23.6319 285.833 23.7292C285.944 23.8264 286.028 23.9514 286.083 24.1042C286.139 24.2569 286.149 24.4133 286.115 24.5733C286.081 24.7333 285.994 24.8756 285.854 25L282.792 27.6458L283.708 31.5833C283.75 31.7639 283.736 31.9272 283.667 32.0733C283.597 32.2194 283.5 32.3408 283.375 32.4375C283.25 32.5342 283.104 32.5897 282.938 32.6042C282.771 32.6186 282.611 32.5769 282.458 32.4792L279 30.3958Z" fill="#FEBF07"/>
<path d="M299 30.3958L295.542 32.4792C295.389 32.5764 295.229 32.6181 295.063 32.6042C294.896 32.5903 294.75 32.5347 294.625 32.4375C294.5 32.3403 294.403 32.2189 294.333 32.0733C294.264 31.9278 294.25 31.7644 294.292 31.5833L295.208 27.6458L292.146 25C292.007 24.875 291.92 24.7325 291.886 24.5725C291.851 24.4125 291.862 24.2564 291.917 24.1042C291.972 23.9519 292.055 23.8269 292.167 23.7292C292.278 23.6314 292.431 23.5689 292.625 23.5417L296.667 23.1875L298.229 19.4792C298.299 19.3125 298.406 19.1875 298.553 19.1042C298.699 19.0208 298.848 18.9792 299 18.9792C299.152 18.9792 299.301 19.0208 299.448 19.1042C299.594 19.1875 299.701 19.3125 299.771 19.4792L301.333 23.1875L305.375 23.5417C305.569 23.5694 305.722 23.6319 305.833 23.7292C305.944 23.8264 306.028 23.9514 306.083 24.1042C306.139 24.2569 306.149 24.4133 306.115 24.5733C306.081 24.7333 305.994 24.8756 305.854 25L302.792 27.6458L303.708 31.5833C303.75 31.7639 303.736 31.9272 303.667 32.0733C303.597 32.2194 303.5 32.3408 303.375 32.4375C303.25 32.5342 303.104 32.5897 302.938 32.6042C302.771 32.6186 302.611 32.5769 302.458 32.4792L299 30.3958Z" fill="#FEBF07"/>
<path d="M319 30.3958L315.542 32.4792C315.389 32.5764 315.229 32.6181 315.063 32.6042C314.896 32.5903 314.75 32.5347 314.625 32.4375C314.5 32.3403 314.403 32.2189 314.333 32.0733C314.264 31.9278 314.25 31.7644 314.292 31.5833L315.208 27.6458L312.146 25C312.007 24.875 311.92 24.7325 311.886 24.5725C311.851 24.4125 311.862 24.2564 311.917 24.1042C311.972 23.9519 312.055 23.8269 312.167 23.7292C312.278 23.6314 312.431 23.5689 312.625 23.5417L316.667 23.1875L318.229 19.4792C318.299 19.3125 318.406 19.1875 318.553 19.1042C318.699 19.0208 318.848 18.9792 319 18.9792C319.152 18.9792 319.301 19.0208 319.448 19.1042C319.594 19.1875 319.701 19.3125 319.771 19.4792L321.333 23.1875L325.375 23.5417C325.569 23.5694 325.722 23.6319 325.833 23.7292C325.944 23.8264 326.028 23.9514 326.083 24.1042C326.139 24.2569 326.149 24.4133 326.115 24.5733C326.081 24.7333 325.994 24.8756 325.854 25L322.792 27.6458L323.708 31.5833C323.75 31.7639 323.736 31.9272 323.667 32.0733C323.597 32.2194 323.5 32.3408 323.375 32.4375C323.25 32.5342 323.104 32.5897 322.938 32.6042C322.771 32.6186 322.611 32.5769 322.458 32.4792L319 30.3958Z" fill="#FEBF07"/>
<path d="M21.364 74.716C21.812 74.796 22.192 75.032 22.504 75.424C22.816 75.816 22.972 76.26 22.972 76.756C22.972 77.18 22.86 77.564 22.636 77.908C22.42 78.244 22.104 78.512 21.688 78.712C21.272 78.904 20.788 79 20.236 79H16.9V70.66H20.08C20.648 70.66 21.136 70.756 21.544 70.948C21.952 71.14 22.26 71.4 22.468 71.728C22.676 72.048 22.78 72.408 22.78 72.808C22.78 73.288 22.652 73.688 22.396 74.008C22.14 74.328 21.796 74.564 21.364 74.716ZM18.268 74.164H19.96C20.408 74.164 20.756 74.064 21.004 73.864C21.26 73.656 21.388 73.36 21.388 72.976C21.388 72.6 21.26 72.308 21.004 72.1C20.756 71.884 20.408 71.776 19.96 71.776H18.268V74.164ZM20.116 77.884C20.58 77.884 20.944 77.772 21.208 77.548C21.472 77.324 21.604 77.012 21.604 76.612C21.604 76.204 21.464 75.88 21.184 75.64C20.904 75.4 20.532 75.28 20.068 75.28H18.268V77.884H20.116ZM27.3266 79.108C26.7026 79.108 26.1386 78.968 25.6346 78.688C25.1306 78.4 24.7346 78 24.4466 77.488C24.1586 76.968 24.0146 76.368 24.0146 75.688C24.0146 75.016 24.1626 74.42 24.4586 73.9C24.7546 73.38 25.1586 72.98 25.6706 72.7C26.1826 72.42 26.7546 72.28 27.3866 72.28C28.0186 72.28 28.5906 72.42 29.1026 72.7C29.6146 72.98 30.0186 73.38 30.3146 73.9C30.6106 74.42 30.7586 75.016 30.7586 75.688C30.7586 76.36 30.6066 76.956 30.3026 77.476C29.9986 77.996 29.5826 78.4 29.0546 78.688C28.5346 78.968 27.9586 79.108 27.3266 79.108ZM27.3266 77.92C27.6786 77.92 28.0066 77.836 28.3106 77.668C28.6226 77.5 28.8746 77.248 29.0666 76.912C29.2586 76.576 29.3546 76.168 29.3546 75.688C29.3546 75.208 29.2626 74.804 29.0786 74.476C28.8946 74.14 28.6506 73.888 28.3466 73.72C28.0426 73.552 27.7146 73.468 27.3626 73.468C27.0106 73.468 26.6826 73.552 26.3786 73.72C26.0826 73.888 25.8466 74.14 25.6706 74.476C25.4946 74.804 25.4066 75.208 25.4066 75.688C25.4066 76.4 25.5866 76.952 25.9466 77.344C26.3146 77.728 26.7746 77.92 27.3266 77.92ZM34.9789 79.108C34.3549 79.108 33.7909 78.968 33.2869 78.688C32.7829 78.4 32.3869 78 32.0989 77.488C31.8109 76.968 31.6669 76.368 31.6669 75.688C31.6669 75.016 31.8149 74.42 32.1109 73.9C32.4069 73.38 32.8109 72.98 33.3229 72.7C33.8349 72.42 34.4069 72.28 35.0389 72.28C35.6709 72.28 36.2429 72.42 36.7549 72.7C37.2669 72.98 37.6709 73.38 37.9669 73.9C38.2629 74.42 38.4109 75.016 38.4109 75.688C38.4109 76.36 38.2589 76.956 37.9549 77.476C37.6509 77.996 37.2349 78.4 36.7069 78.688C36.1869 78.968 35.6109 79.108 34.9789 79.108ZM34.9789 77.92C35.3309 77.92 35.6589 77.836 35.9629 77.668C36.2749 77.5 36.5269 77.248 36.7189 76.912C36.9109 76.576 37.0069 76.168 37.0069 75.688C37.0069 75.208 36.9149 74.804 36.7309 74.476C36.5469 74.14 36.3029 73.888 35.9989 73.72C35.6949 73.552 35.3669 73.468 35.0149 73.468C34.6629 73.468 34.3349 73.552 34.0309 73.72C33.7349 73.888 33.4989 74.14 33.3229 74.476C33.1469 74.804 33.0589 75.208 33.0589 75.688C33.0589 76.4 33.2389 76.952 33.5989 77.344C33.9669 77.728 34.4269 77.92 34.9789 77.92ZM42.1633 79.108C41.6433 79.108 41.1753 79.016 40.7593 78.832C40.3513 78.64 40.0273 78.384 39.7873 78.064C39.5473 77.736 39.4193 77.372 39.4033 76.972H40.8193C40.8433 77.252 40.9753 77.488 41.2153 77.68C41.4633 77.864 41.7713 77.956 42.1393 77.956C42.5233 77.956 42.8193 77.884 43.0273 77.74C43.2433 77.588 43.3513 77.396 43.3513 77.164C43.3513 76.916 43.2313 76.732 42.9913 76.612C42.7593 76.492 42.3873 76.36 41.8753 76.216C41.3793 76.08 40.9753 75.948 40.6633 75.82C40.3513 75.692 40.0793 75.496 39.8473 75.232C39.6233 74.968 39.5113 74.62 39.5113 74.188C39.5113 73.836 39.6153 73.516 39.8233 73.228C40.0313 72.932 40.3273 72.7 40.7113 72.532C41.1033 72.364 41.5513 72.28 42.0553 72.28C42.8073 72.28 43.4113 72.472 43.8673 72.856C44.3313 73.232 44.5793 73.748 44.6113 74.404H43.2433C43.2193 74.108 43.0993 73.872 42.8833 73.696C42.6673 73.52 42.3753 73.432 42.0073 73.432C41.6473 73.432 41.3713 73.5 41.1793 73.636C40.9873 73.772 40.8913 73.952 40.8913 74.176C40.8913 74.352 40.9553 74.5 41.0833 74.62C41.2113 74.74 41.3673 74.836 41.5513 74.908C41.7353 74.972 42.0073 75.056 42.3673 75.16C42.8473 75.288 43.2393 75.42 43.5433 75.556C43.8553 75.684 44.1233 75.876 44.3473 76.132C44.5713 76.388 44.6873 76.728 44.6953 77.152C44.6953 77.528 44.5913 77.864 44.3833 78.16C44.1753 78.456 43.8793 78.688 43.4953 78.856C43.1193 79.024 42.6753 79.108 42.1633 79.108ZM47.7694 73.504V77.164C47.7694 77.412 47.8254 77.592 47.9374 77.704C48.0574 77.808 48.2574 77.86 48.5374 77.86H49.3774V79H48.2974C47.6814 79 47.2094 78.856 46.8814 78.568C46.5534 78.28 46.3894 77.812 46.3894 77.164V73.504H45.6094V72.388H46.3894V70.744H47.7694V72.388H49.3774V73.504H47.7694ZM60.6075 79H59.2395L55.1235 72.772V79H53.7555V70.648H55.1235L59.2395 76.864V70.648H60.6075V79ZM65.2719 79.108C64.6479 79.108 64.0839 78.968 63.5799 78.688C63.0759 78.4 62.6799 78 62.3919 77.488C62.1039 76.968 61.9599 76.368 61.9599 75.688C61.9599 75.016 62.1079 74.42 62.4039 73.9C62.6999 73.38 63.1039 72.98 63.6159 72.7C64.1279 72.42 64.6999 72.28 65.3319 72.28C65.9639 72.28 66.5359 72.42 67.0479 72.7C67.5599 72.98 67.9639 73.38 68.2599 73.9C68.5559 74.42 68.7039 75.016 68.7039 75.688C68.7039 76.36 68.5519 76.956 68.2479 77.476C67.9439 77.996 67.5279 78.4 66.9999 78.688C66.4799 78.968 65.9039 79.108 65.2719 79.108ZM65.2719 77.92C65.6239 77.92 65.9519 77.836 66.2559 77.668C66.5679 77.5 66.8199 77.248 67.0119 76.912C67.2039 76.576 67.2999 76.168 67.2999 75.688C67.2999 75.208 67.2079 74.804 67.0239 74.476C66.8399 74.14 66.5959 73.888 66.2919 73.72C65.9879 73.552 65.6599 73.468 65.3079 73.468C64.9559 73.468 64.6279 73.552 64.3239 73.72C64.0279 73.888 63.7919 74.14 63.6159 74.476C63.4399 74.804 63.3519 75.208 63.3519 75.688C63.3519 76.4 63.5319 76.952 63.8919 77.344C64.2599 77.728 64.7199 77.92 65.2719 77.92ZM71.6523 73.504V77.164C71.6523 77.412 71.7083 77.592 71.8203 77.704C71.9403 77.808 72.1403 77.86 72.4203 77.86H73.2603V79H72.1803C71.5643 79 71.0923 78.856 70.7643 78.568C70.4363 78.28 70.2723 77.812 70.2723 77.164V73.504H69.4923V72.388H70.2723V70.744H71.6523V72.388H73.2603V73.504H71.6523ZM80.5811 75.532C80.5811 75.78 80.5651 76.004 80.5331 76.204H75.4811C75.5211 76.732 75.7171 77.156 76.0691 77.476C76.4211 77.796 76.8531 77.956 77.3651 77.956C78.1011 77.956 78.6211 77.648 78.9251 77.032H80.4011C80.2011 77.64 79.8371 78.14 79.3091 78.532C78.7891 78.916 78.1411 79.108 77.3651 79.108C76.7331 79.108 76.1651 78.968 75.6611 78.688C75.1651 78.4 74.7731 78 74.4851 77.488C74.2051 76.968 74.0651 76.368 74.0651 75.688C74.0651 75.008 74.2011 74.412 74.4731 73.9C74.7531 73.38 75.1411 72.98 75.6371 72.7C76.1411 72.42 76.7171 72.28 77.3651 72.28C77.9891 72.28 78.5451 72.416 79.0331 72.688C79.5211 72.96 79.9011 73.344 80.1731 73.84C80.4451 74.328 80.5811 74.892 80.5811 75.532ZM79.1531 75.1C79.1451 74.596 78.9651 74.192 78.6131 73.888C78.2611 73.584 77.8251 73.432 77.3051 73.432C76.8331 73.432 76.4291 73.584 76.0931 73.888C75.7571 74.184 75.5571 74.588 75.4931 75.1H79.1531ZM84.3273 79.108C83.8073 79.108 83.3393 79.016 82.9233 78.832C82.5153 78.64 82.1913 78.384 81.9513 78.064C81.7113 77.736 81.5833 77.372 81.5673 76.972H82.9833C83.0073 77.252 83.1393 77.488 83.3793 77.68C83.6273 77.864 83.9353 77.956 84.3033 77.956C84.6873 77.956 84.9833 77.884 85.1913 77.74C85.4073 77.588 85.5153 77.396 85.5153 77.164C85.5153 76.916 85.3953 76.732 85.1553 76.612C84.9233 76.492 84.5513 76.36 84.0393 76.216C83.5433 76.08 83.1393 75.948 82.8273 75.82C82.5153 75.692 82.2433 75.496 82.0113 75.232C81.7873 74.968 81.6753 74.62 81.6753 74.188C81.6753 73.836 81.7793 73.516 81.9873 73.228C82.1953 72.932 82.4913 72.7 82.8753 72.532C83.2673 72.364 83.7153 72.28 84.2193 72.28C84.9713 72.28 85.5753 72.472 86.0313 72.856C86.4953 73.232 86.7433 73.748 86.7753 74.404H85.4073C85.3833 74.108 85.2633 73.872 85.0473 73.696C84.8313 73.52 84.5393 73.432 84.1713 73.432C83.8113 73.432 83.5353 73.5 83.3433 73.636C83.1513 73.772 83.0553 73.952 83.0553 74.176C83.0553 74.352 83.1193 74.5 83.2473 74.62C83.3753 74.74 83.5313 74.836 83.7153 74.908C83.8993 74.972 84.1713 75.056 84.5313 75.16C85.0113 75.288 85.4033 75.42 85.7073 75.556C86.0193 75.684 86.2873 75.876 86.5113 76.132C86.7353 76.388 86.8513 76.728 86.8593 77.152C86.8593 77.528 86.7553 77.864 86.5473 78.16C86.3393 78.456 86.0433 78.688 85.6593 78.856C85.2833 79.024 84.8393 79.108 84.3273 79.108ZM96.4827 77.296H92.9907L92.3907 79H90.9627L93.9507 70.648H95.5347L98.5227 79H97.0827L96.4827 77.296ZM96.0987 76.18L94.7427 72.304L93.3747 76.18H96.0987ZM101.19 70.66V79H99.8219V70.66H101.19ZM105.647 75.688C105.647 75.008 105.783 74.412 106.055 73.9C106.335 73.38 106.719 72.98 107.207 72.7C107.695 72.42 108.255 72.28 108.887 72.28C109.687 72.28 110.347 72.472 110.867 72.856C111.395 73.232 111.751 73.772 111.935 74.476H110.459C110.339 74.148 110.147 73.892 109.883 73.708C109.619 73.524 109.287 73.432 108.887 73.432C108.327 73.432 107.879 73.632 107.543 74.032C107.215 74.424 107.051 74.976 107.051 75.688C107.051 76.4 107.215 76.956 107.543 77.356C107.879 77.756 108.327 77.956 108.887 77.956C109.679 77.956 110.203 77.608 110.459 76.912H111.935C111.743 77.584 111.383 78.12 110.855 78.52C110.327 78.912 109.671 79.108 108.887 79.108C108.255 79.108 107.695 78.968 107.207 78.688C106.719 78.4 106.335 78 106.055 77.488C105.783 76.968 105.647 76.368 105.647 75.688ZM116.166 79.108C115.542 79.108 114.978 78.968 114.474 78.688C113.97 78.4 113.574 78 113.286 77.488C112.998 76.968 112.854 76.368 112.854 75.688C112.854 75.016 113.002 74.42 113.298 73.9C113.594 73.38 113.998 72.98 114.51 72.7C115.022 72.42 115.594 72.28 116.226 72.28C116.858 72.28 117.43 72.42 117.942 72.7C118.454 72.98 118.858 73.38 119.154 73.9C119.45 74.42 119.598 75.016 119.598 75.688C119.598 76.36 119.446 76.956 119.142 77.476C118.838 77.996 118.422 78.4 117.894 78.688C117.374 78.968 116.798 79.108 116.166 79.108ZM116.166 77.92C116.518 77.92 116.846 77.836 117.15 77.668C117.462 77.5 117.714 77.248 117.906 76.912C118.098 76.576 118.194 76.168 118.194 75.688C118.194 75.208 118.102 74.804 117.918 74.476C117.734 74.14 117.49 73.888 117.186 73.72C116.882 73.552 116.554 73.468 116.202 73.468C115.85 73.468 115.522 73.552 115.218 73.72C114.922 73.888 114.686 74.14 114.51 74.476C114.334 74.804 114.246 75.208 114.246 75.688C114.246 76.4 114.426 76.952 114.786 77.344C115.154 77.728 115.614 77.92 116.166 77.92ZM128.955 72.28C129.475 72.28 129.939 72.388 130.347 72.604C130.763 72.82 131.087 73.14 131.319 73.564C131.559 73.988 131.679 74.5 131.679 75.1V79H130.323V75.304C130.323 74.712 130.175 74.26 129.879 73.948C129.583 73.628 129.179 73.468 128.667 73.468C128.155 73.468 127.747 73.628 127.443 73.948C127.147 74.26 126.999 74.712 126.999 75.304V79H125.643V75.304C125.643 74.712 125.495 74.26 125.199 73.948C124.903 73.628 124.499 73.468 123.987 73.468C123.475 73.468 123.067 73.628 122.763 73.948C122.467 74.26 122.319 74.712 122.319 75.304V79H120.951V72.388H122.319V73.144C122.543 72.872 122.827 72.66 123.171 72.508C123.515 72.356 123.883 72.28 124.275 72.28C124.803 72.28 125.275 72.392 125.691 72.616C126.107 72.84 126.427 73.164 126.651 73.588C126.851 73.188 127.163 72.872 127.587 72.64C128.011 72.4 128.467 72.28 128.955 72.28ZM134.788 73.36C135.02 73.056 135.336 72.8 135.736 72.592C136.136 72.384 136.588 72.28 137.092 72.28C137.668 72.28 138.192 72.424 138.664 72.712C139.144 72.992 139.52 73.388 139.792 73.9C140.064 74.412 140.2 75 140.2 75.664C140.2 76.328 140.064 76.924 139.792 77.452C139.52 77.972 139.144 78.38 138.664 78.676C138.192 78.964 137.668 79.108 137.092 79.108C136.588 79.108 136.14 79.008 135.748 78.808C135.356 78.6 135.036 78.344 134.788 78.04V82.144H133.42V72.388H134.788V73.36ZM138.808 75.664C138.808 75.208 138.712 74.816 138.52 74.488C138.336 74.152 138.088 73.9 137.776 73.732C137.472 73.556 137.144 73.468 136.792 73.468C136.448 73.468 136.12 73.556 135.808 73.732C135.504 73.908 135.256 74.164 135.064 74.5C134.88 74.836 134.788 75.232 134.788 75.688C134.788 76.144 134.88 76.544 135.064 76.888C135.256 77.224 135.504 77.48 135.808 77.656C136.12 77.832 136.448 77.92 136.792 77.92C137.144 77.92 137.472 77.832 137.776 77.656C138.088 77.472 138.336 77.208 138.52 76.864C138.712 76.52 138.808 76.12 138.808 75.664ZM142.92 70.12V79H141.552V70.12H142.92ZM150.776 75.532C150.776 75.78 150.76 76.004 150.728 76.204H145.676C145.716 76.732 145.912 77.156 146.264 77.476C146.616 77.796 147.048 77.956 147.56 77.956C148.296 77.956 148.816 77.648 149.12 77.032H150.596C150.396 77.64 150.032 78.14 149.504 78.532C148.984 78.916 148.336 79.108 147.56 79.108C146.928 79.108 146.36 78.968 145.856 78.688C145.36 78.4 144.968 78 144.68 77.488C144.4 76.968 144.26 76.368 144.26 75.688C144.26 75.008 144.396 74.412 144.668 73.9C144.948 73.38 145.336 72.98 145.832 72.7C146.336 72.42 146.912 72.28 147.56 72.28C148.184 72.28 148.74 72.416 149.228 72.688C149.716 72.96 150.096 73.344 150.368 73.84C150.64 74.328 150.776 74.892 150.776 75.532ZM149.348 75.1C149.34 74.596 149.16 74.192 148.808 73.888C148.456 73.584 148.02 73.432 147.5 73.432C147.028 73.432 146.624 73.584 146.288 73.888C145.952 74.184 145.752 74.588 145.688 75.1H149.348ZM153.719 73.504V77.164C153.719 77.412 153.775 77.592 153.887 77.704C154.007 77.808 154.207 77.86 154.487 77.86H155.327V79H154.247C153.631 79 153.159 78.856 152.831 78.568C152.503 78.28 152.339 77.812 152.339 77.164V73.504H151.559V72.388H152.339V70.744H153.719V72.388H155.327V73.504H153.719ZM162.648 75.532C162.648 75.78 162.632 76.004 162.6 76.204H157.548C157.588 76.732 157.784 77.156 158.136 77.476C158.488 77.796 158.92 77.956 159.432 77.956C160.168 77.956 160.688 77.648 160.992 77.032H162.467C162.268 77.64 161.904 78.14 161.376 78.532C160.856 78.916 160.208 79.108 159.432 79.108C158.8 79.108 158.232 78.968 157.728 78.688C157.232 78.4 156.84 78 156.552 77.488C156.272 76.968 156.132 76.368 156.132 75.688C156.132 75.008 156.268 74.412 156.54 73.9C156.82 73.38 157.208 72.98 157.704 72.7C158.208 72.42 158.784 72.28 159.432 72.28C160.056 72.28 160.612 72.416 161.1 72.688C161.588 72.96 161.968 73.344 162.24 73.84C162.512 74.328 162.648 74.892 162.648 75.532ZM161.22 75.1C161.212 74.596 161.032 74.192 160.68 73.888C160.328 73.584 159.892 73.432 159.372 73.432C158.9 73.432 158.496 73.584 158.16 73.888C157.824 74.184 157.624 74.588 157.56 75.1H161.22ZM165.362 70.12V79H163.994V70.12H165.362ZM173.11 72.388L169.054 82.108H167.638L168.982 78.892L166.378 72.388H167.902L169.762 77.428L171.694 72.388H173.11ZM176.803 75.688C176.803 75.008 176.939 74.412 177.211 73.9C177.491 73.38 177.875 72.98 178.363 72.7C178.851 72.42 179.411 72.28 180.043 72.28C180.843 72.28 181.503 72.472 182.023 72.856C182.551 73.232 182.907 73.772 183.091 74.476H181.615C181.495 74.148 181.303 73.892 181.039 73.708C180.775 73.524 180.443 73.432 180.043 73.432C179.483 73.432 179.035 73.632 178.699 74.032C178.371 74.424 178.207 74.976 178.207 75.688C178.207 76.4 178.371 76.956 178.699 77.356C179.035 77.756 179.483 77.956 180.043 77.956C180.835 77.956 181.359 77.608 181.615 76.912H183.091C182.899 77.584 182.539 78.12 182.011 78.52C181.483 78.912 180.827 79.108 180.043 79.108C179.411 79.108 178.851 78.968 178.363 78.688C177.875 78.4 177.491 78 177.211 77.488C176.939 76.968 176.803 76.368 176.803 75.688ZM187.875 72.28C188.379 72.28 188.827 72.388 189.219 72.604C189.619 72.82 189.931 73.14 190.155 73.564C190.387 73.988 190.503 74.5 190.503 75.1V79H189.147V75.304C189.147 74.712 188.999 74.26 188.703 73.948C188.407 73.628 188.003 73.468 187.491 73.468C186.979 73.468 186.571 73.628 186.267 73.948C185.971 74.26 185.823 74.712 185.823 75.304V79H184.455V70.12H185.823V73.156C186.055 72.876 186.347 72.66 186.699 72.508C187.059 72.356 187.451 72.28 187.875 72.28ZM191.792 75.664C191.792 75 191.928 74.412 192.2 73.9C192.48 73.388 192.856 72.992 193.328 72.712C193.808 72.424 194.336 72.28 194.912 72.28C195.432 72.28 195.884 72.384 196.268 72.592C196.66 72.792 196.972 73.044 197.204 73.348V72.388H198.584V79H197.204V78.016C196.972 78.328 196.656 78.588 196.256 78.796C195.856 79.004 195.4 79.108 194.888 79.108C194.32 79.108 193.8 78.964 193.328 78.676C192.856 78.38 192.48 77.972 192.2 77.452C191.928 76.924 191.792 76.328 191.792 75.664ZM197.204 75.688C197.204 75.232 197.108 74.836 196.916 74.5C196.732 74.164 196.488 73.908 196.184 73.732C195.88 73.556 195.552 73.468 195.2 73.468C194.848 73.468 194.52 73.556 194.216 73.732C193.912 73.9 193.664 74.152 193.472 74.488C193.288 74.816 193.196 75.208 193.196 75.664C193.196 76.12 193.288 76.52 193.472 76.864C193.664 77.208 193.912 77.472 194.216 77.656C194.528 77.832 194.856 77.92 195.2 77.92C195.552 77.92 195.88 77.832 196.184 77.656C196.488 77.48 196.732 77.224 196.916 76.888C197.108 76.544 197.204 76.144 197.204 75.688ZM203.716 72.28C204.236 72.28 204.7 72.388 205.108 72.604C205.524 72.82 205.848 73.14 206.08 73.564C206.312 73.988 206.428 74.5 206.428 75.1V79H205.072V75.304C205.072 74.712 204.924 74.26 204.628 73.948C204.332 73.628 203.928 73.468 203.416 73.468C202.904 73.468 202.496 73.628 202.192 73.948C201.896 74.26 201.748 74.712 201.748 75.304V79H200.38V72.388H201.748V73.144C201.972 72.872 202.256 72.66 202.6 72.508C202.952 72.356 203.324 72.28 203.716 72.28ZM210.837 72.28C211.349 72.28 211.801 72.384 212.193 72.592C212.593 72.792 212.905 73.044 213.129 73.348V72.388H214.509V79.108C214.509 79.716 214.381 80.256 214.125 80.728C213.869 81.208 213.497 81.584 213.009 81.856C212.529 82.128 211.953 82.264 211.281 82.264C210.385 82.264 209.641 82.052 209.049 81.628C208.457 81.212 208.121 80.644 208.041 79.924H209.397C209.501 80.268 209.721 80.544 210.057 80.752C210.401 80.968 210.809 81.076 211.281 81.076C211.833 81.076 212.277 80.908 212.613 80.572C212.957 80.236 213.129 79.748 213.129 79.108V78.004C212.897 78.316 212.581 78.58 212.181 78.796C211.789 79.004 211.341 79.108 210.837 79.108C210.261 79.108 209.733 78.964 209.253 78.676C208.781 78.38 208.405 77.972 208.125 77.452C207.853 76.924 207.717 76.328 207.717 75.664C207.717 75 207.853 74.412 208.125 73.9C208.405 73.388 208.781 72.992 209.253 72.712C209.733 72.424 210.261 72.28 210.837 72.28ZM213.129 75.688C213.129 75.232 213.033 74.836 212.841 74.5C212.657 74.164 212.413 73.908 212.109 73.732C211.805 73.556 211.477 73.468 211.125 73.468C210.773 73.468 210.445 73.556 210.141 73.732C209.837 73.9 209.589 74.152 209.397 74.488C209.213 74.816 209.121 75.208 209.121 75.664C209.121 76.12 209.213 76.52 209.397 76.864C209.589 77.208 209.837 77.472 210.141 77.656C210.453 77.832 210.781 77.92 211.125 77.92C211.477 77.92 211.805 77.832 212.109 77.656C212.413 77.48 212.657 77.224 212.841 76.888C213.033 76.544 213.129 76.144 213.129 75.688ZM222.366 75.532C222.366 75.78 222.35 76.004 222.318 76.204H217.266C217.306 76.732 217.502 77.156 217.854 77.476C218.206 77.796 218.638 77.956 219.15 77.956C219.886 77.956 220.406 77.648 220.71 77.032H222.186C221.986 77.64 221.622 78.14 221.094 78.532C220.574 78.916 219.926 79.108 219.15 79.108C218.518 79.108 217.95 78.968 217.446 78.688C216.95 78.4 216.558 78 216.27 77.488C215.99 76.968 215.85 76.368 215.85 75.688C215.85 75.008 215.986 74.412 216.258 73.9C216.538 73.38 216.926 72.98 217.422 72.7C217.926 72.42 218.502 72.28 219.15 72.28C219.774 72.28 220.33 72.416 220.818 72.688C221.306 72.96 221.686 73.344 221.958 73.84C222.23 74.328 222.366 74.892 222.366 75.532ZM220.938 75.1C220.93 74.596 220.75 74.192 220.398 73.888C220.046 73.584 219.61 73.432 219.09 73.432C218.618 73.432 218.214 73.584 217.878 73.888C217.542 74.184 217.342 74.588 217.278 75.1H220.938ZM223.257 75.664C223.257 75 223.393 74.412 223.665 73.9C223.945 73.388 224.321 72.992 224.793 72.712C225.273 72.424 225.805 72.28 226.389 72.28C226.821 72.28 227.245 72.376 227.661 72.568C228.085 72.752 228.421 73 228.669 73.312V70.12H230.049V79H228.669V78.004C228.445 78.324 228.133 78.588 227.733 78.796C227.341 79.004 226.889 79.108 226.377 79.108C225.801 79.108 225.273 78.964 224.793 78.676C224.321 78.38 223.945 77.972 223.665 77.452C223.393 76.924 223.257 76.328 223.257 75.664ZM228.669 75.688C228.669 75.232 228.573 74.836 228.381 74.5C228.197 74.164 227.953 73.908 227.649 73.732C227.345 73.556 227.017 73.468 226.665 73.468C226.313 73.468 225.985 73.556 225.681 73.732C225.377 73.9 225.129 74.152 224.937 74.488C224.753 74.816 224.661 75.208 224.661 75.664C224.661 76.12 224.753 76.52 224.937 76.864C225.129 77.208 225.377 77.472 225.681 77.656C225.993 77.832 226.321 77.92 226.665 77.92C227.017 77.92 227.345 77.832 227.649 77.656C227.953 77.48 228.197 77.224 228.381 76.888C228.573 76.544 228.669 76.144 228.669 75.688ZM238.383 72.28C238.887 72.28 239.335 72.388 239.727 72.604C240.127 72.82 240.439 73.14 240.663 73.564C240.895 73.988 241.011 74.5 241.011 75.1V79H239.655V75.304C239.655 74.712 239.507 74.26 239.211 73.948C238.915 73.628 238.511 73.468 237.999 73.468C237.487 73.468 237.079 73.628 236.775 73.948C236.479 74.26 236.331 74.712 236.331 75.304V79H234.963V70.12H236.331V73.156C236.563 72.876 236.855 72.66 237.207 72.508C237.567 72.356 237.959 72.28 238.383 72.28ZM245.623 79.108C244.999 79.108 244.435 78.968 243.931 78.688C243.427 78.4 243.031 78 242.743 77.488C242.455 76.968 242.311 76.368 242.311 75.688C242.311 75.016 242.459 74.42 242.755 73.9C243.051 73.38 243.455 72.98 243.967 72.7C244.479 72.42 245.051 72.28 245.683 72.28C246.315 72.28 246.887 72.42 247.399 72.7C247.911 72.98 248.315 73.38 248.611 73.9C248.907 74.42 249.055 75.016 249.055 75.688C249.055 76.36 248.903 76.956 248.599 77.476C248.295 77.996 247.879 78.4 247.351 78.688C246.831 78.968 246.255 79.108 245.623 79.108ZM245.623 77.92C245.975 77.92 246.303 77.836 246.607 77.668C246.919 77.5 247.171 77.248 247.363 76.912C247.555 76.576 247.651 76.168 247.651 75.688C247.651 75.208 247.559 74.804 247.375 74.476C247.191 74.14 246.947 73.888 246.643 73.72C246.339 73.552 246.011 73.468 245.659 73.468C245.307 73.468 244.979 73.552 244.675 73.72C244.379 73.888 244.143 74.14 243.967 74.476C243.791 74.804 243.703 75.208 243.703 75.688C243.703 76.4 243.883 76.952 244.243 77.344C244.611 77.728 245.071 77.92 245.623 77.92ZM259.288 72.388L257.236 79H255.796L254.464 74.116L253.132 79H251.692L249.628 72.388H251.02L252.4 77.704L253.804 72.388H255.232L256.576 77.68L257.944 72.388H259.288ZM264.795 70.66V79H263.427V70.66H264.795ZM272.109 79.108C271.589 79.108 271.121 79.016 270.705 78.832C270.297 78.64 269.973 78.384 269.733 78.064C269.493 77.736 269.365 77.372 269.349 76.972H270.765C270.789 77.252 270.921 77.488 271.161 77.68C271.409 77.864 271.717 77.956 272.085 77.956C272.469 77.956 272.765 77.884 272.973 77.74C273.189 77.588 273.297 77.396 273.297 77.164C273.297 76.916 273.177 76.732 272.937 76.612C272.705 76.492 272.333 76.36 271.821 76.216C271.325 76.08 270.921 75.948 270.609 75.82C270.297 75.692 270.025 75.496 269.793 75.232C269.569 74.968 269.457 74.62 269.457 74.188C269.457 73.836 269.561 73.516 269.769 73.228C269.977 72.932 270.273 72.7 270.657 72.532C271.049 72.364 271.497 72.28 272.001 72.28C272.753 72.28 273.357 72.472 273.813 72.856C274.277 73.232 274.525 73.748 274.557 74.404H273.189C273.165 74.108 273.045 73.872 272.829 73.696C272.613 73.52 272.321 73.432 271.953 73.432C271.593 73.432 271.317 73.5 271.125 73.636C270.933 73.772 270.837 73.952 270.837 74.176C270.837 74.352 270.901 74.5 271.029 74.62C271.157 74.74 271.313 74.836 271.497 74.908C271.681 74.972 271.953 75.056 272.313 75.16C272.793 75.288 273.185 75.42 273.489 75.556C273.801 75.684 274.069 75.876 274.293 76.132C274.517 76.388 274.633 76.728 274.641 77.152C274.641 77.528 274.537 77.864 274.329 78.16C274.121 78.456 273.825 78.688 273.441 78.856C273.065 79.024 272.621 79.108 272.109 79.108ZM277.715 73.504V77.164C277.715 77.412 277.771 77.592 277.883 77.704C278.003 77.808 278.203 77.86 278.483 77.86H279.323V79H278.243C277.627 79 277.155 78.856 276.827 78.568C276.499 78.28 276.335 77.812 276.335 77.164V73.504H275.555V72.388H276.335V70.744H277.715V72.388H279.323V73.504H277.715ZM286.572 72.388V79H285.204V78.22C284.988 78.492 284.704 78.708 284.352 78.868C284.008 79.02 283.64 79.096 283.248 79.096C282.728 79.096 282.26 78.988 281.844 78.772C281.436 78.556 281.112 78.236 280.872 77.812C280.64 77.388 280.524 76.876 280.524 76.276V72.388H281.88V76.072C281.88 76.664 282.028 77.12 282.324 77.44C282.62 77.752 283.024 77.908 283.536 77.908C284.048 77.908 284.452 77.752 284.748 77.44C285.052 77.12 285.204 76.664 285.204 76.072V72.388H286.572ZM287.921 75.664C287.921 75 288.057 74.412 288.329 73.9C288.609 73.388 288.985 72.992 289.457 72.712C289.937 72.424 290.469 72.28 291.053 72.28C291.485 72.28 291.909 72.376 292.325 72.568C292.749 72.752 293.085 73 293.333 73.312V70.12H294.713V79H293.333V78.004C293.109 78.324 292.797 78.588 292.397 78.796C292.005 79.004 291.553 79.108 291.041 79.108C290.465 79.108 289.937 78.964 289.457 78.676C288.985 78.38 288.609 77.972 288.329 77.452C288.057 76.924 287.921 76.328 287.921 75.664ZM293.333 75.688C293.333 75.232 293.237 74.836 293.045 74.5C292.861 74.164 292.617 73.908 292.313 73.732C292.009 73.556 291.681 73.468 291.329 73.468C290.977 73.468 290.649 73.556 290.345 73.732C290.041 73.9 289.793 74.152 289.601 74.488C289.417 74.816 289.325 75.208 289.325 75.664C289.325 76.12 289.417 76.52 289.601 76.864C289.793 77.208 290.041 77.472 290.345 77.656C290.657 77.832 290.985 77.92 291.329 77.92C291.681 77.92 292.009 77.832 292.313 77.656C292.617 77.48 292.861 77.224 293.045 76.888C293.237 76.544 293.333 76.144 293.333 75.688ZM302.461 72.388L298.405 82.108H296.989L298.333 78.892L295.729 72.388H297.253L299.113 77.428L301.045 72.388H302.461ZM304.046 79.084C303.798 79.084 303.59 79 303.422 78.832C303.254 78.664 303.17 78.456 303.17 78.208C303.17 77.96 303.254 77.752 303.422 77.584C303.59 77.416 303.798 77.332 304.046 77.332C304.286 77.332 304.49 77.416 304.658 77.584C304.826 77.752 304.91 77.96 304.91 78.208C304.91 78.456 304.826 78.664 304.658 78.832C304.49 79 304.286 79.084 304.046 79.084ZM21.808 88.66V89.776H18.268V92.236H21.028V93.352H18.268V97H16.9V88.66H21.808ZM24.4438 91.348C24.6438 91.012 24.9078 90.752 25.2358 90.568C25.5718 90.376 25.9678 90.28 26.4238 90.28V91.696H26.0758C25.5398 91.696 25.1318 91.832 24.8518 92.104C24.5798 92.376 24.4438 92.848 24.4438 93.52V97H23.0758V90.388H24.4438V91.348ZM30.5493 97.108C29.9253 97.108 29.3613 96.968 28.8573 96.688C28.3533 96.4 27.9573 96 27.6693 95.488C27.3813 94.968 27.2373 94.368 27.2373 93.688C27.2373 93.016 27.3853 92.42 27.6813 91.9C27.9773 91.38 28.3813 90.98 28.8933 90.7C29.4053 90.42 29.9773 90.28 30.6093 90.28C31.2413 90.28 31.8133 90.42 32.3253 90.7C32.8373 90.98 33.2413 91.38 33.5373 91.9C33.8333 92.42 33.9813 93.016 33.9813 93.688C33.9813 94.36 33.8293 94.956 33.5253 95.476C33.2213 95.996 32.8053 96.4 32.2773 96.688C31.7573 96.968 31.1813 97.108 30.5493 97.108ZM30.5493 95.92C30.9013 95.92 31.2293 95.836 31.5333 95.668C31.8453 95.5 32.0973 95.248 32.2893 94.912C32.4813 94.576 32.5773 94.168 32.5773 93.688C32.5773 93.208 32.4853 92.804 32.3013 92.476C32.1173 92.14 31.8733 91.888 31.5693 91.72C31.2653 91.552 30.9373 91.468 30.5853 91.468C30.2333 91.468 29.9053 91.552 29.6013 91.72C29.3053 91.888 29.0693 92.14 28.8933 92.476C28.7173 92.804 28.6293 93.208 28.6293 93.688C28.6293 94.4 28.8093 94.952 29.1693 95.344C29.5373 95.728 29.9973 95.92 30.5493 95.92ZM43.3376 90.28C43.8576 90.28 44.3216 90.388 44.7296 90.604C45.1456 90.82 45.4696 91.14 45.7016 91.564C45.9416 91.988 46.0616 92.5 46.0616 93.1V97H44.7056V93.304C44.7056 92.712 44.5576 92.26 44.2616 91.948C43.9656 91.628 43.5616 91.468 43.0496 91.468C42.5376 91.468 42.1296 91.628 41.8256 91.948C41.5296 92.26 41.3816 92.712 41.3816 93.304V97H40.0256V93.304C40.0256 92.712 39.8776 92.26 39.5816 91.948C39.2856 91.628 38.8816 91.468 38.3696 91.468C37.8576 91.468 37.4496 91.628 37.1456 91.948C36.8496 92.26 36.7016 92.712 36.7016 93.304V97H35.3336V90.388H36.7016V91.144C36.9256 90.872 37.2096 90.66 37.5536 90.508C37.8976 90.356 38.2656 90.28 38.6576 90.28C39.1856 90.28 39.6576 90.392 40.0736 90.616C40.4896 90.84 40.8096 91.164 41.0336 91.588C41.2336 91.188 41.5456 90.872 41.9696 90.64C42.3936 90.4 42.8496 90.28 43.3376 90.28ZM52.2875 88.12V97H50.9195V88.12H52.2875ZM60.1436 93.532C60.1436 93.78 60.1276 94.004 60.0956 94.204H55.0436C55.0836 94.732 55.2796 95.156 55.6316 95.476C55.9836 95.796 56.4156 95.956 56.9276 95.956C57.6636 95.956 58.1836 95.648 58.4876 95.032H59.9636C59.7636 95.64 59.3996 96.14 58.8716 96.532C58.3516 96.916 57.7036 97.108 56.9276 97.108C56.2956 97.108 55.7276 96.968 55.2236 96.688C54.7276 96.4 54.3356 96 54.0476 95.488C53.7676 94.968 53.6276 94.368 53.6276 93.688C53.6276 93.008 53.7636 92.412 54.0356 91.9C54.3156 91.38 54.7036 90.98 55.1996 90.7C55.7036 90.42 56.2796 90.28 56.9276 90.28C57.5516 90.28 58.1076 90.416 58.5956 90.688C59.0836 90.96 59.4636 91.344 59.7356 91.84C60.0076 92.328 60.1436 92.892 60.1436 93.532ZM58.7156 93.1C58.7076 92.596 58.5276 92.192 58.1756 91.888C57.8236 91.584 57.3876 91.432 56.8676 91.432C56.3956 91.432 55.9916 91.584 55.6556 91.888C55.3196 92.184 55.1196 92.588 55.0556 93.1H58.7156ZM61.0338 93.688C61.0338 93.008 61.1698 92.412 61.4418 91.9C61.7218 91.38 62.1058 90.98 62.5938 90.7C63.0818 90.42 63.6418 90.28 64.2738 90.28C65.0738 90.28 65.7338 90.472 66.2538 90.856C66.7818 91.232 67.1378 91.772 67.3218 92.476H65.8458C65.7258 92.148 65.5338 91.892 65.2698 91.708C65.0058 91.524 64.6738 91.432 64.2738 91.432C63.7138 91.432 63.2658 91.632 62.9298 92.032C62.6018 92.424 62.4378 92.976 62.4378 93.688C62.4378 94.4 62.6018 94.956 62.9298 95.356C63.2658 95.756 63.7138 95.956 64.2738 95.956C65.0658 95.956 65.5898 95.608 65.8458 94.912H67.3218C67.1298 95.584 66.7698 96.12 66.2418 96.52C65.7138 96.912 65.0578 97.108 64.2738 97.108C63.6418 97.108 63.0818 96.968 62.5938 96.688C62.1058 96.4 61.7218 96 61.4418 95.488C61.1698 94.968 61.0338 94.368 61.0338 93.688ZM70.2812 91.504V95.164C70.2812 95.412 70.3372 95.592 70.4492 95.704C70.5692 95.808 70.7692 95.86 71.0492 95.86H71.8892V97H70.8092C70.1932 97 69.7212 96.856 69.3932 96.568C69.0652 96.28 68.9012 95.812 68.9012 95.164V91.504H68.1212V90.388H68.9012V88.744H70.2812V90.388H71.8892V91.504H70.2812ZM79.138 90.388V97H77.77V96.22C77.554 96.492 77.27 96.708 76.918 96.868C76.574 97.02 76.206 97.096 75.814 97.096C75.294 97.096 74.826 96.988 74.41 96.772C74.002 96.556 73.678 96.236 73.438 95.812C73.206 95.388 73.09 94.876 73.09 94.276V90.388H74.446V94.072C74.446 94.664 74.594 95.12 74.89 95.44C75.186 95.752 75.59 95.908 76.102 95.908C76.614 95.908 77.018 95.752 77.314 95.44C77.618 95.12 77.77 94.664 77.77 94.072V90.388H79.138ZM82.311 91.348C82.511 91.012 82.775 90.752 83.103 90.568C83.439 90.376 83.835 90.28 84.291 90.28V91.696H83.943C83.407 91.696 82.999 91.832 82.719 92.104C82.447 92.376 82.311 92.848 82.311 93.52V97H80.943V90.388H82.311V91.348ZM91.6084 93.532C91.6084 93.78 91.5924 94.004 91.5604 94.204H86.5084C86.5484 94.732 86.7444 95.156 87.0964 95.476C87.4484 95.796 87.8804 95.956 88.3924 95.956C89.1284 95.956 89.6484 95.648 89.9524 95.032H91.4284C91.2284 95.64 90.8644 96.14 90.3364 96.532C89.8164 96.916 89.1684 97.108 88.3924 97.108C87.7604 97.108 87.1924 96.968 86.6884 96.688C86.1924 96.4 85.8004 96 85.5124 95.488C85.2324 94.968 85.0924 94.368 85.0924 93.688C85.0924 93.008 85.2284 92.412 85.5004 91.9C85.7804 91.38 86.1684 90.98 86.6644 90.7C87.1684 90.42 87.7444 90.28 88.3924 90.28C89.0164 90.28 89.5724 90.416 90.0604 90.688C90.5484 90.96 90.9284 91.344 91.2004 91.84C91.4724 92.328 91.6084 92.892 91.6084 93.532ZM90.1804 93.1C90.1724 92.596 89.9924 92.192 89.6404 91.888C89.2884 91.584 88.8524 91.432 88.3324 91.432C87.8604 91.432 87.4564 91.584 87.1204 91.888C86.7844 92.184 86.5844 92.588 86.5204 93.1H90.1804ZM95.3547 97.108C94.8347 97.108 94.3667 97.016 93.9507 96.832C93.5427 96.64 93.2187 96.384 92.9787 96.064C92.7387 95.736 92.6107 95.372 92.5947 94.972H94.0107C94.0347 95.252 94.1667 95.488 94.4067 95.68C94.6547 95.864 94.9627 95.956 95.3307 95.956C95.7147 95.956 96.0107 95.884 96.2187 95.74C96.4347 95.588 96.5427 95.396 96.5427 95.164C96.5427 94.916 96.4227 94.732 96.1827 94.612C95.9507 94.492 95.5787 94.36 95.0667 94.216C94.5707 94.08 94.1667 93.948 93.8547 93.82C93.5427 93.692 93.2707 93.496 93.0387 93.232C92.8147 92.968 92.7027 92.62 92.7027 92.188C92.7027 91.836 92.8067 91.516 93.0147 91.228C93.2227 90.932 93.5187 90.7 93.9027 90.532C94.2947 90.364 94.7427 90.28 95.2467 90.28C95.9987 90.28 96.6027 90.472 97.0587 90.856C97.5227 91.232 97.7707 91.748 97.8027 92.404H96.4347C96.4107 92.108 96.2907 91.872 96.0747 91.696C95.8587 91.52 95.5667 91.432 95.1987 91.432C94.8387 91.432 94.5627 91.5 94.3707 91.636C94.1787 91.772 94.0827 91.952 94.0827 92.176C94.0827 92.352 94.1467 92.5 94.2747 92.62C94.4027 92.74 94.5587 92.836 94.7427 92.908C94.9267 92.972 95.1987 93.056 95.5587 93.16C96.0387 93.288 96.4307 93.42 96.7347 93.556C97.0467 93.684 97.3147 93.876 97.5387 94.132C97.7627 94.388 97.8787 94.728 97.8867 95.152C97.8867 95.528 97.7827 95.864 97.5747 96.16C97.3667 96.456 97.0707 96.688 96.6867 96.856C96.3107 97.024 95.8667 97.108 95.3547 97.108ZM104.078 91.504V95.164C104.078 95.412 104.134 95.592 104.246 95.704C104.366 95.808 104.566 95.86 104.846 95.86H105.686V97H104.606C103.99 97 103.518 96.856 103.19 96.568C102.862 96.28 102.698 95.812 102.698 95.164V91.504H101.918V90.388H102.698V88.744H104.078V90.388H105.686V91.504H104.078ZM109.815 97.108C109.191 97.108 108.627 96.968 108.123 96.688C107.619 96.4 107.223 96 106.935 95.488C106.647 94.968 106.503 94.368 106.503 93.688C106.503 93.016 106.651 92.42 106.947 91.9C107.243 91.38 107.647 90.98 108.159 90.7C108.671 90.42 109.243 90.28 109.875 90.28C110.507 90.28 111.079 90.42 111.591 90.7C112.103 90.98 112.507 91.38 112.803 91.9C113.099 92.42 113.247 93.016 113.247 93.688C113.247 94.36 113.095 94.956 112.791 95.476C112.487 95.996 112.071 96.4 111.543 96.688C111.023 96.968 110.447 97.108 109.815 97.108ZM109.815 95.92C110.167 95.92 110.495 95.836 110.799 95.668C111.111 95.5 111.363 95.248 111.555 94.912C111.747 94.576 111.843 94.168 111.843 93.688C111.843 93.208 111.751 92.804 111.567 92.476C111.383 92.14 111.139 91.888 110.835 91.72C110.531 91.552 110.203 91.468 109.851 91.468C109.499 91.468 109.171 91.552 108.867 91.72C108.571 91.888 108.335 92.14 108.159 92.476C107.983 92.804 107.895 93.208 107.895 93.688C107.895 94.4 108.075 94.952 108.435 95.344C108.803 95.728 109.263 95.92 109.815 95.92ZM120.488 91.504H119.264V97H117.884V91.504H117.104V90.388H117.884V89.92C117.884 89.16 118.084 88.608 118.484 88.264C118.892 87.912 119.528 87.736 120.392 87.736V88.876C119.976 88.876 119.684 88.956 119.516 89.116C119.348 89.268 119.264 89.536 119.264 89.92V90.388H120.488V91.504ZM123.069 88.12V97H121.701V88.12H123.069ZM124.409 93.664C124.409 93 124.545 92.412 124.817 91.9C125.097 91.388 125.473 90.992 125.945 90.712C126.425 90.424 126.953 90.28 127.529 90.28C128.049 90.28 128.501 90.384 128.885 90.592C129.277 90.792 129.589 91.044 129.821 91.348V90.388H131.201V97H129.821V96.016C129.589 96.328 129.273 96.588 128.873 96.796C128.473 97.004 128.017 97.108 127.505 97.108C126.937 97.108 126.417 96.964 125.945 96.676C125.473 96.38 125.097 95.972 124.817 95.452C124.545 94.924 124.409 94.328 124.409 93.664ZM129.821 93.688C129.821 93.232 129.725 92.836 129.533 92.5C129.349 92.164 129.105 91.908 128.801 91.732C128.497 91.556 128.169 91.468 127.817 91.468C127.465 91.468 127.137 91.556 126.833 91.732C126.529 91.9 126.281 92.152 126.089 92.488C125.905 92.816 125.813 93.208 125.813 93.664C125.813 94.12 125.905 94.52 126.089 94.864C126.281 95.208 126.529 95.472 126.833 95.656C127.145 95.832 127.473 95.92 127.817 95.92C128.169 95.92 128.497 95.832 128.801 95.656C129.105 95.48 129.349 95.224 129.533 94.888C129.725 94.544 129.821 94.144 129.821 93.688ZM135.398 97.108C134.878 97.108 134.41 97.016 133.994 96.832C133.586 96.64 133.262 96.384 133.022 96.064C132.782 95.736 132.654 95.372 132.638 94.972H134.054C134.078 95.252 134.21 95.488 134.45 95.68C134.698 95.864 135.006 95.956 135.374 95.956C135.758 95.956 136.054 95.884 136.262 95.74C136.478 95.588 136.586 95.396 136.586 95.164C136.586 94.916 136.466 94.732 136.226 94.612C135.994 94.492 135.622 94.36 135.11 94.216C134.614 94.08 134.21 93.948 133.898 93.82C133.586 93.692 133.314 93.496 133.082 93.232C132.858 92.968 132.746 92.62 132.746 92.188C132.746 91.836 132.85 91.516 133.058 91.228C133.266 90.932 133.562 90.7 133.946 90.532C134.338 90.364 134.786 90.28 135.29 90.28C136.042 90.28 136.646 90.472 137.102 90.856C137.566 91.232 137.814 91.748 137.846 92.404H136.478C136.454 92.108 136.334 91.872 136.118 91.696C135.902 91.52 135.61 91.432 135.242 91.432C134.882 91.432 134.606 91.5 134.414 91.636C134.222 91.772 134.126 91.952 134.126 92.176C134.126 92.352 134.19 92.5 134.318 92.62C134.446 92.74 134.602 92.836 134.786 92.908C134.97 92.972 135.242 93.056 135.602 93.16C136.082 93.288 136.474 93.42 136.778 93.556C137.09 93.684 137.358 93.876 137.582 94.132C137.806 94.388 137.922 94.728 137.93 95.152C137.93 95.528 137.826 95.864 137.618 96.16C137.41 96.456 137.114 96.688 136.73 96.856C136.354 97.024 135.91 97.108 135.398 97.108ZM142.828 90.28C143.332 90.28 143.78 90.388 144.172 90.604C144.572 90.82 144.884 91.14 145.108 91.564C145.34 91.988 145.456 92.5 145.456 93.1V97H144.1V93.304C144.1 92.712 143.952 92.26 143.656 91.948C143.36 91.628 142.956 91.468 142.444 91.468C141.932 91.468 141.524 91.628 141.22 91.948C140.924 92.26 140.776 92.712 140.776 93.304V97H139.408V88.12H140.776V91.156C141.008 90.876 141.3 90.66 141.652 90.508C142.012 90.356 142.404 90.28 142.828 90.28ZM146.745 93.688C146.745 93.008 146.881 92.412 147.153 91.9C147.433 91.38 147.817 90.98 148.305 90.7C148.793 90.42 149.353 90.28 149.985 90.28C150.785 90.28 151.445 90.472 151.965 90.856C152.493 91.232 152.849 91.772 153.033 92.476H151.557C151.437 92.148 151.245 91.892 150.981 91.708C150.717 91.524 150.385 91.432 149.985 91.432C149.425 91.432 148.977 91.632 148.641 92.032C148.313 92.424 148.149 92.976 148.149 93.688C148.149 94.4 148.313 94.956 148.641 95.356C148.977 95.756 149.425 95.956 149.985 95.956C150.777 95.956 151.301 95.608 151.557 94.912H153.033C152.841 95.584 152.481 96.12 151.953 96.52C151.425 96.912 150.769 97.108 149.985 97.108C149.353 97.108 148.793 96.968 148.305 96.688C147.817 96.4 147.433 96 147.153 95.488C146.881 94.968 146.745 94.368 146.745 93.688ZM153.94 93.664C153.94 93 154.076 92.412 154.348 91.9C154.628 91.388 155.004 90.992 155.476 90.712C155.956 90.424 156.484 90.28 157.06 90.28C157.58 90.28 158.032 90.384 158.416 90.592C158.808 90.792 159.12 91.044 159.352 91.348V90.388H160.732V97H159.352V96.016C159.12 96.328 158.804 96.588 158.404 96.796C158.004 97.004 157.548 97.108 157.036 97.108C156.468 97.108 155.948 96.964 155.476 96.676C155.004 96.38 154.628 95.972 154.348 95.452C154.076 94.924 153.94 94.328 153.94 93.664ZM159.352 93.688C159.352 93.232 159.256 92.836 159.064 92.5C158.88 92.164 158.636 91.908 158.332 91.732C158.028 91.556 157.7 91.468 157.348 91.468C156.996 91.468 156.668 91.556 156.364 91.732C156.06 91.9 155.812 92.152 155.62 92.488C155.436 92.816 155.344 93.208 155.344 93.664C155.344 94.12 155.436 94.52 155.62 94.864C155.812 95.208 156.06 95.472 156.364 95.656C156.676 95.832 157.004 95.92 157.348 95.92C157.7 95.92 158.028 95.832 158.332 95.656C158.636 95.48 158.88 95.224 159.064 94.888C159.256 94.544 159.352 94.144 159.352 93.688ZM163.897 91.348C164.097 91.012 164.361 90.752 164.689 90.568C165.025 90.376 165.421 90.28 165.877 90.28V91.696H165.529C164.993 91.696 164.585 91.832 164.305 92.104C164.033 92.376 163.897 92.848 163.897 93.52V97H162.529V90.388H163.897V91.348ZM166.678 93.664C166.678 93 166.814 92.412 167.086 91.9C167.366 91.388 167.742 90.992 168.214 90.712C168.694 90.424 169.226 90.28 169.81 90.28C170.242 90.28 170.666 90.376 171.082 90.568C171.506 90.752 171.842 91 172.09 91.312V88.12H173.47V97H172.09V96.004C171.866 96.324 171.554 96.588 171.154 96.796C170.762 97.004 170.31 97.108 169.798 97.108C169.222 97.108 168.694 96.964 168.214 96.676C167.742 96.38 167.366 95.972 167.086 95.452C166.814 94.924 166.678 94.328 166.678 93.664ZM172.09 93.688C172.09 93.232 171.994 92.836 171.802 92.5C171.618 92.164 171.374 91.908 171.07 91.732C170.766 91.556 170.438 91.468 170.086 91.468C169.734 91.468 169.406 91.556 169.102 91.732C168.798 91.9 168.55 92.152 168.358 92.488C168.174 92.816 168.082 93.208 168.082 93.664C168.082 94.12 168.174 94.52 168.358 94.864C168.55 95.208 168.798 95.472 169.102 95.656C169.414 95.832 169.742 95.92 170.086 95.92C170.438 95.92 170.766 95.832 171.07 95.656C171.374 95.48 171.618 95.224 171.802 94.888C171.994 94.544 172.09 94.144 172.09 93.688ZM177.667 97.108C177.147 97.108 176.679 97.016 176.263 96.832C175.855 96.64 175.531 96.384 175.291 96.064C175.051 95.736 174.923 95.372 174.907 94.972H176.323C176.347 95.252 176.479 95.488 176.719 95.68C176.967 95.864 177.275 95.956 177.643 95.956C178.027 95.956 178.323 95.884 178.531 95.74C178.747 95.588 178.855 95.396 178.855 95.164C178.855 94.916 178.735 94.732 178.495 94.612C178.263 94.492 177.891 94.36 177.379 94.216C176.883 94.08 176.479 93.948 176.167 93.82C175.855 93.692 175.583 93.496 175.351 93.232C175.127 92.968 175.015 92.62 175.015 92.188C175.015 91.836 175.119 91.516 175.327 91.228C175.535 90.932 175.831 90.7 176.215 90.532C176.607 90.364 177.055 90.28 177.559 90.28C178.311 90.28 178.915 90.472 179.371 90.856C179.835 91.232 180.083 91.748 180.115 92.404H178.747C178.723 92.108 178.603 91.872 178.387 91.696C178.171 91.52 177.879 91.432 177.511 91.432C177.151 91.432 176.875 91.5 176.683 91.636C176.491 91.772 176.395 91.952 176.395 92.176C176.395 92.352 176.459 92.5 176.587 92.62C176.715 92.74 176.871 92.836 177.055 92.908C177.239 92.972 177.511 93.056 177.871 93.16C178.351 93.288 178.743 93.42 179.047 93.556C179.359 93.684 179.627 93.876 179.851 94.132C180.075 94.388 180.191 94.728 180.199 95.152C180.199 95.528 180.095 95.864 179.887 96.16C179.679 96.456 179.383 96.688 178.999 96.856C178.623 97.024 178.179 97.108 177.667 97.108ZM185.491 89.512C185.243 89.512 185.035 89.428 184.867 89.26C184.699 89.092 184.615 88.884 184.615 88.636C184.615 88.388 184.699 88.18 184.867 88.012C185.035 87.844 185.243 87.76 185.491 87.76C185.731 87.76 185.935 87.844 186.103 88.012C186.271 88.18 186.355 88.388 186.355 88.636C186.355 88.884 186.271 89.092 186.103 89.26C185.935 89.428 185.731 89.512 185.491 89.512ZM186.163 90.388V97H184.795V90.388H186.163ZM191.295 90.28C191.815 90.28 192.279 90.388 192.687 90.604C193.103 90.82 193.427 91.14 193.659 91.564C193.891 91.988 194.007 92.5 194.007 93.1V97H192.651V93.304C192.651 92.712 192.503 92.26 192.207 91.948C191.911 91.628 191.507 91.468 190.995 91.468C190.483 91.468 190.075 91.628 189.771 91.948C189.475 92.26 189.327 92.712 189.327 93.304V97H187.959V90.388H189.327V91.144C189.551 90.872 189.835 90.66 190.179 90.508C190.531 90.356 190.903 90.28 191.295 90.28ZM206.873 90.28C207.393 90.28 207.857 90.388 208.265 90.604C208.681 90.82 209.005 91.14 209.237 91.564C209.477 91.988 209.597 92.5 209.597 93.1V97H208.241V93.304C208.241 92.712 208.093 92.26 207.797 91.948C207.501 91.628 207.097 91.468 206.585 91.468C206.073 91.468 205.665 91.628 205.361 91.948C205.065 92.26 204.917 92.712 204.917 93.304V97H203.561V93.304C203.561 92.712 203.413 92.26 203.117 91.948C202.821 91.628 202.417 91.468 201.905 91.468C201.393 91.468 200.985 91.628 200.681 91.948C200.385 92.26 200.237 92.712 200.237 93.304V97H198.869V90.388H200.237V91.144C200.461 90.872 200.745 90.66 201.089 90.508C201.433 90.356 201.801 90.28 202.193 90.28C202.721 90.28 203.193 90.392 203.609 90.616C204.025 90.84 204.345 91.164 204.569 91.588C204.769 91.188 205.081 90.872 205.505 90.64C205.929 90.4 206.385 90.28 206.873 90.28ZM212.034 89.512C211.786 89.512 211.578 89.428 211.41 89.26C211.242 89.092 211.158 88.884 211.158 88.636C211.158 88.388 211.242 88.18 211.41 88.012C211.578 87.844 211.786 87.76 212.034 87.76C212.274 87.76 212.478 87.844 212.646 88.012C212.814 88.18 212.898 88.388 212.898 88.636C212.898 88.884 212.814 89.092 212.646 89.26C212.478 89.428 212.274 89.512 212.034 89.512ZM212.706 90.388V97H211.338V90.388H212.706ZM217.838 90.28C218.358 90.28 218.822 90.388 219.23 90.604C219.646 90.82 219.97 91.14 220.202 91.564C220.434 91.988 220.55 92.5 220.55 93.1V97H219.194V93.304C219.194 92.712 219.046 92.26 218.75 91.948C218.454 91.628 218.05 91.468 217.538 91.468C217.026 91.468 216.618 91.628 216.314 91.948C216.018 92.26 215.87 92.712 215.87 93.304V97H214.502V90.388H215.87V91.144C216.094 90.872 216.378 90.66 216.722 90.508C217.074 90.356 217.446 90.28 217.838 90.28ZM228.283 90.388V97H226.915V96.22C226.699 96.492 226.415 96.708 226.063 96.868C225.719 97.02 225.351 97.096 224.959 97.096C224.439 97.096 223.971 96.988 223.555 96.772C223.147 96.556 222.823 96.236 222.583 95.812C222.351 95.388 222.235 94.876 222.235 94.276V90.388H223.591V94.072C223.591 94.664 223.739 95.12 224.035 95.44C224.331 95.752 224.735 95.908 225.247 95.908C225.759 95.908 226.163 95.752 226.459 95.44C226.763 95.12 226.915 94.664 226.915 94.072V90.388H228.283ZM231.684 91.504V95.164C231.684 95.412 231.74 95.592 231.852 95.704C231.972 95.808 232.172 95.86 232.452 95.86H233.292V97H232.212C231.596 97 231.124 96.856 230.796 96.568C230.468 96.28 230.304 95.812 230.304 95.164V91.504H229.524V90.388H230.304V88.744H231.684V90.388H233.292V91.504H231.684ZM240.612 93.532C240.612 93.78 240.596 94.004 240.564 94.204H235.512C235.552 94.732 235.748 95.156 236.1 95.476C236.452 95.796 236.884 95.956 237.396 95.956C238.132 95.956 238.652 95.648 238.956 95.032H240.432C240.232 95.64 239.868 96.14 239.34 96.532C238.82 96.916 238.172 97.108 237.396 97.108C236.764 97.108 236.196 96.968 235.692 96.688C235.196 96.4 234.804 96 234.516 95.488C234.236 94.968 234.096 94.368 234.096 93.688C234.096 93.008 234.232 92.412 234.504 91.9C234.784 91.38 235.172 90.98 235.668 90.7C236.172 90.42 236.748 90.28 237.396 90.28C238.02 90.28 238.576 90.416 239.064 90.688C239.552 90.96 239.932 91.344 240.204 91.84C240.476 92.328 240.612 92.892 240.612 93.532ZM239.184 93.1C239.176 92.596 238.996 92.192 238.644 91.888C238.292 91.584 237.856 91.432 237.336 91.432C236.864 91.432 236.46 91.584 236.124 91.888C235.788 92.184 235.588 92.588 235.524 93.1H239.184ZM244.359 97.108C243.839 97.108 243.371 97.016 242.955 96.832C242.547 96.64 242.223 96.384 241.983 96.064C241.743 95.736 241.615 95.372 241.599 94.972H243.015C243.039 95.252 243.171 95.488 243.411 95.68C243.659 95.864 243.967 95.956 244.335 95.956C244.719 95.956 245.015 95.884 245.223 95.74C245.439 95.588 245.547 95.396 245.547 95.164C245.547 94.916 245.427 94.732 245.187 94.612C244.955 94.492 244.583 94.36 244.071 94.216C243.575 94.08 243.171 93.948 242.859 93.82C242.547 93.692 242.275 93.496 242.043 93.232C241.819 92.968 241.707 92.62 241.707 92.188C241.707 91.836 241.811 91.516 242.019 91.228C242.227 90.932 242.523 90.7 242.907 90.532C243.299 90.364 243.747 90.28 244.251 90.28C245.003 90.28 245.607 90.472 246.063 90.856C246.527 91.232 246.775 91.748 246.807 92.404H245.439C245.415 92.108 245.295 91.872 245.079 91.696C244.863 91.52 244.571 91.432 244.203 91.432C243.843 91.432 243.567 91.5 243.375 91.636C243.183 91.772 243.087 91.952 243.087 92.176C243.087 92.352 243.151 92.5 243.279 92.62C243.407 92.74 243.563 92.836 243.747 92.908C243.931 92.972 244.203 93.056 244.563 93.16C245.043 93.288 245.435 93.42 245.739 93.556C246.051 93.684 246.319 93.876 246.543 94.132C246.767 94.388 246.883 94.728 246.891 95.152C246.891 95.528 246.787 95.864 246.579 96.16C246.371 96.456 246.075 96.688 245.691 96.856C245.315 97.024 244.871 97.108 244.359 97.108ZM248.921 97.084C248.673 97.084 248.465 97 248.297 96.832C248.129 96.664 248.045 96.456 248.045 96.208C248.045 95.96 248.129 95.752 248.297 95.584C248.465 95.416 248.673 95.332 248.921 95.332C249.161 95.332 249.365 95.416 249.533 95.584C249.701 95.752 249.785 95.96 249.785 96.208C249.785 96.456 249.701 96.664 249.533 96.832C249.365 97 249.161 97.084 248.921 97.084ZM259.408 95.296H255.916L255.316 97H253.888L256.876 88.648H258.46L261.448 97H260.008L259.408 95.296ZM259.024 94.18L257.668 90.304L256.3 94.18H259.024ZM270.752 90.28C271.272 90.28 271.736 90.388 272.144 90.604C272.56 90.82 272.884 91.14 273.116 91.564C273.356 91.988 273.476 92.5 273.476 93.1V97H272.12V93.304C272.12 92.712 271.972 92.26 271.676 91.948C271.38 91.628 270.976 91.468 270.464 91.468C269.952 91.468 269.544 91.628 269.24 91.948C268.944 92.26 268.796 92.712 268.796 93.304V97H267.44V93.304C267.44 92.712 267.292 92.26 266.996 91.948C266.7 91.628 266.296 91.468 265.784 91.468C265.272 91.468 264.864 91.628 264.56 91.948C264.264 92.26 264.116 92.712 264.116 93.304V97H262.748V90.388H264.116V91.144C264.34 90.872 264.624 90.66 264.968 90.508C265.312 90.356 265.68 90.28 266.072 90.28C266.6 90.28 267.072 90.392 267.488 90.616C267.904 90.84 268.224 91.164 268.448 91.588C268.648 91.188 268.96 90.872 269.384 90.64C269.808 90.4 270.264 90.28 270.752 90.28ZM274.76 93.664C274.76 93 274.896 92.412 275.168 91.9C275.448 91.388 275.824 90.992 276.296 90.712C276.776 90.424 277.304 90.28 277.88 90.28C278.4 90.28 278.852 90.384 279.236 90.592C279.628 90.792 279.94 91.044 280.172 91.348V90.388H281.552V97H280.172V96.016C279.94 96.328 279.624 96.588 279.224 96.796C278.824 97.004 278.368 97.108 277.856 97.108C277.288 97.108 276.768 96.964 276.296 96.676C275.824 96.38 275.448 95.972 275.168 95.452C274.896 94.924 274.76 94.328 274.76 93.664ZM280.172 93.688C280.172 93.232 280.076 92.836 279.884 92.5C279.7 92.164 279.456 91.908 279.152 91.732C278.848 91.556 278.52 91.468 278.168 91.468C277.816 91.468 277.488 91.556 277.184 91.732C276.88 91.9 276.632 92.152 276.44 92.488C276.256 92.816 276.164 93.208 276.164 93.664C276.164 94.12 276.256 94.52 276.44 94.864C276.632 95.208 276.88 95.472 277.184 95.656C277.496 95.832 277.824 95.92 278.168 95.92C278.52 95.92 278.848 95.832 279.152 95.656C279.456 95.48 279.7 95.224 279.884 94.888C280.076 94.544 280.172 94.144 280.172 93.688ZM284.561 95.884H287.561V97H282.977V95.884L285.989 91.504H282.977V90.388H287.561V91.504L284.561 95.884ZM289.694 89.512C289.446 89.512 289.238 89.428 289.07 89.26C288.902 89.092 288.818 88.884 288.818 88.636C288.818 88.388 288.902 88.18 289.07 88.012C289.238 87.844 289.446 87.76 289.694 87.76C289.934 87.76 290.138 87.844 290.306 88.012C290.474 88.18 290.558 88.388 290.558 88.636C290.558 88.884 290.474 89.092 290.306 89.26C290.138 89.428 289.934 89.512 289.694 89.512ZM290.366 90.388V97H288.998V90.388H290.366ZM295.498 90.28C296.018 90.28 296.482 90.388 296.89 90.604C297.306 90.82 297.63 91.14 297.862 91.564C298.094 91.988 298.21 92.5 298.21 93.1V97H296.854V93.304C296.854 92.712 296.706 92.26 296.41 91.948C296.114 91.628 295.71 91.468 295.198 91.468C294.686 91.468 294.278 91.628 293.974 91.948C293.678 92.26 293.53 92.712 293.53 93.304V97H292.162V90.388H293.53V91.144C293.754 90.872 294.038 90.66 294.382 90.508C294.734 90.356 295.106 90.28 295.498 90.28ZM302.619 90.28C303.131 90.28 303.583 90.384 303.975 90.592C304.375 90.792 304.687 91.044 304.911 91.348V90.388H306.291V97.108C306.291 97.716 306.163 98.256 305.907 98.728C305.651 99.208 305.279 99.584 304.791 99.856C304.311 100.128 303.735 100.264 303.063 100.264C302.167 100.264 301.423 100.052 300.831 99.628C300.239 99.212 299.903 98.644 299.823 97.924H301.179C301.283 98.268 301.503 98.544 301.839 98.752C302.183 98.968 302.591 99.076 303.063 99.076C303.615 99.076 304.059 98.908 304.395 98.572C304.739 98.236 304.911 97.748 304.911 97.108V96.004C304.679 96.316 304.363 96.58 303.963 96.796C303.571 97.004 303.123 97.108 302.619 97.108C302.043 97.108 301.515 96.964 301.035 96.676C300.563 96.38 300.187 95.972 299.907 95.452C299.635 94.924 299.499 94.328 299.499 93.664C299.499 93 299.635 92.412 299.907 91.9C300.187 91.388 300.563 90.992 301.035 90.712C301.515 90.424 302.043 90.28 302.619 90.28ZM304.911 93.688C304.911 93.232 304.815 92.836 304.623 92.5C304.439 92.164 304.195 91.908 303.891 91.732C303.587 91.556 303.259 91.468 302.907 91.468C302.555 91.468 302.227 91.556 301.923 91.732C301.619 91.9 301.371 92.152 301.179 92.488C300.995 92.816 300.903 93.208 300.903 93.664C300.903 94.12 300.995 94.52 301.179 94.864C301.371 95.208 301.619 95.472 301.923 95.656C302.235 95.832 302.563 95.92 302.907 95.92C303.259 95.92 303.587 95.832 303.891 95.656C304.195 95.48 304.439 95.224 304.623 94.888C304.815 94.544 304.911 94.144 304.911 93.688ZM16.444 111.664C16.444 111 16.58 110.412 16.852 109.9C17.132 109.388 17.508 108.992 17.98 108.712C18.46 108.424 18.988 108.28 19.564 108.28C20.084 108.28 20.536 108.384 20.92 108.592C21.312 108.792 21.624 109.044 21.856 109.348V108.388H23.236V115H21.856V114.016C21.624 114.328 21.308 114.588 20.908 114.796C20.508 115.004 20.052 115.108 19.54 115.108C18.972 115.108 18.452 114.964 17.98 114.676C17.508 114.38 17.132 113.972 16.852 113.452C16.58 112.924 16.444 112.328 16.444 111.664ZM21.856 111.688C21.856 111.232 21.76 110.836 21.568 110.5C21.384 110.164 21.14 109.908 20.836 109.732C20.532 109.556 20.204 109.468 19.852 109.468C19.5 109.468 19.172 109.556 18.868 109.732C18.564 109.9 18.316 110.152 18.124 110.488C17.94 110.816 17.848 111.208 17.848 111.664C17.848 112.12 17.94 112.52 18.124 112.864C18.316 113.208 18.564 113.472 18.868 113.656C19.18 113.832 19.508 113.92 19.852 113.92C20.204 113.92 20.532 113.832 20.836 113.656C21.14 113.48 21.384 113.224 21.568 112.888C21.76 112.544 21.856 112.144 21.856 111.688ZM26.4008 109.36C26.6328 109.056 26.9488 108.8 27.3488 108.592C27.7488 108.384 28.2008 108.28 28.7048 108.28C29.2808 108.28 29.8048 108.424 30.2768 108.712C30.7568 108.992 31.1328 109.388 31.4048 109.9C31.6768 110.412 31.8128 111 31.8128 111.664C31.8128 112.328 31.6768 112.924 31.4048 113.452C31.1328 113.972 30.7568 114.38 30.2768 114.676C29.8048 114.964 29.2808 115.108 28.7048 115.108C28.2008 115.108 27.7528 115.008 27.3608 114.808C26.9688 114.6 26.6488 114.344 26.4008 114.04V118.144H25.0328V108.388H26.4008V109.36ZM30.4208 111.664C30.4208 111.208 30.3248 110.816 30.1328 110.488C29.9488 110.152 29.7008 109.9 29.3888 109.732C29.0848 109.556 28.7568 109.468 28.4048 109.468C28.0608 109.468 27.7328 109.556 27.4208 109.732C27.1168 109.908 26.8688 110.164 26.6768 110.5C26.4928 110.836 26.4008 111.232 26.4008 111.688C26.4008 112.144 26.4928 112.544 26.6768 112.888C26.8688 113.224 27.1168 113.48 27.4208 113.656C27.7328 113.832 28.0608 113.92 28.4048 113.92C28.7568 113.92 29.0848 113.832 29.3888 113.656C29.7008 113.472 29.9488 113.208 30.1328 112.864C30.3248 112.52 30.4208 112.12 30.4208 111.664ZM34.5336 109.36C34.7656 109.056 35.0816 108.8 35.4816 108.592C35.8816 108.384 36.3336 108.28 36.8376 108.28C37.4136 108.28 37.9376 108.424 38.4096 108.712C38.8896 108.992 39.2656 109.388 39.5376 109.9C39.8096 110.412 39.9456 111 39.9456 111.664C39.9456 112.328 39.8096 112.924 39.5376 113.452C39.2656 113.972 38.8896 114.38 38.4096 114.676C37.9376 114.964 37.4136 115.108 36.8376 115.108C36.3336 115.108 35.8856 115.008 35.4936 114.808C35.1016 114.6 34.7816 114.344 34.5336 114.04V118.144H33.1656V108.388H34.5336V109.36ZM38.5536 111.664C38.5536 111.208 38.4576 110.816 38.2656 110.488C38.0816 110.152 37.8336 109.9 37.5216 109.732C37.2176 109.556 36.8896 109.468 36.5376 109.468C36.1936 109.468 35.8656 109.556 35.5536 109.732C35.2496 109.908 35.0016 110.164 34.8096 110.5C34.6256 110.836 34.5336 111.232 34.5336 111.688C34.5336 112.144 34.6256 112.544 34.8096 112.888C35.0016 113.224 35.2496 113.48 35.5536 113.656C35.8656 113.832 36.1936 113.92 36.5376 113.92C36.8896 113.92 37.2176 113.832 37.5216 113.656C37.8336 113.472 38.0816 113.208 38.2656 112.864C38.4576 112.52 38.5536 112.12 38.5536 111.664ZM43.0144 106.66L42.8584 112.48H41.7184L41.5624 106.66H43.0144ZM42.3304 115.084C42.0824 115.084 41.8744 115 41.7064 114.832C41.5384 114.664 41.4544 114.456 41.4544 114.208C41.4544 113.96 41.5384 113.752 41.7064 113.584C41.8744 113.416 42.0824 113.332 42.3304 113.332C42.5704 113.332 42.7744 113.416 42.9424 113.584C43.1104 113.752 43.1944 113.96 43.1944 114.208C43.1944 114.456 43.1104 114.664 42.9424 114.832C42.7744 115 42.5704 115.084 42.3304 115.084ZM54.1031 109.144C54.1031 109.568 54.0031 109.968 53.8031 110.344C53.6031 110.72 53.2831 111.028 52.8431 111.268C52.4031 111.5 51.8391 111.616 51.1511 111.616H49.6391V115H48.2711V106.66H51.1511C51.7911 106.66 52.3311 106.772 52.7711 106.996C53.2191 107.212 53.5511 107.508 53.7671 107.884C53.9911 108.26 54.1031 108.68 54.1031 109.144ZM51.1511 110.5C51.6711 110.5 52.0591 110.384 52.3151 110.152C52.5711 109.912 52.6991 109.576 52.6991 109.144C52.6991 108.232 52.1831 107.776 51.1511 107.776H49.6391V110.5H51.1511ZM61.4678 111.532C61.4678 111.78 61.4518 112.004 61.4198 112.204H56.3678C56.4078 112.732 56.6038 113.156 56.9558 113.476C57.3078 113.796 57.7398 113.956 58.2518 113.956C58.9878 113.956 59.5078 113.648 59.8118 113.032H61.2878C61.0878 113.64 60.7238 114.14 60.1958 114.532C59.6758 114.916 59.0278 115.108 58.2518 115.108C57.6198 115.108 57.0518 114.968 56.5478 114.688C56.0518 114.4 55.6598 114 55.3718 113.488C55.0918 112.968 54.9518 112.368 54.9518 111.688C54.9518 111.008 55.0878 110.412 55.3598 109.9C55.6398 109.38 56.0278 108.98 56.5238 108.7C57.0278 108.42 57.6038 108.28 58.2518 108.28C58.8758 108.28 59.4318 108.416 59.9198 108.688C60.4078 108.96 60.7878 109.344 61.0598 109.84C61.3318 110.328 61.4678 110.892 61.4678 111.532ZM60.0398 111.1C60.0318 110.596 59.8518 110.192 59.4998 109.888C59.1478 109.584 58.7118 109.432 58.1918 109.432C57.7198 109.432 57.3158 109.584 56.9798 109.888C56.6438 110.184 56.4438 110.588 56.3798 111.1H60.0398ZM64.1821 109.348C64.3821 109.012 64.6461 108.752 64.9741 108.568C65.3101 108.376 65.7061 108.28 66.1621 108.28V109.696H65.8141C65.2781 109.696 64.8701 109.832 64.5901 110.104C64.3181 110.376 64.1821 110.848 64.1821 111.52V115H62.8141V108.388H64.1821V109.348ZM70.1915 109.504H68.9675V115H67.5875V109.504H66.8075V108.388H67.5875V107.92C67.5875 107.16 67.7875 106.608 68.1875 106.264C68.5955 105.912 69.2315 105.736 70.0955 105.736V106.876C69.6795 106.876 69.3875 106.956 69.2195 107.116C69.0515 107.268 68.9675 107.536 68.9675 107.92V108.388H70.1915V109.504ZM77.4639 111.532C77.4639 111.78 77.4479 112.004 77.4159 112.204H72.3639C72.4039 112.732 72.5999 113.156 72.9519 113.476C73.3039 113.796 73.7359 113.956 74.2479 113.956C74.9839 113.956 75.5039 113.648 75.8079 113.032H77.2839C77.0839 113.64 76.7199 114.14 76.1919 114.532C75.6719 114.916 75.0239 115.108 74.2479 115.108C73.6159 115.108 73.0479 114.968 72.5439 114.688C72.0479 114.4 71.6559 114 71.3679 113.488C71.0879 112.968 70.9479 112.368 70.9479 111.688C70.9479 111.008 71.0839 110.412 71.3559 109.9C71.6359 109.38 72.0239 108.98 72.5199 108.7C73.0239 108.42 73.5999 108.28 74.2479 108.28C74.8719 108.28 75.4279 108.416 75.9159 108.688C76.4039 108.96 76.7839 109.344 77.0559 109.84C77.3279 110.328 77.4639 110.892 77.4639 111.532ZM76.0359 111.1C76.0279 110.596 75.8479 110.192 75.4959 109.888C75.1439 109.584 74.7079 109.432 74.1879 109.432C73.7159 109.432 73.3119 109.584 72.9759 109.888C72.6399 110.184 72.4399 110.588 72.3759 111.1H76.0359ZM78.3542 111.688C78.3542 111.008 78.4902 110.412 78.7622 109.9C79.0422 109.38 79.4262 108.98 79.9142 108.7C80.4022 108.42 80.9622 108.28 81.5942 108.28C82.3942 108.28 83.0542 108.472 83.5742 108.856C84.1022 109.232 84.4582 109.772 84.6422 110.476H83.1662C83.0462 110.148 82.8542 109.892 82.5902 109.708C82.3262 109.524 81.9942 109.432 81.5942 109.432C81.0342 109.432 80.5862 109.632 80.2502 110.032C79.9222 110.424 79.7582 110.976 79.7582 111.688C79.7582 112.4 79.9222 112.956 80.2502 113.356C80.5862 113.756 81.0342 113.956 81.5942 113.956C82.3862 113.956 82.9102 113.608 83.1662 112.912H84.6422C84.4502 113.584 84.0902 114.12 83.5622 114.52C83.0342 114.912 82.3782 115.108 81.5942 115.108C80.9622 115.108 80.4022 114.968 79.9142 114.688C79.4262 114.4 79.0422 114 78.7622 113.488C78.4902 112.968 78.3542 112.368 78.3542 111.688ZM87.6015 109.504V113.164C87.6015 113.412 87.6575 113.592 87.7695 113.704C87.8895 113.808 88.0895 113.86 88.3695 113.86H89.2095V115H88.1295C87.5135 115 87.0415 114.856 86.7135 114.568C86.3855 114.28 86.2215 113.812 86.2215 113.164V109.504H85.4415V108.388H86.2215V106.744H87.6015V108.388H89.2095V109.504H87.6015ZM96.3595 109.504H95.1355V115H93.7555V109.504H92.9755V108.388H93.7555V107.92C93.7555 107.16 93.9555 106.608 94.3555 106.264C94.7635 105.912 95.3995 105.736 96.2635 105.736V106.876C95.8475 106.876 95.5555 106.956 95.3875 107.116C95.2195 107.268 95.1355 107.536 95.1355 107.92V108.388H96.3595V109.504ZM100.44 115.108C99.8159 115.108 99.2519 114.968 98.7479 114.688C98.2439 114.4 97.8479 114 97.5599 113.488C97.2719 112.968 97.1279 112.368 97.1279 111.688C97.1279 111.016 97.2759 110.42 97.5719 109.9C97.8679 109.38 98.2719 108.98 98.7839 108.7C99.2959 108.42 99.8679 108.28 100.5 108.28C101.132 108.28 101.704 108.42 102.216 108.7C102.728 108.98 103.132 109.38 103.428 109.9C103.724 110.42 103.872 111.016 103.872 111.688C103.872 112.36 103.72 112.956 103.416 113.476C103.112 113.996 102.696 114.4 102.168 114.688C101.648 114.968 101.072 115.108 100.44 115.108ZM100.44 113.92C100.792 113.92 101.12 113.836 101.424 113.668C101.736 113.5 101.988 113.248 102.18 112.912C102.372 112.576 102.468 112.168 102.468 111.688C102.468 111.208 102.376 110.804 102.192 110.476C102.008 110.14 101.764 109.888 101.46 109.72C101.156 109.552 100.828 109.468 100.476 109.468C100.124 109.468 99.7959 109.552 99.4919 109.72C99.1959 109.888 98.9599 110.14 98.7839 110.476C98.6079 110.804 98.5199 111.208 98.5199 111.688C98.5199 112.4 98.6999 112.952 99.0599 113.344C99.4279 113.728 99.8879 113.92 100.44 113.92ZM106.592 109.348C106.792 109.012 107.056 108.752 107.384 108.568C107.72 108.376 108.116 108.28 108.572 108.28V109.696H108.224C107.688 109.696 107.28 109.832 107 110.104C106.728 110.376 106.592 110.848 106.592 111.52V115H105.224V108.388H106.592V109.348ZM114.543 109.504V113.164C114.543 113.412 114.599 113.592 114.711 113.704C114.831 113.808 115.031 113.86 115.311 113.86H116.151V115H115.071C114.455 115 113.983 114.856 113.655 114.568C113.327 114.28 113.163 113.812 113.163 113.164V109.504H112.383V108.388H113.163V106.744H114.543V108.388H116.151V109.504H114.543ZM118.78 109.348C118.98 109.012 119.244 108.752 119.572 108.568C119.908 108.376 120.304 108.28 120.76 108.28V109.696H120.412C119.876 109.696 119.468 109.832 119.188 110.104C118.916 110.376 118.78 110.848 118.78 111.52V115H117.412V108.388H118.78V109.348ZM121.561 111.664C121.561 111 121.697 110.412 121.969 109.9C122.249 109.388 122.625 108.992 123.097 108.712C123.577 108.424 124.105 108.28 124.681 108.28C125.201 108.28 125.653 108.384 126.037 108.592C126.429 108.792 126.741 109.044 126.973 109.348V108.388H128.353V115H126.973V114.016C126.741 114.328 126.425 114.588 126.025 114.796C125.625 115.004 125.169 115.108 124.657 115.108C124.089 115.108 123.569 114.964 123.097 114.676C122.625 114.38 122.249 113.972 121.969 113.452C121.697 112.924 121.561 112.328 121.561 111.664ZM126.973 111.688C126.973 111.232 126.877 110.836 126.685 110.5C126.501 110.164 126.257 109.908 125.953 109.732C125.649 109.556 125.321 109.468 124.969 109.468C124.617 109.468 124.289 109.556 123.985 109.732C123.681 109.9 123.433 110.152 123.241 110.488C123.057 110.816 122.965 111.208 122.965 111.664C122.965 112.12 123.057 112.52 123.241 112.864C123.433 113.208 123.681 113.472 123.985 113.656C124.297 113.832 124.625 113.92 124.969 113.92C125.321 113.92 125.649 113.832 125.953 113.656C126.257 113.48 126.501 113.224 126.685 112.888C126.877 112.544 126.973 112.144 126.973 111.688ZM133.486 108.28C134.006 108.28 134.47 108.388 134.878 108.604C135.294 108.82 135.618 109.14 135.85 109.564C136.082 109.988 136.198 110.5 136.198 111.1V115H134.842V111.304C134.842 110.712 134.694 110.26 134.398 109.948C134.102 109.628 133.698 109.468 133.186 109.468C132.674 109.468 132.266 109.628 131.962 109.948C131.666 110.26 131.518 110.712 131.518 111.304V115H130.15V108.388H131.518V109.144C131.742 108.872 132.026 108.66 132.37 108.508C132.722 108.356 133.094 108.28 133.486 108.28ZM140.343 115.108C139.823 115.108 139.355 115.016 138.939 114.832C138.531 114.64 138.207 114.384 137.967 114.064C137.727 113.736 137.599 113.372 137.583 112.972H138.999C139.023 113.252 139.155 113.488 139.395 113.68C139.643 113.864 139.951 113.956 140.319 113.956C140.703 113.956 140.999 113.884 141.207 113.74C141.423 113.588 141.531 113.396 141.531 113.164C141.531 112.916 141.411 112.732 141.171 112.612C140.939 112.492 140.567 112.36 140.055 112.216C139.559 112.08 139.155 111.948 138.843 111.82C138.531 111.692 138.259 111.496 138.027 111.232C137.803 110.968 137.691 110.62 137.691 110.188C137.691 109.836 137.795 109.516 138.003 109.228C138.211 108.932 138.507 108.7 138.891 108.532C139.283 108.364 139.731 108.28 140.235 108.28C140.987 108.28 141.591 108.472 142.047 108.856C142.511 109.232 142.759 109.748 142.791 110.404H141.423C141.399 110.108 141.279 109.872 141.063 109.696C140.847 109.52 140.555 109.432 140.187 109.432C139.827 109.432 139.551 109.5 139.359 109.636C139.167 109.772 139.071 109.952 139.071 110.176C139.071 110.352 139.135 110.5 139.263 110.62C139.391 110.74 139.547 110.836 139.731 110.908C139.915 110.972 140.187 111.056 140.547 111.16C141.027 111.288 141.419 111.42 141.723 111.556C142.035 111.684 142.303 111.876 142.527 112.132C142.751 112.388 142.867 112.728 142.875 113.152C142.875 113.528 142.771 113.864 142.563 114.16C142.355 114.456 142.059 114.688 141.675 114.856C141.299 115.024 140.855 115.108 140.343 115.108ZM143.897 111.688C143.897 111.008 144.033 110.412 144.305 109.9C144.585 109.38 144.969 108.98 145.457 108.7C145.945 108.42 146.505 108.28 147.137 108.28C147.937 108.28 148.597 108.472 149.117 108.856C149.645 109.232 150.001 109.772 150.185 110.476H148.709C148.589 110.148 148.397 109.892 148.133 109.708C147.869 109.524 147.537 109.432 147.137 109.432C146.577 109.432 146.129 109.632 145.793 110.032C145.465 110.424 145.301 110.976 145.301 111.688C145.301 112.4 145.465 112.956 145.793 113.356C146.129 113.756 146.577 113.956 147.137 113.956C147.929 113.956 148.453 113.608 148.709 112.912H150.185C149.993 113.584 149.633 114.12 149.105 114.52C148.577 114.912 147.921 115.108 147.137 115.108C146.505 115.108 145.945 114.968 145.457 114.688C144.969 114.4 144.585 114 144.305 113.488C144.033 112.968 143.897 112.368 143.897 111.688ZM152.916 109.348C153.116 109.012 153.38 108.752 153.708 108.568C154.044 108.376 154.44 108.28 154.896 108.28V109.696H154.548C154.012 109.696 153.604 109.832 153.324 110.104C153.052 110.376 152.916 110.848 152.916 111.52V115H151.548V108.388H152.916V109.348ZM156.85 107.512C156.602 107.512 156.394 107.428 156.226 107.26C156.058 107.092 155.974 106.884 155.974 106.636C155.974 106.388 156.058 106.18 156.226 106.012C156.394 105.844 156.602 105.76 156.85 105.76C157.09 105.76 157.294 105.844 157.462 106.012C157.63 106.18 157.714 106.388 157.714 106.636C157.714 106.884 157.63 107.092 157.462 107.26C157.294 107.428 157.09 107.512 156.85 107.512ZM157.522 108.388V115H156.154V108.388H157.522ZM160.686 109.372C160.918 109.052 161.234 108.792 161.634 108.592C162.042 108.384 162.494 108.28 162.99 108.28C163.574 108.28 164.102 108.42 164.574 108.7C165.046 108.98 165.418 109.38 165.69 109.9C165.962 110.412 166.098 111 166.098 111.664C166.098 112.328 165.962 112.924 165.69 113.452C165.418 113.972 165.042 114.38 164.562 114.676C164.09 114.964 163.566 115.108 162.99 115.108C162.478 115.108 162.022 115.008 161.622 114.808C161.23 114.608 160.918 114.352 160.686 114.04V115H159.318V106.12H160.686V109.372ZM164.706 111.664C164.706 111.208 164.61 110.816 164.418 110.488C164.234 110.152 163.986 109.9 163.674 109.732C163.37 109.556 163.042 109.468 162.69 109.468C162.346 109.468 162.018 109.556 161.706 109.732C161.402 109.908 161.154 110.164 160.962 110.5C160.778 110.836 160.686 111.232 160.686 111.688C160.686 112.144 160.778 112.544 160.962 112.888C161.154 113.224 161.402 113.48 161.706 113.656C162.018 113.832 162.346 113.92 162.69 113.92C163.042 113.92 163.37 113.832 163.674 113.656C163.986 113.472 164.234 113.208 164.418 112.864C164.61 112.52 164.706 112.12 164.706 111.664ZM168.147 107.512C167.899 107.512 167.691 107.428 167.523 107.26C167.355 107.092 167.271 106.884 167.271 106.636C167.271 106.388 167.355 106.18 167.523 106.012C167.691 105.844 167.899 105.76 168.147 105.76C168.387 105.76 168.591 105.844 168.759 106.012C168.927 106.18 169.011 106.388 169.011 106.636C169.011 106.884 168.927 107.092 168.759 107.26C168.591 107.428 168.387 107.512 168.147 107.512ZM168.819 108.388V115H167.451V108.388H168.819ZM173.951 108.28C174.471 108.28 174.935 108.388 175.343 108.604C175.759 108.82 176.083 109.14 176.315 109.564C176.547 109.988 176.663 110.5 176.663 111.1V115H175.307V111.304C175.307 110.712 175.159 110.26 174.863 109.948C174.567 109.628 174.163 109.468 173.651 109.468C173.139 109.468 172.731 109.628 172.427 109.948C172.131 110.26 171.983 110.712 171.983 111.304V115H170.615V108.388H171.983V109.144C172.207 108.872 172.491 108.66 172.835 108.508C173.187 108.356 173.559 108.28 173.951 108.28ZM181.072 108.28C181.584 108.28 182.036 108.384 182.428 108.592C182.828 108.792 183.14 109.044 183.364 109.348V108.388H184.744V115.108C184.744 115.716 184.616 116.256 184.36 116.728C184.104 117.208 183.732 117.584 183.244 117.856C182.764 118.128 182.188 118.264 181.516 118.264C180.62 118.264 179.876 118.052 179.284 117.628C178.692 117.212 178.356 116.644 178.276 115.924H179.632C179.736 116.268 179.956 116.544 180.292 116.752C180.636 116.968 181.044 117.076 181.516 117.076C182.068 117.076 182.512 116.908 182.848 116.572C183.192 116.236 183.364 115.748 183.364 115.108V114.004C183.132 114.316 182.816 114.58 182.416 114.796C182.024 115.004 181.576 115.108 181.072 115.108C180.496 115.108 179.968 114.964 179.488 114.676C179.016 114.38 178.64 113.972 178.36 113.452C178.088 112.924 177.952 112.328 177.952 111.664C177.952 111 178.088 110.412 178.36 109.9C178.64 109.388 179.016 108.992 179.488 108.712C179.968 108.424 180.496 108.28 181.072 108.28ZM183.364 111.688C183.364 111.232 183.268 110.836 183.076 110.5C182.892 110.164 182.648 109.908 182.344 109.732C182.04 109.556 181.712 109.468 181.36 109.468C181.008 109.468 180.68 109.556 180.376 109.732C180.072 109.9 179.824 110.152 179.632 110.488C179.448 110.816 179.356 111.208 179.356 111.664C179.356 112.12 179.448 112.52 179.632 112.864C179.824 113.208 180.072 113.472 180.376 113.656C180.688 113.832 181.016 113.92 181.36 113.92C181.712 113.92 182.04 113.832 182.344 113.656C182.648 113.48 182.892 113.224 183.076 112.888C183.268 112.544 183.364 112.144 183.364 111.688ZM197.662 108.28C198.182 108.28 198.646 108.388 199.054 108.604C199.47 108.82 199.794 109.14 200.026 109.564C200.266 109.988 200.386 110.5 200.386 111.1V115H199.03V111.304C199.03 110.712 198.882 110.26 198.586 109.948C198.29 109.628 197.886 109.468 197.374 109.468C196.862 109.468 196.454 109.628 196.15 109.948C195.854 110.26 195.706 110.712 195.706 111.304V115H194.35V111.304C194.35 110.712 194.202 110.26 193.906 109.948C193.61 109.628 193.206 109.468 192.694 109.468C192.182 109.468 191.774 109.628 191.47 109.948C191.174 110.26 191.026 110.712 191.026 111.304V115H189.658V108.388H191.026V109.144C191.25 108.872 191.534 108.66 191.878 108.508C192.222 108.356 192.59 108.28 192.982 108.28C193.51 108.28 193.982 108.392 194.398 108.616C194.814 108.84 195.134 109.164 195.358 109.588C195.558 109.188 195.87 108.872 196.294 108.64C196.718 108.4 197.174 108.28 197.662 108.28ZM208.079 108.388L204.023 118.108H202.607L203.951 114.892L201.347 108.388H202.871L204.731 113.428L206.663 108.388H208.079ZM220.232 108.28C220.752 108.28 221.216 108.388 221.624 108.604C222.04 108.82 222.364 109.14 222.596 109.564C222.836 109.988 222.956 110.5 222.956 111.1V115H221.6V111.304C221.6 110.712 221.452 110.26 221.156 109.948C220.86 109.628 220.456 109.468 219.944 109.468C219.432 109.468 219.024 109.628 218.72 109.948C218.424 110.26 218.276 110.712 218.276 111.304V115H216.92V111.304C216.92 110.712 216.772 110.26 216.476 109.948C216.18 109.628 215.776 109.468 215.264 109.468C214.752 109.468 214.344 109.628 214.04 109.948C213.744 110.26 213.596 110.712 213.596 111.304V115H212.228V108.388H213.596V109.144C213.82 108.872 214.104 108.66 214.448 108.508C214.792 108.356 215.16 108.28 215.552 108.28C216.08 108.28 216.552 108.392 216.968 108.616C217.384 108.84 217.704 109.164 217.928 109.588C218.128 109.188 218.44 108.872 218.864 108.64C219.288 108.4 219.744 108.28 220.232 108.28ZM230.757 111.532C230.757 111.78 230.741 112.004 230.709 112.204H225.657C225.697 112.732 225.893 113.156 226.245 113.476C226.597 113.796 227.029 113.956 227.541 113.956C228.277 113.956 228.797 113.648 229.101 113.032H230.577C230.377 113.64 230.013 114.14 229.485 114.532C228.965 114.916 228.317 115.108 227.541 115.108C226.909 115.108 226.341 114.968 225.837 114.688C225.341 114.4 224.949 114 224.661 113.488C224.381 112.968 224.241 112.368 224.241 111.688C224.241 111.008 224.377 110.412 224.649 109.9C224.929 109.38 225.317 108.98 225.813 108.7C226.317 108.42 226.893 108.28 227.541 108.28C228.165 108.28 228.721 108.416 229.209 108.688C229.697 108.96 230.077 109.344 230.349 109.84C230.621 110.328 230.757 110.892 230.757 111.532ZM229.329 111.1C229.321 110.596 229.141 110.192 228.789 109.888C228.437 109.584 228.001 109.432 227.481 109.432C227.009 109.432 226.605 109.584 226.269 109.888C225.933 110.184 225.733 110.588 225.669 111.1H229.329ZM238.163 111.532C238.163 111.78 238.147 112.004 238.115 112.204H233.063C233.103 112.732 233.299 113.156 233.651 113.476C234.003 113.796 234.435 113.956 234.947 113.956C235.683 113.956 236.203 113.648 236.507 113.032H237.983C237.783 113.64 237.419 114.14 236.891 114.532C236.371 114.916 235.723 115.108 234.947 115.108C234.315 115.108 233.747 114.968 233.243 114.688C232.747 114.4 232.355 114 232.067 113.488C231.787 112.968 231.647 112.368 231.647 111.688C231.647 111.008 231.783 110.412 232.055 109.9C232.335 109.38 232.723 108.98 233.219 108.7C233.723 108.42 234.299 108.28 234.947 108.28C235.571 108.28 236.127 108.416 236.615 108.688C237.103 108.96 237.483 109.344 237.755 109.84C238.027 110.328 238.163 110.892 238.163 111.532ZM236.735 111.1C236.727 110.596 236.547 110.192 236.195 109.888C235.843 109.584 235.407 109.432 234.887 109.432C234.415 109.432 234.011 109.584 233.675 109.888C233.339 110.184 233.139 110.588 233.075 111.1H236.735ZM241.105 109.504V113.164C241.105 113.412 241.161 113.592 241.273 113.704C241.393 113.808 241.593 113.86 241.873 113.86H242.713V115H241.633C241.017 115 240.545 114.856 240.217 114.568C239.889 114.28 239.725 113.812 239.725 113.164V109.504H238.945V108.388H239.725V106.744H241.105V108.388H242.713V109.504H241.105ZM244.67 107.512C244.422 107.512 244.214 107.428 244.046 107.26C243.878 107.092 243.794 106.884 243.794 106.636C243.794 106.388 243.878 106.18 244.046 106.012C244.214 105.844 244.422 105.76 244.67 105.76C244.91 105.76 245.114 105.844 245.282 106.012C245.45 106.18 245.534 106.388 245.534 106.636C245.534 106.884 245.45 107.092 245.282 107.26C245.114 107.428 244.91 107.512 244.67 107.512ZM245.342 108.388V115H243.974V108.388H245.342ZM250.474 108.28C250.994 108.28 251.458 108.388 251.866 108.604C252.282 108.82 252.606 109.14 252.838 109.564C253.07 109.988 253.186 110.5 253.186 111.1V115H251.83V111.304C251.83 110.712 251.682 110.26 251.386 109.948C251.09 109.628 250.686 109.468 250.174 109.468C249.662 109.468 249.254 109.628 248.95 109.948C248.654 110.26 248.506 110.712 248.506 111.304V115H247.138V108.388H248.506V109.144C248.73 108.872 249.014 108.66 249.358 108.508C249.71 108.356 250.082 108.28 250.474 108.28ZM257.595 108.28C258.107 108.28 258.559 108.384 258.951 108.592C259.351 108.792 259.663 109.044 259.887 109.348V108.388H261.267V115.108C261.267 115.716 261.139 116.256 260.883 116.728C260.627 117.208 260.255 117.584 259.767 117.856C259.287 118.128 258.711 118.264 258.039 118.264C257.143 118.264 256.399 118.052 255.807 117.628C255.215 117.212 254.879 116.644 254.799 115.924H256.155C256.259 116.268 256.479 116.544 256.815 116.752C257.159 116.968 257.567 117.076 258.039 117.076C258.591 117.076 259.035 116.908 259.371 116.572C259.715 116.236 259.887 115.748 259.887 115.108V114.004C259.655 114.316 259.339 114.58 258.939 114.796C258.547 115.004 258.099 115.108 257.595 115.108C257.019 115.108 256.491 114.964 256.011 114.676C255.539 114.38 255.163 113.972 254.883 113.452C254.611 112.924 254.475 112.328 254.475 111.664C254.475 111 254.611 110.412 254.883 109.9C255.163 109.388 255.539 108.992 256.011 108.712C256.491 108.424 257.019 108.28 257.595 108.28ZM259.887 111.688C259.887 111.232 259.791 110.836 259.599 110.5C259.415 110.164 259.171 109.908 258.867 109.732C258.563 109.556 258.235 109.468 257.883 109.468C257.531 109.468 257.203 109.556 256.899 109.732C256.595 109.9 256.347 110.152 256.155 110.488C255.971 110.816 255.879 111.208 255.879 111.664C255.879 112.12 255.971 112.52 256.155 112.864C256.347 113.208 256.595 113.472 256.899 113.656C257.211 113.832 257.539 113.92 257.883 113.92C258.235 113.92 258.563 113.832 258.867 113.656C259.171 113.48 259.415 113.224 259.599 112.888C259.791 112.544 259.887 112.144 259.887 111.688ZM265.464 115.108C264.944 115.108 264.476 115.016 264.06 114.832C263.652 114.64 263.328 114.384 263.088 114.064C262.848 113.736 262.72 113.372 262.704 112.972H264.12C264.144 113.252 264.276 113.488 264.516 113.68C264.764 113.864 265.072 113.956 265.44 113.956C265.824 113.956 266.12 113.884 266.328 113.74C266.544 113.588 266.652 113.396 266.652 113.164C266.652 112.916 266.532 112.732 266.292 112.612C266.06 112.492 265.688 112.36 265.176 112.216C264.68 112.08 264.276 111.948 263.964 111.82C263.652 111.692 263.38 111.496 263.148 111.232C262.924 110.968 262.812 110.62 262.812 110.188C262.812 109.836 262.916 109.516 263.124 109.228C263.332 108.932 263.628 108.7 264.012 108.532C264.404 108.364 264.852 108.28 265.356 108.28C266.108 108.28 266.712 108.472 267.168 108.856C267.632 109.232 267.88 109.748 267.912 110.404H266.544C266.52 110.108 266.4 109.872 266.184 109.696C265.968 109.52 265.676 109.432 265.308 109.432C264.948 109.432 264.672 109.5 264.48 109.636C264.288 109.772 264.192 109.952 264.192 110.176C264.192 110.352 264.256 110.5 264.384 110.62C264.512 110.74 264.668 110.836 264.852 110.908C265.036 110.972 265.308 111.056 265.668 111.16C266.148 111.288 266.54 111.42 266.844 111.556C267.156 111.684 267.424 111.876 267.648 112.132C267.872 112.388 267.988 112.728 267.996 113.152C267.996 113.528 267.892 113.864 267.684 114.16C267.476 114.456 267.18 114.688 266.796 114.856C266.42 115.024 265.976 115.108 265.464 115.108ZM270.026 115.084C269.778 115.084 269.57 115 269.402 114.832C269.234 114.664 269.15 114.456 269.15 114.208C269.15 113.96 269.234 113.752 269.402 113.584C269.57 113.416 269.778 113.332 270.026 113.332C270.266 113.332 270.47 113.416 270.638 113.584C270.806 113.752 270.89 113.96 270.89 114.208C270.89 114.456 270.806 114.664 270.638 114.832C270.47 115 270.266 115.084 270.026 115.084Z" fill="black" fill-opacity="0.7"/>
<defs>
<clipPath id="paint0_diamond_53_68_clip_path"><path d="M20 0V1H325V0V-1H20V0ZM345 20H344V116H345H346V20H345ZM325 136V135H20V136V137H325V136ZM0 116H1V20H0H-1V116H0ZM20 136V135C9.50659 135 1 126.493 1 116H0H-1C-1 127.598 8.40202 137 20 137V136ZM345 116H344C344 126.493 335.493 135 325 135V136V137C336.598 137 346 127.598 346 116H345ZM325 0V1C335.493 1 344 9.50659 344 20H345H346C346 8.40202 336.598 -1 325 -1V0ZM20 0V-1C8.40202 -1 -1 8.40202 -1 20H0H1C1 9.50659 9.50659 1 20 1V0Z" mask="url(#path-1-inside-1_53_68)"/></clipPath><linearGradient id="paint0_diamond_53_68" x1="0" y1="0" x2="500" y2="500" gradientUnits="userSpaceOnUse">
<stop offset="0.0272635" stop-color="#0030B7"/>
<stop offset="0.296742" stop-color="#D3CFCF"/>
<stop offset="0.769276" stop-color="#5961E2"/>
</linearGradient>
</defs>
</svg>
