<svg width="139" height="37" viewBox="0 0 139 37" fill="none" xmlns="http://www.w3.org/2000/svg">
<mask id="path-1-inside-1_45_5056" fill="white">
<path d="M0 15C0 6.71573 6.71573 0 15 0H137C145.284 0 152 6.71573 152 15V22C152 30.2843 145.284 37 137 37H15C6.71573 37 0 30.2843 0 22V15Z"/>
</mask>
<g clip-path="url(#paint0_diamond_45_5056_clip_path)" data-figma-skip-parse="true"><g transform="matrix(0.25 0.0325 -0.00502136 0.0604138 76 18.5)"><rect x="0" y="0" width="311.121" height="483.243" fill="url(#paint0_diamond_45_5056)" opacity="1" shape-rendering="crispEdges"/><rect x="0" y="0" width="311.121" height="483.243" transform="scale(1 -1)" fill="url(#paint0_diamond_45_5056)" opacity="1" shape-rendering="crispEdges"/><rect x="0" y="0" width="311.121" height="483.243" transform="scale(-1 1)" fill="url(#paint0_diamond_45_5056)" opacity="1" shape-rendering="crispEdges"/><rect x="0" y="0" width="311.121" height="483.243" transform="scale(-1)" fill="url(#paint0_diamond_45_5056)" opacity="1" shape-rendering="crispEdges"/></g></g><path d="M0 15C0 6.71573 6.71573 0 15 0H137C145.284 0 152 6.71573 152 15V22C152 30.2843 145.284 37 137 37H15C6.71573 37 0 30.2843 0 22V15Z" data-figma-gradient-fill="{&#34;type&#34;:&#34;GRADIENT_DIAMOND&#34;,&#34;stops&#34;:[{&#34;color&#34;:{&#34;r&#34;:0.32056674361228943,&#34;g&#34;:0.51190871000289917,&#34;b&#34;:0.96634614467620850,&#34;a&#34;:1.0},&#34;position&#34;:0.0},{&#34;color&#34;:{&#34;r&#34;:0.65384614467620850,&#34;g&#34;:0.65384614467620850,&#34;b&#34;:1.0,&#34;a&#34;:1.0},&#34;position&#34;:1.0}],&#34;stopsVar&#34;:[{&#34;color&#34;:{&#34;r&#34;:0.32056674361228943,&#34;g&#34;:0.51190871000289917,&#34;b&#34;:0.96634614467620850,&#34;a&#34;:1.0},&#34;position&#34;:0.0},{&#34;color&#34;:{&#34;r&#34;:0.65384614467620850,&#34;g&#34;:0.65384614467620850,&#34;b&#34;:1.0,&#34;a&#34;:1.0},&#34;position&#34;:1.0}],&#34;transform&#34;:{&#34;m00&#34;:500.00003051757812,&#34;m01&#34;:-10.042726516723633,&#34;m02&#34;:-168.97865295410156,&#34;m10&#34;:65.000007629394531,&#34;m11&#34;:120.82760620117188,&#34;m12&#34;:-74.413810729980469},&#34;opacity&#34;:1.0,&#34;blendMode&#34;:&#34;NORMAL&#34;,&#34;visible&#34;:true}"/>
<g clip-path="url(#paint1_diamond_45_5056_clip_path)" data-figma-skip-parse="true" mask="url(#path-1-inside-1_45_5056)"><g transform="matrix(0.129127 0.0403604 -0.165805 0.0314321 -11.8222 -6.57778)"><rect x="0" y="0" width="1169.41" height="551.784" fill="url(#paint1_diamond_45_5056)" opacity="1" shape-rendering="crispEdges"/><rect x="0" y="0" width="1169.41" height="551.784" transform="scale(1 -1)" fill="url(#paint1_diamond_45_5056)" opacity="1" shape-rendering="crispEdges"/><rect x="0" y="0" width="1169.41" height="551.784" transform="scale(-1 1)" fill="url(#paint1_diamond_45_5056)" opacity="1" shape-rendering="crispEdges"/><rect x="0" y="0" width="1169.41" height="551.784" transform="scale(-1)" fill="url(#paint1_diamond_45_5056)" opacity="1" shape-rendering="crispEdges"/></g></g><path d="M15 0V1H137V0V-1H15V0ZM152 15H151V22H152H153V15H152ZM137 37V36H15V37V38H137V37ZM0 22H1V15H0H-1V22H0ZM15 37V36C7.26801 36 1 29.732 1 22H0H-1C-1 30.8366 6.16344 38 15 38V37ZM152 22H151C151 29.732 144.732 36 137 36V37V38C145.837 38 153 30.8366 153 22H152ZM137 0V1C144.732 1 151 7.26801 151 15H152H153C153 6.16344 145.837 -1 137 -1V0ZM15 0V-1C6.16344 -1 -1 6.16344 -1 15H0H1C1 7.26801 7.26801 1 15 1V0Z" data-figma-gradient-fill="{&#34;type&#34;:&#34;GRADIENT_DIAMOND&#34;,&#34;stops&#34;:[{&#34;color&#34;:{&#34;r&#34;:0.0,&#34;g&#34;:0.18740472197532654,&#34;b&#34;:0.71730768680572510,&#34;a&#34;:1.0},&#34;position&#34;:0.027263522148132324},{&#34;color&#34;:{&#34;r&#34;:0.82692307233810425,&#34;g&#34;:0.81102073192596436,&#34;b&#34;:0.81102073192596436,&#34;a&#34;:1.0},&#34;position&#34;:0.29674249887466431},{&#34;color&#34;:{&#34;r&#34;:0.34901961684226990,&#34;g&#34;:0.38039216399192810,&#34;b&#34;:0.88627451658248901,&#34;a&#34;:1.0},&#34;position&#34;:0.7692759633064270}],&#34;stopsVar&#34;:[{&#34;color&#34;:{&#34;r&#34;:0.0,&#34;g&#34;:0.18740472197532654,&#34;b&#34;:0.71730768680572510,&#34;a&#34;:1.0},&#34;position&#34;:0.027263522148132324},{&#34;color&#34;:{&#34;r&#34;:0.82692307233810425,&#34;g&#34;:0.81102073192596436,&#34;b&#34;:0.81102073192596436,&#34;a&#34;:1.0},&#34;position&#34;:0.29674249887466431},{&#34;color&#34;:{&#34;r&#34;:0.34901961684226990,&#34;g&#34;:0.38039216399192810,&#34;b&#34;:0.88627451658248901,&#34;a&#34;:1.0},&#34;position&#34;:0.7692759633064270}],&#34;transform&#34;:{&#34;m00&#34;:258.25314331054688,&#34;m01&#34;:-331.60968017578125,&#34;m02&#34;:24.856044769287109,&#34;m10&#34;:80.720779418945312,&#34;m11&#34;:62.864253997802734,&#34;m12&#34;:-78.370292663574219},&#34;opacity&#34;:1.0,&#34;blendMode&#34;:&#34;NORMAL&#34;,&#34;visible&#34;:true}" mask="url(#path-1-inside-1_45_5056)"/>
<path d="M25.0256 12.7V11.04H28.7856V25.5H26.9456V12.7H25.0256ZM31.9119 18.12C31.9119 15.8267 32.2852 14.04 33.0319 12.76C33.7785 11.4667 35.0852 10.82 36.9519 10.82C38.8052 10.82 40.1052 11.4667 40.8519 12.76C41.5985 14.04 41.9719 15.8267 41.9719 18.12C41.9719 20.4533 41.5985 22.2667 40.8519 23.56C40.1052 24.8533 38.8052 25.5 36.9519 25.5C35.0852 25.5 33.7785 24.8533 33.0319 23.56C32.2852 22.2667 31.9119 20.4533 31.9119 18.12ZM40.1719 18.12C40.1719 16.96 40.0919 15.98 39.9319 15.18C39.7852 14.3667 39.4719 13.7133 38.9919 13.22C38.5252 12.7267 37.8452 12.48 36.9519 12.48C36.0452 12.48 35.3519 12.7267 34.8719 13.22C34.4052 13.7133 34.0919 14.3667 33.9319 15.18C33.7852 15.98 33.7119 16.96 33.7119 18.12C33.7119 19.32 33.7852 20.3267 33.9319 21.14C34.0919 21.9533 34.4052 22.6067 34.8719 23.1C35.3519 23.5933 36.0452 23.84 36.9519 23.84C37.8452 23.84 38.5252 23.5933 38.9919 23.1C39.4719 22.6067 39.7852 21.9533 39.9319 21.14C40.0919 20.3267 40.1719 19.32 40.1719 18.12ZM44.4705 18.12C44.4705 15.8267 44.8438 14.04 45.5905 12.76C46.3371 11.4667 47.6438 10.82 49.5105 10.82C51.3638 10.82 52.6638 11.4667 53.4105 12.76C54.1571 14.04 54.5305 15.8267 54.5305 18.12C54.5305 20.4533 54.1571 22.2667 53.4105 23.56C52.6638 24.8533 51.3638 25.5 49.5105 25.5C47.6438 25.5 46.3371 24.8533 45.5905 23.56C44.8438 22.2667 44.4705 20.4533 44.4705 18.12ZM52.7305 18.12C52.7305 16.96 52.6505 15.98 52.4905 15.18C52.3438 14.3667 52.0305 13.7133 51.5505 13.22C51.0838 12.7267 50.4038 12.48 49.5105 12.48C48.6038 12.48 47.9105 12.7267 47.4305 13.22C46.9638 13.7133 46.6505 14.3667 46.4905 15.18C46.3438 15.98 46.2705 16.96 46.2705 18.12C46.2705 19.32 46.3438 20.3267 46.4905 21.14C46.6505 21.9533 46.9638 22.6067 47.4305 23.1C47.9105 23.5933 48.6038 23.84 49.5105 23.84C50.4038 23.84 51.0838 23.5933 51.5505 23.1C52.0305 22.6067 52.3438 21.9533 52.4905 21.14C52.6505 20.3267 52.7305 19.32 52.7305 18.12ZM63.4491 25.5L59.1491 20.66V25.5H57.3291V10.7H59.1491V19.4L63.3691 14.54H65.9091L60.7491 20L65.9291 25.5H63.4491ZM78.022 18.96H73.762V23.28H72.062V18.96H67.822V17.42H72.062V13.08H73.762V17.42H78.022V18.96Z" fill="white"/>
<path d="M91.3397 22.5L89.3477 19.08H88.0277V22.5H86.9357V14.136H89.6357C90.2677 14.136 90.7997 14.244 91.2317 14.46C91.6717 14.676 91.9997 14.968 92.2157 15.336C92.4317 15.704 92.5397 16.124 92.5397 16.596C92.5397 17.172 92.3717 17.68 92.0357 18.12C91.7077 18.56 91.2117 18.852 90.5477 18.996L92.6477 22.5H91.3397ZM88.0277 18.204H89.6357C90.2277 18.204 90.6717 18.06 90.9677 17.772C91.2637 17.476 91.4117 17.084 91.4117 16.596C91.4117 16.1 91.2637 15.716 90.9677 15.444C90.6797 15.172 90.2357 15.036 89.6357 15.036H88.0277V18.204ZM100.237 18.96C100.237 19.168 100.225 19.388 100.201 19.62H94.9445C94.9845 20.268 95.2045 20.776 95.6045 21.144C96.0125 21.504 96.5045 21.684 97.0805 21.684C97.5525 21.684 97.9445 21.576 98.2565 21.36C98.5765 21.136 98.8005 20.84 98.9285 20.472H100.105C99.9285 21.104 99.5765 21.62 99.0485 22.02C98.5205 22.412 97.8645 22.608 97.0805 22.608C96.4565 22.608 95.8965 22.468 95.4005 22.188C94.9125 21.908 94.5285 21.512 94.2485 21C93.9685 20.48 93.8285 19.88 93.8285 19.2C93.8285 18.52 93.9645 17.924 94.2365 17.412C94.5085 16.9 94.8885 16.508 95.3765 16.236C95.8725 15.956 96.4405 15.816 97.0805 15.816C97.7045 15.816 98.2565 15.952 98.7365 16.224C99.2165 16.496 99.5845 16.872 99.8405 17.352C100.105 17.824 100.237 18.36 100.237 18.96ZM99.1085 18.732C99.1085 18.316 99.0165 17.96 98.8325 17.664C98.6485 17.36 98.3965 17.132 98.0765 16.98C97.7645 16.82 97.4165 16.74 97.0325 16.74C96.4805 16.74 96.0085 16.916 95.6165 17.268C95.2325 17.62 95.0125 18.108 94.9565 18.732H99.1085ZM104.126 21.492L106.166 15.924H107.33L104.75 22.5H103.478L100.898 15.924H102.074L104.126 21.492ZM108.968 14.856C108.76 14.856 108.584 14.784 108.44 14.64C108.296 14.496 108.224 14.32 108.224 14.112C108.224 13.904 108.296 13.728 108.44 13.584C108.584 13.44 108.76 13.368 108.968 13.368C109.168 13.368 109.336 13.44 109.472 13.584C109.616 13.728 109.688 13.904 109.688 14.112C109.688 14.32 109.616 14.496 109.472 14.64C109.336 14.784 109.168 14.856 108.968 14.856ZM109.496 15.924V22.5H108.404V15.924H109.496ZM117.358 18.96C117.358 19.168 117.346 19.388 117.322 19.62H112.066C112.106 20.268 112.326 20.776 112.726 21.144C113.134 21.504 113.626 21.684 114.202 21.684C114.674 21.684 115.066 21.576 115.378 21.36C115.698 21.136 115.922 20.84 116.05 20.472H117.226C117.05 21.104 116.698 21.62 116.17 22.02C115.642 22.412 114.986 22.608 114.202 22.608C113.578 22.608 113.018 22.468 112.522 22.188C112.034 21.908 111.65 21.512 111.37 21C111.09 20.48 110.95 19.88 110.95 19.2C110.95 18.52 111.086 17.924 111.358 17.412C111.63 16.9 112.01 16.508 112.498 16.236C112.994 15.956 113.562 15.816 114.202 15.816C114.826 15.816 115.378 15.952 115.858 16.224C116.338 16.496 116.706 16.872 116.962 17.352C117.226 17.824 117.358 18.36 117.358 18.96ZM116.23 18.732C116.23 18.316 116.138 17.96 115.954 17.664C115.77 17.36 115.518 17.132 115.198 16.98C114.886 16.82 114.538 16.74 114.154 16.74C113.602 16.74 113.13 16.916 112.738 17.268C112.354 17.62 112.134 18.108 112.078 18.732H116.23ZM127.559 15.924L125.507 22.5H124.379L122.795 17.28L121.211 22.5H120.083L118.019 15.924H119.135L120.647 21.444L122.279 15.924H123.395L124.991 21.456L126.479 15.924H127.559ZM130.971 22.608C130.467 22.608 130.015 22.524 129.615 22.356C129.215 22.18 128.899 21.94 128.667 21.636C128.435 21.324 128.307 20.968 128.283 20.568H129.411C129.443 20.896 129.595 21.164 129.867 21.372C130.147 21.58 130.511 21.684 130.959 21.684C131.375 21.684 131.703 21.592 131.943 21.408C132.183 21.224 132.303 20.992 132.303 20.712C132.303 20.424 132.175 20.212 131.919 20.076C131.663 19.932 131.267 19.792 130.731 19.656C130.243 19.528 129.843 19.4 129.531 19.272C129.227 19.136 128.963 18.94 128.739 18.684C128.523 18.42 128.415 18.076 128.415 17.652C128.415 17.316 128.515 17.008 128.715 16.728C128.915 16.448 129.199 16.228 129.567 16.068C129.935 15.9 130.355 15.816 130.827 15.816C131.555 15.816 132.143 16 132.591 16.368C133.039 16.736 133.279 17.24 133.311 17.88H132.219C132.195 17.536 132.055 17.26 131.799 17.052C131.551 16.844 131.215 16.74 130.791 16.74C130.399 16.74 130.087 16.824 129.855 16.992C129.623 17.16 129.507 17.38 129.507 17.652C129.507 17.868 129.575 18.048 129.711 18.192C129.855 18.328 130.031 18.44 130.239 18.528C130.455 18.608 130.751 18.7 131.127 18.804C131.599 18.932 131.983 19.06 132.279 19.188C132.575 19.308 132.827 19.492 133.035 19.74C133.251 19.988 133.363 20.312 133.371 20.712C133.371 21.072 133.271 21.396 133.071 21.684C132.871 21.972 132.587 22.2 132.219 22.368C131.859 22.528 131.443 22.608 130.971 22.608Z" fill="white"/>
<defs>
<clipPath id="paint0_diamond_45_5056_clip_path"><path d="M0 15C0 6.71573 6.71573 0 15 0H137C145.284 0 152 6.71573 152 15V22C152 30.2843 145.284 37 137 37H15C6.71573 37 0 30.2843 0 22V15Z"/></clipPath><clipPath id="paint1_diamond_45_5056_clip_path"><path d="M15 0V1H137V0V-1H15V0ZM152 15H151V22H152H153V15H152ZM137 37V36H15V37V38H137V37ZM0 22H1V15H0H-1V22H0ZM15 37V36C7.26801 36 1 29.732 1 22H0H-1C-1 30.8366 6.16344 38 15 38V37ZM152 22H151C151 29.732 144.732 36 137 36V37V38C145.837 38 153 30.8366 153 22H152ZM137 0V1C144.732 1 151 7.26801 151 15H152H153C153 6.16344 145.837 -1 137 -1V0ZM15 0V-1C6.16344 -1 -1 6.16344 -1 15H0H1C1 7.26801 7.26801 1 15 1V0Z" mask="url(#path-1-inside-1_45_5056)"/></clipPath><linearGradient id="paint0_diamond_45_5056" x1="0" y1="0" x2="500" y2="500" gradientUnits="userSpaceOnUse">
<stop stop-color="#5283F6"/>
<stop offset="1" stop-color="#A7A7FF"/>
</linearGradient>
<linearGradient id="paint1_diamond_45_5056" x1="0" y1="0" x2="500" y2="500" gradientUnits="userSpaceOnUse">
<stop offset="0.0272635" stop-color="#0030B7"/>
<stop offset="0.296742" stop-color="#D3CFCF"/>
<stop offset="0.769276" stop-color="#5961E2"/>
</linearGradient>
</defs>
</svg>
