<svg width="159" height="29" viewBox="0 0 159 29" fill="none" xmlns="http://www.w3.org/2000/svg">
<rect y="2" width="25" height="25" rx="12.5" fill="#E5E5E5"/>
<path d="M7.55938 19.5344L9.54125 18.8734L9.88813 19.0469C10.685 19.4444 11.5709 19.6562 12.5 19.6562C15.6031 19.6562 18.125 17.2131 18.125 14.5C18.125 11.7869 15.6031 9.34375 12.5 9.34375C9.39688 9.34375 6.875 11.7869 6.875 14.5C6.875 15.5125 7.24063 16.54 7.91281 17.4184L8.23625 17.8403L7.55844 19.5334L7.55938 19.5344ZM6.89656 20.7437C6.81173 20.7722 6.72052 20.7757 6.63373 20.754C6.54694 20.7322 6.46819 20.6861 6.40677 20.621C6.34536 20.556 6.30384 20.4747 6.28714 20.3868C6.27043 20.2989 6.27923 20.2081 6.3125 20.125L7.1675 17.9875C6.3875 16.9656 5.9375 15.7431 5.9375 14.5C5.9375 11.3931 8.75 8.40625 12.5 8.40625C16.25 8.40625 19.0625 11.3931 19.0625 14.5C19.0625 17.6069 16.25 20.5938 12.5 20.5938C11.4483 20.5967 10.4104 20.354 9.46906 19.885L6.89656 20.7428V20.7437Z" fill="#656565"/>
<path d="M10.1562 15.4375H14.8438C15.1562 15.4375 15.3125 15.5938 15.3125 15.9062C15.3125 16.2188 15.1562 16.375 14.8438 16.375H10.1562C9.84375 16.375 9.6875 16.2188 9.6875 15.9062C9.6875 15.5938 9.84375 15.4375 10.1562 15.4375ZM10.625 12.625H14.375C14.6875 12.625 14.8438 12.7812 14.8438 13.0938C14.8438 13.4062 14.6875 13.5625 14.375 13.5625H10.625C10.3125 13.5625 10.1562 13.4062 10.1562 13.0938C10.1562 12.7812 10.3125 12.625 10.625 12.625Z" fill="#656565"/>
<rect x="41" width="77" height="29" rx="14.5" fill="url(#paint0_linear_45_4529)"/>
<line x1="81.5" y1="4" x2="81.5" y2="25" stroke="white" stroke-opacity="0.3"/>
<path d="M59.6875 8.875H60.625C60.8736 8.875 61.1121 8.97377 61.2879 9.14959C61.4637 9.3254 61.5625 9.56386 61.5625 9.8125V19.1875C61.5625 19.4361 61.4637 19.6746 61.2879 19.8504C61.1121 20.0262 60.8736 20.125 60.625 20.125H59.6875C59.4389 20.125 59.2004 20.0262 59.0246 19.8504C58.8488 19.6746 58.75 19.4361 58.75 19.1875V9.8125C58.75 9.56386 58.8488 9.3254 59.0246 9.14959C59.2004 8.97377 59.4389 8.875 59.6875 8.875ZM64.375 8.875H65.3125C65.5611 8.875 65.7996 8.97377 65.9754 9.14959C66.1512 9.3254 66.25 9.56386 66.25 9.8125V19.1875C66.25 19.4361 66.1512 19.6746 65.9754 19.8504C65.7996 20.0262 65.5611 20.125 65.3125 20.125H64.375C64.1264 20.125 63.8879 20.0262 63.7121 19.8504C63.5363 19.6746 63.4375 19.4361 63.4375 19.1875V9.8125C63.4375 9.56386 63.5363 9.3254 63.7121 9.14959C63.8879 8.97377 64.1264 8.875 64.375 8.875Z" fill="white"/>
<path d="M91 18.1667V10.8333C91 10.3292 91.1797 9.89772 91.539 9.539C91.8983 9.18028 92.3298 9.00061 92.8333 9H100.167C100.671 9 101.103 9.17967 101.462 9.539C101.821 9.89833 102.001 10.3298 102 10.8333V18.1667C102 18.6708 101.821 19.1026 101.462 19.4619C101.103 19.8212 100.671 20.0006 100.167 20H92.8333C92.3292 20 91.8977 19.8206 91.539 19.4619C91.1803 19.1032 91.0006 18.6714 91 18.1667Z" fill="white"/>
<rect x="134" y="2" width="25" height="25" rx="12.5" fill="#E5E5E5"/>
<path d="M144.25 12.75H145.125V18H144.25V12.75ZM146.875 12.75H147.75V18H146.875V12.75Z" fill="#FF0606"/>
<path d="M140.75 10.125V11H141.625V19.75C141.625 19.9821 141.717 20.2046 141.881 20.3687C142.045 20.5328 142.268 20.625 142.5 20.625H149.5C149.732 20.625 149.955 20.5328 150.119 20.3687C150.283 20.2046 150.375 19.9821 150.375 19.75V11H151.25V10.125H140.75ZM142.5 19.75V11H149.5V19.75H142.5ZM144.25 8.375H147.75V9.25H144.25V8.375Z" fill="#FF0606"/>
<defs>
<linearGradient id="paint0_linear_45_4529" x1="25.5" y1="4.5" x2="118" y2="15" gradientUnits="userSpaceOnUse">
<stop stop-color="#22428E"/>
<stop offset="1" stop-color="#6C6CFF"/>
</linearGradient>
</defs>
</svg>
