<svg width="45" height="45" viewBox="0 0 45 45" fill="none" xmlns="http://www.w3.org/2000/svg">
<mask id="path-1-inside-1_45_4613" fill="white">
<path d="M0 22.5C0 10.0736 10.0736 0 22.5 0C34.9264 0 45 10.0736 45 22.5C45 34.9264 34.9264 45 22.5 45C10.0736 45 0 34.9264 0 22.5Z"/>
</mask>
<path d="M0 22.5C0 10.0736 10.0736 0 22.5 0C34.9264 0 45 10.0736 45 22.5C45 34.9264 34.9264 45 22.5 45C10.0736 45 0 34.9264 0 22.5Z" fill="#8383E8" fill-opacity="0.13"/>
<g clip-path="url(#paint0_diamond_45_4613_clip_path)" data-figma-skip-parse="true" mask="url(#path-1-inside-1_45_4613)"><g transform="matrix(0.0382283 0.049087 -0.049087 0.0382283 -3.5 -8)"><rect x="0" y="0" width="1173.62" height="558.576" fill="url(#paint0_diamond_45_4613)" opacity="1" shape-rendering="crispEdges"/><rect x="0" y="0" width="1173.62" height="558.576" transform="scale(1 -1)" fill="url(#paint0_diamond_45_4613)" opacity="1" shape-rendering="crispEdges"/><rect x="0" y="0" width="1173.62" height="558.576" transform="scale(-1 1)" fill="url(#paint0_diamond_45_4613)" opacity="1" shape-rendering="crispEdges"/><rect x="0" y="0" width="1173.62" height="558.576" transform="scale(-1)" fill="url(#paint0_diamond_45_4613)" opacity="1" shape-rendering="crispEdges"/></g></g><path d="M22.5 45V44C10.6259 44 1 34.3741 1 22.5H0H-1C-1 35.4787 9.52131 46 22.5 46V45ZM45 22.5H44C44 34.3741 34.3741 44 22.5 44V45V46C35.4787 46 46 35.4787 46 22.5H45ZM22.5 0V1C34.3741 1 44 10.6259 44 22.5H45H46C46 9.52131 35.4787 -1 22.5 -1V0ZM22.5 0V-1C9.52131 -1 -1 9.52131 -1 22.5H0H1C1 10.6259 10.6259 1 22.5 1V0Z" data-figma-gradient-fill="{&#34;type&#34;:&#34;GRADIENT_DIAMOND&#34;,&#34;stops&#34;:[{&#34;color&#34;:{&#34;r&#34;:0.0,&#34;g&#34;:0.18740472197532654,&#34;b&#34;:0.71730768680572510,&#34;a&#34;:1.0},&#34;position&#34;:0.027263522148132324},{&#34;color&#34;:{&#34;r&#34;:0.82692307233810425,&#34;g&#34;:0.81102073192596436,&#34;b&#34;:0.81102073192596436,&#34;a&#34;:1.0},&#34;position&#34;:0.29674249887466431},{&#34;color&#34;:{&#34;r&#34;:0.34901961684226990,&#34;g&#34;:0.38039216399192810,&#34;b&#34;:0.88627451658248901,&#34;a&#34;:1.0},&#34;position&#34;:0.7692759633064270}],&#34;stopsVar&#34;:[{&#34;color&#34;:{&#34;r&#34;:0.0,&#34;g&#34;:0.18740472197532654,&#34;b&#34;:0.71730768680572510,&#34;a&#34;:1.0},&#34;position&#34;:0.027263522148132324},{&#34;color&#34;:{&#34;r&#34;:0.82692307233810425,&#34;g&#34;:0.81102073192596436,&#34;b&#34;:0.81102073192596436,&#34;a&#34;:1.0},&#34;position&#34;:0.29674249887466431},{&#34;color&#34;:{&#34;r&#34;:0.34901961684226990,&#34;g&#34;:0.38039216399192810,&#34;b&#34;:0.88627451658248901,&#34;a&#34;:1.0},&#34;position&#34;:0.7692759633064270}],&#34;transform&#34;:{&#34;m00&#34;:76.456527709960938,&#34;m01&#34;:-98.173919677734375,&#34;m02&#34;:7.3586978912353516,&#34;m10&#34;:98.173919677734375,&#34;m11&#34;:76.456527709960938,&#34;m12&#34;:-95.315223693847656},&#34;opacity&#34;:1.0,&#34;blendMode&#34;:&#34;NORMAL&#34;,&#34;visible&#34;:true}" mask="url(#path-1-inside-1_45_4613)"/>
<rect x="9" y="15.2499" width="18.027" height="14.8919" rx="5" fill="#335EC3"/>
<path d="M20.8242 21.8298C21.4909 22.2147 21.4909 23.177 20.8242 23.5619L17.358 25.5631C16.6913 25.948 15.858 25.4669 15.858 24.6971L15.858 20.6946C15.858 19.9248 16.6913 19.4437 17.358 19.8286L20.8242 21.8298Z" fill="#C5D2E5"/>
<path d="M24.9324 24.232C23.599 23.4622 23.599 21.5377 24.9324 20.7679L30.983 17.2746C32.3164 16.5048 33.9831 17.467 33.9831 19.0066L33.9831 25.9934C33.9831 27.533 32.3164 28.4952 30.9831 27.7254L24.9324 24.232Z" fill="#335EC3"/>
<rect x="27.0271" y="18.385" width="0.783784" height="7.83784" fill="#CAD6E5"/>
<defs>
<clipPath id="paint0_diamond_45_4613_clip_path"><path d="M22.5 45V44C10.6259 44 1 34.3741 1 22.5H0H-1C-1 35.4787 9.52131 46 22.5 46V45ZM45 22.5H44C44 34.3741 34.3741 44 22.5 44V45V46C35.4787 46 46 35.4787 46 22.5H45ZM22.5 0V1C34.3741 1 44 10.6259 44 22.5H45H46C46 9.52131 35.4787 -1 22.5 -1V0ZM22.5 0V-1C9.52131 -1 -1 9.52131 -1 22.5H0H1C1 10.6259 10.6259 1 22.5 1V0Z" mask="url(#path-1-inside-1_45_4613)"/></clipPath><linearGradient id="paint0_diamond_45_4613" x1="0" y1="0" x2="500" y2="500" gradientUnits="userSpaceOnUse">
<stop offset="0.0272635" stop-color="#0030B7"/>
<stop offset="0.296742" stop-color="#D3CFCF"/>
<stop offset="0.769276" stop-color="#5961E2"/>
</linearGradient>
</defs>
</svg>
