<svg width="45" height="45" viewBox="0 0 45 45" fill="none" xmlns="http://www.w3.org/2000/svg">
<mask id="path-1-inside-1_45_4619" fill="white">
<path d="M0 22.5C0 10.0736 10.0736 0 22.5 0C34.9264 0 45 10.0736 45 22.5C45 34.9264 34.9264 45 22.5 45C10.0736 45 0 34.9264 0 22.5Z"/>
</mask>
<path d="M0 22.5C0 10.0736 10.0736 0 22.5 0C34.9264 0 45 10.0736 45 22.5C45 34.9264 34.9264 45 22.5 45C10.0736 45 0 34.9264 0 22.5Z" fill="#8383E8" fill-opacity="0.13"/>
<g clip-path="url(#paint0_diamond_45_4619_clip_path)" data-figma-skip-parse="true" mask="url(#path-1-inside-1_45_4619)"><g transform="matrix(0.0382283 0.049087 -0.049087 0.0382283 -3.5 -8)"><rect x="0" y="0" width="1173.62" height="558.576" fill="url(#paint0_diamond_45_4619)" opacity="1" shape-rendering="crispEdges"/><rect x="0" y="0" width="1173.62" height="558.576" transform="scale(1 -1)" fill="url(#paint0_diamond_45_4619)" opacity="1" shape-rendering="crispEdges"/><rect x="0" y="0" width="1173.62" height="558.576" transform="scale(-1 1)" fill="url(#paint0_diamond_45_4619)" opacity="1" shape-rendering="crispEdges"/><rect x="0" y="0" width="1173.62" height="558.576" transform="scale(-1)" fill="url(#paint0_diamond_45_4619)" opacity="1" shape-rendering="crispEdges"/></g></g><path d="M22.5 45V44C10.6259 44 1 34.3741 1 22.5H0H-1C-1 35.4787 9.52131 46 22.5 46V45ZM45 22.5H44C44 34.3741 34.3741 44 22.5 44V45V46C35.4787 46 46 35.4787 46 22.5H45ZM22.5 0V1C34.3741 1 44 10.6259 44 22.5H45H46C46 9.52131 35.4787 -1 22.5 -1V0ZM22.5 0V-1C9.52131 -1 -1 9.52131 -1 22.5H0H1C1 10.6259 10.6259 1 22.5 1V0Z" data-figma-gradient-fill="{&#34;type&#34;:&#34;GRADIENT_DIAMOND&#34;,&#34;stops&#34;:[{&#34;color&#34;:{&#34;r&#34;:0.0,&#34;g&#34;:0.18740472197532654,&#34;b&#34;:0.71730768680572510,&#34;a&#34;:1.0},&#34;position&#34;:0.027263522148132324},{&#34;color&#34;:{&#34;r&#34;:0.82692307233810425,&#34;g&#34;:0.81102073192596436,&#34;b&#34;:0.81102073192596436,&#34;a&#34;:1.0},&#34;position&#34;:0.29674249887466431},{&#34;color&#34;:{&#34;r&#34;:0.34901961684226990,&#34;g&#34;:0.38039216399192810,&#34;b&#34;:0.88627451658248901,&#34;a&#34;:1.0},&#34;position&#34;:0.7692759633064270}],&#34;stopsVar&#34;:[{&#34;color&#34;:{&#34;r&#34;:0.0,&#34;g&#34;:0.18740472197532654,&#34;b&#34;:0.71730768680572510,&#34;a&#34;:1.0},&#34;position&#34;:0.027263522148132324},{&#34;color&#34;:{&#34;r&#34;:0.82692307233810425,&#34;g&#34;:0.81102073192596436,&#34;b&#34;:0.81102073192596436,&#34;a&#34;:1.0},&#34;position&#34;:0.29674249887466431},{&#34;color&#34;:{&#34;r&#34;:0.34901961684226990,&#34;g&#34;:0.38039216399192810,&#34;b&#34;:0.88627451658248901,&#34;a&#34;:1.0},&#34;position&#34;:0.7692759633064270}],&#34;transform&#34;:{&#34;m00&#34;:76.456527709960938,&#34;m01&#34;:-98.173919677734375,&#34;m02&#34;:7.3586978912353516,&#34;m10&#34;:98.173919677734375,&#34;m11&#34;:76.456527709960938,&#34;m12&#34;:-95.315223693847656},&#34;opacity&#34;:1.0,&#34;blendMode&#34;:&#34;NORMAL&#34;,&#34;visible&#34;:true}" mask="url(#path-1-inside-1_45_4619)"/>
<path fill-rule="evenodd" clip-rule="evenodd" d="M18.75 15.75C18.75 14.7554 19.1451 13.8016 19.8483 13.0983C20.5516 12.3951 21.5054 12 22.5 12C23.4946 12 24.4484 12.3951 25.1517 13.0983C25.8549 13.8016 26.25 14.7554 26.25 15.75V22.5C26.25 23.4946 25.8549 24.4484 25.1517 25.1517C24.4484 25.8549 23.4946 26.25 22.5 26.25C21.5054 26.25 20.5516 25.8549 19.8483 25.1517C19.1451 24.4484 18.75 23.4946 18.75 22.5V15.75ZM17.25 19.5V22.5C17.25 23.8924 17.8031 25.2277 18.7877 26.2123C19.7723 27.1969 21.1076 27.75 22.5 27.75C23.8924 27.75 25.2277 27.1969 26.2123 26.2123C27.1969 25.2277 27.75 23.8924 27.75 22.5V19.5H29.25V22.5C29.2503 24.1606 28.6385 25.763 27.5316 27.0008C26.4247 28.2386 24.9003 29.025 23.25 29.2095V31.5H28.5V33H16.5V31.5H21.75V29.2095C20.0997 29.025 18.5753 28.2386 17.4684 27.0008C16.3615 25.763 15.7497 24.1606 15.75 22.5V19.5H17.25Z" fill="#345EC3"/>
<defs>
<clipPath id="paint0_diamond_45_4619_clip_path"><path d="M22.5 45V44C10.6259 44 1 34.3741 1 22.5H0H-1C-1 35.4787 9.52131 46 22.5 46V45ZM45 22.5H44C44 34.3741 34.3741 44 22.5 44V45V46C35.4787 46 46 35.4787 46 22.5H45ZM22.5 0V1C34.3741 1 44 10.6259 44 22.5H45H46C46 9.52131 35.4787 -1 22.5 -1V0ZM22.5 0V-1C9.52131 -1 -1 9.52131 -1 22.5H0H1C1 10.6259 10.6259 1 22.5 1V0Z" mask="url(#path-1-inside-1_45_4619)"/></clipPath><linearGradient id="paint0_diamond_45_4619" x1="0" y1="0" x2="500" y2="500" gradientUnits="userSpaceOnUse">
<stop offset="0.0272635" stop-color="#0030B7"/>
<stop offset="0.296742" stop-color="#D3CFCF"/>
<stop offset="0.769276" stop-color="#5961E2"/>
</linearGradient>
</defs>
</svg>
