<svg width="33" height="23" viewBox="0 0 33 23" fill="none" xmlns="http://www.w3.org/2000/svg">
<g clip-path="url(#clip0_45_4605)">
<path d="M32.2712 3.58736C32.0819 2.89398 31.7127 2.26185 31.2003 1.75391C30.6879 1.24598 30.0502 0.879956 29.3507 0.6923C26.7898 0 16.4833 0 16.4833 0C16.4833 0 6.17618 0.0209555 3.61533 0.713256C2.91582 0.900923 2.27811 1.26696 1.76571 1.77492C1.25331 2.28288 0.884092 2.91504 0.694829 3.60844C-0.0797682 8.11874 -0.380249 14.9914 0.716099 19.3213C0.905381 20.0147 1.27461 20.6468 1.78701 21.1547C2.29941 21.6627 2.9371 22.0287 3.6366 22.2163C6.19745 22.9086 16.5043 22.9086 16.5043 22.9086C16.5043 22.9086 26.811 22.9086 29.3717 22.2163C30.0712 22.0287 30.7089 21.6627 31.2214 21.1548C31.7338 20.6468 32.103 20.0147 32.2923 19.3213C33.1093 14.8046 33.3611 7.93615 32.2712 3.58736Z" fill="#FF0000"/>
<path d="M13.2026 16.3632L21.7527 11.4543L13.2026 6.54529V16.3632Z" fill="white"/>
</g>
<defs>
<clipPath id="clip0_45_4605">
<rect width="33" height="23" fill="white"/>
</clipPath>
</defs>
</svg>
