<svg width="18" height="18" viewBox="0 0 18 18" fill="none" xmlns="http://www.w3.org/2000/svg">
<path d="M8.99474 7.73022V12.8857M6.42224 10.308H11.5777" stroke="#1A2969" stroke-width="1.5" stroke-miterlimit="10" stroke-linecap="round"/>
<path d="M15.9375 7.41221V13.1857C15.9375 13.799 15.6939 14.3871 15.2603 14.8207C14.8266 15.2543 14.2385 15.498 13.6252 15.498H4.37475C3.7615 15.498 3.17337 15.2543 2.73974 14.8207C2.30611 14.3871 2.0625 13.799 2.0625 13.1857V4.8142C2.0625 4.20096 2.30611 3.61283 2.73974 3.1792C3.17337 2.74557 3.7615 2.50195 4.37475 2.50195H6.68775C7.06934 2.5015 7.44509 2.59559 7.78144 2.77581C8.11779 2.95602 8.40426 3.21675 8.61525 3.5347L9.27 4.5292C9.39015 4.70696 9.55204 4.85254 9.74149 4.95322C9.93095 5.0539 10.1422 5.1066 10.3568 5.1067H13.6252C14.2373 5.1069 14.8243 5.34965 15.2577 5.78178C15.6911 6.21391 15.9355 6.80019 15.9375 7.41221Z" stroke="#1A2969" stroke-width="1.5" stroke-linecap="round" stroke-linejoin="round"/>
</svg>
