<svg width="25" height="25" viewBox="0 0 25 25" fill="none" xmlns="http://www.w3.org/2000/svg">
<path d="M8.33331 11.4586C8.33331 11.1823 8.44306 10.9173 8.63841 10.722C8.83376 10.5266 9.09871 10.4169 9.37498 10.4169H15.625C15.9012 10.4169 16.1662 10.5266 16.3615 10.722C16.5569 10.9173 16.6666 11.1823 16.6666 11.4586C16.6666 11.7348 16.5569 11.9998 16.3615 12.1951C16.1662 12.3905 15.9012 12.5002 15.625 12.5002H9.37498C9.09871 12.5002 8.83376 12.3905 8.63841 12.1951C8.44306 11.9998 8.33331 11.7348 8.33331 11.4586ZM9.37498 14.5836C9.09871 14.5836 8.83376 14.6933 8.63841 14.8887C8.44306 15.084 8.33331 15.349 8.33331 15.6252C8.33331 15.9015 8.44306 16.1664 8.63841 16.3618C8.83376 16.5571 9.09871 16.6669 9.37498 16.6669H13.5416C13.8179 16.6669 14.0829 16.5571 14.2782 16.3618C14.4736 16.1664 14.5833 15.9015 14.5833 15.6252C14.5833 15.349 14.4736 15.084 14.2782 14.8887C14.0829 14.6933 13.8179 14.5836 13.5416 14.5836H9.37498ZM2.08331 12.5002C2.08384 10.2165 2.83486 7.99618 4.2208 6.18105C5.60674 4.36592 7.55078 3.05656 9.75373 2.45447C11.9567 1.85238 14.2965 1.99094 16.413 2.84882C18.5295 3.7067 20.3054 5.23636 21.4674 7.20238C22.6294 9.1684 23.1131 11.4618 22.8441 13.7297C22.5751 15.9975 21.5683 18.1141 19.9785 19.7537C18.3888 21.3933 16.3043 22.465 14.0458 22.8039C11.7874 23.1428 9.4801 22.7302 7.47915 21.6294L3.42915 22.8627C3.2485 22.9178 3.0563 22.9226 2.87309 22.8769C2.68988 22.8311 2.52257 22.7364 2.38904 22.6028C2.25551 22.4693 2.16079 22.302 2.11501 22.1188C2.06923 21.9356 2.07412 21.7434 2.12915 21.5627L3.36248 17.5065C2.52241 15.9716 2.08248 14.2499 2.08331 12.5002ZM12.5 4.16689C11.0207 4.16677 9.56802 4.56042 8.29119 5.30742C7.01435 6.05443 5.95938 7.12785 5.23462 8.41744C4.50986 9.70703 4.14145 11.1663 4.16721 12.6454C4.19298 14.1244 4.612 15.57 5.38123 16.8336C5.45759 16.9591 5.50653 17.0993 5.52484 17.2451C5.54316 17.3909 5.53042 17.5389 5.48748 17.6794L4.68956 20.3023L7.30831 19.5044C7.44927 19.4614 7.59773 19.4489 7.7439 19.4676C7.89006 19.4862 8.0306 19.5357 8.15623 19.6127C9.25452 20.2833 10.4932 20.6904 11.7751 20.8021C13.0571 20.9138 14.3475 20.7271 15.5452 20.2567C16.7429 19.7863 17.8155 19.0448 18.6787 18.0905C19.5419 17.1362 20.1724 15.995 20.5208 14.7562C20.8692 13.5175 20.9259 12.2149 20.6866 10.9505C20.4473 9.68617 19.9185 8.49441 19.1415 7.46864C18.3646 6.44287 17.3606 5.61097 16.2083 5.03813C15.0561 4.4653 13.7868 4.16709 12.5 4.16689Z" fill="#1A2969"/>
</svg>
