<svg width="20" height="20" viewBox="0 0 20 20" fill="none" xmlns="http://www.w3.org/2000/svg">
<path d="M16.25 10C16.25 9.83424 16.3158 9.67527 16.4331 9.55806C16.5503 9.44085 16.7092 9.375 16.875 9.375C17.0408 9.375 17.1997 9.44085 17.3169 9.55806C17.4342 9.67527 17.5 9.83424 17.5 10V16.875C17.5 17.0408 17.4342 17.1997 17.3169 17.3169C17.1997 17.4342 17.0408 17.5 16.875 17.5H3.125C2.95924 17.5 2.80027 17.4342 2.68306 17.3169C2.56585 17.1997 2.5 17.0408 2.5 16.875V3.125C2.5 2.95924 2.56585 2.80027 2.68306 2.68306C2.80027 2.56585 2.95924 2.5 3.125 2.5H10C10.1658 2.5 10.3247 2.56585 10.4419 2.68306C10.5592 2.80027 10.625 2.95924 10.625 3.125C10.625 3.29076 10.5592 3.44973 10.4419 3.56694C10.3247 3.68415 10.1658 3.75 10 3.75H3.75V16.25H16.25V10Z" fill="black"/>
<path d="M9.17873 10.8251L10.21 10.6776L16.545 4.34382C16.6047 4.28616 16.6523 4.2172 16.685 4.14095C16.7178 4.06469 16.735 3.98268 16.7358 3.89969C16.7365 3.81671 16.7207 3.73441 16.6892 3.6576C16.6578 3.58079 16.6114 3.511 16.5527 3.45232C16.494 3.39364 16.4243 3.34723 16.3475 3.3158C16.2706 3.28438 16.1883 3.26857 16.1054 3.26929C16.0224 3.27001 15.9404 3.28725 15.8641 3.32001C15.7879 3.35276 15.7189 3.40037 15.6612 3.46007L9.32498 9.79382L9.17748 10.8251H9.17873ZM17.4287 2.57507C17.603 2.74919 17.7412 2.95595 17.8355 3.18351C17.9298 3.41107 17.9783 3.65499 17.9783 3.90132C17.9783 4.14765 17.9298 4.39156 17.8355 4.61913C17.7412 4.84669 17.603 5.05344 17.4287 5.22757L10.9475 11.7088C10.8519 11.8047 10.7278 11.867 10.5937 11.8863L8.53123 12.1813C8.43511 12.1951 8.3371 12.1863 8.24496 12.1557C8.15283 12.125 8.06911 12.0733 8.00044 12.0046C7.93178 11.9359 7.88006 11.8522 7.84938 11.7601C7.81871 11.668 7.80993 11.5699 7.82373 11.4738L8.11873 9.41132C8.13767 9.27744 8.19951 9.15332 8.29498 9.05757L14.7775 2.57632C15.1291 2.22481 15.6059 2.02734 16.1031 2.02734C16.6003 2.02734 17.0771 2.22481 17.4287 2.57632V2.57507Z" fill="black"/>
</svg>
