<svg width="25" height="25" viewBox="0 0 25 25" fill="none" xmlns="http://www.w3.org/2000/svg">
<path d="M12.5 3.12498L12.8073 2.40623C12.7102 2.36468 12.6056 2.34326 12.5 2.34326C12.3943 2.34326 12.2898 2.36468 12.1927 2.40623L12.5 3.12498ZM12.5 21.875L12.1125 22.5531C12.2305 22.6205 12.3641 22.656 12.5 22.656C12.6359 22.656 12.7695 22.6205 12.8875 22.5531L12.5 21.875ZM12.1916 2.40728L5.53331 5.2604L6.14581 6.6979L12.8062 3.84373L12.1916 2.40728ZM4.42706 6.93644V14.0823H5.98956V6.93644H4.42706ZM7.96977 20.1864L12.1125 22.5531L12.8875 21.1969L8.74477 18.8292L7.96977 20.1864ZM12.8875 22.5531L17.0302 20.1864L16.2552 18.8292L12.1125 21.1969L12.8875 22.5531ZM20.5729 14.0812V6.93748H19.0104V14.0833L20.5729 14.0812ZM19.4687 5.26144L12.8073 2.40728L12.1927 3.84269L18.8531 6.6979L19.4687 5.26144ZM20.5729 6.93748C20.5729 6.20832 20.1385 5.54894 19.4687 5.26144L18.8531 6.6979C18.8999 6.71807 18.9397 6.75152 18.9677 6.79411C18.9956 6.83669 19.0105 6.88654 19.0104 6.93748H20.5729ZM17.0302 20.1864C18.1063 19.5715 19.0008 18.683 19.6229 17.6111C20.2451 16.5391 20.5728 15.3217 20.5729 14.0823H19.0104C19.0102 15.0461 18.7553 15.9928 18.2714 16.8264C17.7876 17.66 17.092 18.3509 16.2552 18.8292L17.0302 20.1864ZM4.42706 14.0823C4.42717 15.3217 4.75491 16.5391 5.37705 17.6111C5.9992 18.683 6.89365 19.5715 7.96977 20.1864L8.74477 18.8292C7.9078 18.3508 7.21214 17.6597 6.72829 16.8259C6.24443 15.9921 5.98959 15.0453 5.98956 14.0812L4.42706 14.0823ZM5.53123 5.2604C5.20353 5.401 4.92426 5.63462 4.728 5.93234C4.53174 6.23007 4.42711 6.57985 4.42706 6.93644H5.98956C5.98956 6.83228 6.05206 6.73748 6.1479 6.69582L5.53123 5.2604Z" fill="#1A2969"/>
</svg>
