<svg width="13" height="14" viewBox="0 0 13 14" fill="none" xmlns="http://www.w3.org/2000/svg">
<path fill-rule="evenodd" clip-rule="evenodd" d="M5.78243 1.31811e-08C4.86029 7.94166e-05 3.95153 0.223045 3.13199 0.650296C2.31244 1.07755 1.60586 1.69669 1.07121 2.45608C0.536557 3.21546 0.189331 4.09307 0.0584995 5.01567C-0.0723317 5.93827 0.0170265 6.87912 0.319119 7.75972C0.621211 8.64032 1.12728 9.43513 1.7951 10.0778C2.46292 10.7206 3.27312 11.1925 4.15812 11.4544C5.04312 11.7163 5.97724 11.7604 6.88256 11.5832C7.78788 11.406 8.63814 11.0125 9.3624 10.4356L11.847 12.9469C11.9753 13.0721 12.1472 13.1414 12.3256 13.1399C12.504 13.1383 12.6746 13.066 12.8007 12.9385C12.9269 12.811 12.9984 12.6385 13 12.4582C13.0015 12.2779 12.933 12.1042 12.809 11.9745L10.3244 9.46329C10.9966 8.60141 11.4151 7.56568 11.5321 6.47462C11.6491 5.38356 11.4598 4.28125 10.9859 3.29385C10.5119 2.30646 9.77257 1.47386 8.85235 0.891339C7.93212 0.308823 6.86823 -7.36759e-05 5.78243 1.31811e-08ZM1.3602 5.84493C1.3602 4.65951 1.82611 3.52263 2.65544 2.68441C3.48477 1.84619 4.60958 1.37528 5.78243 1.37528C6.95528 1.37528 8.08009 1.84619 8.90942 2.68441C9.73875 3.52263 10.2047 4.65951 10.2047 5.84493C10.2047 7.03036 9.73875 8.16723 8.90942 9.00545C8.08009 9.84368 6.95528 10.3146 5.78243 10.3146C4.60958 10.3146 3.48477 9.84368 2.65544 9.00545C1.82611 8.16723 1.3602 7.03036 1.3602 5.84493Z" fill="#A1A1A1"/>
</svg>
