<svg width="24" height="24" viewBox="0 0 24 24" fill="none" xmlns="http://www.w3.org/2000/svg">
<path d="M6.327 19C6.18567 19 6.067 18.952 5.971 18.856C5.875 18.76 5.827 18.641 5.827 18.499C5.827 18.357 5.875 18.2383 5.971 18.143C6.067 18.0477 6.18567 18 6.327 18H17.673C17.815 18 17.9337 18.048 18.029 18.144C18.1243 18.24 18.1723 18.359 18.173 18.501C18.1737 18.643 18.1257 18.7617 18.029 18.857C17.9323 18.9523 17.8137 19 17.673 19H6.327ZM7.104 16.116C6.71067 16.116 6.368 15.9927 6.076 15.746C5.784 15.4993 5.59667 15.186 5.514 14.806L4.32 8.475C4.28667 8.48833 4.24933 8.49567 4.208 8.497C4.166 8.499 4.12833 8.5 4.095 8.5C3.781 8.5 3.52 8.39333 3.312 8.18C3.104 7.96667 3 7.708 3 7.404C3 7.08867 3.10433 6.82067 3.313 6.6C3.521 6.38 3.78233 6.27 4.097 6.27C4.41167 6.27 4.67933 6.38 4.9 6.6C5.12 6.82067 5.23 7.08867 5.23 7.404C5.23 7.47333 5.22733 7.53767 5.222 7.597C5.21667 7.65633 5.197 7.715 5.163 7.773L7.923 8.884C8.051 8.93533 8.17933 8.942 8.308 8.904C8.436 8.86533 8.54467 8.78833 8.634 8.673L11.336 5.013C11.1913 4.91833 11.0767 4.793 10.992 4.637C10.9073 4.48167 10.865 4.314 10.865 4.134C10.865 3.81933 10.9753 3.55167 11.196 3.331C11.416 3.11033 11.6837 3 11.999 3C12.3137 3 12.5817 3.11 12.803 3.33C13.0243 3.55 13.135 3.81667 13.135 4.13C13.135 4.31933 13.0927 4.49 13.008 4.642C12.9233 4.79533 12.8087 4.919 12.664 5.013L15.366 8.673C15.4553 8.78833 15.564 8.865 15.692 8.903C15.8207 8.94233 15.949 8.93633 16.077 8.885L18.837 7.773C18.819 7.71967 18.8033 7.66133 18.79 7.598C18.7767 7.534 18.77 7.46933 18.77 7.404C18.77 7.08867 18.874 6.82067 19.082 6.6C19.29 6.38 19.5513 6.27 19.866 6.27C20.1807 6.27 20.4483 6.38 20.669 6.6C20.8897 6.82067 21 7.08867 21 7.404C21 7.70667 20.8893 7.965 20.668 8.179C20.4467 8.393 20.178 8.5 19.862 8.5C19.8367 8.5 19.808 8.496 19.776 8.488C19.744 8.48 19.7087 8.47567 19.67 8.475L18.486 14.805C18.4027 15.1863 18.2153 15.5 17.924 15.746C17.6327 15.992 17.29 16.1153 16.896 16.116H7.104Z" fill="white"/>
</svg>
